G04 #@! TF.GenerationSoftware,KiCad,Pcbnew,5.1.4*
G04 #@! TF.CreationDate,2019-09-28T03:23:27+02:00*
G04 #@! TF.ProjectId,Stratosensor,53747261-746f-4736-956e-736f722e6b69,rev?*
G04 #@! TF.SameCoordinates,Original*
G04 #@! TF.FileFunction,Soldermask,Bot*
G04 #@! TF.FilePolarity,Negative*
%FSLAX46Y46*%
G04 Gerber Fmt 4.6, Leading zero omitted, Abs format (unit mm)*
G04 Created by KiCad (PCBNEW 5.1.4) date 2019-09-28 03:23:27*
%MOMM*%
%LPD*%
G04 APERTURE LIST*
%ADD10C,0.100000*%
G04 APERTURE END LIST*
D10*
G36*
X114320442Y-145995518D02*
G01*
X114386627Y-146002037D01*
X114556466Y-146053557D01*
X114712991Y-146137222D01*
X114748729Y-146166552D01*
X114850186Y-146249814D01*
X114933448Y-146351271D01*
X114962778Y-146387009D01*
X115046443Y-146543534D01*
X115097963Y-146713373D01*
X115115359Y-146890000D01*
X115097963Y-147066627D01*
X115046443Y-147236466D01*
X114962778Y-147392991D01*
X114933448Y-147428729D01*
X114850186Y-147530186D01*
X114748729Y-147613448D01*
X114712991Y-147642778D01*
X114556466Y-147726443D01*
X114386627Y-147777963D01*
X114320443Y-147784481D01*
X114254260Y-147791000D01*
X114165740Y-147791000D01*
X114099557Y-147784481D01*
X114033373Y-147777963D01*
X113863534Y-147726443D01*
X113707009Y-147642778D01*
X113671271Y-147613448D01*
X113569814Y-147530186D01*
X113486552Y-147428729D01*
X113457222Y-147392991D01*
X113373557Y-147236466D01*
X113322037Y-147066627D01*
X113304641Y-146890000D01*
X113322037Y-146713373D01*
X113373557Y-146543534D01*
X113457222Y-146387009D01*
X113486552Y-146351271D01*
X113569814Y-146249814D01*
X113671271Y-146166552D01*
X113707009Y-146137222D01*
X113863534Y-146053557D01*
X114033373Y-146002037D01*
X114099558Y-145995518D01*
X114165740Y-145989000D01*
X114254260Y-145989000D01*
X114320442Y-145995518D01*
X114320442Y-145995518D01*
G37*
G36*
X116860442Y-145995518D02*
G01*
X116926627Y-146002037D01*
X117096466Y-146053557D01*
X117252991Y-146137222D01*
X117288729Y-146166552D01*
X117390186Y-146249814D01*
X117473448Y-146351271D01*
X117502778Y-146387009D01*
X117586443Y-146543534D01*
X117637963Y-146713373D01*
X117655359Y-146890000D01*
X117637963Y-147066627D01*
X117586443Y-147236466D01*
X117502778Y-147392991D01*
X117473448Y-147428729D01*
X117390186Y-147530186D01*
X117288729Y-147613448D01*
X117252991Y-147642778D01*
X117096466Y-147726443D01*
X116926627Y-147777963D01*
X116860443Y-147784481D01*
X116794260Y-147791000D01*
X116705740Y-147791000D01*
X116639557Y-147784481D01*
X116573373Y-147777963D01*
X116403534Y-147726443D01*
X116247009Y-147642778D01*
X116211271Y-147613448D01*
X116109814Y-147530186D01*
X116026552Y-147428729D01*
X115997222Y-147392991D01*
X115913557Y-147236466D01*
X115862037Y-147066627D01*
X115844641Y-146890000D01*
X115862037Y-146713373D01*
X115913557Y-146543534D01*
X115997222Y-146387009D01*
X116026552Y-146351271D01*
X116109814Y-146249814D01*
X116211271Y-146166552D01*
X116247009Y-146137222D01*
X116403534Y-146053557D01*
X116573373Y-146002037D01*
X116639558Y-145995518D01*
X116705740Y-145989000D01*
X116794260Y-145989000D01*
X116860442Y-145995518D01*
X116860442Y-145995518D01*
G37*
G36*
X120191000Y-147791000D02*
G01*
X118389000Y-147791000D01*
X118389000Y-145989000D01*
X120191000Y-145989000D01*
X120191000Y-147791000D01*
X120191000Y-147791000D01*
G37*
G36*
X145375256Y-143391298D02*
G01*
X145481579Y-143412447D01*
X145782042Y-143536903D01*
X146052451Y-143717585D01*
X146282415Y-143947549D01*
X146463097Y-144217958D01*
X146587553Y-144518421D01*
X146651000Y-144837391D01*
X146651000Y-145162609D01*
X146587553Y-145481579D01*
X146463097Y-145782042D01*
X146282415Y-146052451D01*
X146052451Y-146282415D01*
X145782042Y-146463097D01*
X145481579Y-146587553D01*
X145375256Y-146608702D01*
X145162611Y-146651000D01*
X144837389Y-146651000D01*
X144624744Y-146608702D01*
X144518421Y-146587553D01*
X144217958Y-146463097D01*
X143947549Y-146282415D01*
X143717585Y-146052451D01*
X143536903Y-145782042D01*
X143412447Y-145481579D01*
X143349000Y-145162609D01*
X143349000Y-144837391D01*
X143412447Y-144518421D01*
X143536903Y-144217958D01*
X143717585Y-143947549D01*
X143947549Y-143717585D01*
X144217958Y-143536903D01*
X144518421Y-143412447D01*
X144624744Y-143391298D01*
X144837389Y-143349000D01*
X145162611Y-143349000D01*
X145375256Y-143391298D01*
X145375256Y-143391298D01*
G37*
G36*
X55375256Y-143391298D02*
G01*
X55481579Y-143412447D01*
X55782042Y-143536903D01*
X56052451Y-143717585D01*
X56282415Y-143947549D01*
X56463097Y-144217958D01*
X56587553Y-144518421D01*
X56651000Y-144837391D01*
X56651000Y-145162609D01*
X56587553Y-145481579D01*
X56463097Y-145782042D01*
X56282415Y-146052451D01*
X56052451Y-146282415D01*
X55782042Y-146463097D01*
X55481579Y-146587553D01*
X55375256Y-146608702D01*
X55162611Y-146651000D01*
X54837389Y-146651000D01*
X54624744Y-146608702D01*
X54518421Y-146587553D01*
X54217958Y-146463097D01*
X53947549Y-146282415D01*
X53717585Y-146052451D01*
X53536903Y-145782042D01*
X53412447Y-145481579D01*
X53349000Y-145162609D01*
X53349000Y-144837391D01*
X53412447Y-144518421D01*
X53536903Y-144217958D01*
X53717585Y-143947549D01*
X53947549Y-143717585D01*
X54217958Y-143536903D01*
X54518421Y-143412447D01*
X54624744Y-143391298D01*
X54837389Y-143349000D01*
X55162611Y-143349000D01*
X55375256Y-143391298D01*
X55375256Y-143391298D01*
G37*
G36*
X65075256Y-142851298D02*
G01*
X65181579Y-142872447D01*
X65482042Y-142996903D01*
X65752451Y-143177585D01*
X65982415Y-143407549D01*
X66163097Y-143677958D01*
X66287553Y-143978421D01*
X66351000Y-144297391D01*
X66351000Y-144622609D01*
X66287553Y-144941579D01*
X66163097Y-145242042D01*
X65982415Y-145512451D01*
X65752451Y-145742415D01*
X65482042Y-145923097D01*
X65181579Y-146047553D01*
X65075256Y-146068702D01*
X64862611Y-146111000D01*
X64537389Y-146111000D01*
X64324744Y-146068702D01*
X64218421Y-146047553D01*
X63917958Y-145923097D01*
X63647549Y-145742415D01*
X63417585Y-145512451D01*
X63236903Y-145242042D01*
X63112447Y-144941579D01*
X63049000Y-144622609D01*
X63049000Y-144297391D01*
X63112447Y-143978421D01*
X63236903Y-143677958D01*
X63417585Y-143407549D01*
X63647549Y-143177585D01*
X63917958Y-142996903D01*
X64218421Y-142872447D01*
X64324744Y-142851298D01*
X64537389Y-142809000D01*
X64862611Y-142809000D01*
X65075256Y-142851298D01*
X65075256Y-142851298D01*
G37*
G36*
X95075256Y-142851298D02*
G01*
X95181579Y-142872447D01*
X95482042Y-142996903D01*
X95752451Y-143177585D01*
X95982415Y-143407549D01*
X96163097Y-143677958D01*
X96287553Y-143978421D01*
X96351000Y-144297391D01*
X96351000Y-144622609D01*
X96287553Y-144941579D01*
X96163097Y-145242042D01*
X95982415Y-145512451D01*
X95752451Y-145742415D01*
X95482042Y-145923097D01*
X95181579Y-146047553D01*
X95075256Y-146068702D01*
X94862611Y-146111000D01*
X94537389Y-146111000D01*
X94324744Y-146068702D01*
X94218421Y-146047553D01*
X93917958Y-145923097D01*
X93647549Y-145742415D01*
X93417585Y-145512451D01*
X93236903Y-145242042D01*
X93112447Y-144941579D01*
X93049000Y-144622609D01*
X93049000Y-144297391D01*
X93112447Y-143978421D01*
X93236903Y-143677958D01*
X93417585Y-143407549D01*
X93647549Y-143177585D01*
X93917958Y-142996903D01*
X94218421Y-142872447D01*
X94324744Y-142851298D01*
X94537389Y-142809000D01*
X94862611Y-142809000D01*
X95075256Y-142851298D01*
X95075256Y-142851298D01*
G37*
G36*
X128346823Y-140971313D02*
G01*
X128507242Y-141019976D01*
X128639906Y-141090886D01*
X128655078Y-141098996D01*
X128784659Y-141205341D01*
X128891004Y-141334922D01*
X128891005Y-141334924D01*
X128970024Y-141482758D01*
X129018687Y-141643177D01*
X129035117Y-141810000D01*
X129018687Y-141976823D01*
X128970024Y-142137242D01*
X128899114Y-142269906D01*
X128891004Y-142285078D01*
X128784659Y-142414659D01*
X128655078Y-142521004D01*
X128655076Y-142521005D01*
X128507242Y-142600024D01*
X128346823Y-142648687D01*
X128221804Y-142661000D01*
X128138196Y-142661000D01*
X128013177Y-142648687D01*
X127852758Y-142600024D01*
X127704924Y-142521005D01*
X127704922Y-142521004D01*
X127575341Y-142414659D01*
X127468996Y-142285078D01*
X127460886Y-142269906D01*
X127389976Y-142137242D01*
X127341313Y-141976823D01*
X127324883Y-141810000D01*
X127341313Y-141643177D01*
X127389976Y-141482758D01*
X127468995Y-141334924D01*
X127468996Y-141334922D01*
X127575341Y-141205341D01*
X127704922Y-141098996D01*
X127720094Y-141090886D01*
X127852758Y-141019976D01*
X128013177Y-140971313D01*
X128138196Y-140959000D01*
X128221804Y-140959000D01*
X128346823Y-140971313D01*
X128346823Y-140971313D01*
G37*
G36*
X113106823Y-140971313D02*
G01*
X113267242Y-141019976D01*
X113399906Y-141090886D01*
X113415078Y-141098996D01*
X113544659Y-141205341D01*
X113651004Y-141334922D01*
X113651005Y-141334924D01*
X113730024Y-141482758D01*
X113778687Y-141643177D01*
X113795117Y-141810000D01*
X113778687Y-141976823D01*
X113730024Y-142137242D01*
X113659114Y-142269906D01*
X113651004Y-142285078D01*
X113544659Y-142414659D01*
X113415078Y-142521004D01*
X113415076Y-142521005D01*
X113267242Y-142600024D01*
X113106823Y-142648687D01*
X112981804Y-142661000D01*
X112898196Y-142661000D01*
X112773177Y-142648687D01*
X112612758Y-142600024D01*
X112464924Y-142521005D01*
X112464922Y-142521004D01*
X112335341Y-142414659D01*
X112228996Y-142285078D01*
X112220886Y-142269906D01*
X112149976Y-142137242D01*
X112101313Y-141976823D01*
X112084883Y-141810000D01*
X112101313Y-141643177D01*
X112149976Y-141482758D01*
X112228995Y-141334924D01*
X112228996Y-141334922D01*
X112335341Y-141205341D01*
X112464922Y-141098996D01*
X112480094Y-141090886D01*
X112612758Y-141019976D01*
X112773177Y-140971313D01*
X112898196Y-140959000D01*
X112981804Y-140959000D01*
X113106823Y-140971313D01*
X113106823Y-140971313D01*
G37*
G36*
X95430104Y-139649585D02*
G01*
X95598626Y-139719389D01*
X95750291Y-139820728D01*
X95879272Y-139949709D01*
X95980611Y-140101374D01*
X96050415Y-140269896D01*
X96086000Y-140448797D01*
X96086000Y-140631203D01*
X96050415Y-140810104D01*
X95980611Y-140978626D01*
X95879272Y-141130291D01*
X95750291Y-141259272D01*
X95598626Y-141360611D01*
X95430104Y-141430415D01*
X95251203Y-141466000D01*
X95068797Y-141466000D01*
X94889896Y-141430415D01*
X94721374Y-141360611D01*
X94569709Y-141259272D01*
X94440728Y-141130291D01*
X94339389Y-140978626D01*
X94269585Y-140810104D01*
X94234000Y-140631203D01*
X94234000Y-140448797D01*
X94269585Y-140269896D01*
X94339389Y-140101374D01*
X94440728Y-139949709D01*
X94569709Y-139820728D01*
X94721374Y-139719389D01*
X94889896Y-139649585D01*
X95068797Y-139614000D01*
X95251203Y-139614000D01*
X95430104Y-139649585D01*
X95430104Y-139649585D01*
G37*
G36*
X113106823Y-138431313D02*
G01*
X113267242Y-138479976D01*
X113399906Y-138550886D01*
X113415078Y-138558996D01*
X113544659Y-138665341D01*
X113651004Y-138794922D01*
X113651005Y-138794924D01*
X113730024Y-138942758D01*
X113778687Y-139103177D01*
X113795117Y-139270000D01*
X113778687Y-139436823D01*
X113730024Y-139597242D01*
X113664735Y-139719389D01*
X113651004Y-139745078D01*
X113544659Y-139874659D01*
X113415078Y-139981004D01*
X113415076Y-139981005D01*
X113267242Y-140060024D01*
X113106823Y-140108687D01*
X112981804Y-140121000D01*
X112898196Y-140121000D01*
X112773177Y-140108687D01*
X112612758Y-140060024D01*
X112464924Y-139981005D01*
X112464922Y-139981004D01*
X112335341Y-139874659D01*
X112228996Y-139745078D01*
X112215265Y-139719389D01*
X112149976Y-139597242D01*
X112101313Y-139436823D01*
X112084883Y-139270000D01*
X112101313Y-139103177D01*
X112149976Y-138942758D01*
X112228995Y-138794924D01*
X112228996Y-138794922D01*
X112335341Y-138665341D01*
X112464922Y-138558996D01*
X112480094Y-138550886D01*
X112612758Y-138479976D01*
X112773177Y-138431313D01*
X112898196Y-138419000D01*
X112981804Y-138419000D01*
X113106823Y-138431313D01*
X113106823Y-138431313D01*
G37*
G36*
X128346823Y-138431313D02*
G01*
X128507242Y-138479976D01*
X128639906Y-138550886D01*
X128655078Y-138558996D01*
X128784659Y-138665341D01*
X128891004Y-138794922D01*
X128891005Y-138794924D01*
X128970024Y-138942758D01*
X129018687Y-139103177D01*
X129035117Y-139270000D01*
X129018687Y-139436823D01*
X128970024Y-139597242D01*
X128904735Y-139719389D01*
X128891004Y-139745078D01*
X128784659Y-139874659D01*
X128655078Y-139981004D01*
X128655076Y-139981005D01*
X128507242Y-140060024D01*
X128346823Y-140108687D01*
X128221804Y-140121000D01*
X128138196Y-140121000D01*
X128013177Y-140108687D01*
X127852758Y-140060024D01*
X127704924Y-139981005D01*
X127704922Y-139981004D01*
X127575341Y-139874659D01*
X127468996Y-139745078D01*
X127455265Y-139719389D01*
X127389976Y-139597242D01*
X127341313Y-139436823D01*
X127324883Y-139270000D01*
X127341313Y-139103177D01*
X127389976Y-138942758D01*
X127468995Y-138794924D01*
X127468996Y-138794922D01*
X127575341Y-138665341D01*
X127704922Y-138558996D01*
X127720094Y-138550886D01*
X127852758Y-138479976D01*
X128013177Y-138431313D01*
X128138196Y-138419000D01*
X128221804Y-138419000D01*
X128346823Y-138431313D01*
X128346823Y-138431313D01*
G37*
G36*
X95430104Y-137109585D02*
G01*
X95598626Y-137179389D01*
X95750291Y-137280728D01*
X95879272Y-137409709D01*
X95980611Y-137561374D01*
X96050415Y-137729896D01*
X96086000Y-137908797D01*
X96086000Y-138091203D01*
X96050415Y-138270104D01*
X95980611Y-138438626D01*
X95879272Y-138590291D01*
X95750291Y-138719272D01*
X95598626Y-138820611D01*
X95430104Y-138890415D01*
X95251203Y-138926000D01*
X95068797Y-138926000D01*
X94889896Y-138890415D01*
X94721374Y-138820611D01*
X94569709Y-138719272D01*
X94440728Y-138590291D01*
X94339389Y-138438626D01*
X94269585Y-138270104D01*
X94234000Y-138091203D01*
X94234000Y-137908797D01*
X94269585Y-137729896D01*
X94339389Y-137561374D01*
X94440728Y-137409709D01*
X94569709Y-137280728D01*
X94721374Y-137179389D01*
X94889896Y-137109585D01*
X95068797Y-137074000D01*
X95251203Y-137074000D01*
X95430104Y-137109585D01*
X95430104Y-137109585D01*
G37*
G36*
X128346823Y-135891313D02*
G01*
X128507242Y-135939976D01*
X128639906Y-136010886D01*
X128655078Y-136018996D01*
X128784659Y-136125341D01*
X128891004Y-136254922D01*
X128891005Y-136254924D01*
X128970024Y-136402758D01*
X129018687Y-136563177D01*
X129035117Y-136730000D01*
X129018687Y-136896823D01*
X128970024Y-137057242D01*
X128904735Y-137179389D01*
X128891004Y-137205078D01*
X128784659Y-137334659D01*
X128655078Y-137441004D01*
X128655076Y-137441005D01*
X128507242Y-137520024D01*
X128346823Y-137568687D01*
X128221804Y-137581000D01*
X128138196Y-137581000D01*
X128013177Y-137568687D01*
X127852758Y-137520024D01*
X127704924Y-137441005D01*
X127704922Y-137441004D01*
X127575341Y-137334659D01*
X127468996Y-137205078D01*
X127455265Y-137179389D01*
X127389976Y-137057242D01*
X127341313Y-136896823D01*
X127324883Y-136730000D01*
X127341313Y-136563177D01*
X127389976Y-136402758D01*
X127468995Y-136254924D01*
X127468996Y-136254922D01*
X127575341Y-136125341D01*
X127704922Y-136018996D01*
X127720094Y-136010886D01*
X127852758Y-135939976D01*
X128013177Y-135891313D01*
X128138196Y-135879000D01*
X128221804Y-135879000D01*
X128346823Y-135891313D01*
X128346823Y-135891313D01*
G37*
G36*
X113106823Y-135891313D02*
G01*
X113267242Y-135939976D01*
X113399906Y-136010886D01*
X113415078Y-136018996D01*
X113544659Y-136125341D01*
X113651004Y-136254922D01*
X113651005Y-136254924D01*
X113730024Y-136402758D01*
X113778687Y-136563177D01*
X113795117Y-136730000D01*
X113778687Y-136896823D01*
X113730024Y-137057242D01*
X113664735Y-137179389D01*
X113651004Y-137205078D01*
X113544659Y-137334659D01*
X113415078Y-137441004D01*
X113415076Y-137441005D01*
X113267242Y-137520024D01*
X113106823Y-137568687D01*
X112981804Y-137581000D01*
X112898196Y-137581000D01*
X112773177Y-137568687D01*
X112612758Y-137520024D01*
X112464924Y-137441005D01*
X112464922Y-137441004D01*
X112335341Y-137334659D01*
X112228996Y-137205078D01*
X112215265Y-137179389D01*
X112149976Y-137057242D01*
X112101313Y-136896823D01*
X112084883Y-136730000D01*
X112101313Y-136563177D01*
X112149976Y-136402758D01*
X112228995Y-136254924D01*
X112228996Y-136254922D01*
X112335341Y-136125341D01*
X112464922Y-136018996D01*
X112480094Y-136010886D01*
X112612758Y-135939976D01*
X112773177Y-135891313D01*
X112898196Y-135879000D01*
X112981804Y-135879000D01*
X113106823Y-135891313D01*
X113106823Y-135891313D01*
G37*
G36*
X95430104Y-134569585D02*
G01*
X95598626Y-134639389D01*
X95750291Y-134740728D01*
X95879272Y-134869709D01*
X95980611Y-135021374D01*
X96050415Y-135189896D01*
X96086000Y-135368797D01*
X96086000Y-135551203D01*
X96050415Y-135730104D01*
X95980611Y-135898626D01*
X95879272Y-136050291D01*
X95750291Y-136179272D01*
X95598626Y-136280611D01*
X95430104Y-136350415D01*
X95251203Y-136386000D01*
X95068797Y-136386000D01*
X94889896Y-136350415D01*
X94721374Y-136280611D01*
X94569709Y-136179272D01*
X94440728Y-136050291D01*
X94339389Y-135898626D01*
X94269585Y-135730104D01*
X94234000Y-135551203D01*
X94234000Y-135368797D01*
X94269585Y-135189896D01*
X94339389Y-135021374D01*
X94440728Y-134869709D01*
X94569709Y-134740728D01*
X94721374Y-134639389D01*
X94889896Y-134569585D01*
X95068797Y-134534000D01*
X95251203Y-134534000D01*
X95430104Y-134569585D01*
X95430104Y-134569585D01*
G37*
G36*
X138540443Y-133725519D02*
G01*
X138606627Y-133732037D01*
X138776466Y-133783557D01*
X138932991Y-133867222D01*
X138968729Y-133896552D01*
X139070186Y-133979814D01*
X139153448Y-134081271D01*
X139182778Y-134117009D01*
X139266443Y-134273534D01*
X139317963Y-134443373D01*
X139335359Y-134620000D01*
X139317963Y-134796627D01*
X139266443Y-134966466D01*
X139182778Y-135122991D01*
X139153448Y-135158729D01*
X139070186Y-135260186D01*
X138968729Y-135343448D01*
X138932991Y-135372778D01*
X138776466Y-135456443D01*
X138606627Y-135507963D01*
X138540443Y-135514481D01*
X138474260Y-135521000D01*
X138385740Y-135521000D01*
X138319557Y-135514481D01*
X138253373Y-135507963D01*
X138083534Y-135456443D01*
X137927009Y-135372778D01*
X137891271Y-135343448D01*
X137789814Y-135260186D01*
X137706552Y-135158729D01*
X137677222Y-135122991D01*
X137593557Y-134966466D01*
X137542037Y-134796627D01*
X137524641Y-134620000D01*
X137542037Y-134443373D01*
X137593557Y-134273534D01*
X137677222Y-134117009D01*
X137706552Y-134081271D01*
X137789814Y-133979814D01*
X137891271Y-133896552D01*
X137927009Y-133867222D01*
X138083534Y-133783557D01*
X138253373Y-133732037D01*
X138319557Y-133725519D01*
X138385740Y-133719000D01*
X138474260Y-133719000D01*
X138540443Y-133725519D01*
X138540443Y-133725519D01*
G37*
G36*
X146951000Y-135521000D02*
G01*
X145149000Y-135521000D01*
X145149000Y-133719000D01*
X146951000Y-133719000D01*
X146951000Y-135521000D01*
X146951000Y-135521000D01*
G37*
G36*
X143620443Y-133725519D02*
G01*
X143686627Y-133732037D01*
X143856466Y-133783557D01*
X144012991Y-133867222D01*
X144048729Y-133896552D01*
X144150186Y-133979814D01*
X144233448Y-134081271D01*
X144262778Y-134117009D01*
X144346443Y-134273534D01*
X144397963Y-134443373D01*
X144415359Y-134620000D01*
X144397963Y-134796627D01*
X144346443Y-134966466D01*
X144262778Y-135122991D01*
X144233448Y-135158729D01*
X144150186Y-135260186D01*
X144048729Y-135343448D01*
X144012991Y-135372778D01*
X143856466Y-135456443D01*
X143686627Y-135507963D01*
X143620443Y-135514481D01*
X143554260Y-135521000D01*
X143465740Y-135521000D01*
X143399557Y-135514481D01*
X143333373Y-135507963D01*
X143163534Y-135456443D01*
X143007009Y-135372778D01*
X142971271Y-135343448D01*
X142869814Y-135260186D01*
X142786552Y-135158729D01*
X142757222Y-135122991D01*
X142673557Y-134966466D01*
X142622037Y-134796627D01*
X142604641Y-134620000D01*
X142622037Y-134443373D01*
X142673557Y-134273534D01*
X142757222Y-134117009D01*
X142786552Y-134081271D01*
X142869814Y-133979814D01*
X142971271Y-133896552D01*
X143007009Y-133867222D01*
X143163534Y-133783557D01*
X143333373Y-133732037D01*
X143399557Y-133725519D01*
X143465740Y-133719000D01*
X143554260Y-133719000D01*
X143620443Y-133725519D01*
X143620443Y-133725519D01*
G37*
G36*
X141080443Y-133725519D02*
G01*
X141146627Y-133732037D01*
X141316466Y-133783557D01*
X141472991Y-133867222D01*
X141508729Y-133896552D01*
X141610186Y-133979814D01*
X141693448Y-134081271D01*
X141722778Y-134117009D01*
X141806443Y-134273534D01*
X141857963Y-134443373D01*
X141875359Y-134620000D01*
X141857963Y-134796627D01*
X141806443Y-134966466D01*
X141722778Y-135122991D01*
X141693448Y-135158729D01*
X141610186Y-135260186D01*
X141508729Y-135343448D01*
X141472991Y-135372778D01*
X141316466Y-135456443D01*
X141146627Y-135507963D01*
X141080443Y-135514481D01*
X141014260Y-135521000D01*
X140925740Y-135521000D01*
X140859557Y-135514481D01*
X140793373Y-135507963D01*
X140623534Y-135456443D01*
X140467009Y-135372778D01*
X140431271Y-135343448D01*
X140329814Y-135260186D01*
X140246552Y-135158729D01*
X140217222Y-135122991D01*
X140133557Y-134966466D01*
X140082037Y-134796627D01*
X140064641Y-134620000D01*
X140082037Y-134443373D01*
X140133557Y-134273534D01*
X140217222Y-134117009D01*
X140246552Y-134081271D01*
X140329814Y-133979814D01*
X140431271Y-133896552D01*
X140467009Y-133867222D01*
X140623534Y-133783557D01*
X140793373Y-133732037D01*
X140859557Y-133725519D01*
X140925740Y-133719000D01*
X141014260Y-133719000D01*
X141080443Y-133725519D01*
X141080443Y-133725519D01*
G37*
G36*
X128346823Y-133351313D02*
G01*
X128507242Y-133399976D01*
X128639906Y-133470886D01*
X128655078Y-133478996D01*
X128784659Y-133585341D01*
X128891004Y-133714922D01*
X128891005Y-133714924D01*
X128970024Y-133862758D01*
X129018687Y-134023177D01*
X129035117Y-134190000D01*
X129018687Y-134356823D01*
X128970024Y-134517242D01*
X128931316Y-134589659D01*
X128891004Y-134665078D01*
X128784659Y-134794659D01*
X128655078Y-134901004D01*
X128655076Y-134901005D01*
X128507242Y-134980024D01*
X128346823Y-135028687D01*
X128221804Y-135041000D01*
X128138196Y-135041000D01*
X128013177Y-135028687D01*
X127852758Y-134980024D01*
X127704924Y-134901005D01*
X127704922Y-134901004D01*
X127575341Y-134794659D01*
X127468996Y-134665078D01*
X127428684Y-134589659D01*
X127389976Y-134517242D01*
X127341313Y-134356823D01*
X127324883Y-134190000D01*
X127341313Y-134023177D01*
X127389976Y-133862758D01*
X127468995Y-133714924D01*
X127468996Y-133714922D01*
X127575341Y-133585341D01*
X127704922Y-133478996D01*
X127720094Y-133470886D01*
X127852758Y-133399976D01*
X128013177Y-133351313D01*
X128138196Y-133339000D01*
X128221804Y-133339000D01*
X128346823Y-133351313D01*
X128346823Y-133351313D01*
G37*
G36*
X113106823Y-133351313D02*
G01*
X113267242Y-133399976D01*
X113399906Y-133470886D01*
X113415078Y-133478996D01*
X113544659Y-133585341D01*
X113651004Y-133714922D01*
X113651005Y-133714924D01*
X113730024Y-133862758D01*
X113778687Y-134023177D01*
X113795117Y-134190000D01*
X113778687Y-134356823D01*
X113730024Y-134517242D01*
X113691316Y-134589659D01*
X113651004Y-134665078D01*
X113544659Y-134794659D01*
X113415078Y-134901004D01*
X113415076Y-134901005D01*
X113267242Y-134980024D01*
X113106823Y-135028687D01*
X112981804Y-135041000D01*
X112898196Y-135041000D01*
X112773177Y-135028687D01*
X112612758Y-134980024D01*
X112464924Y-134901005D01*
X112464922Y-134901004D01*
X112335341Y-134794659D01*
X112228996Y-134665078D01*
X112188684Y-134589659D01*
X112149976Y-134517242D01*
X112101313Y-134356823D01*
X112084883Y-134190000D01*
X112101313Y-134023177D01*
X112149976Y-133862758D01*
X112228995Y-133714924D01*
X112228996Y-133714922D01*
X112335341Y-133585341D01*
X112464922Y-133478996D01*
X112480094Y-133470886D01*
X112612758Y-133399976D01*
X112773177Y-133351313D01*
X112898196Y-133339000D01*
X112981804Y-133339000D01*
X113106823Y-133351313D01*
X113106823Y-133351313D01*
G37*
G36*
X131611823Y-133146313D02*
G01*
X131772242Y-133194976D01*
X131904906Y-133265886D01*
X131920078Y-133273996D01*
X132049659Y-133380341D01*
X132156004Y-133509922D01*
X132156005Y-133509924D01*
X132235024Y-133657758D01*
X132283687Y-133818177D01*
X132300117Y-133985000D01*
X132283687Y-134151823D01*
X132235024Y-134312242D01*
X132164933Y-134443373D01*
X132156004Y-134460078D01*
X132049659Y-134589659D01*
X131920078Y-134696004D01*
X131920076Y-134696005D01*
X131772242Y-134775024D01*
X131611823Y-134823687D01*
X131486804Y-134836000D01*
X131403196Y-134836000D01*
X131278177Y-134823687D01*
X131117758Y-134775024D01*
X130969924Y-134696005D01*
X130969922Y-134696004D01*
X130840341Y-134589659D01*
X130733996Y-134460078D01*
X130725067Y-134443373D01*
X130654976Y-134312242D01*
X130606313Y-134151823D01*
X130589883Y-133985000D01*
X130606313Y-133818177D01*
X130654976Y-133657758D01*
X130733995Y-133509924D01*
X130733996Y-133509922D01*
X130840341Y-133380341D01*
X130969922Y-133273996D01*
X130985094Y-133265886D01*
X131117758Y-133194976D01*
X131278177Y-133146313D01*
X131403196Y-133134000D01*
X131486804Y-133134000D01*
X131611823Y-133146313D01*
X131611823Y-133146313D01*
G37*
G36*
X134786823Y-133146313D02*
G01*
X134947242Y-133194976D01*
X135079906Y-133265886D01*
X135095078Y-133273996D01*
X135224659Y-133380341D01*
X135331004Y-133509922D01*
X135331005Y-133509924D01*
X135410024Y-133657758D01*
X135458687Y-133818177D01*
X135475117Y-133985000D01*
X135458687Y-134151823D01*
X135410024Y-134312242D01*
X135339933Y-134443373D01*
X135331004Y-134460078D01*
X135224659Y-134589659D01*
X135095078Y-134696004D01*
X135095076Y-134696005D01*
X134947242Y-134775024D01*
X134786823Y-134823687D01*
X134661804Y-134836000D01*
X134578196Y-134836000D01*
X134453177Y-134823687D01*
X134292758Y-134775024D01*
X134144924Y-134696005D01*
X134144922Y-134696004D01*
X134015341Y-134589659D01*
X133908996Y-134460078D01*
X133900067Y-134443373D01*
X133829976Y-134312242D01*
X133781313Y-134151823D01*
X133764883Y-133985000D01*
X133781313Y-133818177D01*
X133829976Y-133657758D01*
X133908995Y-133509924D01*
X133908996Y-133509922D01*
X134015341Y-133380341D01*
X134144922Y-133273996D01*
X134160094Y-133265886D01*
X134292758Y-133194976D01*
X134453177Y-133146313D01*
X134578196Y-133134000D01*
X134661804Y-133134000D01*
X134786823Y-133146313D01*
X134786823Y-133146313D01*
G37*
G36*
X95430104Y-132029585D02*
G01*
X95598626Y-132099389D01*
X95750291Y-132200728D01*
X95879272Y-132329709D01*
X95980611Y-132481374D01*
X96050415Y-132649896D01*
X96086000Y-132828797D01*
X96086000Y-133011203D01*
X96050415Y-133190104D01*
X95980611Y-133358626D01*
X95879272Y-133510291D01*
X95750291Y-133639272D01*
X95598626Y-133740611D01*
X95430104Y-133810415D01*
X95251203Y-133846000D01*
X95068797Y-133846000D01*
X94889896Y-133810415D01*
X94721374Y-133740611D01*
X94569709Y-133639272D01*
X94440728Y-133510291D01*
X94339389Y-133358626D01*
X94269585Y-133190104D01*
X94234000Y-133011203D01*
X94234000Y-132828797D01*
X94269585Y-132649896D01*
X94339389Y-132481374D01*
X94440728Y-132329709D01*
X94569709Y-132200728D01*
X94721374Y-132099389D01*
X94889896Y-132029585D01*
X95068797Y-131994000D01*
X95251203Y-131994000D01*
X95430104Y-132029585D01*
X95430104Y-132029585D01*
G37*
G36*
X128346823Y-130811313D02*
G01*
X128507242Y-130859976D01*
X128639906Y-130930886D01*
X128655078Y-130938996D01*
X128784659Y-131045341D01*
X128891004Y-131174922D01*
X128891005Y-131174924D01*
X128970024Y-131322758D01*
X129018687Y-131483177D01*
X129035117Y-131650000D01*
X129018687Y-131816823D01*
X128970024Y-131977242D01*
X128904735Y-132099389D01*
X128891004Y-132125078D01*
X128784659Y-132254659D01*
X128655078Y-132361004D01*
X128655076Y-132361005D01*
X128507242Y-132440024D01*
X128346823Y-132488687D01*
X128221804Y-132501000D01*
X128138196Y-132501000D01*
X128013177Y-132488687D01*
X127852758Y-132440024D01*
X127704924Y-132361005D01*
X127704922Y-132361004D01*
X127575341Y-132254659D01*
X127468996Y-132125078D01*
X127455265Y-132099389D01*
X127389976Y-131977242D01*
X127341313Y-131816823D01*
X127324883Y-131650000D01*
X127341313Y-131483177D01*
X127389976Y-131322758D01*
X127468995Y-131174924D01*
X127468996Y-131174922D01*
X127575341Y-131045341D01*
X127704922Y-130938996D01*
X127720094Y-130930886D01*
X127852758Y-130859976D01*
X128013177Y-130811313D01*
X128138196Y-130799000D01*
X128221804Y-130799000D01*
X128346823Y-130811313D01*
X128346823Y-130811313D01*
G37*
G36*
X113106823Y-130811313D02*
G01*
X113267242Y-130859976D01*
X113399906Y-130930886D01*
X113415078Y-130938996D01*
X113544659Y-131045341D01*
X113651004Y-131174922D01*
X113651005Y-131174924D01*
X113730024Y-131322758D01*
X113778687Y-131483177D01*
X113795117Y-131650000D01*
X113778687Y-131816823D01*
X113730024Y-131977242D01*
X113664735Y-132099389D01*
X113651004Y-132125078D01*
X113544659Y-132254659D01*
X113415078Y-132361004D01*
X113415076Y-132361005D01*
X113267242Y-132440024D01*
X113106823Y-132488687D01*
X112981804Y-132501000D01*
X112898196Y-132501000D01*
X112773177Y-132488687D01*
X112612758Y-132440024D01*
X112464924Y-132361005D01*
X112464922Y-132361004D01*
X112335341Y-132254659D01*
X112228996Y-132125078D01*
X112215265Y-132099389D01*
X112149976Y-131977242D01*
X112101313Y-131816823D01*
X112084883Y-131650000D01*
X112101313Y-131483177D01*
X112149976Y-131322758D01*
X112228995Y-131174924D01*
X112228996Y-131174922D01*
X112335341Y-131045341D01*
X112464922Y-130938996D01*
X112480094Y-130930886D01*
X112612758Y-130859976D01*
X112773177Y-130811313D01*
X112898196Y-130799000D01*
X112981804Y-130799000D01*
X113106823Y-130811313D01*
X113106823Y-130811313D01*
G37*
G36*
X96086000Y-131306000D02*
G01*
X94234000Y-131306000D01*
X94234000Y-129454000D01*
X96086000Y-129454000D01*
X96086000Y-131306000D01*
X96086000Y-131306000D01*
G37*
G36*
X143620443Y-128645519D02*
G01*
X143686627Y-128652037D01*
X143856466Y-128703557D01*
X144012991Y-128787222D01*
X144032098Y-128802903D01*
X144150186Y-128899814D01*
X144233448Y-129001271D01*
X144262778Y-129037009D01*
X144346443Y-129193534D01*
X144397963Y-129363373D01*
X144415359Y-129540000D01*
X144397963Y-129716627D01*
X144346443Y-129886466D01*
X144262778Y-130042991D01*
X144251281Y-130057000D01*
X144150186Y-130180186D01*
X144048729Y-130263448D01*
X144012991Y-130292778D01*
X143856466Y-130376443D01*
X143686627Y-130427963D01*
X143620443Y-130434481D01*
X143554260Y-130441000D01*
X143465740Y-130441000D01*
X143399557Y-130434481D01*
X143333373Y-130427963D01*
X143163534Y-130376443D01*
X143007009Y-130292778D01*
X142971271Y-130263448D01*
X142869814Y-130180186D01*
X142768719Y-130057000D01*
X142757222Y-130042991D01*
X142673557Y-129886466D01*
X142622037Y-129716627D01*
X142604641Y-129540000D01*
X142622037Y-129363373D01*
X142673557Y-129193534D01*
X142757222Y-129037009D01*
X142786552Y-129001271D01*
X142869814Y-128899814D01*
X142987902Y-128802903D01*
X143007009Y-128787222D01*
X143163534Y-128703557D01*
X143333373Y-128652037D01*
X143399557Y-128645519D01*
X143465740Y-128639000D01*
X143554260Y-128639000D01*
X143620443Y-128645519D01*
X143620443Y-128645519D01*
G37*
G36*
X138540443Y-128645519D02*
G01*
X138606627Y-128652037D01*
X138776466Y-128703557D01*
X138932991Y-128787222D01*
X138952098Y-128802903D01*
X139070186Y-128899814D01*
X139153448Y-129001271D01*
X139182778Y-129037009D01*
X139266443Y-129193534D01*
X139317963Y-129363373D01*
X139335359Y-129540000D01*
X139317963Y-129716627D01*
X139266443Y-129886466D01*
X139182778Y-130042991D01*
X139171281Y-130057000D01*
X139070186Y-130180186D01*
X138968729Y-130263448D01*
X138932991Y-130292778D01*
X138776466Y-130376443D01*
X138606627Y-130427963D01*
X138540443Y-130434481D01*
X138474260Y-130441000D01*
X138385740Y-130441000D01*
X138319557Y-130434481D01*
X138253373Y-130427963D01*
X138083534Y-130376443D01*
X137927009Y-130292778D01*
X137891271Y-130263448D01*
X137789814Y-130180186D01*
X137688719Y-130057000D01*
X137677222Y-130042991D01*
X137593557Y-129886466D01*
X137542037Y-129716627D01*
X137524641Y-129540000D01*
X137542037Y-129363373D01*
X137593557Y-129193534D01*
X137677222Y-129037009D01*
X137706552Y-129001271D01*
X137789814Y-128899814D01*
X137907902Y-128802903D01*
X137927009Y-128787222D01*
X138083534Y-128703557D01*
X138253373Y-128652037D01*
X138319557Y-128645519D01*
X138385740Y-128639000D01*
X138474260Y-128639000D01*
X138540443Y-128645519D01*
X138540443Y-128645519D01*
G37*
G36*
X146951000Y-130441000D02*
G01*
X145149000Y-130441000D01*
X145149000Y-128639000D01*
X146951000Y-128639000D01*
X146951000Y-130441000D01*
X146951000Y-130441000D01*
G37*
G36*
X141080443Y-128645519D02*
G01*
X141146627Y-128652037D01*
X141316466Y-128703557D01*
X141472991Y-128787222D01*
X141492098Y-128802903D01*
X141610186Y-128899814D01*
X141693448Y-129001271D01*
X141722778Y-129037009D01*
X141806443Y-129193534D01*
X141857963Y-129363373D01*
X141875359Y-129540000D01*
X141857963Y-129716627D01*
X141806443Y-129886466D01*
X141722778Y-130042991D01*
X141711281Y-130057000D01*
X141610186Y-130180186D01*
X141508729Y-130263448D01*
X141472991Y-130292778D01*
X141316466Y-130376443D01*
X141146627Y-130427963D01*
X141080443Y-130434481D01*
X141014260Y-130441000D01*
X140925740Y-130441000D01*
X140859557Y-130434481D01*
X140793373Y-130427963D01*
X140623534Y-130376443D01*
X140467009Y-130292778D01*
X140431271Y-130263448D01*
X140329814Y-130180186D01*
X140228719Y-130057000D01*
X140217222Y-130042991D01*
X140133557Y-129886466D01*
X140082037Y-129716627D01*
X140064641Y-129540000D01*
X140082037Y-129363373D01*
X140133557Y-129193534D01*
X140217222Y-129037009D01*
X140246552Y-129001271D01*
X140329814Y-128899814D01*
X140447902Y-128802903D01*
X140467009Y-128787222D01*
X140623534Y-128703557D01*
X140793373Y-128652037D01*
X140859557Y-128645519D01*
X140925740Y-128639000D01*
X141014260Y-128639000D01*
X141080443Y-128645519D01*
X141080443Y-128645519D01*
G37*
G36*
X103626228Y-128387703D02*
G01*
X103781100Y-128451853D01*
X103920481Y-128544985D01*
X104039015Y-128663519D01*
X104132147Y-128802900D01*
X104196297Y-128957772D01*
X104229000Y-129122184D01*
X104229000Y-129289816D01*
X104196297Y-129454228D01*
X104132147Y-129609100D01*
X104039015Y-129748481D01*
X103920481Y-129867015D01*
X103781100Y-129960147D01*
X103626228Y-130024297D01*
X103461816Y-130057000D01*
X103294184Y-130057000D01*
X103129772Y-130024297D01*
X102974900Y-129960147D01*
X102835519Y-129867015D01*
X102716985Y-129748481D01*
X102623853Y-129609100D01*
X102559703Y-129454228D01*
X102527000Y-129289816D01*
X102527000Y-129122184D01*
X102559703Y-128957772D01*
X102623853Y-128802900D01*
X102716985Y-128663519D01*
X102835519Y-128544985D01*
X102974900Y-128451853D01*
X103129772Y-128387703D01*
X103294184Y-128355000D01*
X103461816Y-128355000D01*
X103626228Y-128387703D01*
X103626228Y-128387703D01*
G37*
G36*
X128346823Y-128271313D02*
G01*
X128507242Y-128319976D01*
X128572767Y-128355000D01*
X128655078Y-128398996D01*
X128784659Y-128505341D01*
X128891004Y-128634922D01*
X128891005Y-128634924D01*
X128970024Y-128782758D01*
X129018687Y-128943177D01*
X129035117Y-129110000D01*
X129018687Y-129276823D01*
X128970024Y-129437242D01*
X128960944Y-129454229D01*
X128891004Y-129585078D01*
X128784659Y-129714659D01*
X128655078Y-129821004D01*
X128655076Y-129821005D01*
X128507242Y-129900024D01*
X128346823Y-129948687D01*
X128221804Y-129961000D01*
X128138196Y-129961000D01*
X128013177Y-129948687D01*
X127852758Y-129900024D01*
X127704924Y-129821005D01*
X127704922Y-129821004D01*
X127575341Y-129714659D01*
X127468996Y-129585078D01*
X127399056Y-129454229D01*
X127389976Y-129437242D01*
X127341313Y-129276823D01*
X127324883Y-129110000D01*
X127341313Y-128943177D01*
X127389976Y-128782758D01*
X127468995Y-128634924D01*
X127468996Y-128634922D01*
X127575341Y-128505341D01*
X127704922Y-128398996D01*
X127787233Y-128355000D01*
X127852758Y-128319976D01*
X128013177Y-128271313D01*
X128138196Y-128259000D01*
X128221804Y-128259000D01*
X128346823Y-128271313D01*
X128346823Y-128271313D01*
G37*
G36*
X113106823Y-128271313D02*
G01*
X113267242Y-128319976D01*
X113332767Y-128355000D01*
X113415078Y-128398996D01*
X113544659Y-128505341D01*
X113651004Y-128634922D01*
X113651005Y-128634924D01*
X113730024Y-128782758D01*
X113778687Y-128943177D01*
X113795117Y-129110000D01*
X113778687Y-129276823D01*
X113730024Y-129437242D01*
X113720944Y-129454229D01*
X113651004Y-129585078D01*
X113544659Y-129714659D01*
X113415078Y-129821004D01*
X113415076Y-129821005D01*
X113267242Y-129900024D01*
X113106823Y-129948687D01*
X112981804Y-129961000D01*
X112898196Y-129961000D01*
X112773177Y-129948687D01*
X112612758Y-129900024D01*
X112464924Y-129821005D01*
X112464922Y-129821004D01*
X112335341Y-129714659D01*
X112228996Y-129585078D01*
X112159056Y-129454229D01*
X112149976Y-129437242D01*
X112101313Y-129276823D01*
X112084883Y-129110000D01*
X112101313Y-128943177D01*
X112149976Y-128782758D01*
X112228995Y-128634924D01*
X112228996Y-128634922D01*
X112335341Y-128505341D01*
X112464922Y-128398996D01*
X112547233Y-128355000D01*
X112612758Y-128319976D01*
X112773177Y-128271313D01*
X112898196Y-128259000D01*
X112981804Y-128259000D01*
X113106823Y-128271313D01*
X113106823Y-128271313D01*
G37*
G36*
X95075256Y-124851298D02*
G01*
X95181579Y-124872447D01*
X95482042Y-124996903D01*
X95752451Y-125177585D01*
X95982415Y-125407549D01*
X96163097Y-125677958D01*
X96163098Y-125677960D01*
X96287553Y-125978422D01*
X96351000Y-126297389D01*
X96351000Y-126622611D01*
X96328281Y-126736825D01*
X96287553Y-126941579D01*
X96163097Y-127242042D01*
X95982415Y-127512451D01*
X95752451Y-127742415D01*
X95482042Y-127923097D01*
X95181579Y-128047553D01*
X95075256Y-128068702D01*
X94862611Y-128111000D01*
X94537389Y-128111000D01*
X94324744Y-128068702D01*
X94218421Y-128047553D01*
X93917958Y-127923097D01*
X93647549Y-127742415D01*
X93417585Y-127512451D01*
X93236903Y-127242042D01*
X93112447Y-126941579D01*
X93071719Y-126736825D01*
X93049000Y-126622611D01*
X93049000Y-126297389D01*
X93112447Y-125978422D01*
X93236902Y-125677960D01*
X93236903Y-125677958D01*
X93417585Y-125407549D01*
X93647549Y-125177585D01*
X93917958Y-124996903D01*
X94218421Y-124872447D01*
X94324744Y-124851298D01*
X94537389Y-124809000D01*
X94862611Y-124809000D01*
X95075256Y-124851298D01*
X95075256Y-124851298D01*
G37*
G36*
X65075256Y-124851298D02*
G01*
X65181579Y-124872447D01*
X65482042Y-124996903D01*
X65752451Y-125177585D01*
X65982415Y-125407549D01*
X66163097Y-125677958D01*
X66163098Y-125677960D01*
X66287553Y-125978422D01*
X66351000Y-126297389D01*
X66351000Y-126622611D01*
X66328281Y-126736825D01*
X66287553Y-126941579D01*
X66163097Y-127242042D01*
X65982415Y-127512451D01*
X65752451Y-127742415D01*
X65482042Y-127923097D01*
X65181579Y-128047553D01*
X65075256Y-128068702D01*
X64862611Y-128111000D01*
X64537389Y-128111000D01*
X64324744Y-128068702D01*
X64218421Y-128047553D01*
X63917958Y-127923097D01*
X63647549Y-127742415D01*
X63417585Y-127512451D01*
X63236903Y-127242042D01*
X63112447Y-126941579D01*
X63071719Y-126736825D01*
X63049000Y-126622611D01*
X63049000Y-126297389D01*
X63112447Y-125978422D01*
X63236902Y-125677960D01*
X63236903Y-125677958D01*
X63417585Y-125407549D01*
X63647549Y-125177585D01*
X63917958Y-124996903D01*
X64218421Y-124872447D01*
X64324744Y-124851298D01*
X64537389Y-124809000D01*
X64862611Y-124809000D01*
X65075256Y-124851298D01*
X65075256Y-124851298D01*
G37*
G36*
X113106823Y-125731313D02*
G01*
X113267242Y-125779976D01*
X113324550Y-125810608D01*
X113415078Y-125858996D01*
X113544659Y-125965341D01*
X113651004Y-126094922D01*
X113651005Y-126094924D01*
X113730024Y-126242758D01*
X113778687Y-126403177D01*
X113795117Y-126570000D01*
X113778687Y-126736823D01*
X113730024Y-126897242D01*
X113706325Y-126941579D01*
X113651004Y-127045078D01*
X113544659Y-127174659D01*
X113415078Y-127281004D01*
X113415076Y-127281005D01*
X113267242Y-127360024D01*
X113106823Y-127408687D01*
X112981804Y-127421000D01*
X112898196Y-127421000D01*
X112773177Y-127408687D01*
X112612758Y-127360024D01*
X112464924Y-127281005D01*
X112464922Y-127281004D01*
X112335341Y-127174659D01*
X112228996Y-127045078D01*
X112173675Y-126941579D01*
X112149976Y-126897242D01*
X112101313Y-126736823D01*
X112084883Y-126570000D01*
X112101313Y-126403177D01*
X112149976Y-126242758D01*
X112228995Y-126094924D01*
X112228996Y-126094922D01*
X112335341Y-125965341D01*
X112464922Y-125858996D01*
X112555450Y-125810608D01*
X112612758Y-125779976D01*
X112773177Y-125731313D01*
X112898196Y-125719000D01*
X112981804Y-125719000D01*
X113106823Y-125731313D01*
X113106823Y-125731313D01*
G37*
G36*
X128346823Y-125731313D02*
G01*
X128507242Y-125779976D01*
X128564550Y-125810608D01*
X128655078Y-125858996D01*
X128784659Y-125965341D01*
X128891004Y-126094922D01*
X128891005Y-126094924D01*
X128970024Y-126242758D01*
X129018687Y-126403177D01*
X129035117Y-126570000D01*
X129018687Y-126736823D01*
X128970024Y-126897242D01*
X128946325Y-126941579D01*
X128891004Y-127045078D01*
X128784659Y-127174659D01*
X128655078Y-127281004D01*
X128655076Y-127281005D01*
X128507242Y-127360024D01*
X128346823Y-127408687D01*
X128221804Y-127421000D01*
X128138196Y-127421000D01*
X128013177Y-127408687D01*
X127852758Y-127360024D01*
X127704924Y-127281005D01*
X127704922Y-127281004D01*
X127575341Y-127174659D01*
X127468996Y-127045078D01*
X127413675Y-126941579D01*
X127389976Y-126897242D01*
X127341313Y-126736823D01*
X127324883Y-126570000D01*
X127341313Y-126403177D01*
X127389976Y-126242758D01*
X127468995Y-126094924D01*
X127468996Y-126094922D01*
X127575341Y-125965341D01*
X127704922Y-125858996D01*
X127795450Y-125810608D01*
X127852758Y-125779976D01*
X128013177Y-125731313D01*
X128138196Y-125719000D01*
X128221804Y-125719000D01*
X128346823Y-125731313D01*
X128346823Y-125731313D01*
G37*
G36*
X108093642Y-124529781D02*
G01*
X108239414Y-124590162D01*
X108239416Y-124590163D01*
X108370608Y-124677822D01*
X108482178Y-124789392D01*
X108537673Y-124872447D01*
X108569838Y-124920586D01*
X108630219Y-125066358D01*
X108661000Y-125221107D01*
X108661000Y-125378893D01*
X108630219Y-125533642D01*
X108570441Y-125677958D01*
X108569837Y-125679416D01*
X108482178Y-125810608D01*
X108370608Y-125922178D01*
X108239416Y-126009837D01*
X108239415Y-126009838D01*
X108239414Y-126009838D01*
X108093642Y-126070219D01*
X107938893Y-126101000D01*
X107781107Y-126101000D01*
X107626358Y-126070219D01*
X107480586Y-126009838D01*
X107480585Y-126009838D01*
X107480584Y-126009837D01*
X107349392Y-125922178D01*
X107237822Y-125810608D01*
X107150163Y-125679416D01*
X107149559Y-125677958D01*
X107089781Y-125533642D01*
X107059000Y-125378893D01*
X107059000Y-125221107D01*
X107089781Y-125066358D01*
X107150162Y-124920586D01*
X107182327Y-124872447D01*
X107237822Y-124789392D01*
X107349392Y-124677822D01*
X107480584Y-124590163D01*
X107480586Y-124590162D01*
X107626358Y-124529781D01*
X107781107Y-124499000D01*
X107938893Y-124499000D01*
X108093642Y-124529781D01*
X108093642Y-124529781D01*
G37*
G36*
X146951000Y-125361000D02*
G01*
X145149000Y-125361000D01*
X145149000Y-123559000D01*
X146951000Y-123559000D01*
X146951000Y-125361000D01*
X146951000Y-125361000D01*
G37*
G36*
X143620442Y-123565518D02*
G01*
X143686627Y-123572037D01*
X143856466Y-123623557D01*
X144012991Y-123707222D01*
X144043768Y-123732480D01*
X144150186Y-123819814D01*
X144223226Y-123908815D01*
X144262778Y-123957009D01*
X144346443Y-124113534D01*
X144397963Y-124283373D01*
X144415359Y-124460000D01*
X144397963Y-124636627D01*
X144346443Y-124806466D01*
X144262778Y-124962991D01*
X144234948Y-124996902D01*
X144150186Y-125100186D01*
X144048729Y-125183448D01*
X144012991Y-125212778D01*
X143856466Y-125296443D01*
X143686627Y-125347963D01*
X143620442Y-125354482D01*
X143554260Y-125361000D01*
X143465740Y-125361000D01*
X143399558Y-125354482D01*
X143333373Y-125347963D01*
X143163534Y-125296443D01*
X143007009Y-125212778D01*
X142971271Y-125183448D01*
X142869814Y-125100186D01*
X142785052Y-124996902D01*
X142757222Y-124962991D01*
X142673557Y-124806466D01*
X142622037Y-124636627D01*
X142604641Y-124460000D01*
X142622037Y-124283373D01*
X142673557Y-124113534D01*
X142757222Y-123957009D01*
X142796774Y-123908815D01*
X142869814Y-123819814D01*
X142976232Y-123732480D01*
X143007009Y-123707222D01*
X143163534Y-123623557D01*
X143333373Y-123572037D01*
X143399558Y-123565518D01*
X143465740Y-123559000D01*
X143554260Y-123559000D01*
X143620442Y-123565518D01*
X143620442Y-123565518D01*
G37*
G36*
X141080442Y-123565518D02*
G01*
X141146627Y-123572037D01*
X141316466Y-123623557D01*
X141472991Y-123707222D01*
X141503768Y-123732480D01*
X141610186Y-123819814D01*
X141683226Y-123908815D01*
X141722778Y-123957009D01*
X141806443Y-124113534D01*
X141857963Y-124283373D01*
X141875359Y-124460000D01*
X141857963Y-124636627D01*
X141806443Y-124806466D01*
X141722778Y-124962991D01*
X141694948Y-124996902D01*
X141610186Y-125100186D01*
X141508729Y-125183448D01*
X141472991Y-125212778D01*
X141316466Y-125296443D01*
X141146627Y-125347963D01*
X141080442Y-125354482D01*
X141014260Y-125361000D01*
X140925740Y-125361000D01*
X140859558Y-125354482D01*
X140793373Y-125347963D01*
X140623534Y-125296443D01*
X140467009Y-125212778D01*
X140431271Y-125183448D01*
X140329814Y-125100186D01*
X140245052Y-124996902D01*
X140217222Y-124962991D01*
X140133557Y-124806466D01*
X140082037Y-124636627D01*
X140064641Y-124460000D01*
X140082037Y-124283373D01*
X140133557Y-124113534D01*
X140217222Y-123957009D01*
X140256774Y-123908815D01*
X140329814Y-123819814D01*
X140436232Y-123732480D01*
X140467009Y-123707222D01*
X140623534Y-123623557D01*
X140793373Y-123572037D01*
X140859558Y-123565518D01*
X140925740Y-123559000D01*
X141014260Y-123559000D01*
X141080442Y-123565518D01*
X141080442Y-123565518D01*
G37*
G36*
X138540442Y-123565518D02*
G01*
X138606627Y-123572037D01*
X138776466Y-123623557D01*
X138932991Y-123707222D01*
X138963768Y-123732480D01*
X139070186Y-123819814D01*
X139143226Y-123908815D01*
X139182778Y-123957009D01*
X139266443Y-124113534D01*
X139317963Y-124283373D01*
X139335359Y-124460000D01*
X139317963Y-124636627D01*
X139266443Y-124806466D01*
X139182778Y-124962991D01*
X139154948Y-124996902D01*
X139070186Y-125100186D01*
X138968729Y-125183448D01*
X138932991Y-125212778D01*
X138776466Y-125296443D01*
X138606627Y-125347963D01*
X138540442Y-125354482D01*
X138474260Y-125361000D01*
X138385740Y-125361000D01*
X138319558Y-125354482D01*
X138253373Y-125347963D01*
X138083534Y-125296443D01*
X137927009Y-125212778D01*
X137891271Y-125183448D01*
X137789814Y-125100186D01*
X137705052Y-124996902D01*
X137677222Y-124962991D01*
X137593557Y-124806466D01*
X137542037Y-124636627D01*
X137524641Y-124460000D01*
X137542037Y-124283373D01*
X137593557Y-124113534D01*
X137677222Y-123957009D01*
X137716774Y-123908815D01*
X137789814Y-123819814D01*
X137896232Y-123732480D01*
X137927009Y-123707222D01*
X138083534Y-123623557D01*
X138253373Y-123572037D01*
X138319558Y-123565518D01*
X138385740Y-123559000D01*
X138474260Y-123559000D01*
X138540442Y-123565518D01*
X138540442Y-123565518D01*
G37*
G36*
X103626228Y-123387703D02*
G01*
X103781100Y-123451853D01*
X103920481Y-123544985D01*
X104039015Y-123663519D01*
X104132147Y-123802900D01*
X104196297Y-123957772D01*
X104229000Y-124122184D01*
X104229000Y-124289816D01*
X104196297Y-124454228D01*
X104132147Y-124609100D01*
X104039015Y-124748481D01*
X103920481Y-124867015D01*
X103781100Y-124960147D01*
X103626228Y-125024297D01*
X103461816Y-125057000D01*
X103294184Y-125057000D01*
X103129772Y-125024297D01*
X102974900Y-124960147D01*
X102835519Y-124867015D01*
X102716985Y-124748481D01*
X102623853Y-124609100D01*
X102559703Y-124454228D01*
X102527000Y-124289816D01*
X102527000Y-124122184D01*
X102559703Y-123957772D01*
X102623853Y-123802900D01*
X102716985Y-123663519D01*
X102835519Y-123544985D01*
X102974900Y-123451853D01*
X103129772Y-123387703D01*
X103294184Y-123355000D01*
X103461816Y-123355000D01*
X103626228Y-123387703D01*
X103626228Y-123387703D01*
G37*
G36*
X128346823Y-123191313D02*
G01*
X128507242Y-123239976D01*
X128570550Y-123273815D01*
X128655078Y-123318996D01*
X128784659Y-123425341D01*
X128891004Y-123554922D01*
X128891005Y-123554924D01*
X128970024Y-123702758D01*
X129018687Y-123863177D01*
X129035117Y-124030000D01*
X129018687Y-124196823D01*
X128970024Y-124357242D01*
X128964551Y-124367481D01*
X128891004Y-124505078D01*
X128784659Y-124634659D01*
X128655078Y-124741004D01*
X128655076Y-124741005D01*
X128507242Y-124820024D01*
X128346823Y-124868687D01*
X128221804Y-124881000D01*
X128138196Y-124881000D01*
X128013177Y-124868687D01*
X127852758Y-124820024D01*
X127704924Y-124741005D01*
X127704922Y-124741004D01*
X127575341Y-124634659D01*
X127468996Y-124505078D01*
X127395449Y-124367481D01*
X127389976Y-124357242D01*
X127341313Y-124196823D01*
X127324883Y-124030000D01*
X127341313Y-123863177D01*
X127389976Y-123702758D01*
X127468995Y-123554924D01*
X127468996Y-123554922D01*
X127575341Y-123425341D01*
X127704922Y-123318996D01*
X127789450Y-123273815D01*
X127852758Y-123239976D01*
X128013177Y-123191313D01*
X128138196Y-123179000D01*
X128221804Y-123179000D01*
X128346823Y-123191313D01*
X128346823Y-123191313D01*
G37*
G36*
X113106823Y-123191313D02*
G01*
X113267242Y-123239976D01*
X113330550Y-123273815D01*
X113415078Y-123318996D01*
X113544659Y-123425341D01*
X113651004Y-123554922D01*
X113651005Y-123554924D01*
X113730024Y-123702758D01*
X113778687Y-123863177D01*
X113795117Y-124030000D01*
X113778687Y-124196823D01*
X113730024Y-124357242D01*
X113724551Y-124367481D01*
X113651004Y-124505078D01*
X113544659Y-124634659D01*
X113415078Y-124741004D01*
X113415076Y-124741005D01*
X113267242Y-124820024D01*
X113106823Y-124868687D01*
X112981804Y-124881000D01*
X112898196Y-124881000D01*
X112773177Y-124868687D01*
X112612758Y-124820024D01*
X112464924Y-124741005D01*
X112464922Y-124741004D01*
X112335341Y-124634659D01*
X112228996Y-124505078D01*
X112155449Y-124367481D01*
X112149976Y-124357242D01*
X112101313Y-124196823D01*
X112084883Y-124030000D01*
X112101313Y-123863177D01*
X112149976Y-123702758D01*
X112228995Y-123554924D01*
X112228996Y-123554922D01*
X112335341Y-123425341D01*
X112464922Y-123318996D01*
X112549450Y-123273815D01*
X112612758Y-123239976D01*
X112773177Y-123191313D01*
X112898196Y-123179000D01*
X112981804Y-123179000D01*
X113106823Y-123191313D01*
X113106823Y-123191313D01*
G37*
G36*
X131693228Y-123006703D02*
G01*
X131848100Y-123070853D01*
X131987481Y-123163985D01*
X132106015Y-123282519D01*
X132199147Y-123421900D01*
X132263297Y-123576772D01*
X132296000Y-123741184D01*
X132296000Y-123908816D01*
X132263297Y-124073228D01*
X132199147Y-124228100D01*
X132106015Y-124367481D01*
X131987481Y-124486015D01*
X131848100Y-124579147D01*
X131693228Y-124643297D01*
X131528816Y-124676000D01*
X131361184Y-124676000D01*
X131196772Y-124643297D01*
X131041900Y-124579147D01*
X130902519Y-124486015D01*
X130783985Y-124367481D01*
X130690853Y-124228100D01*
X130626703Y-124073228D01*
X130594000Y-123908816D01*
X130594000Y-123741184D01*
X130626703Y-123576772D01*
X130690853Y-123421900D01*
X130783985Y-123282519D01*
X130902519Y-123163985D01*
X131041900Y-123070853D01*
X131196772Y-123006703D01*
X131361184Y-122974000D01*
X131528816Y-122974000D01*
X131693228Y-123006703D01*
X131693228Y-123006703D01*
G37*
G36*
X134868228Y-123006703D02*
G01*
X135023100Y-123070853D01*
X135162481Y-123163985D01*
X135281015Y-123282519D01*
X135374147Y-123421900D01*
X135438297Y-123576772D01*
X135471000Y-123741184D01*
X135471000Y-123908816D01*
X135438297Y-124073228D01*
X135374147Y-124228100D01*
X135281015Y-124367481D01*
X135162481Y-124486015D01*
X135023100Y-124579147D01*
X134868228Y-124643297D01*
X134703816Y-124676000D01*
X134536184Y-124676000D01*
X134371772Y-124643297D01*
X134216900Y-124579147D01*
X134077519Y-124486015D01*
X133958985Y-124367481D01*
X133865853Y-124228100D01*
X133801703Y-124073228D01*
X133769000Y-123908816D01*
X133769000Y-123741184D01*
X133801703Y-123576772D01*
X133865853Y-123421900D01*
X133958985Y-123282519D01*
X134077519Y-123163985D01*
X134216900Y-123070853D01*
X134371772Y-123006703D01*
X134536184Y-122974000D01*
X134703816Y-122974000D01*
X134868228Y-123006703D01*
X134868228Y-123006703D01*
G37*
G36*
X100324228Y-122371703D02*
G01*
X100479100Y-122435853D01*
X100618481Y-122528985D01*
X100737015Y-122647519D01*
X100830147Y-122786900D01*
X100894297Y-122941772D01*
X100927000Y-123106184D01*
X100927000Y-123273816D01*
X100894297Y-123438228D01*
X100830147Y-123593100D01*
X100737015Y-123732481D01*
X100618481Y-123851015D01*
X100479100Y-123944147D01*
X100324228Y-124008297D01*
X100159816Y-124041000D01*
X99992184Y-124041000D01*
X99827772Y-124008297D01*
X99672900Y-123944147D01*
X99533519Y-123851015D01*
X99414985Y-123732481D01*
X99321853Y-123593100D01*
X99257703Y-123438228D01*
X99225000Y-123273816D01*
X99225000Y-123106184D01*
X99257703Y-122941772D01*
X99321853Y-122786900D01*
X99414985Y-122647519D01*
X99533519Y-122528985D01*
X99672900Y-122435853D01*
X99827772Y-122371703D01*
X99992184Y-122339000D01*
X100159816Y-122339000D01*
X100324228Y-122371703D01*
X100324228Y-122371703D01*
G37*
G36*
X113106823Y-120651313D02*
G01*
X113267242Y-120699976D01*
X113399906Y-120770886D01*
X113415078Y-120778996D01*
X113544659Y-120885341D01*
X113651004Y-121014922D01*
X113651005Y-121014924D01*
X113730024Y-121162758D01*
X113778687Y-121323177D01*
X113795117Y-121490000D01*
X113778687Y-121656823D01*
X113730024Y-121817242D01*
X113659114Y-121949906D01*
X113651004Y-121965078D01*
X113544659Y-122094659D01*
X113415078Y-122201004D01*
X113415076Y-122201005D01*
X113267242Y-122280024D01*
X113106823Y-122328687D01*
X112981804Y-122341000D01*
X112898196Y-122341000D01*
X112773177Y-122328687D01*
X112612758Y-122280024D01*
X112464924Y-122201005D01*
X112464922Y-122201004D01*
X112335341Y-122094659D01*
X112228996Y-121965078D01*
X112220886Y-121949906D01*
X112149976Y-121817242D01*
X112101313Y-121656823D01*
X112084883Y-121490000D01*
X112101313Y-121323177D01*
X112149976Y-121162758D01*
X112228995Y-121014924D01*
X112228996Y-121014922D01*
X112335341Y-120885341D01*
X112464922Y-120778996D01*
X112480094Y-120770886D01*
X112612758Y-120699976D01*
X112773177Y-120651313D01*
X112898196Y-120639000D01*
X112981804Y-120639000D01*
X113106823Y-120651313D01*
X113106823Y-120651313D01*
G37*
G36*
X128346823Y-120651313D02*
G01*
X128507242Y-120699976D01*
X128639906Y-120770886D01*
X128655078Y-120778996D01*
X128784659Y-120885341D01*
X128891004Y-121014922D01*
X128891005Y-121014924D01*
X128970024Y-121162758D01*
X129018687Y-121323177D01*
X129035117Y-121490000D01*
X129018687Y-121656823D01*
X128970024Y-121817242D01*
X128899114Y-121949906D01*
X128891004Y-121965078D01*
X128784659Y-122094659D01*
X128655078Y-122201004D01*
X128655076Y-122201005D01*
X128507242Y-122280024D01*
X128346823Y-122328687D01*
X128221804Y-122341000D01*
X128138196Y-122341000D01*
X128013177Y-122328687D01*
X127852758Y-122280024D01*
X127704924Y-122201005D01*
X127704922Y-122201004D01*
X127575341Y-122094659D01*
X127468996Y-121965078D01*
X127460886Y-121949906D01*
X127389976Y-121817242D01*
X127341313Y-121656823D01*
X127324883Y-121490000D01*
X127341313Y-121323177D01*
X127389976Y-121162758D01*
X127468995Y-121014924D01*
X127468996Y-121014922D01*
X127575341Y-120885341D01*
X127704922Y-120778996D01*
X127720094Y-120770886D01*
X127852758Y-120699976D01*
X128013177Y-120651313D01*
X128138196Y-120639000D01*
X128221804Y-120639000D01*
X128346823Y-120651313D01*
X128346823Y-120651313D01*
G37*
G36*
X108093642Y-119649781D02*
G01*
X108239414Y-119710162D01*
X108239416Y-119710163D01*
X108370608Y-119797822D01*
X108482178Y-119909392D01*
X108569837Y-120040584D01*
X108569838Y-120040586D01*
X108630219Y-120186358D01*
X108661000Y-120341107D01*
X108661000Y-120498893D01*
X108630219Y-120653642D01*
X108610253Y-120701844D01*
X108569837Y-120799416D01*
X108482178Y-120930608D01*
X108370608Y-121042178D01*
X108239416Y-121129837D01*
X108239415Y-121129838D01*
X108239414Y-121129838D01*
X108093642Y-121190219D01*
X107938893Y-121221000D01*
X107781107Y-121221000D01*
X107626358Y-121190219D01*
X107480586Y-121129838D01*
X107480585Y-121129838D01*
X107480584Y-121129837D01*
X107349392Y-121042178D01*
X107237822Y-120930608D01*
X107150163Y-120799416D01*
X107109747Y-120701844D01*
X107089781Y-120653642D01*
X107059000Y-120498893D01*
X107059000Y-120341107D01*
X107089781Y-120186358D01*
X107150162Y-120040586D01*
X107150163Y-120040584D01*
X107237822Y-119909392D01*
X107349392Y-119797822D01*
X107480584Y-119710163D01*
X107480586Y-119710162D01*
X107626358Y-119649781D01*
X107781107Y-119619000D01*
X107938893Y-119619000D01*
X108093642Y-119649781D01*
X108093642Y-119649781D01*
G37*
G36*
X54203873Y-118917983D02*
G01*
X54321150Y-118941311D01*
X54521520Y-119024307D01*
X54701844Y-119144795D01*
X54855205Y-119298156D01*
X54975693Y-119478480D01*
X54975693Y-119478481D01*
X55058689Y-119678850D01*
X55079845Y-119785206D01*
X55101000Y-119891560D01*
X55101000Y-120108440D01*
X55058689Y-120321149D01*
X54975693Y-120521520D01*
X54855205Y-120701844D01*
X54701844Y-120855205D01*
X54521520Y-120975693D01*
X54421334Y-121017191D01*
X54321150Y-121058689D01*
X54214795Y-121079844D01*
X54108440Y-121101000D01*
X53891560Y-121101000D01*
X53785205Y-121079844D01*
X53678850Y-121058689D01*
X53578666Y-121017191D01*
X53478480Y-120975693D01*
X53298156Y-120855205D01*
X53144795Y-120701844D01*
X53024307Y-120521520D01*
X52941311Y-120321149D01*
X52899000Y-120108440D01*
X52899000Y-119891560D01*
X52920155Y-119785206D01*
X52941311Y-119678850D01*
X53024307Y-119478481D01*
X53024307Y-119478480D01*
X53144795Y-119298156D01*
X53298156Y-119144795D01*
X53478480Y-119024307D01*
X53678850Y-118941311D01*
X53796127Y-118917983D01*
X53891560Y-118899000D01*
X54108440Y-118899000D01*
X54203873Y-118917983D01*
X54203873Y-118917983D01*
G37*
G36*
X92203873Y-118917983D02*
G01*
X92321150Y-118941311D01*
X92521520Y-119024307D01*
X92701844Y-119144795D01*
X92855205Y-119298156D01*
X92975693Y-119478480D01*
X92975693Y-119478481D01*
X93058689Y-119678850D01*
X93079845Y-119785206D01*
X93101000Y-119891560D01*
X93101000Y-120108440D01*
X93058689Y-120321149D01*
X92975693Y-120521520D01*
X92855205Y-120701844D01*
X92701844Y-120855205D01*
X92521520Y-120975693D01*
X92421334Y-121017191D01*
X92321150Y-121058689D01*
X92214795Y-121079844D01*
X92108440Y-121101000D01*
X91891560Y-121101000D01*
X91785205Y-121079844D01*
X91678850Y-121058689D01*
X91578666Y-121017191D01*
X91478480Y-120975693D01*
X91298156Y-120855205D01*
X91144795Y-120701844D01*
X91024307Y-120521520D01*
X90941311Y-120321149D01*
X90899000Y-120108440D01*
X90899000Y-119891560D01*
X90920155Y-119785206D01*
X90941311Y-119678850D01*
X91024307Y-119478481D01*
X91024307Y-119478480D01*
X91144795Y-119298156D01*
X91298156Y-119144795D01*
X91478480Y-119024307D01*
X91678850Y-118941311D01*
X91796127Y-118917983D01*
X91891560Y-118899000D01*
X92108440Y-118899000D01*
X92203873Y-118917983D01*
X92203873Y-118917983D01*
G37*
G36*
X128346823Y-118111313D02*
G01*
X128507242Y-118159976D01*
X128581487Y-118199661D01*
X128655078Y-118238996D01*
X128784659Y-118345341D01*
X128891004Y-118474922D01*
X128891005Y-118474924D01*
X128970024Y-118622758D01*
X129018687Y-118783177D01*
X129035117Y-118950000D01*
X129018687Y-119116823D01*
X128970024Y-119277242D01*
X128958846Y-119298154D01*
X128891004Y-119425078D01*
X128784659Y-119554659D01*
X128655078Y-119661004D01*
X128655076Y-119661005D01*
X128507242Y-119740024D01*
X128346823Y-119788687D01*
X128221804Y-119801000D01*
X128138196Y-119801000D01*
X128013177Y-119788687D01*
X127852758Y-119740024D01*
X127704924Y-119661005D01*
X127704922Y-119661004D01*
X127575341Y-119554659D01*
X127468996Y-119425078D01*
X127401154Y-119298154D01*
X127389976Y-119277242D01*
X127341313Y-119116823D01*
X127324883Y-118950000D01*
X127341313Y-118783177D01*
X127389976Y-118622758D01*
X127468995Y-118474924D01*
X127468996Y-118474922D01*
X127575341Y-118345341D01*
X127704922Y-118238996D01*
X127778513Y-118199661D01*
X127852758Y-118159976D01*
X128013177Y-118111313D01*
X128138196Y-118099000D01*
X128221804Y-118099000D01*
X128346823Y-118111313D01*
X128346823Y-118111313D01*
G37*
G36*
X113106823Y-118111313D02*
G01*
X113267242Y-118159976D01*
X113341487Y-118199661D01*
X113415078Y-118238996D01*
X113544659Y-118345341D01*
X113651004Y-118474922D01*
X113651005Y-118474924D01*
X113730024Y-118622758D01*
X113778687Y-118783177D01*
X113795117Y-118950000D01*
X113778687Y-119116823D01*
X113730024Y-119277242D01*
X113718846Y-119298154D01*
X113651004Y-119425078D01*
X113544659Y-119554659D01*
X113415078Y-119661004D01*
X113415076Y-119661005D01*
X113267242Y-119740024D01*
X113106823Y-119788687D01*
X112981804Y-119801000D01*
X112898196Y-119801000D01*
X112773177Y-119788687D01*
X112612758Y-119740024D01*
X112464924Y-119661005D01*
X112464922Y-119661004D01*
X112335341Y-119554659D01*
X112228996Y-119425078D01*
X112161154Y-119298154D01*
X112149976Y-119277242D01*
X112101313Y-119116823D01*
X112084883Y-118950000D01*
X112101313Y-118783177D01*
X112149976Y-118622758D01*
X112228995Y-118474924D01*
X112228996Y-118474922D01*
X112335341Y-118345341D01*
X112464922Y-118238996D01*
X112538513Y-118199661D01*
X112612758Y-118159976D01*
X112773177Y-118111313D01*
X112898196Y-118099000D01*
X112981804Y-118099000D01*
X113106823Y-118111313D01*
X113106823Y-118111313D01*
G37*
G36*
X126064674Y-117996465D02*
G01*
X126102367Y-118007899D01*
X126137103Y-118026466D01*
X126167548Y-118051452D01*
X126192534Y-118081897D01*
X126211101Y-118116633D01*
X126222535Y-118154326D01*
X126227000Y-118199661D01*
X126227000Y-119036339D01*
X126222535Y-119081674D01*
X126211101Y-119119367D01*
X126192534Y-119154103D01*
X126167548Y-119184548D01*
X126137103Y-119209534D01*
X126102367Y-119228101D01*
X126064674Y-119239535D01*
X126019339Y-119244000D01*
X124932661Y-119244000D01*
X124887326Y-119239535D01*
X124849633Y-119228101D01*
X124814897Y-119209534D01*
X124784452Y-119184548D01*
X124759466Y-119154103D01*
X124740899Y-119119367D01*
X124729465Y-119081674D01*
X124725000Y-119036339D01*
X124725000Y-118199661D01*
X124729465Y-118154326D01*
X124740899Y-118116633D01*
X124759466Y-118081897D01*
X124784452Y-118051452D01*
X124814897Y-118026466D01*
X124849633Y-118007899D01*
X124887326Y-117996465D01*
X124932661Y-117992000D01*
X126019339Y-117992000D01*
X126064674Y-117996465D01*
X126064674Y-117996465D01*
G37*
G36*
X116158674Y-117838465D02*
G01*
X116196367Y-117849899D01*
X116231103Y-117868466D01*
X116261548Y-117893452D01*
X116286534Y-117923897D01*
X116305101Y-117958633D01*
X116316535Y-117996326D01*
X116321000Y-118041661D01*
X116321000Y-118878339D01*
X116316535Y-118923674D01*
X116305101Y-118961367D01*
X116286534Y-118996103D01*
X116261548Y-119026548D01*
X116231103Y-119051534D01*
X116196367Y-119070101D01*
X116158674Y-119081535D01*
X116113339Y-119086000D01*
X115026661Y-119086000D01*
X114981326Y-119081535D01*
X114943633Y-119070101D01*
X114908897Y-119051534D01*
X114878452Y-119026548D01*
X114853466Y-118996103D01*
X114834899Y-118961367D01*
X114823465Y-118923674D01*
X114819000Y-118878339D01*
X114819000Y-118041661D01*
X114823465Y-117996326D01*
X114834899Y-117958633D01*
X114853466Y-117923897D01*
X114878452Y-117893452D01*
X114908897Y-117868466D01*
X114943633Y-117849899D01*
X114981326Y-117838465D01*
X115026661Y-117834000D01*
X116113339Y-117834000D01*
X116158674Y-117838465D01*
X116158674Y-117838465D01*
G37*
G36*
X100324228Y-117371703D02*
G01*
X100479100Y-117435853D01*
X100618481Y-117528985D01*
X100737015Y-117647519D01*
X100830147Y-117786900D01*
X100894297Y-117941772D01*
X100927000Y-118106184D01*
X100927000Y-118273816D01*
X100894297Y-118438228D01*
X100830147Y-118593100D01*
X100737015Y-118732481D01*
X100618481Y-118851015D01*
X100479100Y-118944147D01*
X100324228Y-119008297D01*
X100159816Y-119041000D01*
X99992184Y-119041000D01*
X99827772Y-119008297D01*
X99672900Y-118944147D01*
X99533519Y-118851015D01*
X99414985Y-118732481D01*
X99321853Y-118593100D01*
X99257703Y-118438228D01*
X99225000Y-118273816D01*
X99225000Y-118106184D01*
X99257703Y-117941772D01*
X99321853Y-117786900D01*
X99414985Y-117647519D01*
X99533519Y-117528985D01*
X99672900Y-117435853D01*
X99827772Y-117371703D01*
X99992184Y-117339000D01*
X100159816Y-117339000D01*
X100324228Y-117371703D01*
X100324228Y-117371703D01*
G37*
G36*
X113106823Y-115571313D02*
G01*
X113267242Y-115619976D01*
X113396652Y-115689147D01*
X113415078Y-115698996D01*
X113544659Y-115805341D01*
X113651004Y-115934922D01*
X113651005Y-115934924D01*
X113730024Y-116082758D01*
X113778687Y-116243177D01*
X113795117Y-116410000D01*
X113778687Y-116576823D01*
X113730024Y-116737242D01*
X113679909Y-116831000D01*
X113651004Y-116885078D01*
X113544659Y-117014659D01*
X113415078Y-117121004D01*
X113415076Y-117121005D01*
X113267242Y-117200024D01*
X113106823Y-117248687D01*
X112981804Y-117261000D01*
X112898196Y-117261000D01*
X112773177Y-117248687D01*
X112612758Y-117200024D01*
X112464924Y-117121005D01*
X112464922Y-117121004D01*
X112335341Y-117014659D01*
X112228996Y-116885078D01*
X112200091Y-116831000D01*
X112149976Y-116737242D01*
X112101313Y-116576823D01*
X112084883Y-116410000D01*
X112101313Y-116243177D01*
X112149976Y-116082758D01*
X112228995Y-115934924D01*
X112228996Y-115934922D01*
X112335341Y-115805341D01*
X112464922Y-115698996D01*
X112483348Y-115689147D01*
X112612758Y-115619976D01*
X112773177Y-115571313D01*
X112898196Y-115559000D01*
X112981804Y-115559000D01*
X113106823Y-115571313D01*
X113106823Y-115571313D01*
G37*
G36*
X128346823Y-115571313D02*
G01*
X128507242Y-115619976D01*
X128636652Y-115689147D01*
X128655078Y-115698996D01*
X128784659Y-115805341D01*
X128891004Y-115934922D01*
X128891005Y-115934924D01*
X128970024Y-116082758D01*
X129018687Y-116243177D01*
X129035117Y-116410000D01*
X129018687Y-116576823D01*
X128970024Y-116737242D01*
X128919909Y-116831000D01*
X128891004Y-116885078D01*
X128784659Y-117014659D01*
X128655078Y-117121004D01*
X128655076Y-117121005D01*
X128507242Y-117200024D01*
X128346823Y-117248687D01*
X128221804Y-117261000D01*
X128138196Y-117261000D01*
X128013177Y-117248687D01*
X127852758Y-117200024D01*
X127704924Y-117121005D01*
X127704922Y-117121004D01*
X127575341Y-117014659D01*
X127468996Y-116885078D01*
X127440091Y-116831000D01*
X127389976Y-116737242D01*
X127341313Y-116576823D01*
X127324883Y-116410000D01*
X127341313Y-116243177D01*
X127389976Y-116082758D01*
X127468995Y-115934924D01*
X127468996Y-115934922D01*
X127575341Y-115805341D01*
X127704922Y-115698996D01*
X127723348Y-115689147D01*
X127852758Y-115619976D01*
X128013177Y-115571313D01*
X128138196Y-115559000D01*
X128221804Y-115559000D01*
X128346823Y-115571313D01*
X128346823Y-115571313D01*
G37*
G36*
X90303512Y-115453927D02*
G01*
X90452812Y-115483624D01*
X90616784Y-115551544D01*
X90764354Y-115650147D01*
X90889853Y-115775646D01*
X90988456Y-115923216D01*
X91056376Y-116087188D01*
X91091000Y-116261259D01*
X91091000Y-116438741D01*
X91056376Y-116612812D01*
X90988456Y-116776784D01*
X90889853Y-116924354D01*
X90764354Y-117049853D01*
X90616784Y-117148456D01*
X90452812Y-117216376D01*
X90303512Y-117246073D01*
X90278742Y-117251000D01*
X90101258Y-117251000D01*
X90076488Y-117246073D01*
X89927188Y-117216376D01*
X89763216Y-117148456D01*
X89615646Y-117049853D01*
X89490147Y-116924354D01*
X89391544Y-116776784D01*
X89323624Y-116612812D01*
X89289000Y-116438741D01*
X89289000Y-116261259D01*
X89323624Y-116087188D01*
X89391544Y-115923216D01*
X89490147Y-115775646D01*
X89615646Y-115650147D01*
X89763216Y-115551544D01*
X89927188Y-115483624D01*
X90076488Y-115453927D01*
X90101258Y-115449000D01*
X90278742Y-115449000D01*
X90303512Y-115453927D01*
X90303512Y-115453927D01*
G37*
G36*
X126064674Y-115946465D02*
G01*
X126102367Y-115957899D01*
X126137103Y-115976466D01*
X126167548Y-116001452D01*
X126192534Y-116031897D01*
X126211101Y-116066633D01*
X126222535Y-116104326D01*
X126227000Y-116149661D01*
X126227000Y-116986339D01*
X126222535Y-117031674D01*
X126211101Y-117069367D01*
X126192534Y-117104103D01*
X126167548Y-117134548D01*
X126137103Y-117159534D01*
X126102367Y-117178101D01*
X126064674Y-117189535D01*
X126019339Y-117194000D01*
X124932661Y-117194000D01*
X124887326Y-117189535D01*
X124849633Y-117178101D01*
X124814897Y-117159534D01*
X124784452Y-117134548D01*
X124759466Y-117104103D01*
X124740899Y-117069367D01*
X124729465Y-117031674D01*
X124725000Y-116986339D01*
X124725000Y-116149661D01*
X124729465Y-116104326D01*
X124740899Y-116066633D01*
X124759466Y-116031897D01*
X124784452Y-116001452D01*
X124814897Y-115976466D01*
X124849633Y-115957899D01*
X124887326Y-115946465D01*
X124932661Y-115942000D01*
X126019339Y-115942000D01*
X126064674Y-115946465D01*
X126064674Y-115946465D01*
G37*
G36*
X116158674Y-115788465D02*
G01*
X116196367Y-115799899D01*
X116231103Y-115818466D01*
X116261548Y-115843452D01*
X116286534Y-115873897D01*
X116305101Y-115908633D01*
X116316535Y-115946326D01*
X116321000Y-115991661D01*
X116321000Y-116828339D01*
X116316535Y-116873674D01*
X116305101Y-116911367D01*
X116286534Y-116946103D01*
X116261548Y-116976548D01*
X116231103Y-117001534D01*
X116196367Y-117020101D01*
X116158674Y-117031535D01*
X116113339Y-117036000D01*
X115026661Y-117036000D01*
X114981326Y-117031535D01*
X114943633Y-117020101D01*
X114908897Y-117001534D01*
X114878452Y-116976548D01*
X114853466Y-116946103D01*
X114834899Y-116911367D01*
X114823465Y-116873674D01*
X114819000Y-116828339D01*
X114819000Y-115991661D01*
X114823465Y-115946326D01*
X114834899Y-115908633D01*
X114853466Y-115873897D01*
X114878452Y-115843452D01*
X114908897Y-115818466D01*
X114943633Y-115799899D01*
X114981326Y-115788465D01*
X115026661Y-115784000D01*
X116113339Y-115784000D01*
X116158674Y-115788465D01*
X116158674Y-115788465D01*
G37*
G36*
X131398674Y-115583465D02*
G01*
X131436367Y-115594899D01*
X131471103Y-115613466D01*
X131501548Y-115638452D01*
X131526534Y-115668897D01*
X131545101Y-115703633D01*
X131556535Y-115741326D01*
X131561000Y-115786661D01*
X131561000Y-116623339D01*
X131556535Y-116668674D01*
X131545101Y-116706367D01*
X131526534Y-116741103D01*
X131501548Y-116771548D01*
X131471103Y-116796534D01*
X131436367Y-116815101D01*
X131398674Y-116826535D01*
X131353339Y-116831000D01*
X130266661Y-116831000D01*
X130221326Y-116826535D01*
X130183633Y-116815101D01*
X130148897Y-116796534D01*
X130118452Y-116771548D01*
X130093466Y-116741103D01*
X130074899Y-116706367D01*
X130063465Y-116668674D01*
X130059000Y-116623339D01*
X130059000Y-115786661D01*
X130063465Y-115741326D01*
X130074899Y-115703633D01*
X130093466Y-115668897D01*
X130118452Y-115638452D01*
X130148897Y-115613466D01*
X130183633Y-115594899D01*
X130221326Y-115583465D01*
X130266661Y-115579000D01*
X131353339Y-115579000D01*
X131398674Y-115583465D01*
X131398674Y-115583465D01*
G37*
G36*
X108116823Y-114096313D02*
G01*
X108277242Y-114144976D01*
X108409906Y-114215886D01*
X108425078Y-114223996D01*
X108554659Y-114330341D01*
X108661004Y-114459922D01*
X108661005Y-114459924D01*
X108740024Y-114607758D01*
X108788687Y-114768177D01*
X108805117Y-114935000D01*
X108788687Y-115101823D01*
X108740024Y-115262242D01*
X108699477Y-115338100D01*
X108661004Y-115410078D01*
X108554659Y-115539659D01*
X108425078Y-115646004D01*
X108425076Y-115646005D01*
X108277242Y-115725024D01*
X108116823Y-115773687D01*
X107991804Y-115786000D01*
X107908196Y-115786000D01*
X107783177Y-115773687D01*
X107622758Y-115725024D01*
X107474924Y-115646005D01*
X107474922Y-115646004D01*
X107345341Y-115539659D01*
X107238996Y-115410078D01*
X107200523Y-115338100D01*
X107159976Y-115262242D01*
X107111313Y-115101823D01*
X107094883Y-114935000D01*
X107111313Y-114768177D01*
X107159976Y-114607758D01*
X107238995Y-114459924D01*
X107238996Y-114459922D01*
X107345341Y-114330341D01*
X107474922Y-114223996D01*
X107490094Y-114215886D01*
X107622758Y-114144976D01*
X107783177Y-114096313D01*
X107908196Y-114084000D01*
X107991804Y-114084000D01*
X108116823Y-114096313D01*
X108116823Y-114096313D01*
G37*
G36*
X98038228Y-114116703D02*
G01*
X98193100Y-114180853D01*
X98332481Y-114273985D01*
X98451015Y-114392519D01*
X98544147Y-114531900D01*
X98608297Y-114686772D01*
X98641000Y-114851184D01*
X98641000Y-115018816D01*
X98608297Y-115183228D01*
X98544147Y-115338100D01*
X98451015Y-115477481D01*
X98332481Y-115596015D01*
X98193100Y-115689147D01*
X98038228Y-115753297D01*
X97873816Y-115786000D01*
X97706184Y-115786000D01*
X97541772Y-115753297D01*
X97386900Y-115689147D01*
X97247519Y-115596015D01*
X97128985Y-115477481D01*
X97035853Y-115338100D01*
X96971703Y-115183228D01*
X96939000Y-115018816D01*
X96939000Y-114851184D01*
X96971703Y-114686772D01*
X97035853Y-114531900D01*
X97128985Y-114392519D01*
X97247519Y-114273985D01*
X97386900Y-114180853D01*
X97541772Y-114116703D01*
X97706184Y-114084000D01*
X97873816Y-114084000D01*
X98038228Y-114116703D01*
X98038228Y-114116703D01*
G37*
G36*
X131398674Y-113533465D02*
G01*
X131436367Y-113544899D01*
X131471103Y-113563466D01*
X131501548Y-113588452D01*
X131526534Y-113618897D01*
X131545101Y-113653633D01*
X131556535Y-113691326D01*
X131561000Y-113736661D01*
X131561000Y-114573339D01*
X131556535Y-114618674D01*
X131545101Y-114656367D01*
X131526534Y-114691103D01*
X131501548Y-114721548D01*
X131471103Y-114746534D01*
X131436367Y-114765101D01*
X131398674Y-114776535D01*
X131353339Y-114781000D01*
X130266661Y-114781000D01*
X130221326Y-114776535D01*
X130183633Y-114765101D01*
X130148897Y-114746534D01*
X130118452Y-114721548D01*
X130093466Y-114691103D01*
X130074899Y-114656367D01*
X130063465Y-114618674D01*
X130059000Y-114573339D01*
X130059000Y-113736661D01*
X130063465Y-113691326D01*
X130074899Y-113653633D01*
X130093466Y-113618897D01*
X130118452Y-113588452D01*
X130148897Y-113563466D01*
X130183633Y-113544899D01*
X130221326Y-113533465D01*
X130266661Y-113529000D01*
X131353339Y-113529000D01*
X131398674Y-113533465D01*
X131398674Y-113533465D01*
G37*
G36*
X128346823Y-113031313D02*
G01*
X128507242Y-113079976D01*
X128639906Y-113150886D01*
X128655078Y-113158996D01*
X128784659Y-113265341D01*
X128891004Y-113394922D01*
X128891005Y-113394924D01*
X128970024Y-113542758D01*
X128970025Y-113542761D01*
X128971368Y-113547188D01*
X129018687Y-113703177D01*
X129035117Y-113870000D01*
X129018687Y-114036823D01*
X128970024Y-114197242D01*
X128948889Y-114236782D01*
X128891004Y-114345078D01*
X128784659Y-114474659D01*
X128655078Y-114581004D01*
X128655076Y-114581005D01*
X128507242Y-114660024D01*
X128346823Y-114708687D01*
X128221804Y-114721000D01*
X128138196Y-114721000D01*
X128013177Y-114708687D01*
X127852758Y-114660024D01*
X127704924Y-114581005D01*
X127704922Y-114581004D01*
X127575341Y-114474659D01*
X127468996Y-114345078D01*
X127411111Y-114236782D01*
X127389976Y-114197242D01*
X127341313Y-114036823D01*
X127324883Y-113870000D01*
X127341313Y-113703177D01*
X127388632Y-113547188D01*
X127389975Y-113542761D01*
X127389976Y-113542758D01*
X127468995Y-113394924D01*
X127468996Y-113394922D01*
X127575341Y-113265341D01*
X127704922Y-113158996D01*
X127720094Y-113150886D01*
X127852758Y-113079976D01*
X128013177Y-113031313D01*
X128138196Y-113019000D01*
X128221804Y-113019000D01*
X128346823Y-113031313D01*
X128346823Y-113031313D01*
G37*
G36*
X113106823Y-113031313D02*
G01*
X113267242Y-113079976D01*
X113399906Y-113150886D01*
X113415078Y-113158996D01*
X113544659Y-113265341D01*
X113651004Y-113394922D01*
X113651005Y-113394924D01*
X113730024Y-113542758D01*
X113730025Y-113542761D01*
X113731368Y-113547188D01*
X113778687Y-113703177D01*
X113795117Y-113870000D01*
X113778687Y-114036823D01*
X113730024Y-114197242D01*
X113708889Y-114236782D01*
X113651004Y-114345078D01*
X113544659Y-114474659D01*
X113415078Y-114581004D01*
X113415076Y-114581005D01*
X113267242Y-114660024D01*
X113106823Y-114708687D01*
X112981804Y-114721000D01*
X112898196Y-114721000D01*
X112773177Y-114708687D01*
X112612758Y-114660024D01*
X112464924Y-114581005D01*
X112464922Y-114581004D01*
X112335341Y-114474659D01*
X112228996Y-114345078D01*
X112171111Y-114236782D01*
X112149976Y-114197242D01*
X112101313Y-114036823D01*
X112084883Y-113870000D01*
X112101313Y-113703177D01*
X112148632Y-113547188D01*
X112149975Y-113542761D01*
X112149976Y-113542758D01*
X112228995Y-113394924D01*
X112228996Y-113394922D01*
X112335341Y-113265341D01*
X112464922Y-113158996D01*
X112480094Y-113150886D01*
X112612758Y-113079976D01*
X112773177Y-113031313D01*
X112898196Y-113019000D01*
X112981804Y-113019000D01*
X113106823Y-113031313D01*
X113106823Y-113031313D01*
G37*
G36*
X90303512Y-112913927D02*
G01*
X90452812Y-112943624D01*
X90616784Y-113011544D01*
X90764354Y-113110147D01*
X90889853Y-113235646D01*
X90988456Y-113383216D01*
X91056376Y-113547188D01*
X91091000Y-113721259D01*
X91091000Y-113898741D01*
X91056376Y-114072812D01*
X90988456Y-114236784D01*
X90889853Y-114384354D01*
X90764354Y-114509853D01*
X90616784Y-114608456D01*
X90452812Y-114676376D01*
X90303512Y-114706073D01*
X90278742Y-114711000D01*
X90101258Y-114711000D01*
X90076488Y-114706073D01*
X89927188Y-114676376D01*
X89763216Y-114608456D01*
X89615646Y-114509853D01*
X89490147Y-114384354D01*
X89391544Y-114236784D01*
X89323624Y-114072812D01*
X89289000Y-113898741D01*
X89289000Y-113721259D01*
X89323624Y-113547188D01*
X89391544Y-113383216D01*
X89490147Y-113235646D01*
X89615646Y-113110147D01*
X89763216Y-113011544D01*
X89927188Y-112943624D01*
X90076488Y-112913927D01*
X90101258Y-112909000D01*
X90278742Y-112909000D01*
X90303512Y-112913927D01*
X90303512Y-112913927D01*
G37*
G36*
X128346823Y-110491313D02*
G01*
X128507242Y-110539976D01*
X128639906Y-110610886D01*
X128655078Y-110618996D01*
X128784659Y-110725341D01*
X128891004Y-110854922D01*
X128891005Y-110854924D01*
X128970024Y-111002758D01*
X129018687Y-111163177D01*
X129035117Y-111330000D01*
X129018687Y-111496823D01*
X128970024Y-111657242D01*
X128948889Y-111696782D01*
X128891004Y-111805078D01*
X128784659Y-111934659D01*
X128655078Y-112041004D01*
X128655076Y-112041005D01*
X128507242Y-112120024D01*
X128346823Y-112168687D01*
X128221804Y-112181000D01*
X128138196Y-112181000D01*
X128013177Y-112168687D01*
X127852758Y-112120024D01*
X127704924Y-112041005D01*
X127704922Y-112041004D01*
X127575341Y-111934659D01*
X127468996Y-111805078D01*
X127411111Y-111696782D01*
X127389976Y-111657242D01*
X127341313Y-111496823D01*
X127324883Y-111330000D01*
X127341313Y-111163177D01*
X127389976Y-111002758D01*
X127468995Y-110854924D01*
X127468996Y-110854922D01*
X127575341Y-110725341D01*
X127704922Y-110618996D01*
X127720094Y-110610886D01*
X127852758Y-110539976D01*
X128013177Y-110491313D01*
X128138196Y-110479000D01*
X128221804Y-110479000D01*
X128346823Y-110491313D01*
X128346823Y-110491313D01*
G37*
G36*
X113106823Y-110491313D02*
G01*
X113267242Y-110539976D01*
X113399906Y-110610886D01*
X113415078Y-110618996D01*
X113544659Y-110725341D01*
X113651004Y-110854922D01*
X113651005Y-110854924D01*
X113730024Y-111002758D01*
X113778687Y-111163177D01*
X113795117Y-111330000D01*
X113778687Y-111496823D01*
X113730024Y-111657242D01*
X113708889Y-111696782D01*
X113651004Y-111805078D01*
X113544659Y-111934659D01*
X113415078Y-112041004D01*
X113415076Y-112041005D01*
X113267242Y-112120024D01*
X113106823Y-112168687D01*
X112981804Y-112181000D01*
X112898196Y-112181000D01*
X112773177Y-112168687D01*
X112612758Y-112120024D01*
X112464924Y-112041005D01*
X112464922Y-112041004D01*
X112335341Y-111934659D01*
X112228996Y-111805078D01*
X112171111Y-111696782D01*
X112149976Y-111657242D01*
X112101313Y-111496823D01*
X112084883Y-111330000D01*
X112101313Y-111163177D01*
X112149976Y-111002758D01*
X112228995Y-110854924D01*
X112228996Y-110854922D01*
X112335341Y-110725341D01*
X112464922Y-110618996D01*
X112480094Y-110610886D01*
X112612758Y-110539976D01*
X112773177Y-110491313D01*
X112898196Y-110479000D01*
X112981804Y-110479000D01*
X113106823Y-110491313D01*
X113106823Y-110491313D01*
G37*
G36*
X90303512Y-110373927D02*
G01*
X90452812Y-110403624D01*
X90616784Y-110471544D01*
X90764354Y-110570147D01*
X90889853Y-110695646D01*
X90988456Y-110843216D01*
X91056376Y-111007188D01*
X91091000Y-111181259D01*
X91091000Y-111358741D01*
X91056376Y-111532812D01*
X90988456Y-111696784D01*
X90889853Y-111844354D01*
X90764354Y-111969853D01*
X90616784Y-112068456D01*
X90452812Y-112136376D01*
X90303512Y-112166073D01*
X90278742Y-112171000D01*
X90101258Y-112171000D01*
X90076488Y-112166073D01*
X89927188Y-112136376D01*
X89763216Y-112068456D01*
X89615646Y-111969853D01*
X89490147Y-111844354D01*
X89391544Y-111696784D01*
X89323624Y-111532812D01*
X89289000Y-111358741D01*
X89289000Y-111181259D01*
X89323624Y-111007188D01*
X89391544Y-110843216D01*
X89490147Y-110695646D01*
X89615646Y-110570147D01*
X89763216Y-110471544D01*
X89927188Y-110403624D01*
X90076488Y-110373927D01*
X90101258Y-110369000D01*
X90278742Y-110369000D01*
X90303512Y-110373927D01*
X90303512Y-110373927D01*
G37*
G36*
X138540443Y-108325519D02*
G01*
X138606627Y-108332037D01*
X138776466Y-108383557D01*
X138932991Y-108467222D01*
X138968729Y-108496552D01*
X139070186Y-108579814D01*
X139150369Y-108677519D01*
X139182778Y-108717009D01*
X139266443Y-108873534D01*
X139317963Y-109043373D01*
X139335359Y-109220000D01*
X139317963Y-109396627D01*
X139266443Y-109566466D01*
X139182778Y-109722991D01*
X139153448Y-109758729D01*
X139070186Y-109860186D01*
X138968729Y-109943448D01*
X138932991Y-109972778D01*
X138776466Y-110056443D01*
X138606627Y-110107963D01*
X138540443Y-110114481D01*
X138474260Y-110121000D01*
X138385740Y-110121000D01*
X138319557Y-110114481D01*
X138253373Y-110107963D01*
X138083534Y-110056443D01*
X137927009Y-109972778D01*
X137891271Y-109943448D01*
X137789814Y-109860186D01*
X137706552Y-109758729D01*
X137677222Y-109722991D01*
X137593557Y-109566466D01*
X137542037Y-109396627D01*
X137524641Y-109220000D01*
X137542037Y-109043373D01*
X137593557Y-108873534D01*
X137677222Y-108717009D01*
X137709631Y-108677519D01*
X137789814Y-108579814D01*
X137891271Y-108496552D01*
X137927009Y-108467222D01*
X138083534Y-108383557D01*
X138253373Y-108332037D01*
X138319557Y-108325519D01*
X138385740Y-108319000D01*
X138474260Y-108319000D01*
X138540443Y-108325519D01*
X138540443Y-108325519D01*
G37*
G36*
X141080443Y-108325519D02*
G01*
X141146627Y-108332037D01*
X141316466Y-108383557D01*
X141472991Y-108467222D01*
X141508729Y-108496552D01*
X141610186Y-108579814D01*
X141690369Y-108677519D01*
X141722778Y-108717009D01*
X141806443Y-108873534D01*
X141857963Y-109043373D01*
X141875359Y-109220000D01*
X141857963Y-109396627D01*
X141806443Y-109566466D01*
X141722778Y-109722991D01*
X141693448Y-109758729D01*
X141610186Y-109860186D01*
X141508729Y-109943448D01*
X141472991Y-109972778D01*
X141316466Y-110056443D01*
X141146627Y-110107963D01*
X141080443Y-110114481D01*
X141014260Y-110121000D01*
X140925740Y-110121000D01*
X140859557Y-110114481D01*
X140793373Y-110107963D01*
X140623534Y-110056443D01*
X140467009Y-109972778D01*
X140431271Y-109943448D01*
X140329814Y-109860186D01*
X140246552Y-109758729D01*
X140217222Y-109722991D01*
X140133557Y-109566466D01*
X140082037Y-109396627D01*
X140064641Y-109220000D01*
X140082037Y-109043373D01*
X140133557Y-108873534D01*
X140217222Y-108717009D01*
X140249631Y-108677519D01*
X140329814Y-108579814D01*
X140431271Y-108496552D01*
X140467009Y-108467222D01*
X140623534Y-108383557D01*
X140793373Y-108332037D01*
X140859557Y-108325519D01*
X140925740Y-108319000D01*
X141014260Y-108319000D01*
X141080443Y-108325519D01*
X141080443Y-108325519D01*
G37*
G36*
X143620443Y-108325519D02*
G01*
X143686627Y-108332037D01*
X143856466Y-108383557D01*
X144012991Y-108467222D01*
X144048729Y-108496552D01*
X144150186Y-108579814D01*
X144230369Y-108677519D01*
X144262778Y-108717009D01*
X144346443Y-108873534D01*
X144397963Y-109043373D01*
X144415359Y-109220000D01*
X144397963Y-109396627D01*
X144346443Y-109566466D01*
X144262778Y-109722991D01*
X144233448Y-109758729D01*
X144150186Y-109860186D01*
X144048729Y-109943448D01*
X144012991Y-109972778D01*
X143856466Y-110056443D01*
X143686627Y-110107963D01*
X143620443Y-110114481D01*
X143554260Y-110121000D01*
X143465740Y-110121000D01*
X143399557Y-110114481D01*
X143333373Y-110107963D01*
X143163534Y-110056443D01*
X143007009Y-109972778D01*
X142971271Y-109943448D01*
X142869814Y-109860186D01*
X142786552Y-109758729D01*
X142757222Y-109722991D01*
X142673557Y-109566466D01*
X142622037Y-109396627D01*
X142604641Y-109220000D01*
X142622037Y-109043373D01*
X142673557Y-108873534D01*
X142757222Y-108717009D01*
X142789631Y-108677519D01*
X142869814Y-108579814D01*
X142971271Y-108496552D01*
X143007009Y-108467222D01*
X143163534Y-108383557D01*
X143333373Y-108332037D01*
X143399557Y-108325519D01*
X143465740Y-108319000D01*
X143554260Y-108319000D01*
X143620443Y-108325519D01*
X143620443Y-108325519D01*
G37*
G36*
X146951000Y-110121000D02*
G01*
X145149000Y-110121000D01*
X145149000Y-108319000D01*
X146951000Y-108319000D01*
X146951000Y-110121000D01*
X146951000Y-110121000D01*
G37*
G36*
X96768228Y-108401703D02*
G01*
X96923100Y-108465853D01*
X97062481Y-108558985D01*
X97181015Y-108677519D01*
X97274147Y-108816900D01*
X97338297Y-108971772D01*
X97371000Y-109136184D01*
X97371000Y-109303816D01*
X97338297Y-109468228D01*
X97274147Y-109623100D01*
X97181015Y-109762481D01*
X97062481Y-109881015D01*
X96923100Y-109974147D01*
X96768228Y-110038297D01*
X96603816Y-110071000D01*
X96436184Y-110071000D01*
X96271772Y-110038297D01*
X96116900Y-109974147D01*
X95977519Y-109881015D01*
X95858985Y-109762481D01*
X95765853Y-109623100D01*
X95701703Y-109468228D01*
X95669000Y-109303816D01*
X95669000Y-109136184D01*
X95701703Y-108971772D01*
X95765853Y-108816900D01*
X95858985Y-108677519D01*
X95977519Y-108558985D01*
X96116900Y-108465853D01*
X96271772Y-108401703D01*
X96436184Y-108369000D01*
X96603816Y-108369000D01*
X96768228Y-108401703D01*
X96768228Y-108401703D01*
G37*
G36*
X106846823Y-108381313D02*
G01*
X107007242Y-108429976D01*
X107076922Y-108467221D01*
X107155078Y-108508996D01*
X107284659Y-108615341D01*
X107391004Y-108744922D01*
X107391005Y-108744924D01*
X107470024Y-108892758D01*
X107518687Y-109053177D01*
X107535117Y-109220000D01*
X107518687Y-109386823D01*
X107470024Y-109547242D01*
X107425254Y-109631000D01*
X107391004Y-109695078D01*
X107284659Y-109824659D01*
X107155078Y-109931004D01*
X107155076Y-109931005D01*
X107007242Y-110010024D01*
X106846823Y-110058687D01*
X106721804Y-110071000D01*
X106638196Y-110071000D01*
X106513177Y-110058687D01*
X106352758Y-110010024D01*
X106204924Y-109931005D01*
X106204922Y-109931004D01*
X106075341Y-109824659D01*
X105968996Y-109695078D01*
X105934746Y-109631000D01*
X105889976Y-109547242D01*
X105841313Y-109386823D01*
X105824883Y-109220000D01*
X105841313Y-109053177D01*
X105889976Y-108892758D01*
X105968995Y-108744924D01*
X105968996Y-108744922D01*
X106075341Y-108615341D01*
X106204922Y-108508996D01*
X106283078Y-108467221D01*
X106352758Y-108429976D01*
X106513177Y-108381313D01*
X106638196Y-108369000D01*
X106721804Y-108369000D01*
X106846823Y-108381313D01*
X106846823Y-108381313D01*
G37*
G36*
X128346823Y-107951313D02*
G01*
X128507242Y-107999976D01*
X128639906Y-108070886D01*
X128655078Y-108078996D01*
X128784659Y-108185341D01*
X128891004Y-108314922D01*
X128891005Y-108314924D01*
X128970024Y-108462758D01*
X129018687Y-108623177D01*
X129035117Y-108790000D01*
X129018687Y-108956823D01*
X128970024Y-109117242D01*
X128948889Y-109156782D01*
X128891004Y-109265078D01*
X128784659Y-109394659D01*
X128655078Y-109501004D01*
X128655076Y-109501005D01*
X128507242Y-109580024D01*
X128346823Y-109628687D01*
X128221804Y-109641000D01*
X128138196Y-109641000D01*
X128013177Y-109628687D01*
X127852758Y-109580024D01*
X127704924Y-109501005D01*
X127704922Y-109501004D01*
X127575341Y-109394659D01*
X127468996Y-109265078D01*
X127411111Y-109156782D01*
X127389976Y-109117242D01*
X127341313Y-108956823D01*
X127324883Y-108790000D01*
X127341313Y-108623177D01*
X127389976Y-108462758D01*
X127468995Y-108314924D01*
X127468996Y-108314922D01*
X127575341Y-108185341D01*
X127704922Y-108078996D01*
X127720094Y-108070886D01*
X127852758Y-107999976D01*
X128013177Y-107951313D01*
X128138196Y-107939000D01*
X128221804Y-107939000D01*
X128346823Y-107951313D01*
X128346823Y-107951313D01*
G37*
G36*
X113106823Y-107951313D02*
G01*
X113267242Y-107999976D01*
X113399906Y-108070886D01*
X113415078Y-108078996D01*
X113544659Y-108185341D01*
X113651004Y-108314922D01*
X113651005Y-108314924D01*
X113730024Y-108462758D01*
X113778687Y-108623177D01*
X113795117Y-108790000D01*
X113778687Y-108956823D01*
X113730024Y-109117242D01*
X113708889Y-109156782D01*
X113651004Y-109265078D01*
X113544659Y-109394659D01*
X113415078Y-109501004D01*
X113415076Y-109501005D01*
X113267242Y-109580024D01*
X113106823Y-109628687D01*
X112981804Y-109641000D01*
X112898196Y-109641000D01*
X112773177Y-109628687D01*
X112612758Y-109580024D01*
X112464924Y-109501005D01*
X112464922Y-109501004D01*
X112335341Y-109394659D01*
X112228996Y-109265078D01*
X112171111Y-109156782D01*
X112149976Y-109117242D01*
X112101313Y-108956823D01*
X112084883Y-108790000D01*
X112101313Y-108623177D01*
X112149976Y-108462758D01*
X112228995Y-108314924D01*
X112228996Y-108314922D01*
X112335341Y-108185341D01*
X112464922Y-108078996D01*
X112480094Y-108070886D01*
X112612758Y-107999976D01*
X112773177Y-107951313D01*
X112898196Y-107939000D01*
X112981804Y-107939000D01*
X113106823Y-107951313D01*
X113106823Y-107951313D01*
G37*
G36*
X90303512Y-107833927D02*
G01*
X90452812Y-107863624D01*
X90616784Y-107931544D01*
X90764354Y-108030147D01*
X90889853Y-108155646D01*
X90988456Y-108303216D01*
X91056376Y-108467188D01*
X91091000Y-108641259D01*
X91091000Y-108818741D01*
X91056376Y-108992812D01*
X90988456Y-109156784D01*
X90889853Y-109304354D01*
X90764354Y-109429853D01*
X90616784Y-109528456D01*
X90452812Y-109596376D01*
X90303512Y-109626073D01*
X90278742Y-109631000D01*
X90101258Y-109631000D01*
X90076488Y-109626073D01*
X89927188Y-109596376D01*
X89763216Y-109528456D01*
X89615646Y-109429853D01*
X89490147Y-109304354D01*
X89391544Y-109156784D01*
X89323624Y-108992812D01*
X89289000Y-108818741D01*
X89289000Y-108641259D01*
X89323624Y-108467188D01*
X89391544Y-108303216D01*
X89490147Y-108155646D01*
X89615646Y-108030147D01*
X89763216Y-107931544D01*
X89927188Y-107863624D01*
X90076488Y-107833927D01*
X90101258Y-107829000D01*
X90278742Y-107829000D01*
X90303512Y-107833927D01*
X90303512Y-107833927D01*
G37*
G36*
X128346823Y-105411313D02*
G01*
X128507242Y-105459976D01*
X128639906Y-105530886D01*
X128655078Y-105538996D01*
X128784659Y-105645341D01*
X128891004Y-105774922D01*
X128891005Y-105774924D01*
X128970024Y-105922758D01*
X129018687Y-106083177D01*
X129035117Y-106250000D01*
X129018687Y-106416823D01*
X128970024Y-106577242D01*
X128948889Y-106616782D01*
X128891004Y-106725078D01*
X128784659Y-106854659D01*
X128655078Y-106961004D01*
X128655076Y-106961005D01*
X128507242Y-107040024D01*
X128346823Y-107088687D01*
X128221804Y-107101000D01*
X128138196Y-107101000D01*
X128013177Y-107088687D01*
X127852758Y-107040024D01*
X127704924Y-106961005D01*
X127704922Y-106961004D01*
X127575341Y-106854659D01*
X127468996Y-106725078D01*
X127411111Y-106616782D01*
X127389976Y-106577242D01*
X127341313Y-106416823D01*
X127324883Y-106250000D01*
X127341313Y-106083177D01*
X127389976Y-105922758D01*
X127468995Y-105774924D01*
X127468996Y-105774922D01*
X127575341Y-105645341D01*
X127704922Y-105538996D01*
X127720094Y-105530886D01*
X127852758Y-105459976D01*
X128013177Y-105411313D01*
X128138196Y-105399000D01*
X128221804Y-105399000D01*
X128346823Y-105411313D01*
X128346823Y-105411313D01*
G37*
G36*
X113106823Y-105411313D02*
G01*
X113267242Y-105459976D01*
X113399906Y-105530886D01*
X113415078Y-105538996D01*
X113544659Y-105645341D01*
X113651004Y-105774922D01*
X113651005Y-105774924D01*
X113730024Y-105922758D01*
X113778687Y-106083177D01*
X113795117Y-106250000D01*
X113778687Y-106416823D01*
X113730024Y-106577242D01*
X113708889Y-106616782D01*
X113651004Y-106725078D01*
X113544659Y-106854659D01*
X113415078Y-106961004D01*
X113415076Y-106961005D01*
X113267242Y-107040024D01*
X113106823Y-107088687D01*
X112981804Y-107101000D01*
X112898196Y-107101000D01*
X112773177Y-107088687D01*
X112612758Y-107040024D01*
X112464924Y-106961005D01*
X112464922Y-106961004D01*
X112335341Y-106854659D01*
X112228996Y-106725078D01*
X112171111Y-106616782D01*
X112149976Y-106577242D01*
X112101313Y-106416823D01*
X112084883Y-106250000D01*
X112101313Y-106083177D01*
X112149976Y-105922758D01*
X112228995Y-105774924D01*
X112228996Y-105774922D01*
X112335341Y-105645341D01*
X112464922Y-105538996D01*
X112480094Y-105530886D01*
X112612758Y-105459976D01*
X112773177Y-105411313D01*
X112898196Y-105399000D01*
X112981804Y-105399000D01*
X113106823Y-105411313D01*
X113106823Y-105411313D01*
G37*
G36*
X90303512Y-105293927D02*
G01*
X90452812Y-105323624D01*
X90616784Y-105391544D01*
X90764354Y-105490147D01*
X90889853Y-105615646D01*
X90988456Y-105763216D01*
X91056376Y-105927188D01*
X91091000Y-106101259D01*
X91091000Y-106278741D01*
X91056376Y-106452812D01*
X90988456Y-106616784D01*
X90889853Y-106764354D01*
X90764354Y-106889853D01*
X90616784Y-106988456D01*
X90452812Y-107056376D01*
X90303512Y-107086073D01*
X90278742Y-107091000D01*
X90101258Y-107091000D01*
X90076488Y-107086073D01*
X89927188Y-107056376D01*
X89763216Y-106988456D01*
X89615646Y-106889853D01*
X89490147Y-106764354D01*
X89391544Y-106616784D01*
X89323624Y-106452812D01*
X89289000Y-106278741D01*
X89289000Y-106101259D01*
X89323624Y-105927188D01*
X89391544Y-105763216D01*
X89490147Y-105615646D01*
X89615646Y-105490147D01*
X89763216Y-105391544D01*
X89927188Y-105323624D01*
X90076488Y-105293927D01*
X90101258Y-105289000D01*
X90278742Y-105289000D01*
X90303512Y-105293927D01*
X90303512Y-105293927D01*
G37*
G36*
X146951000Y-105041000D02*
G01*
X145149000Y-105041000D01*
X145149000Y-103239000D01*
X146951000Y-103239000D01*
X146951000Y-105041000D01*
X146951000Y-105041000D01*
G37*
G36*
X138540443Y-103245519D02*
G01*
X138606627Y-103252037D01*
X138776466Y-103303557D01*
X138932991Y-103387222D01*
X138968729Y-103416552D01*
X139070186Y-103499814D01*
X139153448Y-103601271D01*
X139182778Y-103637009D01*
X139266443Y-103793534D01*
X139317963Y-103963373D01*
X139335359Y-104140000D01*
X139317963Y-104316627D01*
X139266443Y-104486466D01*
X139182778Y-104642991D01*
X139153448Y-104678729D01*
X139070186Y-104780186D01*
X138968729Y-104863448D01*
X138932991Y-104892778D01*
X138776466Y-104976443D01*
X138606627Y-105027963D01*
X138540442Y-105034482D01*
X138474260Y-105041000D01*
X138385740Y-105041000D01*
X138319557Y-105034481D01*
X138253373Y-105027963D01*
X138083534Y-104976443D01*
X137927009Y-104892778D01*
X137891271Y-104863448D01*
X137789814Y-104780186D01*
X137706552Y-104678729D01*
X137677222Y-104642991D01*
X137593557Y-104486466D01*
X137542037Y-104316627D01*
X137524641Y-104140000D01*
X137542037Y-103963373D01*
X137593557Y-103793534D01*
X137677222Y-103637009D01*
X137706552Y-103601271D01*
X137789814Y-103499814D01*
X137891271Y-103416552D01*
X137927009Y-103387222D01*
X138083534Y-103303557D01*
X138253373Y-103252037D01*
X138319558Y-103245518D01*
X138385740Y-103239000D01*
X138474260Y-103239000D01*
X138540443Y-103245519D01*
X138540443Y-103245519D01*
G37*
G36*
X141080443Y-103245519D02*
G01*
X141146627Y-103252037D01*
X141316466Y-103303557D01*
X141472991Y-103387222D01*
X141508729Y-103416552D01*
X141610186Y-103499814D01*
X141693448Y-103601271D01*
X141722778Y-103637009D01*
X141806443Y-103793534D01*
X141857963Y-103963373D01*
X141875359Y-104140000D01*
X141857963Y-104316627D01*
X141806443Y-104486466D01*
X141722778Y-104642991D01*
X141693448Y-104678729D01*
X141610186Y-104780186D01*
X141508729Y-104863448D01*
X141472991Y-104892778D01*
X141316466Y-104976443D01*
X141146627Y-105027963D01*
X141080442Y-105034482D01*
X141014260Y-105041000D01*
X140925740Y-105041000D01*
X140859557Y-105034481D01*
X140793373Y-105027963D01*
X140623534Y-104976443D01*
X140467009Y-104892778D01*
X140431271Y-104863448D01*
X140329814Y-104780186D01*
X140246552Y-104678729D01*
X140217222Y-104642991D01*
X140133557Y-104486466D01*
X140082037Y-104316627D01*
X140064641Y-104140000D01*
X140082037Y-103963373D01*
X140133557Y-103793534D01*
X140217222Y-103637009D01*
X140246552Y-103601271D01*
X140329814Y-103499814D01*
X140431271Y-103416552D01*
X140467009Y-103387222D01*
X140623534Y-103303557D01*
X140793373Y-103252037D01*
X140859558Y-103245518D01*
X140925740Y-103239000D01*
X141014260Y-103239000D01*
X141080443Y-103245519D01*
X141080443Y-103245519D01*
G37*
G36*
X143620443Y-103245519D02*
G01*
X143686627Y-103252037D01*
X143856466Y-103303557D01*
X144012991Y-103387222D01*
X144048729Y-103416552D01*
X144150186Y-103499814D01*
X144233448Y-103601271D01*
X144262778Y-103637009D01*
X144346443Y-103793534D01*
X144397963Y-103963373D01*
X144415359Y-104140000D01*
X144397963Y-104316627D01*
X144346443Y-104486466D01*
X144262778Y-104642991D01*
X144233448Y-104678729D01*
X144150186Y-104780186D01*
X144048729Y-104863448D01*
X144012991Y-104892778D01*
X143856466Y-104976443D01*
X143686627Y-105027963D01*
X143620442Y-105034482D01*
X143554260Y-105041000D01*
X143465740Y-105041000D01*
X143399557Y-105034481D01*
X143333373Y-105027963D01*
X143163534Y-104976443D01*
X143007009Y-104892778D01*
X142971271Y-104863448D01*
X142869814Y-104780186D01*
X142786552Y-104678729D01*
X142757222Y-104642991D01*
X142673557Y-104486466D01*
X142622037Y-104316627D01*
X142604641Y-104140000D01*
X142622037Y-103963373D01*
X142673557Y-103793534D01*
X142757222Y-103637009D01*
X142786552Y-103601271D01*
X142869814Y-103499814D01*
X142971271Y-103416552D01*
X143007009Y-103387222D01*
X143163534Y-103303557D01*
X143333373Y-103252037D01*
X143399558Y-103245518D01*
X143465740Y-103239000D01*
X143554260Y-103239000D01*
X143620443Y-103245519D01*
X143620443Y-103245519D01*
G37*
G36*
X113106823Y-102871313D02*
G01*
X113267242Y-102919976D01*
X113399906Y-102990886D01*
X113415078Y-102998996D01*
X113544659Y-103105341D01*
X113651004Y-103234922D01*
X113651005Y-103234924D01*
X113730024Y-103382758D01*
X113778687Y-103543177D01*
X113795117Y-103710000D01*
X113778687Y-103876823D01*
X113730024Y-104037242D01*
X113675099Y-104140000D01*
X113651004Y-104185078D01*
X113544659Y-104314659D01*
X113415078Y-104421004D01*
X113415076Y-104421005D01*
X113267242Y-104500024D01*
X113106823Y-104548687D01*
X112981804Y-104561000D01*
X112898196Y-104561000D01*
X112773177Y-104548687D01*
X112612758Y-104500024D01*
X112464924Y-104421005D01*
X112464922Y-104421004D01*
X112335341Y-104314659D01*
X112228996Y-104185078D01*
X112204901Y-104140000D01*
X112149976Y-104037242D01*
X112101313Y-103876823D01*
X112084883Y-103710000D01*
X112101313Y-103543177D01*
X112149976Y-103382758D01*
X112228995Y-103234924D01*
X112228996Y-103234922D01*
X112335341Y-103105341D01*
X112464922Y-102998996D01*
X112480094Y-102990886D01*
X112612758Y-102919976D01*
X112773177Y-102871313D01*
X112898196Y-102859000D01*
X112981804Y-102859000D01*
X113106823Y-102871313D01*
X113106823Y-102871313D01*
G37*
G36*
X128346823Y-102871313D02*
G01*
X128507242Y-102919976D01*
X128639906Y-102990886D01*
X128655078Y-102998996D01*
X128784659Y-103105341D01*
X128891004Y-103234922D01*
X128891005Y-103234924D01*
X128970024Y-103382758D01*
X129018687Y-103543177D01*
X129035117Y-103710000D01*
X129018687Y-103876823D01*
X128970024Y-104037242D01*
X128915099Y-104140000D01*
X128891004Y-104185078D01*
X128784659Y-104314659D01*
X128655078Y-104421004D01*
X128655076Y-104421005D01*
X128507242Y-104500024D01*
X128346823Y-104548687D01*
X128221804Y-104561000D01*
X128138196Y-104561000D01*
X128013177Y-104548687D01*
X127852758Y-104500024D01*
X127704924Y-104421005D01*
X127704922Y-104421004D01*
X127575341Y-104314659D01*
X127468996Y-104185078D01*
X127444901Y-104140000D01*
X127389976Y-104037242D01*
X127341313Y-103876823D01*
X127324883Y-103710000D01*
X127341313Y-103543177D01*
X127389976Y-103382758D01*
X127468995Y-103234924D01*
X127468996Y-103234922D01*
X127575341Y-103105341D01*
X127704922Y-102998996D01*
X127720094Y-102990886D01*
X127852758Y-102919976D01*
X128013177Y-102871313D01*
X128138196Y-102859000D01*
X128221804Y-102859000D01*
X128346823Y-102871313D01*
X128346823Y-102871313D01*
G37*
G36*
X91091000Y-104551000D02*
G01*
X89289000Y-104551000D01*
X89289000Y-102749000D01*
X91091000Y-102749000D01*
X91091000Y-104551000D01*
X91091000Y-104551000D01*
G37*
G36*
X106097294Y-102476633D02*
G01*
X106269695Y-102528931D01*
X106428583Y-102613858D01*
X106567849Y-102728151D01*
X106682142Y-102867417D01*
X106767069Y-103026305D01*
X106819367Y-103198706D01*
X106837025Y-103378000D01*
X106819367Y-103557294D01*
X106767069Y-103729695D01*
X106682142Y-103888583D01*
X106567849Y-104027849D01*
X106428583Y-104142142D01*
X106269695Y-104227069D01*
X106097294Y-104279367D01*
X105962931Y-104292600D01*
X105873069Y-104292600D01*
X105738706Y-104279367D01*
X105566305Y-104227069D01*
X105407417Y-104142142D01*
X105268151Y-104027849D01*
X105153858Y-103888583D01*
X105068931Y-103729695D01*
X105016633Y-103557294D01*
X104998975Y-103378000D01*
X105016633Y-103198706D01*
X105068931Y-103026305D01*
X105153858Y-102867417D01*
X105268151Y-102728151D01*
X105407417Y-102613858D01*
X105566305Y-102528931D01*
X105738706Y-102476633D01*
X105873069Y-102463400D01*
X105962931Y-102463400D01*
X106097294Y-102476633D01*
X106097294Y-102476633D01*
G37*
G36*
X101752600Y-104292600D02*
G01*
X99923400Y-104292600D01*
X99923400Y-102463400D01*
X101752600Y-102463400D01*
X101752600Y-104292600D01*
X101752600Y-104292600D01*
G37*
G36*
X103557294Y-102476633D02*
G01*
X103729695Y-102528931D01*
X103888583Y-102613858D01*
X104027849Y-102728151D01*
X104142142Y-102867417D01*
X104227069Y-103026305D01*
X104279367Y-103198706D01*
X104297025Y-103378000D01*
X104279367Y-103557294D01*
X104227069Y-103729695D01*
X104142142Y-103888583D01*
X104027849Y-104027849D01*
X103888583Y-104142142D01*
X103729695Y-104227069D01*
X103557294Y-104279367D01*
X103422931Y-104292600D01*
X103333069Y-104292600D01*
X103198706Y-104279367D01*
X103026305Y-104227069D01*
X102867417Y-104142142D01*
X102728151Y-104027849D01*
X102613858Y-103888583D01*
X102528931Y-103729695D01*
X102476633Y-103557294D01*
X102458975Y-103378000D01*
X102476633Y-103198706D01*
X102528931Y-103026305D01*
X102613858Y-102867417D01*
X102728151Y-102728151D01*
X102867417Y-102613858D01*
X103026305Y-102528931D01*
X103198706Y-102476633D01*
X103333069Y-102463400D01*
X103422931Y-102463400D01*
X103557294Y-102476633D01*
X103557294Y-102476633D01*
G37*
G36*
X128346823Y-100331313D02*
G01*
X128507242Y-100379976D01*
X128639906Y-100450886D01*
X128655078Y-100458996D01*
X128784659Y-100565341D01*
X128891004Y-100694922D01*
X128891005Y-100694924D01*
X128970024Y-100842758D01*
X129018687Y-101003177D01*
X129035117Y-101170000D01*
X129018687Y-101336823D01*
X128970024Y-101497242D01*
X128913954Y-101602141D01*
X128891004Y-101645078D01*
X128784659Y-101774659D01*
X128655078Y-101881004D01*
X128655076Y-101881005D01*
X128507242Y-101960024D01*
X128346823Y-102008687D01*
X128221804Y-102021000D01*
X128138196Y-102021000D01*
X128013177Y-102008687D01*
X127852758Y-101960024D01*
X127704924Y-101881005D01*
X127704922Y-101881004D01*
X127575341Y-101774659D01*
X127468996Y-101645078D01*
X127446046Y-101602141D01*
X127389976Y-101497242D01*
X127341313Y-101336823D01*
X127324883Y-101170000D01*
X127341313Y-101003177D01*
X127389976Y-100842758D01*
X127468995Y-100694924D01*
X127468996Y-100694922D01*
X127575341Y-100565341D01*
X127704922Y-100458996D01*
X127720094Y-100450886D01*
X127852758Y-100379976D01*
X128013177Y-100331313D01*
X128138196Y-100319000D01*
X128221804Y-100319000D01*
X128346823Y-100331313D01*
X128346823Y-100331313D01*
G37*
G36*
X113106823Y-100331313D02*
G01*
X113267242Y-100379976D01*
X113399906Y-100450886D01*
X113415078Y-100458996D01*
X113544659Y-100565341D01*
X113651004Y-100694922D01*
X113651005Y-100694924D01*
X113730024Y-100842758D01*
X113778687Y-101003177D01*
X113795117Y-101170000D01*
X113778687Y-101336823D01*
X113730024Y-101497242D01*
X113673954Y-101602141D01*
X113651004Y-101645078D01*
X113544659Y-101774659D01*
X113415078Y-101881004D01*
X113415076Y-101881005D01*
X113267242Y-101960024D01*
X113106823Y-102008687D01*
X112981804Y-102021000D01*
X112898196Y-102021000D01*
X112773177Y-102008687D01*
X112612758Y-101960024D01*
X112464924Y-101881005D01*
X112464922Y-101881004D01*
X112335341Y-101774659D01*
X112228996Y-101645078D01*
X112206046Y-101602141D01*
X112149976Y-101497242D01*
X112101313Y-101336823D01*
X112084883Y-101170000D01*
X112101313Y-101003177D01*
X112149976Y-100842758D01*
X112228995Y-100694924D01*
X112228996Y-100694922D01*
X112335341Y-100565341D01*
X112464922Y-100458996D01*
X112480094Y-100450886D01*
X112612758Y-100379976D01*
X112773177Y-100331313D01*
X112898196Y-100319000D01*
X112981804Y-100319000D01*
X113106823Y-100331313D01*
X113106823Y-100331313D01*
G37*
G36*
X103557294Y-99936633D02*
G01*
X103729695Y-99988931D01*
X103888583Y-100073858D01*
X104027849Y-100188151D01*
X104142142Y-100327417D01*
X104227069Y-100486305D01*
X104279367Y-100658706D01*
X104297025Y-100838000D01*
X104279367Y-101017294D01*
X104227069Y-101189695D01*
X104142142Y-101348583D01*
X104027849Y-101487849D01*
X103888583Y-101602142D01*
X103729695Y-101687069D01*
X103557294Y-101739367D01*
X103422931Y-101752600D01*
X103333069Y-101752600D01*
X103198706Y-101739367D01*
X103026305Y-101687069D01*
X102867417Y-101602142D01*
X102728151Y-101487849D01*
X102613858Y-101348583D01*
X102528931Y-101189695D01*
X102476633Y-101017294D01*
X102458975Y-100838000D01*
X102476633Y-100658706D01*
X102528931Y-100486305D01*
X102613858Y-100327417D01*
X102728151Y-100188151D01*
X102867417Y-100073858D01*
X103026305Y-99988931D01*
X103198706Y-99936633D01*
X103333069Y-99923400D01*
X103422931Y-99923400D01*
X103557294Y-99936633D01*
X103557294Y-99936633D01*
G37*
G36*
X106097294Y-99936633D02*
G01*
X106269695Y-99988931D01*
X106428583Y-100073858D01*
X106567849Y-100188151D01*
X106682142Y-100327417D01*
X106767069Y-100486305D01*
X106819367Y-100658706D01*
X106837025Y-100838000D01*
X106819367Y-101017294D01*
X106767069Y-101189695D01*
X106682142Y-101348583D01*
X106567849Y-101487849D01*
X106428583Y-101602142D01*
X106269695Y-101687069D01*
X106097294Y-101739367D01*
X105962931Y-101752600D01*
X105873069Y-101752600D01*
X105738706Y-101739367D01*
X105566305Y-101687069D01*
X105407417Y-101602142D01*
X105268151Y-101487849D01*
X105153858Y-101348583D01*
X105068931Y-101189695D01*
X105016633Y-101017294D01*
X104998975Y-100838000D01*
X105016633Y-100658706D01*
X105068931Y-100486305D01*
X105153858Y-100327417D01*
X105268151Y-100188151D01*
X105407417Y-100073858D01*
X105566305Y-99988931D01*
X105738706Y-99936633D01*
X105873069Y-99923400D01*
X105962931Y-99923400D01*
X106097294Y-99936633D01*
X106097294Y-99936633D01*
G37*
G36*
X101017294Y-99936633D02*
G01*
X101189695Y-99988931D01*
X101348583Y-100073858D01*
X101487849Y-100188151D01*
X101602142Y-100327417D01*
X101687069Y-100486305D01*
X101739367Y-100658706D01*
X101757025Y-100838000D01*
X101739367Y-101017294D01*
X101687069Y-101189695D01*
X101602142Y-101348583D01*
X101487849Y-101487849D01*
X101348583Y-101602142D01*
X101189695Y-101687069D01*
X101017294Y-101739367D01*
X100882931Y-101752600D01*
X100793069Y-101752600D01*
X100658706Y-101739367D01*
X100486305Y-101687069D01*
X100327417Y-101602142D01*
X100188151Y-101487849D01*
X100073858Y-101348583D01*
X99988931Y-101189695D01*
X99936633Y-101017294D01*
X99918975Y-100838000D01*
X99936633Y-100658706D01*
X99988931Y-100486305D01*
X100073858Y-100327417D01*
X100188151Y-100188151D01*
X100327417Y-100073858D01*
X100486305Y-99988931D01*
X100658706Y-99936633D01*
X100793069Y-99923400D01*
X100882931Y-99923400D01*
X101017294Y-99936633D01*
X101017294Y-99936633D01*
G37*
G36*
X92214795Y-98920156D02*
G01*
X92321150Y-98941311D01*
X92521520Y-99024307D01*
X92701844Y-99144795D01*
X92855205Y-99298156D01*
X92975693Y-99478480D01*
X93010698Y-99562989D01*
X93058689Y-99678850D01*
X93101000Y-99891561D01*
X93101000Y-100108439D01*
X93059117Y-100319000D01*
X93058689Y-100321149D01*
X92975693Y-100521520D01*
X92855205Y-100701844D01*
X92701844Y-100855205D01*
X92521520Y-100975693D01*
X92455172Y-101003175D01*
X92321150Y-101058689D01*
X92214794Y-101079845D01*
X92108440Y-101101000D01*
X91891560Y-101101000D01*
X91785206Y-101079845D01*
X91678850Y-101058689D01*
X91544828Y-101003175D01*
X91478480Y-100975693D01*
X91298156Y-100855205D01*
X91144795Y-100701844D01*
X91024307Y-100521520D01*
X90941311Y-100321149D01*
X90940884Y-100319000D01*
X90899000Y-100108439D01*
X90899000Y-99891561D01*
X90941311Y-99678850D01*
X90989302Y-99562989D01*
X91024307Y-99478480D01*
X91144795Y-99298156D01*
X91298156Y-99144795D01*
X91478480Y-99024307D01*
X91678850Y-98941311D01*
X91785205Y-98920156D01*
X91891560Y-98899000D01*
X92108440Y-98899000D01*
X92214795Y-98920156D01*
X92214795Y-98920156D01*
G37*
G36*
X54214795Y-98920156D02*
G01*
X54321150Y-98941311D01*
X54521520Y-99024307D01*
X54701844Y-99144795D01*
X54855205Y-99298156D01*
X54975693Y-99478480D01*
X55010698Y-99562989D01*
X55058689Y-99678850D01*
X55101000Y-99891561D01*
X55101000Y-100108439D01*
X55059117Y-100319000D01*
X55058689Y-100321149D01*
X54975693Y-100521520D01*
X54855205Y-100701844D01*
X54701844Y-100855205D01*
X54521520Y-100975693D01*
X54455172Y-101003175D01*
X54321150Y-101058689D01*
X54214794Y-101079845D01*
X54108440Y-101101000D01*
X53891560Y-101101000D01*
X53785206Y-101079845D01*
X53678850Y-101058689D01*
X53544828Y-101003175D01*
X53478480Y-100975693D01*
X53298156Y-100855205D01*
X53144795Y-100701844D01*
X53024307Y-100521520D01*
X52941311Y-100321149D01*
X52940884Y-100319000D01*
X52899000Y-100108439D01*
X52899000Y-99891561D01*
X52941311Y-99678850D01*
X52989302Y-99562989D01*
X53024307Y-99478480D01*
X53144795Y-99298156D01*
X53298156Y-99144795D01*
X53478480Y-99024307D01*
X53678850Y-98941311D01*
X53785205Y-98920156D01*
X53891560Y-98899000D01*
X54108440Y-98899000D01*
X54214795Y-98920156D01*
X54214795Y-98920156D01*
G37*
G36*
X146951000Y-99961000D02*
G01*
X145149000Y-99961000D01*
X145149000Y-98159000D01*
X146951000Y-98159000D01*
X146951000Y-99961000D01*
X146951000Y-99961000D01*
G37*
G36*
X143620443Y-98165519D02*
G01*
X143686627Y-98172037D01*
X143856466Y-98223557D01*
X144012991Y-98307222D01*
X144048729Y-98336552D01*
X144150186Y-98419814D01*
X144233448Y-98521271D01*
X144262778Y-98557009D01*
X144346443Y-98713534D01*
X144397963Y-98883373D01*
X144415359Y-99060000D01*
X144397963Y-99236627D01*
X144346443Y-99406466D01*
X144262778Y-99562991D01*
X144233448Y-99598729D01*
X144150186Y-99700186D01*
X144048729Y-99783448D01*
X144012991Y-99812778D01*
X143856466Y-99896443D01*
X143686627Y-99947963D01*
X143620443Y-99954481D01*
X143554260Y-99961000D01*
X143465740Y-99961000D01*
X143399557Y-99954481D01*
X143333373Y-99947963D01*
X143163534Y-99896443D01*
X143007009Y-99812778D01*
X142971271Y-99783448D01*
X142869814Y-99700186D01*
X142786552Y-99598729D01*
X142757222Y-99562991D01*
X142673557Y-99406466D01*
X142622037Y-99236627D01*
X142604641Y-99060000D01*
X142622037Y-98883373D01*
X142673557Y-98713534D01*
X142757222Y-98557009D01*
X142786552Y-98521271D01*
X142869814Y-98419814D01*
X142971271Y-98336552D01*
X143007009Y-98307222D01*
X143163534Y-98223557D01*
X143333373Y-98172037D01*
X143399557Y-98165519D01*
X143465740Y-98159000D01*
X143554260Y-98159000D01*
X143620443Y-98165519D01*
X143620443Y-98165519D01*
G37*
G36*
X138540443Y-98165519D02*
G01*
X138606627Y-98172037D01*
X138776466Y-98223557D01*
X138932991Y-98307222D01*
X138968729Y-98336552D01*
X139070186Y-98419814D01*
X139153448Y-98521271D01*
X139182778Y-98557009D01*
X139266443Y-98713534D01*
X139317963Y-98883373D01*
X139335359Y-99060000D01*
X139317963Y-99236627D01*
X139266443Y-99406466D01*
X139182778Y-99562991D01*
X139153448Y-99598729D01*
X139070186Y-99700186D01*
X138968729Y-99783448D01*
X138932991Y-99812778D01*
X138776466Y-99896443D01*
X138606627Y-99947963D01*
X138540443Y-99954481D01*
X138474260Y-99961000D01*
X138385740Y-99961000D01*
X138319557Y-99954481D01*
X138253373Y-99947963D01*
X138083534Y-99896443D01*
X137927009Y-99812778D01*
X137891271Y-99783448D01*
X137789814Y-99700186D01*
X137706552Y-99598729D01*
X137677222Y-99562991D01*
X137593557Y-99406466D01*
X137542037Y-99236627D01*
X137524641Y-99060000D01*
X137542037Y-98883373D01*
X137593557Y-98713534D01*
X137677222Y-98557009D01*
X137706552Y-98521271D01*
X137789814Y-98419814D01*
X137891271Y-98336552D01*
X137927009Y-98307222D01*
X138083534Y-98223557D01*
X138253373Y-98172037D01*
X138319557Y-98165519D01*
X138385740Y-98159000D01*
X138474260Y-98159000D01*
X138540443Y-98165519D01*
X138540443Y-98165519D01*
G37*
G36*
X141080443Y-98165519D02*
G01*
X141146627Y-98172037D01*
X141316466Y-98223557D01*
X141472991Y-98307222D01*
X141508729Y-98336552D01*
X141610186Y-98419814D01*
X141693448Y-98521271D01*
X141722778Y-98557009D01*
X141806443Y-98713534D01*
X141857963Y-98883373D01*
X141875359Y-99060000D01*
X141857963Y-99236627D01*
X141806443Y-99406466D01*
X141722778Y-99562991D01*
X141693448Y-99598729D01*
X141610186Y-99700186D01*
X141508729Y-99783448D01*
X141472991Y-99812778D01*
X141316466Y-99896443D01*
X141146627Y-99947963D01*
X141080443Y-99954481D01*
X141014260Y-99961000D01*
X140925740Y-99961000D01*
X140859557Y-99954481D01*
X140793373Y-99947963D01*
X140623534Y-99896443D01*
X140467009Y-99812778D01*
X140431271Y-99783448D01*
X140329814Y-99700186D01*
X140246552Y-99598729D01*
X140217222Y-99562991D01*
X140133557Y-99406466D01*
X140082037Y-99236627D01*
X140064641Y-99060000D01*
X140082037Y-98883373D01*
X140133557Y-98713534D01*
X140217222Y-98557009D01*
X140246552Y-98521271D01*
X140329814Y-98419814D01*
X140431271Y-98336552D01*
X140467009Y-98307222D01*
X140623534Y-98223557D01*
X140793373Y-98172037D01*
X140859557Y-98165519D01*
X140925740Y-98159000D01*
X141014260Y-98159000D01*
X141080443Y-98165519D01*
X141080443Y-98165519D01*
G37*
G36*
X113106823Y-97791313D02*
G01*
X113267242Y-97839976D01*
X113399906Y-97910886D01*
X113415078Y-97918996D01*
X113544659Y-98025341D01*
X113651004Y-98154922D01*
X113651005Y-98154924D01*
X113730024Y-98302758D01*
X113778687Y-98463177D01*
X113795117Y-98630000D01*
X113778687Y-98796823D01*
X113730024Y-98957242D01*
X113694177Y-99024307D01*
X113651004Y-99105078D01*
X113544659Y-99234659D01*
X113415078Y-99341004D01*
X113415076Y-99341005D01*
X113267242Y-99420024D01*
X113106823Y-99468687D01*
X112981804Y-99481000D01*
X112898196Y-99481000D01*
X112773177Y-99468687D01*
X112612758Y-99420024D01*
X112464924Y-99341005D01*
X112464922Y-99341004D01*
X112335341Y-99234659D01*
X112228996Y-99105078D01*
X112185823Y-99024307D01*
X112149976Y-98957242D01*
X112101313Y-98796823D01*
X112084883Y-98630000D01*
X112101313Y-98463177D01*
X112149976Y-98302758D01*
X112228995Y-98154924D01*
X112228996Y-98154922D01*
X112335341Y-98025341D01*
X112464922Y-97918996D01*
X112480094Y-97910886D01*
X112612758Y-97839976D01*
X112773177Y-97791313D01*
X112898196Y-97779000D01*
X112981804Y-97779000D01*
X113106823Y-97791313D01*
X113106823Y-97791313D01*
G37*
G36*
X128346823Y-97791313D02*
G01*
X128507242Y-97839976D01*
X128639906Y-97910886D01*
X128655078Y-97918996D01*
X128784659Y-98025341D01*
X128891004Y-98154922D01*
X128891005Y-98154924D01*
X128970024Y-98302758D01*
X129018687Y-98463177D01*
X129035117Y-98630000D01*
X129018687Y-98796823D01*
X128970024Y-98957242D01*
X128934177Y-99024307D01*
X128891004Y-99105078D01*
X128784659Y-99234659D01*
X128655078Y-99341004D01*
X128655076Y-99341005D01*
X128507242Y-99420024D01*
X128346823Y-99468687D01*
X128221804Y-99481000D01*
X128138196Y-99481000D01*
X128013177Y-99468687D01*
X127852758Y-99420024D01*
X127704924Y-99341005D01*
X127704922Y-99341004D01*
X127575341Y-99234659D01*
X127468996Y-99105078D01*
X127425823Y-99024307D01*
X127389976Y-98957242D01*
X127341313Y-98796823D01*
X127324883Y-98630000D01*
X127341313Y-98463177D01*
X127389976Y-98302758D01*
X127468995Y-98154924D01*
X127468996Y-98154922D01*
X127575341Y-98025341D01*
X127704922Y-97918996D01*
X127720094Y-97910886D01*
X127852758Y-97839976D01*
X128013177Y-97791313D01*
X128138196Y-97779000D01*
X128221804Y-97779000D01*
X128346823Y-97791313D01*
X128346823Y-97791313D01*
G37*
G36*
X113106823Y-95251313D02*
G01*
X113267242Y-95299976D01*
X113348978Y-95343665D01*
X113415078Y-95378996D01*
X113544659Y-95485341D01*
X113651004Y-95614922D01*
X113651005Y-95614924D01*
X113730024Y-95762758D01*
X113778687Y-95923177D01*
X113795117Y-96090000D01*
X113778687Y-96256823D01*
X113730024Y-96417242D01*
X113659114Y-96549906D01*
X113651004Y-96565078D01*
X113544659Y-96694659D01*
X113415078Y-96801004D01*
X113415076Y-96801005D01*
X113267242Y-96880024D01*
X113106823Y-96928687D01*
X112981804Y-96941000D01*
X112898196Y-96941000D01*
X112773177Y-96928687D01*
X112612758Y-96880024D01*
X112464924Y-96801005D01*
X112464922Y-96801004D01*
X112335341Y-96694659D01*
X112228996Y-96565078D01*
X112220886Y-96549906D01*
X112149976Y-96417242D01*
X112101313Y-96256823D01*
X112084883Y-96090000D01*
X112101313Y-95923177D01*
X112149976Y-95762758D01*
X112228995Y-95614924D01*
X112228996Y-95614922D01*
X112335341Y-95485341D01*
X112464922Y-95378996D01*
X112531022Y-95343665D01*
X112612758Y-95299976D01*
X112773177Y-95251313D01*
X112898196Y-95239000D01*
X112981804Y-95239000D01*
X113106823Y-95251313D01*
X113106823Y-95251313D01*
G37*
G36*
X128346823Y-95251313D02*
G01*
X128507242Y-95299976D01*
X128588978Y-95343665D01*
X128655078Y-95378996D01*
X128784659Y-95485341D01*
X128891004Y-95614922D01*
X128891005Y-95614924D01*
X128970024Y-95762758D01*
X129018687Y-95923177D01*
X129035117Y-96090000D01*
X129018687Y-96256823D01*
X128970024Y-96417242D01*
X128899114Y-96549906D01*
X128891004Y-96565078D01*
X128784659Y-96694659D01*
X128655078Y-96801004D01*
X128655076Y-96801005D01*
X128507242Y-96880024D01*
X128346823Y-96928687D01*
X128221804Y-96941000D01*
X128138196Y-96941000D01*
X128013177Y-96928687D01*
X127852758Y-96880024D01*
X127704924Y-96801005D01*
X127704922Y-96801004D01*
X127575341Y-96694659D01*
X127468996Y-96565078D01*
X127460886Y-96549906D01*
X127389976Y-96417242D01*
X127341313Y-96256823D01*
X127324883Y-96090000D01*
X127341313Y-95923177D01*
X127389976Y-95762758D01*
X127468995Y-95614924D01*
X127468996Y-95614922D01*
X127575341Y-95485341D01*
X127704922Y-95378996D01*
X127771022Y-95343665D01*
X127852758Y-95299976D01*
X128013177Y-95251313D01*
X128138196Y-95239000D01*
X128221804Y-95239000D01*
X128346823Y-95251313D01*
X128346823Y-95251313D01*
G37*
G36*
X56919395Y-94335546D02*
G01*
X57092466Y-94407234D01*
X57092467Y-94407235D01*
X57248227Y-94511310D01*
X57380690Y-94643773D01*
X57380691Y-94643775D01*
X57484766Y-94799534D01*
X57556454Y-94972605D01*
X57593000Y-95156333D01*
X57593000Y-95343667D01*
X57556454Y-95527395D01*
X57484766Y-95700466D01*
X57484765Y-95700467D01*
X57380690Y-95856227D01*
X57248227Y-95988690D01*
X57169818Y-96041081D01*
X57092466Y-96092766D01*
X56919395Y-96164454D01*
X56735667Y-96201000D01*
X56548333Y-96201000D01*
X56364605Y-96164454D01*
X56191534Y-96092766D01*
X56114182Y-96041081D01*
X56035773Y-95988690D01*
X55903310Y-95856227D01*
X55799235Y-95700467D01*
X55799234Y-95700466D01*
X55727546Y-95527395D01*
X55691000Y-95343667D01*
X55691000Y-95156333D01*
X55727546Y-94972605D01*
X55799234Y-94799534D01*
X55903309Y-94643775D01*
X55903310Y-94643773D01*
X56035773Y-94511310D01*
X56191533Y-94407235D01*
X56191534Y-94407234D01*
X56364605Y-94335546D01*
X56548333Y-94299000D01*
X56735667Y-94299000D01*
X56919395Y-94335546D01*
X56919395Y-94335546D01*
G37*
G36*
X99480823Y-93395313D02*
G01*
X99641242Y-93443976D01*
X99708361Y-93479852D01*
X99789078Y-93522996D01*
X99918659Y-93629341D01*
X100025004Y-93758922D01*
X100025005Y-93758924D01*
X100104024Y-93906758D01*
X100152687Y-94067177D01*
X100169117Y-94234000D01*
X100152687Y-94400823D01*
X100104024Y-94561242D01*
X100063477Y-94637100D01*
X100025004Y-94709078D01*
X99918659Y-94838659D01*
X99789078Y-94945004D01*
X99789076Y-94945005D01*
X99641242Y-95024024D01*
X99480823Y-95072687D01*
X99355804Y-95085000D01*
X99272196Y-95085000D01*
X99147177Y-95072687D01*
X98986758Y-95024024D01*
X98838924Y-94945005D01*
X98838922Y-94945004D01*
X98709341Y-94838659D01*
X98602996Y-94709078D01*
X98564523Y-94637100D01*
X98523976Y-94561242D01*
X98475313Y-94400823D01*
X98458883Y-94234000D01*
X98475313Y-94067177D01*
X98523976Y-93906758D01*
X98602995Y-93758924D01*
X98602996Y-93758922D01*
X98709341Y-93629341D01*
X98838922Y-93522996D01*
X98919639Y-93479852D01*
X98986758Y-93443976D01*
X99147177Y-93395313D01*
X99272196Y-93383000D01*
X99355804Y-93383000D01*
X99480823Y-93395313D01*
X99480823Y-93395313D01*
G37*
G36*
X109722228Y-93415703D02*
G01*
X109877100Y-93479853D01*
X110016481Y-93572985D01*
X110135015Y-93691519D01*
X110228147Y-93830900D01*
X110292297Y-93985772D01*
X110325000Y-94150184D01*
X110325000Y-94317816D01*
X110292297Y-94482228D01*
X110228147Y-94637100D01*
X110135015Y-94776481D01*
X110016481Y-94895015D01*
X109877100Y-94988147D01*
X109722228Y-95052297D01*
X109557816Y-95085000D01*
X109390184Y-95085000D01*
X109225772Y-95052297D01*
X109070900Y-94988147D01*
X108931519Y-94895015D01*
X108812985Y-94776481D01*
X108719853Y-94637100D01*
X108655703Y-94482228D01*
X108623000Y-94317816D01*
X108623000Y-94150184D01*
X108655703Y-93985772D01*
X108719853Y-93830900D01*
X108812985Y-93691519D01*
X108931519Y-93572985D01*
X109070900Y-93479853D01*
X109225772Y-93415703D01*
X109390184Y-93383000D01*
X109557816Y-93383000D01*
X109722228Y-93415703D01*
X109722228Y-93415703D01*
G37*
G36*
X138540443Y-93085519D02*
G01*
X138606627Y-93092037D01*
X138776466Y-93143557D01*
X138932991Y-93227222D01*
X138968729Y-93256552D01*
X139070186Y-93339814D01*
X139132467Y-93415705D01*
X139182778Y-93477009D01*
X139266443Y-93633534D01*
X139317963Y-93803373D01*
X139335359Y-93980000D01*
X139317963Y-94156627D01*
X139266443Y-94326466D01*
X139182778Y-94482991D01*
X139159538Y-94511309D01*
X139070186Y-94620186D01*
X138968729Y-94703448D01*
X138932991Y-94732778D01*
X138776466Y-94816443D01*
X138606627Y-94867963D01*
X138540443Y-94874481D01*
X138474260Y-94881000D01*
X138385740Y-94881000D01*
X138319557Y-94874481D01*
X138253373Y-94867963D01*
X138083534Y-94816443D01*
X137927009Y-94732778D01*
X137891271Y-94703448D01*
X137789814Y-94620186D01*
X137700462Y-94511309D01*
X137677222Y-94482991D01*
X137593557Y-94326466D01*
X137542037Y-94156627D01*
X137524641Y-93980000D01*
X137542037Y-93803373D01*
X137593557Y-93633534D01*
X137677222Y-93477009D01*
X137727533Y-93415705D01*
X137789814Y-93339814D01*
X137891271Y-93256552D01*
X137927009Y-93227222D01*
X138083534Y-93143557D01*
X138253373Y-93092037D01*
X138319557Y-93085519D01*
X138385740Y-93079000D01*
X138474260Y-93079000D01*
X138540443Y-93085519D01*
X138540443Y-93085519D01*
G37*
G36*
X146951000Y-94881000D02*
G01*
X145149000Y-94881000D01*
X145149000Y-93079000D01*
X146951000Y-93079000D01*
X146951000Y-94881000D01*
X146951000Y-94881000D01*
G37*
G36*
X143620443Y-93085519D02*
G01*
X143686627Y-93092037D01*
X143856466Y-93143557D01*
X144012991Y-93227222D01*
X144048729Y-93256552D01*
X144150186Y-93339814D01*
X144212467Y-93415705D01*
X144262778Y-93477009D01*
X144346443Y-93633534D01*
X144397963Y-93803373D01*
X144415359Y-93980000D01*
X144397963Y-94156627D01*
X144346443Y-94326466D01*
X144262778Y-94482991D01*
X144239538Y-94511309D01*
X144150186Y-94620186D01*
X144048729Y-94703448D01*
X144012991Y-94732778D01*
X143856466Y-94816443D01*
X143686627Y-94867963D01*
X143620443Y-94874481D01*
X143554260Y-94881000D01*
X143465740Y-94881000D01*
X143399557Y-94874481D01*
X143333373Y-94867963D01*
X143163534Y-94816443D01*
X143007009Y-94732778D01*
X142971271Y-94703448D01*
X142869814Y-94620186D01*
X142780462Y-94511309D01*
X142757222Y-94482991D01*
X142673557Y-94326466D01*
X142622037Y-94156627D01*
X142604641Y-93980000D01*
X142622037Y-93803373D01*
X142673557Y-93633534D01*
X142757222Y-93477009D01*
X142807533Y-93415705D01*
X142869814Y-93339814D01*
X142971271Y-93256552D01*
X143007009Y-93227222D01*
X143163534Y-93143557D01*
X143333373Y-93092037D01*
X143399557Y-93085519D01*
X143465740Y-93079000D01*
X143554260Y-93079000D01*
X143620443Y-93085519D01*
X143620443Y-93085519D01*
G37*
G36*
X141080443Y-93085519D02*
G01*
X141146627Y-93092037D01*
X141316466Y-93143557D01*
X141472991Y-93227222D01*
X141508729Y-93256552D01*
X141610186Y-93339814D01*
X141672467Y-93415705D01*
X141722778Y-93477009D01*
X141806443Y-93633534D01*
X141857963Y-93803373D01*
X141875359Y-93980000D01*
X141857963Y-94156627D01*
X141806443Y-94326466D01*
X141722778Y-94482991D01*
X141699538Y-94511309D01*
X141610186Y-94620186D01*
X141508729Y-94703448D01*
X141472991Y-94732778D01*
X141316466Y-94816443D01*
X141146627Y-94867963D01*
X141080443Y-94874481D01*
X141014260Y-94881000D01*
X140925740Y-94881000D01*
X140859557Y-94874481D01*
X140793373Y-94867963D01*
X140623534Y-94816443D01*
X140467009Y-94732778D01*
X140431271Y-94703448D01*
X140329814Y-94620186D01*
X140240462Y-94511309D01*
X140217222Y-94482991D01*
X140133557Y-94326466D01*
X140082037Y-94156627D01*
X140064641Y-93980000D01*
X140082037Y-93803373D01*
X140133557Y-93633534D01*
X140217222Y-93477009D01*
X140267533Y-93415705D01*
X140329814Y-93339814D01*
X140431271Y-93256552D01*
X140467009Y-93227222D01*
X140623534Y-93143557D01*
X140793373Y-93092037D01*
X140859557Y-93085519D01*
X140925740Y-93079000D01*
X141014260Y-93079000D01*
X141080443Y-93085519D01*
X141080443Y-93085519D01*
G37*
G36*
X113791000Y-94401000D02*
G01*
X112089000Y-94401000D01*
X112089000Y-92699000D01*
X113791000Y-92699000D01*
X113791000Y-94401000D01*
X113791000Y-94401000D01*
G37*
G36*
X128346823Y-92711313D02*
G01*
X128507242Y-92759976D01*
X128639906Y-92830886D01*
X128655078Y-92838996D01*
X128784659Y-92945341D01*
X128891004Y-93074922D01*
X128891005Y-93074924D01*
X128970024Y-93222758D01*
X129018687Y-93383177D01*
X129035117Y-93550000D01*
X129018687Y-93716823D01*
X128970024Y-93877242D01*
X128915099Y-93980000D01*
X128891004Y-94025078D01*
X128784659Y-94154659D01*
X128655078Y-94261004D01*
X128655076Y-94261005D01*
X128507242Y-94340024D01*
X128346823Y-94388687D01*
X128221804Y-94401000D01*
X128138196Y-94401000D01*
X128013177Y-94388687D01*
X127852758Y-94340024D01*
X127704924Y-94261005D01*
X127704922Y-94261004D01*
X127575341Y-94154659D01*
X127468996Y-94025078D01*
X127444901Y-93980000D01*
X127389976Y-93877242D01*
X127341313Y-93716823D01*
X127324883Y-93550000D01*
X127341313Y-93383177D01*
X127389976Y-93222758D01*
X127468995Y-93074924D01*
X127468996Y-93074922D01*
X127575341Y-92945341D01*
X127704922Y-92838996D01*
X127720094Y-92830886D01*
X127852758Y-92759976D01*
X128013177Y-92711313D01*
X128138196Y-92699000D01*
X128221804Y-92699000D01*
X128346823Y-92711313D01*
X128346823Y-92711313D01*
G37*
G36*
X57593000Y-93661000D02*
G01*
X55691000Y-93661000D01*
X55691000Y-91759000D01*
X57593000Y-91759000D01*
X57593000Y-93661000D01*
X57593000Y-93661000D01*
G37*
G36*
X99480823Y-90347313D02*
G01*
X99641242Y-90395976D01*
X99708361Y-90431852D01*
X99789078Y-90474996D01*
X99918659Y-90581341D01*
X100025004Y-90710922D01*
X100025005Y-90710924D01*
X100104024Y-90858758D01*
X100152687Y-91019177D01*
X100169117Y-91186000D01*
X100152687Y-91352823D01*
X100104024Y-91513242D01*
X100063477Y-91589100D01*
X100025004Y-91661078D01*
X99918659Y-91790659D01*
X99789078Y-91897004D01*
X99789076Y-91897005D01*
X99641242Y-91976024D01*
X99480823Y-92024687D01*
X99355804Y-92037000D01*
X99272196Y-92037000D01*
X99147177Y-92024687D01*
X98986758Y-91976024D01*
X98838924Y-91897005D01*
X98838922Y-91897004D01*
X98709341Y-91790659D01*
X98602996Y-91661078D01*
X98564523Y-91589100D01*
X98523976Y-91513242D01*
X98475313Y-91352823D01*
X98458883Y-91186000D01*
X98475313Y-91019177D01*
X98523976Y-90858758D01*
X98602995Y-90710924D01*
X98602996Y-90710922D01*
X98709341Y-90581341D01*
X98838922Y-90474996D01*
X98919639Y-90431852D01*
X98986758Y-90395976D01*
X99147177Y-90347313D01*
X99272196Y-90335000D01*
X99355804Y-90335000D01*
X99480823Y-90347313D01*
X99480823Y-90347313D01*
G37*
G36*
X109722228Y-90367703D02*
G01*
X109877100Y-90431853D01*
X110016481Y-90524985D01*
X110135015Y-90643519D01*
X110228147Y-90782900D01*
X110292297Y-90937772D01*
X110325000Y-91102184D01*
X110325000Y-91269816D01*
X110292297Y-91434228D01*
X110228147Y-91589100D01*
X110135015Y-91728481D01*
X110016481Y-91847015D01*
X109877100Y-91940147D01*
X109722228Y-92004297D01*
X109557816Y-92037000D01*
X109390184Y-92037000D01*
X109225772Y-92004297D01*
X109070900Y-91940147D01*
X108931519Y-91847015D01*
X108812985Y-91728481D01*
X108719853Y-91589100D01*
X108655703Y-91434228D01*
X108623000Y-91269816D01*
X108623000Y-91102184D01*
X108655703Y-90937772D01*
X108719853Y-90782900D01*
X108812985Y-90643519D01*
X108931519Y-90524985D01*
X109070900Y-90431853D01*
X109225772Y-90367703D01*
X109390184Y-90335000D01*
X109557816Y-90335000D01*
X109722228Y-90367703D01*
X109722228Y-90367703D01*
G37*
G36*
X56919395Y-89255546D02*
G01*
X57092466Y-89327234D01*
X57092467Y-89327235D01*
X57248227Y-89431310D01*
X57380690Y-89563773D01*
X57380691Y-89563775D01*
X57484766Y-89719534D01*
X57556454Y-89892605D01*
X57593000Y-90076333D01*
X57593000Y-90263667D01*
X57556454Y-90447395D01*
X57484766Y-90620466D01*
X57484765Y-90620467D01*
X57380690Y-90776227D01*
X57248227Y-90908690D01*
X57169818Y-90961081D01*
X57092466Y-91012766D01*
X56919395Y-91084454D01*
X56735667Y-91121000D01*
X56548333Y-91121000D01*
X56364605Y-91084454D01*
X56191534Y-91012766D01*
X56114182Y-90961081D01*
X56035773Y-90908690D01*
X55903310Y-90776227D01*
X55799235Y-90620467D01*
X55799234Y-90620466D01*
X55727546Y-90447395D01*
X55691000Y-90263667D01*
X55691000Y-90076333D01*
X55727546Y-89892605D01*
X55799234Y-89719534D01*
X55903309Y-89563775D01*
X55903310Y-89563773D01*
X56035773Y-89431310D01*
X56191533Y-89327235D01*
X56191534Y-89327234D01*
X56364605Y-89255546D01*
X56548333Y-89219000D01*
X56735667Y-89219000D01*
X56919395Y-89255546D01*
X56919395Y-89255546D01*
G37*
G36*
X57593000Y-88581000D02*
G01*
X55691000Y-88581000D01*
X55691000Y-86679000D01*
X57593000Y-86679000D01*
X57593000Y-88581000D01*
X57593000Y-88581000D01*
G37*
G36*
X115172142Y-85578242D02*
G01*
X115320101Y-85639529D01*
X115453255Y-85728499D01*
X115566501Y-85841745D01*
X115655471Y-85974899D01*
X115716758Y-86122858D01*
X115748000Y-86279925D01*
X115748000Y-86440075D01*
X115716758Y-86597142D01*
X115655471Y-86745101D01*
X115566501Y-86878255D01*
X115453255Y-86991501D01*
X115320101Y-87080471D01*
X115172142Y-87141758D01*
X115015075Y-87173000D01*
X114854925Y-87173000D01*
X114697858Y-87141758D01*
X114549899Y-87080471D01*
X114416745Y-86991501D01*
X114303499Y-86878255D01*
X114214529Y-86745101D01*
X114153242Y-86597142D01*
X114122000Y-86440075D01*
X114122000Y-86279925D01*
X114153242Y-86122858D01*
X114214529Y-85974899D01*
X114303499Y-85841745D01*
X114416745Y-85728499D01*
X114549899Y-85639529D01*
X114697858Y-85578242D01*
X114854925Y-85547000D01*
X115015075Y-85547000D01*
X115172142Y-85578242D01*
X115172142Y-85578242D01*
G37*
G36*
X117712142Y-85578242D02*
G01*
X117860101Y-85639529D01*
X117993255Y-85728499D01*
X118106501Y-85841745D01*
X118195471Y-85974899D01*
X118256758Y-86122858D01*
X118288000Y-86279925D01*
X118288000Y-86440075D01*
X118256758Y-86597142D01*
X118195471Y-86745101D01*
X118106501Y-86878255D01*
X117993255Y-86991501D01*
X117860101Y-87080471D01*
X117712142Y-87141758D01*
X117555075Y-87173000D01*
X117394925Y-87173000D01*
X117237858Y-87141758D01*
X117089899Y-87080471D01*
X116956745Y-86991501D01*
X116843499Y-86878255D01*
X116754529Y-86745101D01*
X116693242Y-86597142D01*
X116662000Y-86440075D01*
X116662000Y-86279925D01*
X116693242Y-86122858D01*
X116754529Y-85974899D01*
X116843499Y-85841745D01*
X116956745Y-85728499D01*
X117089899Y-85639529D01*
X117237858Y-85578242D01*
X117394925Y-85547000D01*
X117555075Y-85547000D01*
X117712142Y-85578242D01*
X117712142Y-85578242D01*
G37*
G36*
X112632142Y-85578242D02*
G01*
X112780101Y-85639529D01*
X112913255Y-85728499D01*
X113026501Y-85841745D01*
X113115471Y-85974899D01*
X113176758Y-86122858D01*
X113208000Y-86279925D01*
X113208000Y-86440075D01*
X113176758Y-86597142D01*
X113115471Y-86745101D01*
X113026501Y-86878255D01*
X112913255Y-86991501D01*
X112780101Y-87080471D01*
X112632142Y-87141758D01*
X112475075Y-87173000D01*
X112314925Y-87173000D01*
X112157858Y-87141758D01*
X112009899Y-87080471D01*
X111876745Y-86991501D01*
X111763499Y-86878255D01*
X111674529Y-86745101D01*
X111613242Y-86597142D01*
X111582000Y-86440075D01*
X111582000Y-86279925D01*
X111613242Y-86122858D01*
X111674529Y-85974899D01*
X111763499Y-85841745D01*
X111876745Y-85728499D01*
X112009899Y-85639529D01*
X112157858Y-85578242D01*
X112314925Y-85547000D01*
X112475075Y-85547000D01*
X112632142Y-85578242D01*
X112632142Y-85578242D01*
G37*
G36*
X95428000Y-87173000D02*
G01*
X93802000Y-87173000D01*
X93802000Y-85547000D01*
X95428000Y-85547000D01*
X95428000Y-87173000D01*
X95428000Y-87173000D01*
G37*
G36*
X110092142Y-85578242D02*
G01*
X110240101Y-85639529D01*
X110373255Y-85728499D01*
X110486501Y-85841745D01*
X110575471Y-85974899D01*
X110636758Y-86122858D01*
X110668000Y-86279925D01*
X110668000Y-86440075D01*
X110636758Y-86597142D01*
X110575471Y-86745101D01*
X110486501Y-86878255D01*
X110373255Y-86991501D01*
X110240101Y-87080471D01*
X110092142Y-87141758D01*
X109935075Y-87173000D01*
X109774925Y-87173000D01*
X109617858Y-87141758D01*
X109469899Y-87080471D01*
X109336745Y-86991501D01*
X109223499Y-86878255D01*
X109134529Y-86745101D01*
X109073242Y-86597142D01*
X109042000Y-86440075D01*
X109042000Y-86279925D01*
X109073242Y-86122858D01*
X109134529Y-85974899D01*
X109223499Y-85841745D01*
X109336745Y-85728499D01*
X109469899Y-85639529D01*
X109617858Y-85578242D01*
X109774925Y-85547000D01*
X109935075Y-85547000D01*
X110092142Y-85578242D01*
X110092142Y-85578242D01*
G37*
G36*
X105012142Y-85578242D02*
G01*
X105160101Y-85639529D01*
X105293255Y-85728499D01*
X105406501Y-85841745D01*
X105495471Y-85974899D01*
X105556758Y-86122858D01*
X105588000Y-86279925D01*
X105588000Y-86440075D01*
X105556758Y-86597142D01*
X105495471Y-86745101D01*
X105406501Y-86878255D01*
X105293255Y-86991501D01*
X105160101Y-87080471D01*
X105012142Y-87141758D01*
X104855075Y-87173000D01*
X104694925Y-87173000D01*
X104537858Y-87141758D01*
X104389899Y-87080471D01*
X104256745Y-86991501D01*
X104143499Y-86878255D01*
X104054529Y-86745101D01*
X103993242Y-86597142D01*
X103962000Y-86440075D01*
X103962000Y-86279925D01*
X103993242Y-86122858D01*
X104054529Y-85974899D01*
X104143499Y-85841745D01*
X104256745Y-85728499D01*
X104389899Y-85639529D01*
X104537858Y-85578242D01*
X104694925Y-85547000D01*
X104855075Y-85547000D01*
X105012142Y-85578242D01*
X105012142Y-85578242D01*
G37*
G36*
X102472142Y-85578242D02*
G01*
X102620101Y-85639529D01*
X102753255Y-85728499D01*
X102866501Y-85841745D01*
X102955471Y-85974899D01*
X103016758Y-86122858D01*
X103048000Y-86279925D01*
X103048000Y-86440075D01*
X103016758Y-86597142D01*
X102955471Y-86745101D01*
X102866501Y-86878255D01*
X102753255Y-86991501D01*
X102620101Y-87080471D01*
X102472142Y-87141758D01*
X102315075Y-87173000D01*
X102154925Y-87173000D01*
X101997858Y-87141758D01*
X101849899Y-87080471D01*
X101716745Y-86991501D01*
X101603499Y-86878255D01*
X101514529Y-86745101D01*
X101453242Y-86597142D01*
X101422000Y-86440075D01*
X101422000Y-86279925D01*
X101453242Y-86122858D01*
X101514529Y-85974899D01*
X101603499Y-85841745D01*
X101716745Y-85728499D01*
X101849899Y-85639529D01*
X101997858Y-85578242D01*
X102154925Y-85547000D01*
X102315075Y-85547000D01*
X102472142Y-85578242D01*
X102472142Y-85578242D01*
G37*
G36*
X99932142Y-85578242D02*
G01*
X100080101Y-85639529D01*
X100213255Y-85728499D01*
X100326501Y-85841745D01*
X100415471Y-85974899D01*
X100476758Y-86122858D01*
X100508000Y-86279925D01*
X100508000Y-86440075D01*
X100476758Y-86597142D01*
X100415471Y-86745101D01*
X100326501Y-86878255D01*
X100213255Y-86991501D01*
X100080101Y-87080471D01*
X99932142Y-87141758D01*
X99775075Y-87173000D01*
X99614925Y-87173000D01*
X99457858Y-87141758D01*
X99309899Y-87080471D01*
X99176745Y-86991501D01*
X99063499Y-86878255D01*
X98974529Y-86745101D01*
X98913242Y-86597142D01*
X98882000Y-86440075D01*
X98882000Y-86279925D01*
X98913242Y-86122858D01*
X98974529Y-85974899D01*
X99063499Y-85841745D01*
X99176745Y-85728499D01*
X99309899Y-85639529D01*
X99457858Y-85578242D01*
X99614925Y-85547000D01*
X99775075Y-85547000D01*
X99932142Y-85578242D01*
X99932142Y-85578242D01*
G37*
G36*
X97392142Y-85578242D02*
G01*
X97540101Y-85639529D01*
X97673255Y-85728499D01*
X97786501Y-85841745D01*
X97875471Y-85974899D01*
X97936758Y-86122858D01*
X97968000Y-86279925D01*
X97968000Y-86440075D01*
X97936758Y-86597142D01*
X97875471Y-86745101D01*
X97786501Y-86878255D01*
X97673255Y-86991501D01*
X97540101Y-87080471D01*
X97392142Y-87141758D01*
X97235075Y-87173000D01*
X97074925Y-87173000D01*
X96917858Y-87141758D01*
X96769899Y-87080471D01*
X96636745Y-86991501D01*
X96523499Y-86878255D01*
X96434529Y-86745101D01*
X96373242Y-86597142D01*
X96342000Y-86440075D01*
X96342000Y-86279925D01*
X96373242Y-86122858D01*
X96434529Y-85974899D01*
X96523499Y-85841745D01*
X96636745Y-85728499D01*
X96769899Y-85639529D01*
X96917858Y-85578242D01*
X97074925Y-85547000D01*
X97235075Y-85547000D01*
X97392142Y-85578242D01*
X97392142Y-85578242D01*
G37*
G36*
X107552142Y-85578242D02*
G01*
X107700101Y-85639529D01*
X107833255Y-85728499D01*
X107946501Y-85841745D01*
X108035471Y-85974899D01*
X108096758Y-86122858D01*
X108128000Y-86279925D01*
X108128000Y-86440075D01*
X108096758Y-86597142D01*
X108035471Y-86745101D01*
X107946501Y-86878255D01*
X107833255Y-86991501D01*
X107700101Y-87080471D01*
X107552142Y-87141758D01*
X107395075Y-87173000D01*
X107234925Y-87173000D01*
X107077858Y-87141758D01*
X106929899Y-87080471D01*
X106796745Y-86991501D01*
X106683499Y-86878255D01*
X106594529Y-86745101D01*
X106533242Y-86597142D01*
X106502000Y-86440075D01*
X106502000Y-86279925D01*
X106533242Y-86122858D01*
X106594529Y-85974899D01*
X106683499Y-85841745D01*
X106796745Y-85728499D01*
X106929899Y-85639529D01*
X107077858Y-85578242D01*
X107234925Y-85547000D01*
X107395075Y-85547000D01*
X107552142Y-85578242D01*
X107552142Y-85578242D01*
G37*
G36*
X96260256Y-73321298D02*
G01*
X96366579Y-73342447D01*
X96667042Y-73466903D01*
X96937451Y-73647585D01*
X97167415Y-73877549D01*
X97348097Y-74147958D01*
X97472553Y-74448421D01*
X97536000Y-74767391D01*
X97536000Y-75092609D01*
X97472553Y-75411579D01*
X97348097Y-75712042D01*
X97167415Y-75982451D01*
X96937451Y-76212415D01*
X96667042Y-76393097D01*
X96366579Y-76517553D01*
X96260256Y-76538702D01*
X96047611Y-76581000D01*
X95722389Y-76581000D01*
X95509744Y-76538702D01*
X95403421Y-76517553D01*
X95102958Y-76393097D01*
X94832549Y-76212415D01*
X94602585Y-75982451D01*
X94421903Y-75712042D01*
X94297447Y-75411579D01*
X94234000Y-75092609D01*
X94234000Y-74767391D01*
X94297447Y-74448421D01*
X94421903Y-74147958D01*
X94602585Y-73877549D01*
X94832549Y-73647585D01*
X95102958Y-73466903D01*
X95403421Y-73342447D01*
X95509744Y-73321298D01*
X95722389Y-73279000D01*
X96047611Y-73279000D01*
X96260256Y-73321298D01*
X96260256Y-73321298D01*
G37*
G36*
X116580256Y-73321298D02*
G01*
X116686579Y-73342447D01*
X116987042Y-73466903D01*
X117257451Y-73647585D01*
X117487415Y-73877549D01*
X117668097Y-74147958D01*
X117792553Y-74448421D01*
X117856000Y-74767391D01*
X117856000Y-75092609D01*
X117792553Y-75411579D01*
X117668097Y-75712042D01*
X117487415Y-75982451D01*
X117257451Y-76212415D01*
X116987042Y-76393097D01*
X116686579Y-76517553D01*
X116580256Y-76538702D01*
X116367611Y-76581000D01*
X116042389Y-76581000D01*
X115829744Y-76538702D01*
X115723421Y-76517553D01*
X115422958Y-76393097D01*
X115152549Y-76212415D01*
X114922585Y-75982451D01*
X114741903Y-75712042D01*
X114617447Y-75411579D01*
X114554000Y-75092609D01*
X114554000Y-74767391D01*
X114617447Y-74448421D01*
X114741903Y-74147958D01*
X114922585Y-73877549D01*
X115152549Y-73647585D01*
X115422958Y-73466903D01*
X115723421Y-73342447D01*
X115829744Y-73321298D01*
X116042389Y-73279000D01*
X116367611Y-73279000D01*
X116580256Y-73321298D01*
X116580256Y-73321298D01*
G37*
G36*
X109330442Y-64002518D02*
G01*
X109396627Y-64009037D01*
X109566466Y-64060557D01*
X109722991Y-64144222D01*
X109737764Y-64156346D01*
X109860186Y-64256814D01*
X109930614Y-64342632D01*
X109972778Y-64394009D01*
X110056443Y-64550534D01*
X110107963Y-64720373D01*
X110125359Y-64897000D01*
X110107963Y-65073627D01*
X110056443Y-65243466D01*
X109972778Y-65399991D01*
X109943448Y-65435729D01*
X109860186Y-65537186D01*
X109758729Y-65620448D01*
X109722991Y-65649778D01*
X109566466Y-65733443D01*
X109396627Y-65784963D01*
X109330442Y-65791482D01*
X109264260Y-65798000D01*
X109175740Y-65798000D01*
X109109558Y-65791482D01*
X109043373Y-65784963D01*
X108873534Y-65733443D01*
X108717009Y-65649778D01*
X108681271Y-65620448D01*
X108579814Y-65537186D01*
X108496552Y-65435729D01*
X108467222Y-65399991D01*
X108383557Y-65243466D01*
X108332037Y-65073627D01*
X108314641Y-64897000D01*
X108332037Y-64720373D01*
X108383557Y-64550534D01*
X108467222Y-64394009D01*
X108509386Y-64342632D01*
X108579814Y-64256814D01*
X108702236Y-64156346D01*
X108717009Y-64144222D01*
X108873534Y-64060557D01*
X109043373Y-64009037D01*
X109109558Y-64002518D01*
X109175740Y-63996000D01*
X109264260Y-63996000D01*
X109330442Y-64002518D01*
X109330442Y-64002518D01*
G37*
G36*
X104250442Y-64002518D02*
G01*
X104316627Y-64009037D01*
X104486466Y-64060557D01*
X104642991Y-64144222D01*
X104657764Y-64156346D01*
X104780186Y-64256814D01*
X104850614Y-64342632D01*
X104892778Y-64394009D01*
X104976443Y-64550534D01*
X105027963Y-64720373D01*
X105045359Y-64897000D01*
X105027963Y-65073627D01*
X104976443Y-65243466D01*
X104892778Y-65399991D01*
X104863448Y-65435729D01*
X104780186Y-65537186D01*
X104678729Y-65620448D01*
X104642991Y-65649778D01*
X104486466Y-65733443D01*
X104316627Y-65784963D01*
X104250442Y-65791482D01*
X104184260Y-65798000D01*
X104095740Y-65798000D01*
X104029558Y-65791482D01*
X103963373Y-65784963D01*
X103793534Y-65733443D01*
X103637009Y-65649778D01*
X103601271Y-65620448D01*
X103499814Y-65537186D01*
X103416552Y-65435729D01*
X103387222Y-65399991D01*
X103303557Y-65243466D01*
X103252037Y-65073627D01*
X103234641Y-64897000D01*
X103252037Y-64720373D01*
X103303557Y-64550534D01*
X103387222Y-64394009D01*
X103429386Y-64342632D01*
X103499814Y-64256814D01*
X103622236Y-64156346D01*
X103637009Y-64144222D01*
X103793534Y-64060557D01*
X103963373Y-64009037D01*
X104029558Y-64002518D01*
X104095740Y-63996000D01*
X104184260Y-63996000D01*
X104250442Y-64002518D01*
X104250442Y-64002518D01*
G37*
G36*
X106790442Y-64002518D02*
G01*
X106856627Y-64009037D01*
X107026466Y-64060557D01*
X107182991Y-64144222D01*
X107197764Y-64156346D01*
X107320186Y-64256814D01*
X107390614Y-64342632D01*
X107432778Y-64394009D01*
X107516443Y-64550534D01*
X107567963Y-64720373D01*
X107585359Y-64897000D01*
X107567963Y-65073627D01*
X107516443Y-65243466D01*
X107432778Y-65399991D01*
X107403448Y-65435729D01*
X107320186Y-65537186D01*
X107218729Y-65620448D01*
X107182991Y-65649778D01*
X107026466Y-65733443D01*
X106856627Y-65784963D01*
X106790442Y-65791482D01*
X106724260Y-65798000D01*
X106635740Y-65798000D01*
X106569558Y-65791482D01*
X106503373Y-65784963D01*
X106333534Y-65733443D01*
X106177009Y-65649778D01*
X106141271Y-65620448D01*
X106039814Y-65537186D01*
X105956552Y-65435729D01*
X105927222Y-65399991D01*
X105843557Y-65243466D01*
X105792037Y-65073627D01*
X105774641Y-64897000D01*
X105792037Y-64720373D01*
X105843557Y-64550534D01*
X105927222Y-64394009D01*
X105969386Y-64342632D01*
X106039814Y-64256814D01*
X106162236Y-64156346D01*
X106177009Y-64144222D01*
X106333534Y-64060557D01*
X106503373Y-64009037D01*
X106569558Y-64002518D01*
X106635740Y-63996000D01*
X106724260Y-63996000D01*
X106790442Y-64002518D01*
X106790442Y-64002518D01*
G37*
G36*
X102501000Y-65798000D02*
G01*
X100699000Y-65798000D01*
X100699000Y-63996000D01*
X102501000Y-63996000D01*
X102501000Y-65798000D01*
X102501000Y-65798000D01*
G37*
G36*
X56889561Y-62582966D02*
G01*
X56922383Y-62592923D01*
X56952632Y-62609092D01*
X56979148Y-62630852D01*
X57000908Y-62657368D01*
X57017077Y-62687617D01*
X57027034Y-62720439D01*
X57031000Y-62760713D01*
X57031000Y-64239287D01*
X57027034Y-64279561D01*
X57017077Y-64312383D01*
X57000908Y-64342632D01*
X56979148Y-64369148D01*
X56952632Y-64390908D01*
X56922383Y-64407077D01*
X56889561Y-64417034D01*
X56849287Y-64421000D01*
X54910713Y-64421000D01*
X54870439Y-64417034D01*
X54837617Y-64407077D01*
X54807368Y-64390908D01*
X54780852Y-64369148D01*
X54759092Y-64342632D01*
X54742923Y-64312383D01*
X54732966Y-64279561D01*
X54729000Y-64239287D01*
X54729000Y-62760713D01*
X54732966Y-62720439D01*
X54742923Y-62687617D01*
X54759092Y-62657368D01*
X54780852Y-62630852D01*
X54807368Y-62609092D01*
X54837617Y-62592923D01*
X54870439Y-62582966D01*
X54910713Y-62579000D01*
X56849287Y-62579000D01*
X56889561Y-62582966D01*
X56889561Y-62582966D01*
G37*
G36*
X64351000Y-64351000D02*
G01*
X62649000Y-64351000D01*
X62649000Y-62649000D01*
X64351000Y-62649000D01*
X64351000Y-64351000D01*
X64351000Y-64351000D01*
G37*
G36*
X56200345Y-60043442D02*
G01*
X56290548Y-60052326D01*
X56464157Y-60104990D01*
X56624156Y-60190511D01*
X56667729Y-60226271D01*
X56764397Y-60305603D01*
X56843729Y-60402271D01*
X56879489Y-60445844D01*
X56955229Y-60587544D01*
X56960232Y-60596903D01*
X56965010Y-60605843D01*
X57017674Y-60779452D01*
X57035456Y-60960000D01*
X57017674Y-61140548D01*
X56965010Y-61314157D01*
X56879489Y-61474156D01*
X56843729Y-61517729D01*
X56764397Y-61614397D01*
X56667729Y-61693729D01*
X56624156Y-61729489D01*
X56464157Y-61815010D01*
X56290548Y-61867674D01*
X56200345Y-61876558D01*
X56155245Y-61881000D01*
X55604755Y-61881000D01*
X55559655Y-61876558D01*
X55469452Y-61867674D01*
X55295843Y-61815010D01*
X55135844Y-61729489D01*
X55092271Y-61693729D01*
X54995603Y-61614397D01*
X54916271Y-61517729D01*
X54880511Y-61474156D01*
X54794990Y-61314157D01*
X54742326Y-61140548D01*
X54724544Y-60960000D01*
X54742326Y-60779452D01*
X54794990Y-60605843D01*
X54799769Y-60596903D01*
X54804771Y-60587544D01*
X54880511Y-60445844D01*
X54916271Y-60402271D01*
X54995603Y-60305603D01*
X55092271Y-60226271D01*
X55135844Y-60190511D01*
X55295843Y-60104990D01*
X55469452Y-60052326D01*
X55559655Y-60043442D01*
X55604755Y-60039000D01*
X56155245Y-60039000D01*
X56200345Y-60043442D01*
X56200345Y-60043442D01*
G37*
G36*
X63748228Y-60181703D02*
G01*
X63903100Y-60245853D01*
X64042481Y-60338985D01*
X64161015Y-60457519D01*
X64254147Y-60596900D01*
X64318297Y-60751772D01*
X64351000Y-60916184D01*
X64351000Y-61083816D01*
X64318297Y-61248228D01*
X64254147Y-61403100D01*
X64161015Y-61542481D01*
X64042481Y-61661015D01*
X63903100Y-61754147D01*
X63748228Y-61818297D01*
X63583816Y-61851000D01*
X63416184Y-61851000D01*
X63251772Y-61818297D01*
X63096900Y-61754147D01*
X62957519Y-61661015D01*
X62838985Y-61542481D01*
X62745853Y-61403100D01*
X62681703Y-61248228D01*
X62649000Y-61083816D01*
X62649000Y-60916184D01*
X62681703Y-60751772D01*
X62745853Y-60596900D01*
X62838985Y-60457519D01*
X62957519Y-60338985D01*
X63096900Y-60245853D01*
X63251772Y-60181703D01*
X63416184Y-60149000D01*
X63583816Y-60149000D01*
X63748228Y-60181703D01*
X63748228Y-60181703D01*
G37*
G36*
X55375256Y-53391298D02*
G01*
X55481579Y-53412447D01*
X55782042Y-53536903D01*
X56052451Y-53717585D01*
X56282415Y-53947549D01*
X56463097Y-54217958D01*
X56587553Y-54518421D01*
X56651000Y-54837391D01*
X56651000Y-55162609D01*
X56587553Y-55481579D01*
X56463097Y-55782042D01*
X56282415Y-56052451D01*
X56052451Y-56282415D01*
X55782042Y-56463097D01*
X55481579Y-56587553D01*
X55375256Y-56608702D01*
X55162611Y-56651000D01*
X54837389Y-56651000D01*
X54624744Y-56608702D01*
X54518421Y-56587553D01*
X54217958Y-56463097D01*
X53947549Y-56282415D01*
X53717585Y-56052451D01*
X53536903Y-55782042D01*
X53412447Y-55481579D01*
X53349000Y-55162609D01*
X53349000Y-54837391D01*
X53412447Y-54518421D01*
X53536903Y-54217958D01*
X53717585Y-53947549D01*
X53947549Y-53717585D01*
X54217958Y-53536903D01*
X54518421Y-53412447D01*
X54624744Y-53391298D01*
X54837389Y-53349000D01*
X55162611Y-53349000D01*
X55375256Y-53391298D01*
X55375256Y-53391298D01*
G37*
G36*
X145375256Y-53391298D02*
G01*
X145481579Y-53412447D01*
X145782042Y-53536903D01*
X146052451Y-53717585D01*
X146282415Y-53947549D01*
X146463097Y-54217958D01*
X146587553Y-54518421D01*
X146651000Y-54837391D01*
X146651000Y-55162609D01*
X146587553Y-55481579D01*
X146463097Y-55782042D01*
X146282415Y-56052451D01*
X146052451Y-56282415D01*
X145782042Y-56463097D01*
X145481579Y-56587553D01*
X145375256Y-56608702D01*
X145162611Y-56651000D01*
X144837389Y-56651000D01*
X144624744Y-56608702D01*
X144518421Y-56587553D01*
X144217958Y-56463097D01*
X143947549Y-56282415D01*
X143717585Y-56052451D01*
X143536903Y-55782042D01*
X143412447Y-55481579D01*
X143349000Y-55162609D01*
X143349000Y-54837391D01*
X143412447Y-54518421D01*
X143536903Y-54217958D01*
X143717585Y-53947549D01*
X143947549Y-53717585D01*
X144217958Y-53536903D01*
X144518421Y-53412447D01*
X144624744Y-53391298D01*
X144837389Y-53349000D01*
X145162611Y-53349000D01*
X145375256Y-53391298D01*
X145375256Y-53391298D01*
G37*
M02*
