G04 #@! TF.GenerationSoftware,KiCad,Pcbnew,5.1.4*
G04 #@! TF.CreationDate,2019-09-28T03:23:27+02:00*
G04 #@! TF.ProjectId,Stratosensor,53747261-746f-4736-956e-736f722e6b69,rev?*
G04 #@! TF.SameCoordinates,Original*
G04 #@! TF.FileFunction,Profile,NP*
%FSLAX46Y46*%
G04 Gerber Fmt 4.6, Leading zero omitted, Abs format (unit mm)*
G04 Created by KiCad (PCBNEW 5.1.4) date 2019-09-28 03:23:27*
%MOMM*%
%LPD*%
G04 APERTURE LIST*
%ADD10C,0.050000*%
G04 APERTURE END LIST*
D10*
X111125000Y-61468000D02*
G75*
G02X109855000Y-61468000I-635000J0D01*
G01*
X109855000Y-58928000D02*
X109855000Y-61468000D01*
X111125000Y-58928000D02*
X111125000Y-61468000D01*
X109855000Y-58928000D02*
G75*
G02X111125000Y-58928000I635000J0D01*
G01*
X99695000Y-68453000D02*
G75*
G02X100965000Y-68453000I635000J0D01*
G01*
X99695000Y-68453000D02*
X99695000Y-70993000D01*
X100965000Y-68453000D02*
X100965000Y-70993000D01*
X100965000Y-70993000D02*
G75*
G02X99695000Y-70993000I-635000J0D01*
G01*
X107315000Y-58928000D02*
G75*
G02X108585000Y-58928000I635000J0D01*
G01*
X107315000Y-58928000D02*
X107315000Y-61468000D01*
X108585000Y-61468000D02*
G75*
G02X107315000Y-61468000I-635000J0D01*
G01*
X108585000Y-58928000D02*
X108585000Y-61468000D01*
X104775000Y-58928000D02*
G75*
G02X106045000Y-58928000I635000J0D01*
G01*
X106045000Y-58928000D02*
X106045000Y-61468000D01*
X104775000Y-58928000D02*
X104775000Y-61468000D01*
X106045000Y-61468000D02*
G75*
G02X104775000Y-61468000I-635000J0D01*
G01*
X103505000Y-61468000D02*
G75*
G02X102235000Y-61468000I-635000J0D01*
G01*
X102235000Y-58928000D02*
G75*
G02X103505000Y-58928000I635000J0D01*
G01*
X103505000Y-58928000D02*
X103505000Y-61468000D01*
X102235000Y-58928000D02*
X102235000Y-61468000D01*
X99695000Y-58928000D02*
G75*
G02X100965000Y-58928000I635000J0D01*
G01*
X100965000Y-61468000D02*
G75*
G02X99695000Y-61468000I-635000J0D01*
G01*
X100965000Y-58928000D02*
X100965000Y-61468000D01*
X99695000Y-58928000D02*
X99695000Y-61468000D01*
X109855000Y-68453000D02*
G75*
G02X111125000Y-68453000I635000J0D01*
G01*
X111125000Y-68453000D02*
X111125000Y-70993000D01*
X109855000Y-68453000D02*
X109855000Y-70993000D01*
X111125000Y-70993000D02*
G75*
G02X109855000Y-70993000I-635000J0D01*
G01*
X107315000Y-68453000D02*
X107315000Y-70993000D01*
X108585000Y-70993000D02*
G75*
G02X107315000Y-70993000I-635000J0D01*
G01*
X108585000Y-68453000D02*
X108585000Y-70993000D01*
X107315000Y-68453000D02*
G75*
G02X108585000Y-68453000I635000J0D01*
G01*
X104775000Y-68453000D02*
X104775000Y-70993000D01*
X104775000Y-68453000D02*
G75*
G02X106045000Y-68453000I635000J0D01*
G01*
X106045000Y-70993000D02*
G75*
G02X104775000Y-70993000I-635000J0D01*
G01*
X106045000Y-68453000D02*
X106045000Y-70993000D01*
X103505000Y-70993000D02*
G75*
G02X102235000Y-70993000I-635000J0D01*
G01*
X103505000Y-68453000D02*
X103505000Y-70993000D01*
X102235000Y-68453000D02*
X102235000Y-70993000D01*
X102235000Y-68453000D02*
G75*
G02X103505000Y-68453000I635000J0D01*
G01*
X50000000Y-50000000D02*
X50000000Y-150000000D01*
X150000000Y-50000000D02*
X50000000Y-50000000D01*
X150000000Y-150000000D02*
X150000000Y-50000000D01*
X50000000Y-150000000D02*
X150000000Y-150000000D01*
M02*
