M48
; DRILL file {KiCad 5.1.4} date Sat 28 Sep 2019 03:23:30 AM CEST
; FORMAT={-:-/ absolute / inch / decimal}
; #@! TF.CreationDate,2019-09-28T03:23:30+02:00
; #@! TF.GenerationSoftware,Kicad,Pcbnew,5.1.4
; #@! TF.FileFunction,Plated,1,2,PTH
FMAT,2
INCH
T1C0.0157
T2C0.0315
T3C0.0354
T4C0.0394
T5C0.0400
T6C0.0472
%
G90
G05
T1
X2.55Y-3.55
X2.55Y-3.7
X2.625Y-3.55
X2.625Y-3.7
X2.7Y-3.55
X2.7Y-3.7
X3.3Y-3.55
X3.3Y-3.7
X3.375Y-3.55
X3.375Y-3.7
X3.45Y-3.55
X3.45Y-3.7
X4.05Y-4.46
X4.07Y-4.32
X4.075Y-3.8
X4.125Y-5.225
X4.125Y-5.375
X4.14Y-3.9
X4.175Y-3.0
X4.175Y-3.075
X4.175Y-3.15
X4.2Y-3.8
X4.2Y-5.225
X4.2Y-5.375
X4.26Y-3.9
X4.26Y-4.04
X4.275Y-5.225
X4.275Y-5.375
X4.28Y-4.26
X4.3Y-3.8
X4.32Y-3.975
X4.325Y-3.0
X4.325Y-3.075
X4.325Y-3.15
X4.35Y-5.325
X4.36Y-4.26
X4.75Y-3.775
X4.75Y-3.85
X4.75Y-3.925
X4.75Y-4.3
X4.75Y-4.375
X4.75Y-4.45
X4.75Y-4.925
X4.75Y-5.0
X4.75Y-5.075
X4.9Y-3.775
X4.9Y-3.85
X4.9Y-3.925
X4.9Y-4.3
X4.9Y-4.375
X4.9Y-4.45
X4.9Y-4.925
X4.9Y-5.0
X4.9Y-5.075
T2
X2.5Y-2.4016
X2.5Y-2.5
X3.7465Y-5.1331
X3.7465Y-5.2331
X3.7465Y-5.3331
X3.7465Y-5.4331
X3.7465Y-5.5331
X3.85Y-4.525
X4.25Y-4.525
X3.725Y-3.4
X3.825Y-3.4
X3.925Y-3.4
X4.025Y-3.4
X4.125Y-3.4
X4.225Y-3.4
X4.325Y-3.4
X4.425Y-3.4
X4.525Y-3.4
X4.625Y-3.4
X5.3Y-4.875
X5.3Y-5.275
X4.4465Y-3.6831
X4.4465Y-3.7831
X4.4465Y-3.8831
X4.4465Y-3.9831
X4.4465Y-4.0831
X4.4465Y-4.1831
X4.4465Y-4.2831
X4.4465Y-4.3831
X4.4465Y-4.4831
X4.4465Y-4.5831
X4.4465Y-4.6831
X4.4465Y-4.7831
X4.4465Y-4.8831
X4.4465Y-4.9831
X4.4465Y-5.0831
X4.4465Y-5.1831
X4.4465Y-5.2831
X4.4465Y-5.3831
X4.4465Y-5.4831
X4.4465Y-5.5831
X5.0465Y-3.6831
X5.0465Y-3.7831
X5.0465Y-3.8831
X5.0465Y-3.9831
X5.0465Y-4.0831
X5.0465Y-4.1831
X5.0465Y-4.2831
X5.0465Y-4.3831
X5.0465Y-4.4831
X5.0465Y-4.5831
X5.0465Y-4.6831
X5.0465Y-4.7831
X5.0465Y-4.8831
X5.0465Y-4.9831
X5.0465Y-5.0831
X5.0465Y-5.1831
X5.0465Y-5.2831
X5.0465Y-5.3831
X5.0465Y-5.4831
X5.0465Y-5.5831
X4.07Y-4.89
X4.07Y-5.0869
X3.5508Y-4.0807
X3.5508Y-4.1807
X3.5508Y-4.2807
X3.5508Y-4.3807
X3.5508Y-4.4807
X3.5508Y-4.5807
X3.94Y-4.6531
X3.94Y-4.85
X5.175Y-4.875
X5.175Y-5.275
X3.91Y-3.59
X4.31Y-3.59
X3.8Y-4.3
X4.2Y-4.3
X4.2465Y-4.7409
X4.2465Y-4.9331
X3.91Y-3.71
X4.31Y-3.71
T3
X2.23Y-3.65
X2.23Y-3.75
X2.23Y-3.45
X2.23Y-3.55
T4
X5.45Y-5.3
X5.55Y-5.3
X5.65Y-5.3
X5.75Y-5.3
X5.45Y-5.1
X5.55Y-5.1
X5.65Y-5.1
X5.75Y-5.1
X5.45Y-4.9
X5.55Y-4.9
X5.65Y-4.9
X5.75Y-4.9
X5.45Y-3.7
X5.55Y-3.7
X5.65Y-3.7
X5.75Y-3.7
X5.45Y-4.3
X5.55Y-4.3
X5.65Y-4.3
X5.75Y-4.3
X4.0Y-2.555
X4.1Y-2.555
X4.2Y-2.555
X4.3Y-2.555
X4.4965Y-5.7831
X4.5965Y-5.7831
X4.6965Y-5.7831
X5.45Y-3.9
X5.55Y-3.9
X5.65Y-3.9
X5.75Y-3.9
X5.45Y-4.1
X5.55Y-4.1
X5.65Y-4.1
X5.75Y-4.1
T5
X3.97Y-3.97
X3.97Y-4.07
X4.07Y-3.97
X4.07Y-4.07
X4.17Y-3.97
X4.17Y-4.07
T6
X2.2Y-2.4
X2.2Y-2.5
T0
M30
