G04 #@! TF.GenerationSoftware,KiCad,Pcbnew,5.1.4*
G04 #@! TF.CreationDate,2019-08-22T02:38:53+02:00*
G04 #@! TF.ProjectId,Stratosensor,53747261-746f-4736-956e-736f722e6b69,rev?*
G04 #@! TF.SameCoordinates,Original*
G04 #@! TF.FileFunction,Legend,Bot*
G04 #@! TF.FilePolarity,Positive*
%FSLAX46Y46*%
G04 Gerber Fmt 4.6, Leading zero omitted, Abs format (unit mm)*
G04 Created by KiCad (PCBNEW 5.1.4) date 2019-08-22 02:38:53*
%MOMM*%
%LPD*%
G04 APERTURE LIST*
%ADD10C,0.120000*%
%ADD11C,0.150000*%
%ADD12O,1.802000X1.802000*%
%ADD13R,1.802000X1.802000*%
%ADD14C,0.100000*%
%ADD15C,1.252000*%
%ADD16C,3.302000*%
%ADD17C,1.626000*%
%ADD18R,1.626000X1.626000*%
%ADD19O,2.302000X1.842000*%
%ADD20C,1.842000*%
%ADD21C,1.702000*%
%ADD22R,1.702000X1.702000*%
%ADD23C,1.902000*%
%ADD24R,1.902000X1.902000*%
%ADD25O,1.702000X1.702000*%
%ADD26C,2.202000*%
%ADD27C,1.802000*%
%ADD28C,1.852000*%
%ADD29R,1.852000X1.852000*%
%ADD30C,1.602000*%
%ADD31O,1.829200X1.829200*%
%ADD32R,1.829200X1.829200*%
G04 APERTURE END LIST*
D10*
X131520000Y-114918748D02*
X131520000Y-115441252D01*
X130100000Y-114918748D02*
X130100000Y-115441252D01*
X126186000Y-117331748D02*
X126186000Y-117854252D01*
X124766000Y-117331748D02*
X124766000Y-117854252D01*
X114860000Y-117696252D02*
X114860000Y-117173748D01*
X116280000Y-117696252D02*
X116280000Y-117173748D01*
D11*
X133072142Y-115013333D02*
X133119761Y-114965714D01*
X133167380Y-114822857D01*
X133167380Y-114727619D01*
X133119761Y-114584761D01*
X133024523Y-114489523D01*
X132929285Y-114441904D01*
X132738809Y-114394285D01*
X132595952Y-114394285D01*
X132405476Y-114441904D01*
X132310238Y-114489523D01*
X132215000Y-114584761D01*
X132167380Y-114727619D01*
X132167380Y-114822857D01*
X132215000Y-114965714D01*
X132262619Y-115013333D01*
X133167380Y-115489523D02*
X133167380Y-115680000D01*
X133119761Y-115775238D01*
X133072142Y-115822857D01*
X132929285Y-115918095D01*
X132738809Y-115965714D01*
X132357857Y-115965714D01*
X132262619Y-115918095D01*
X132215000Y-115870476D01*
X132167380Y-115775238D01*
X132167380Y-115584761D01*
X132215000Y-115489523D01*
X132262619Y-115441904D01*
X132357857Y-115394285D01*
X132595952Y-115394285D01*
X132691190Y-115441904D01*
X132738809Y-115489523D01*
X132786428Y-115584761D01*
X132786428Y-115775238D01*
X132738809Y-115870476D01*
X132691190Y-115918095D01*
X132595952Y-115965714D01*
X124183142Y-117426333D02*
X124230761Y-117378714D01*
X124278380Y-117235857D01*
X124278380Y-117140619D01*
X124230761Y-116997761D01*
X124135523Y-116902523D01*
X124040285Y-116854904D01*
X123849809Y-116807285D01*
X123706952Y-116807285D01*
X123516476Y-116854904D01*
X123421238Y-116902523D01*
X123326000Y-116997761D01*
X123278380Y-117140619D01*
X123278380Y-117235857D01*
X123326000Y-117378714D01*
X123373619Y-117426333D01*
X123611714Y-118283476D02*
X124278380Y-118283476D01*
X123230761Y-118045380D02*
X123945047Y-117807285D01*
X123945047Y-118426333D01*
X86546666Y-116707142D02*
X86594285Y-116754761D01*
X86737142Y-116802380D01*
X86832380Y-116802380D01*
X86975238Y-116754761D01*
X87070476Y-116659523D01*
X87118095Y-116564285D01*
X87165714Y-116373809D01*
X87165714Y-116230952D01*
X87118095Y-116040476D01*
X87070476Y-115945238D01*
X86975238Y-115850000D01*
X86832380Y-115802380D01*
X86737142Y-115802380D01*
X86594285Y-115850000D01*
X86546666Y-115897619D01*
X86165714Y-116754761D02*
X86022857Y-116802380D01*
X85784761Y-116802380D01*
X85689523Y-116754761D01*
X85641904Y-116707142D01*
X85594285Y-116611904D01*
X85594285Y-116516666D01*
X85641904Y-116421428D01*
X85689523Y-116373809D01*
X85784761Y-116326190D01*
X85975238Y-116278571D01*
X86070476Y-116230952D01*
X86118095Y-116183333D01*
X86165714Y-116088095D01*
X86165714Y-115992857D01*
X86118095Y-115897619D01*
X86070476Y-115850000D01*
X85975238Y-115802380D01*
X85737142Y-115802380D01*
X85594285Y-115850000D01*
X87665714Y-114214761D02*
X87522857Y-114262380D01*
X87284761Y-114262380D01*
X87189523Y-114214761D01*
X87141904Y-114167142D01*
X87094285Y-114071904D01*
X87094285Y-113976666D01*
X87141904Y-113881428D01*
X87189523Y-113833809D01*
X87284761Y-113786190D01*
X87475238Y-113738571D01*
X87570476Y-113690952D01*
X87618095Y-113643333D01*
X87665714Y-113548095D01*
X87665714Y-113452857D01*
X87618095Y-113357619D01*
X87570476Y-113310000D01*
X87475238Y-113262380D01*
X87237142Y-113262380D01*
X87094285Y-113310000D01*
X86094285Y-114167142D02*
X86141904Y-114214761D01*
X86284761Y-114262380D01*
X86380000Y-114262380D01*
X86522857Y-114214761D01*
X86618095Y-114119523D01*
X86665714Y-114024285D01*
X86713333Y-113833809D01*
X86713333Y-113690952D01*
X86665714Y-113500476D01*
X86618095Y-113405238D01*
X86522857Y-113310000D01*
X86380000Y-113262380D01*
X86284761Y-113262380D01*
X86141904Y-113310000D01*
X86094285Y-113357619D01*
X85665714Y-114262380D02*
X85665714Y-113262380D01*
X85094285Y-114262380D02*
X85522857Y-113690952D01*
X85094285Y-113262380D02*
X85665714Y-113833809D01*
X87951428Y-111722380D02*
X87951428Y-110722380D01*
X87618095Y-111436666D01*
X87284761Y-110722380D01*
X87284761Y-111722380D01*
X86618095Y-110722380D02*
X86427619Y-110722380D01*
X86332380Y-110770000D01*
X86237142Y-110865238D01*
X86189523Y-111055714D01*
X86189523Y-111389047D01*
X86237142Y-111579523D01*
X86332380Y-111674761D01*
X86427619Y-111722380D01*
X86618095Y-111722380D01*
X86713333Y-111674761D01*
X86808571Y-111579523D01*
X86856190Y-111389047D01*
X86856190Y-111055714D01*
X86808571Y-110865238D01*
X86713333Y-110770000D01*
X86618095Y-110722380D01*
X85808571Y-111674761D02*
X85665714Y-111722380D01*
X85427619Y-111722380D01*
X85332380Y-111674761D01*
X85284761Y-111627142D01*
X85237142Y-111531904D01*
X85237142Y-111436666D01*
X85284761Y-111341428D01*
X85332380Y-111293809D01*
X85427619Y-111246190D01*
X85618095Y-111198571D01*
X85713333Y-111150952D01*
X85760952Y-111103333D01*
X85808571Y-111008095D01*
X85808571Y-110912857D01*
X85760952Y-110817619D01*
X85713333Y-110770000D01*
X85618095Y-110722380D01*
X85380000Y-110722380D01*
X85237142Y-110770000D01*
X84808571Y-111722380D02*
X84808571Y-110722380D01*
X87951428Y-109182380D02*
X87951428Y-108182380D01*
X87618095Y-108896666D01*
X87284761Y-108182380D01*
X87284761Y-109182380D01*
X86808571Y-109182380D02*
X86808571Y-108182380D01*
X86380000Y-109134761D02*
X86237142Y-109182380D01*
X85999047Y-109182380D01*
X85903809Y-109134761D01*
X85856190Y-109087142D01*
X85808571Y-108991904D01*
X85808571Y-108896666D01*
X85856190Y-108801428D01*
X85903809Y-108753809D01*
X85999047Y-108706190D01*
X86189523Y-108658571D01*
X86284761Y-108610952D01*
X86332380Y-108563333D01*
X86380000Y-108468095D01*
X86380000Y-108372857D01*
X86332380Y-108277619D01*
X86284761Y-108230000D01*
X86189523Y-108182380D01*
X85951428Y-108182380D01*
X85808571Y-108230000D01*
X85189523Y-108182380D02*
X84999047Y-108182380D01*
X84903809Y-108230000D01*
X84808571Y-108325238D01*
X84760952Y-108515714D01*
X84760952Y-108849047D01*
X84808571Y-109039523D01*
X84903809Y-109134761D01*
X84999047Y-109182380D01*
X85189523Y-109182380D01*
X85284761Y-109134761D01*
X85380000Y-109039523D01*
X85427619Y-108849047D01*
X85427619Y-108515714D01*
X85380000Y-108325238D01*
X85284761Y-108230000D01*
X85189523Y-108182380D01*
X87713333Y-105642380D02*
X87380000Y-106642380D01*
X87046666Y-105642380D01*
X86141904Y-106547142D02*
X86189523Y-106594761D01*
X86332380Y-106642380D01*
X86427619Y-106642380D01*
X86570476Y-106594761D01*
X86665714Y-106499523D01*
X86713333Y-106404285D01*
X86760952Y-106213809D01*
X86760952Y-106070952D01*
X86713333Y-105880476D01*
X86665714Y-105785238D01*
X86570476Y-105690000D01*
X86427619Y-105642380D01*
X86332380Y-105642380D01*
X86189523Y-105690000D01*
X86141904Y-105737619D01*
X85141904Y-106547142D02*
X85189523Y-106594761D01*
X85332380Y-106642380D01*
X85427619Y-106642380D01*
X85570476Y-106594761D01*
X85665714Y-106499523D01*
X85713333Y-106404285D01*
X85760952Y-106213809D01*
X85760952Y-106070952D01*
X85713333Y-105880476D01*
X85665714Y-105785238D01*
X85570476Y-105690000D01*
X85427619Y-105642380D01*
X85332380Y-105642380D01*
X85189523Y-105690000D01*
X85141904Y-105737619D01*
X87141904Y-103150000D02*
X87237142Y-103102380D01*
X87380000Y-103102380D01*
X87522857Y-103150000D01*
X87618095Y-103245238D01*
X87665714Y-103340476D01*
X87713333Y-103530952D01*
X87713333Y-103673809D01*
X87665714Y-103864285D01*
X87618095Y-103959523D01*
X87522857Y-104054761D01*
X87380000Y-104102380D01*
X87284761Y-104102380D01*
X87141904Y-104054761D01*
X87094285Y-104007142D01*
X87094285Y-103673809D01*
X87284761Y-103673809D01*
X86665714Y-104102380D02*
X86665714Y-103102380D01*
X86094285Y-104102380D01*
X86094285Y-103102380D01*
X85618095Y-104102380D02*
X85618095Y-103102380D01*
X85380000Y-103102380D01*
X85237142Y-103150000D01*
X85141904Y-103245238D01*
X85094285Y-103340476D01*
X85046666Y-103530952D01*
X85046666Y-103673809D01*
X85094285Y-103864285D01*
X85141904Y-103959523D01*
X85237142Y-104054761D01*
X85380000Y-104102380D01*
X85618095Y-104102380D01*
X92683333Y-139992380D02*
X92350000Y-140992380D01*
X92016666Y-139992380D01*
X91111904Y-140897142D02*
X91159523Y-140944761D01*
X91302380Y-140992380D01*
X91397619Y-140992380D01*
X91540476Y-140944761D01*
X91635714Y-140849523D01*
X91683333Y-140754285D01*
X91730952Y-140563809D01*
X91730952Y-140420952D01*
X91683333Y-140230476D01*
X91635714Y-140135238D01*
X91540476Y-140040000D01*
X91397619Y-139992380D01*
X91302380Y-139992380D01*
X91159523Y-140040000D01*
X91111904Y-140087619D01*
X90111904Y-140897142D02*
X90159523Y-140944761D01*
X90302380Y-140992380D01*
X90397619Y-140992380D01*
X90540476Y-140944761D01*
X90635714Y-140849523D01*
X90683333Y-140754285D01*
X90730952Y-140563809D01*
X90730952Y-140420952D01*
X90683333Y-140230476D01*
X90635714Y-140135238D01*
X90540476Y-140040000D01*
X90397619Y-139992380D01*
X90302380Y-139992380D01*
X90159523Y-140040000D01*
X90111904Y-140087619D01*
X92111904Y-137500000D02*
X92207142Y-137452380D01*
X92350000Y-137452380D01*
X92492857Y-137500000D01*
X92588095Y-137595238D01*
X92635714Y-137690476D01*
X92683333Y-137880952D01*
X92683333Y-138023809D01*
X92635714Y-138214285D01*
X92588095Y-138309523D01*
X92492857Y-138404761D01*
X92350000Y-138452380D01*
X92254761Y-138452380D01*
X92111904Y-138404761D01*
X92064285Y-138357142D01*
X92064285Y-138023809D01*
X92254761Y-138023809D01*
X91635714Y-138452380D02*
X91635714Y-137452380D01*
X91064285Y-138452380D01*
X91064285Y-137452380D01*
X90588095Y-138452380D02*
X90588095Y-137452380D01*
X90350000Y-137452380D01*
X90207142Y-137500000D01*
X90111904Y-137595238D01*
X90064285Y-137690476D01*
X90016666Y-137880952D01*
X90016666Y-138023809D01*
X90064285Y-138214285D01*
X90111904Y-138309523D01*
X90207142Y-138404761D01*
X90350000Y-138452380D01*
X90588095Y-138452380D01*
X92611904Y-134912380D02*
X92040476Y-134912380D01*
X92326190Y-135912380D02*
X92326190Y-134912380D01*
X91802380Y-134912380D02*
X91135714Y-135912380D01*
X91135714Y-134912380D02*
X91802380Y-135912380D01*
X90754761Y-135912380D02*
X90754761Y-134912380D01*
X90516666Y-134912380D01*
X90373809Y-134960000D01*
X90278571Y-135055238D01*
X90230952Y-135150476D01*
X90183333Y-135340952D01*
X90183333Y-135483809D01*
X90230952Y-135674285D01*
X90278571Y-135769523D01*
X90373809Y-135864761D01*
X90516666Y-135912380D01*
X90754761Y-135912380D01*
X92016666Y-133372380D02*
X92350000Y-132896190D01*
X92588095Y-133372380D02*
X92588095Y-132372380D01*
X92207142Y-132372380D01*
X92111904Y-132420000D01*
X92064285Y-132467619D01*
X92016666Y-132562857D01*
X92016666Y-132705714D01*
X92064285Y-132800952D01*
X92111904Y-132848571D01*
X92207142Y-132896190D01*
X92588095Y-132896190D01*
X91683333Y-132372380D02*
X91016666Y-133372380D01*
X91016666Y-132372380D02*
X91683333Y-133372380D01*
X90635714Y-133372380D02*
X90635714Y-132372380D01*
X90397619Y-132372380D01*
X90254761Y-132420000D01*
X90159523Y-132515238D01*
X90111904Y-132610476D01*
X90064285Y-132800952D01*
X90064285Y-132943809D01*
X90111904Y-133134285D01*
X90159523Y-133229523D01*
X90254761Y-133324761D01*
X90397619Y-133372380D01*
X90635714Y-133372380D01*
X92588095Y-130832380D02*
X92588095Y-129832380D01*
X92207142Y-129832380D01*
X92111904Y-129880000D01*
X92064285Y-129927619D01*
X92016666Y-130022857D01*
X92016666Y-130165714D01*
X92064285Y-130260952D01*
X92111904Y-130308571D01*
X92207142Y-130356190D01*
X92588095Y-130356190D01*
X91588095Y-130832380D02*
X91588095Y-129832380D01*
X91207142Y-129832380D01*
X91111904Y-129880000D01*
X91064285Y-129927619D01*
X91016666Y-130022857D01*
X91016666Y-130165714D01*
X91064285Y-130260952D01*
X91111904Y-130308571D01*
X91207142Y-130356190D01*
X91588095Y-130356190D01*
X90635714Y-130784761D02*
X90492857Y-130832380D01*
X90254761Y-130832380D01*
X90159523Y-130784761D01*
X90111904Y-130737142D01*
X90064285Y-130641904D01*
X90064285Y-130546666D01*
X90111904Y-130451428D01*
X90159523Y-130403809D01*
X90254761Y-130356190D01*
X90445238Y-130308571D01*
X90540476Y-130260952D01*
X90588095Y-130213333D01*
X90635714Y-130118095D01*
X90635714Y-130022857D01*
X90588095Y-129927619D01*
X90540476Y-129880000D01*
X90445238Y-129832380D01*
X90207142Y-129832380D01*
X90064285Y-129880000D01*
X117577142Y-117268333D02*
X117624761Y-117220714D01*
X117672380Y-117077857D01*
X117672380Y-116982619D01*
X117624761Y-116839761D01*
X117529523Y-116744523D01*
X117434285Y-116696904D01*
X117243809Y-116649285D01*
X117100952Y-116649285D01*
X116910476Y-116696904D01*
X116815238Y-116744523D01*
X116720000Y-116839761D01*
X116672380Y-116982619D01*
X116672380Y-117077857D01*
X116720000Y-117220714D01*
X116767619Y-117268333D01*
X116672380Y-117601666D02*
X116672380Y-118220714D01*
X117053333Y-117887380D01*
X117053333Y-118030238D01*
X117100952Y-118125476D01*
X117148571Y-118173095D01*
X117243809Y-118220714D01*
X117481904Y-118220714D01*
X117577142Y-118173095D01*
X117624761Y-118125476D01*
X117672380Y-118030238D01*
X117672380Y-117744523D01*
X117624761Y-117649285D01*
X117577142Y-117601666D01*
%LPC*%
D12*
X138430000Y-109220000D03*
X140970000Y-109220000D03*
X143510000Y-109220000D03*
D13*
X146050000Y-109220000D03*
D12*
X138430000Y-104140000D03*
X140970000Y-104140000D03*
X143510000Y-104140000D03*
D13*
X146050000Y-104140000D03*
D12*
X138430000Y-99060000D03*
X140970000Y-99060000D03*
X143510000Y-99060000D03*
D13*
X146050000Y-99060000D03*
D12*
X138430000Y-93980000D03*
X140970000Y-93980000D03*
X143510000Y-93980000D03*
D13*
X146050000Y-93980000D03*
D12*
X138430000Y-124460000D03*
X140970000Y-124460000D03*
X143510000Y-124460000D03*
D13*
X146050000Y-124460000D03*
D12*
X138430000Y-129540000D03*
X140970000Y-129540000D03*
X143510000Y-129540000D03*
D13*
X146050000Y-129540000D03*
D14*
G36*
X131315505Y-115580311D02*
G01*
X131341925Y-115584230D01*
X131367835Y-115590720D01*
X131392983Y-115599718D01*
X131417128Y-115611138D01*
X131440038Y-115624869D01*
X131461492Y-115640780D01*
X131481282Y-115658718D01*
X131499220Y-115678508D01*
X131515131Y-115699962D01*
X131528862Y-115722872D01*
X131540282Y-115747017D01*
X131549280Y-115772165D01*
X131555770Y-115798075D01*
X131559689Y-115824495D01*
X131561000Y-115851173D01*
X131561000Y-116558827D01*
X131559689Y-116585505D01*
X131555770Y-116611925D01*
X131549280Y-116637835D01*
X131540282Y-116662983D01*
X131528862Y-116687128D01*
X131515131Y-116710038D01*
X131499220Y-116731492D01*
X131481282Y-116751282D01*
X131461492Y-116769220D01*
X131440038Y-116785131D01*
X131417128Y-116798862D01*
X131392983Y-116810282D01*
X131367835Y-116819280D01*
X131341925Y-116825770D01*
X131315505Y-116829689D01*
X131288827Y-116831000D01*
X130331173Y-116831000D01*
X130304495Y-116829689D01*
X130278075Y-116825770D01*
X130252165Y-116819280D01*
X130227017Y-116810282D01*
X130202872Y-116798862D01*
X130179962Y-116785131D01*
X130158508Y-116769220D01*
X130138718Y-116751282D01*
X130120780Y-116731492D01*
X130104869Y-116710038D01*
X130091138Y-116687128D01*
X130079718Y-116662983D01*
X130070720Y-116637835D01*
X130064230Y-116611925D01*
X130060311Y-116585505D01*
X130059000Y-116558827D01*
X130059000Y-115851173D01*
X130060311Y-115824495D01*
X130064230Y-115798075D01*
X130070720Y-115772165D01*
X130079718Y-115747017D01*
X130091138Y-115722872D01*
X130104869Y-115699962D01*
X130120780Y-115678508D01*
X130138718Y-115658718D01*
X130158508Y-115640780D01*
X130179962Y-115624869D01*
X130202872Y-115611138D01*
X130227017Y-115599718D01*
X130252165Y-115590720D01*
X130278075Y-115584230D01*
X130304495Y-115580311D01*
X130331173Y-115579000D01*
X131288827Y-115579000D01*
X131315505Y-115580311D01*
X131315505Y-115580311D01*
G37*
D15*
X130810000Y-116205000D03*
D14*
G36*
X131315505Y-113530311D02*
G01*
X131341925Y-113534230D01*
X131367835Y-113540720D01*
X131392983Y-113549718D01*
X131417128Y-113561138D01*
X131440038Y-113574869D01*
X131461492Y-113590780D01*
X131481282Y-113608718D01*
X131499220Y-113628508D01*
X131515131Y-113649962D01*
X131528862Y-113672872D01*
X131540282Y-113697017D01*
X131549280Y-113722165D01*
X131555770Y-113748075D01*
X131559689Y-113774495D01*
X131561000Y-113801173D01*
X131561000Y-114508827D01*
X131559689Y-114535505D01*
X131555770Y-114561925D01*
X131549280Y-114587835D01*
X131540282Y-114612983D01*
X131528862Y-114637128D01*
X131515131Y-114660038D01*
X131499220Y-114681492D01*
X131481282Y-114701282D01*
X131461492Y-114719220D01*
X131440038Y-114735131D01*
X131417128Y-114748862D01*
X131392983Y-114760282D01*
X131367835Y-114769280D01*
X131341925Y-114775770D01*
X131315505Y-114779689D01*
X131288827Y-114781000D01*
X130331173Y-114781000D01*
X130304495Y-114779689D01*
X130278075Y-114775770D01*
X130252165Y-114769280D01*
X130227017Y-114760282D01*
X130202872Y-114748862D01*
X130179962Y-114735131D01*
X130158508Y-114719220D01*
X130138718Y-114701282D01*
X130120780Y-114681492D01*
X130104869Y-114660038D01*
X130091138Y-114637128D01*
X130079718Y-114612983D01*
X130070720Y-114587835D01*
X130064230Y-114561925D01*
X130060311Y-114535505D01*
X130059000Y-114508827D01*
X130059000Y-113801173D01*
X130060311Y-113774495D01*
X130064230Y-113748075D01*
X130070720Y-113722165D01*
X130079718Y-113697017D01*
X130091138Y-113672872D01*
X130104869Y-113649962D01*
X130120780Y-113628508D01*
X130138718Y-113608718D01*
X130158508Y-113590780D01*
X130179962Y-113574869D01*
X130202872Y-113561138D01*
X130227017Y-113549718D01*
X130252165Y-113540720D01*
X130278075Y-113534230D01*
X130304495Y-113530311D01*
X130331173Y-113529000D01*
X131288827Y-113529000D01*
X131315505Y-113530311D01*
X131315505Y-113530311D01*
G37*
D15*
X130810000Y-114155000D03*
D16*
X116205000Y-76200000D03*
X95885000Y-76200000D03*
D17*
X117475000Y-85090000D03*
X114935000Y-85090000D03*
X112395000Y-85090000D03*
X109855000Y-85090000D03*
X107315000Y-85090000D03*
X104775000Y-85090000D03*
X102235000Y-85090000D03*
X99695000Y-85090000D03*
X97155000Y-85090000D03*
D18*
X94615000Y-85090000D03*
D19*
X55880000Y-60960000D03*
D14*
G36*
X56792287Y-62580274D02*
G01*
X56817977Y-62584085D01*
X56843171Y-62590396D01*
X56867625Y-62599146D01*
X56891103Y-62610250D01*
X56913380Y-62623602D01*
X56934241Y-62639074D01*
X56953485Y-62656515D01*
X56970926Y-62675759D01*
X56986398Y-62696620D01*
X56999750Y-62718897D01*
X57010854Y-62742375D01*
X57019604Y-62766829D01*
X57025915Y-62792023D01*
X57029726Y-62817713D01*
X57031000Y-62843654D01*
X57031000Y-64156346D01*
X57029726Y-64182287D01*
X57025915Y-64207977D01*
X57019604Y-64233171D01*
X57010854Y-64257625D01*
X56999750Y-64281103D01*
X56986398Y-64303380D01*
X56970926Y-64324241D01*
X56953485Y-64343485D01*
X56934241Y-64360926D01*
X56913380Y-64376398D01*
X56891103Y-64389750D01*
X56867625Y-64400854D01*
X56843171Y-64409604D01*
X56817977Y-64415915D01*
X56792287Y-64419726D01*
X56766346Y-64421000D01*
X54993654Y-64421000D01*
X54967713Y-64419726D01*
X54942023Y-64415915D01*
X54916829Y-64409604D01*
X54892375Y-64400854D01*
X54868897Y-64389750D01*
X54846620Y-64376398D01*
X54825759Y-64360926D01*
X54806515Y-64343485D01*
X54789074Y-64324241D01*
X54773602Y-64303380D01*
X54760250Y-64281103D01*
X54749146Y-64257625D01*
X54740396Y-64233171D01*
X54734085Y-64207977D01*
X54730274Y-64182287D01*
X54729000Y-64156346D01*
X54729000Y-62843654D01*
X54730274Y-62817713D01*
X54734085Y-62792023D01*
X54740396Y-62766829D01*
X54749146Y-62742375D01*
X54760250Y-62718897D01*
X54773602Y-62696620D01*
X54789074Y-62675759D01*
X54806515Y-62656515D01*
X54825759Y-62639074D01*
X54846620Y-62623602D01*
X54868897Y-62610250D01*
X54892375Y-62599146D01*
X54916829Y-62590396D01*
X54942023Y-62584085D01*
X54967713Y-62580274D01*
X54993654Y-62579000D01*
X56766346Y-62579000D01*
X56792287Y-62580274D01*
X56792287Y-62580274D01*
G37*
D20*
X55880000Y-63500000D03*
D21*
X63500000Y-61000000D03*
D22*
X63500000Y-63500000D03*
D23*
X56642000Y-95250000D03*
D24*
X56642000Y-92710000D03*
D23*
X56642000Y-90170000D03*
D24*
X56642000Y-87630000D03*
D25*
X99314000Y-94234000D03*
D21*
X109474000Y-94234000D03*
D25*
X99314000Y-91186000D03*
D21*
X109474000Y-91186000D03*
D14*
G36*
X125981505Y-117993311D02*
G01*
X126007925Y-117997230D01*
X126033835Y-118003720D01*
X126058983Y-118012718D01*
X126083128Y-118024138D01*
X126106038Y-118037869D01*
X126127492Y-118053780D01*
X126147282Y-118071718D01*
X126165220Y-118091508D01*
X126181131Y-118112962D01*
X126194862Y-118135872D01*
X126206282Y-118160017D01*
X126215280Y-118185165D01*
X126221770Y-118211075D01*
X126225689Y-118237495D01*
X126227000Y-118264173D01*
X126227000Y-118971827D01*
X126225689Y-118998505D01*
X126221770Y-119024925D01*
X126215280Y-119050835D01*
X126206282Y-119075983D01*
X126194862Y-119100128D01*
X126181131Y-119123038D01*
X126165220Y-119144492D01*
X126147282Y-119164282D01*
X126127492Y-119182220D01*
X126106038Y-119198131D01*
X126083128Y-119211862D01*
X126058983Y-119223282D01*
X126033835Y-119232280D01*
X126007925Y-119238770D01*
X125981505Y-119242689D01*
X125954827Y-119244000D01*
X124997173Y-119244000D01*
X124970495Y-119242689D01*
X124944075Y-119238770D01*
X124918165Y-119232280D01*
X124893017Y-119223282D01*
X124868872Y-119211862D01*
X124845962Y-119198131D01*
X124824508Y-119182220D01*
X124804718Y-119164282D01*
X124786780Y-119144492D01*
X124770869Y-119123038D01*
X124757138Y-119100128D01*
X124745718Y-119075983D01*
X124736720Y-119050835D01*
X124730230Y-119024925D01*
X124726311Y-118998505D01*
X124725000Y-118971827D01*
X124725000Y-118264173D01*
X124726311Y-118237495D01*
X124730230Y-118211075D01*
X124736720Y-118185165D01*
X124745718Y-118160017D01*
X124757138Y-118135872D01*
X124770869Y-118112962D01*
X124786780Y-118091508D01*
X124804718Y-118071718D01*
X124824508Y-118053780D01*
X124845962Y-118037869D01*
X124868872Y-118024138D01*
X124893017Y-118012718D01*
X124918165Y-118003720D01*
X124944075Y-117997230D01*
X124970495Y-117993311D01*
X124997173Y-117992000D01*
X125954827Y-117992000D01*
X125981505Y-117993311D01*
X125981505Y-117993311D01*
G37*
D15*
X125476000Y-118618000D03*
D14*
G36*
X125981505Y-115943311D02*
G01*
X126007925Y-115947230D01*
X126033835Y-115953720D01*
X126058983Y-115962718D01*
X126083128Y-115974138D01*
X126106038Y-115987869D01*
X126127492Y-116003780D01*
X126147282Y-116021718D01*
X126165220Y-116041508D01*
X126181131Y-116062962D01*
X126194862Y-116085872D01*
X126206282Y-116110017D01*
X126215280Y-116135165D01*
X126221770Y-116161075D01*
X126225689Y-116187495D01*
X126227000Y-116214173D01*
X126227000Y-116921827D01*
X126225689Y-116948505D01*
X126221770Y-116974925D01*
X126215280Y-117000835D01*
X126206282Y-117025983D01*
X126194862Y-117050128D01*
X126181131Y-117073038D01*
X126165220Y-117094492D01*
X126147282Y-117114282D01*
X126127492Y-117132220D01*
X126106038Y-117148131D01*
X126083128Y-117161862D01*
X126058983Y-117173282D01*
X126033835Y-117182280D01*
X126007925Y-117188770D01*
X125981505Y-117192689D01*
X125954827Y-117194000D01*
X124997173Y-117194000D01*
X124970495Y-117192689D01*
X124944075Y-117188770D01*
X124918165Y-117182280D01*
X124893017Y-117173282D01*
X124868872Y-117161862D01*
X124845962Y-117148131D01*
X124824508Y-117132220D01*
X124804718Y-117114282D01*
X124786780Y-117094492D01*
X124770869Y-117073038D01*
X124757138Y-117050128D01*
X124745718Y-117025983D01*
X124736720Y-117000835D01*
X124730230Y-116974925D01*
X124726311Y-116948505D01*
X124725000Y-116921827D01*
X124725000Y-116214173D01*
X124726311Y-116187495D01*
X124730230Y-116161075D01*
X124736720Y-116135165D01*
X124745718Y-116110017D01*
X124757138Y-116085872D01*
X124770869Y-116062962D01*
X124786780Y-116041508D01*
X124804718Y-116021718D01*
X124824508Y-116003780D01*
X124845962Y-115987869D01*
X124868872Y-115974138D01*
X124893017Y-115962718D01*
X124918165Y-115953720D01*
X124944075Y-115947230D01*
X124970495Y-115943311D01*
X124997173Y-115942000D01*
X125954827Y-115942000D01*
X125981505Y-115943311D01*
X125981505Y-115943311D01*
G37*
D15*
X125476000Y-116568000D03*
D16*
X55000000Y-55000000D03*
X145000000Y-55000000D03*
X145000000Y-145000000D03*
X55000000Y-145000000D03*
D26*
X54000000Y-100000000D03*
X54000000Y-120000000D03*
X92000000Y-120000000D03*
X92000000Y-100000000D03*
D27*
X90190000Y-116350000D03*
X90190000Y-113810000D03*
X90190000Y-111270000D03*
X90190000Y-108730000D03*
X90190000Y-106190000D03*
D13*
X90190000Y-103650000D03*
D25*
X106680000Y-109220000D03*
D21*
X96520000Y-109220000D03*
D28*
X95160000Y-138000000D03*
X95160000Y-135460000D03*
X95160000Y-132920000D03*
D29*
X95160000Y-130380000D03*
D28*
X95160000Y-140540000D03*
D16*
X94700000Y-126460000D03*
X94700000Y-144460000D03*
X64700000Y-126460000D03*
X64700000Y-144460000D03*
D12*
X114210000Y-146890000D03*
X116750000Y-146890000D03*
D13*
X119290000Y-146890000D03*
D12*
X109220000Y-65913000D03*
X106680000Y-65913000D03*
X104140000Y-65913000D03*
D13*
X101600000Y-65913000D03*
D12*
X138430000Y-134620000D03*
X140970000Y-134620000D03*
X143510000Y-134620000D03*
D13*
X146050000Y-134620000D03*
D30*
X107860000Y-120420000D03*
X107860000Y-125300000D03*
D25*
X128180000Y-93550000D03*
X112940000Y-141810000D03*
X128180000Y-96090000D03*
X112940000Y-139270000D03*
X128180000Y-98630000D03*
X112940000Y-136730000D03*
X128180000Y-101170000D03*
X112940000Y-134190000D03*
X128180000Y-103710000D03*
X112940000Y-131650000D03*
X128180000Y-106250000D03*
X112940000Y-129110000D03*
X128180000Y-108790000D03*
X112940000Y-126570000D03*
X128180000Y-111330000D03*
X112940000Y-124030000D03*
X128180000Y-113870000D03*
X112940000Y-121490000D03*
X128180000Y-116410000D03*
X112940000Y-118950000D03*
X128180000Y-118950000D03*
X112940000Y-116410000D03*
X128180000Y-121490000D03*
X112940000Y-113870000D03*
X128180000Y-124030000D03*
X112940000Y-111330000D03*
X128180000Y-126570000D03*
X112940000Y-108790000D03*
X128180000Y-129110000D03*
X112940000Y-106250000D03*
X128180000Y-131650000D03*
X112940000Y-103710000D03*
X128180000Y-134190000D03*
X112940000Y-101170000D03*
X128180000Y-136730000D03*
X112940000Y-98630000D03*
X128180000Y-139270000D03*
X112940000Y-96090000D03*
X128180000Y-141810000D03*
D22*
X112940000Y-93550000D03*
D25*
X131445000Y-133985000D03*
D21*
X131445000Y-123825000D03*
D25*
X134620000Y-133985000D03*
D21*
X134620000Y-123825000D03*
D25*
X107950000Y-114935000D03*
D21*
X97790000Y-114935000D03*
D31*
X105918000Y-100838000D03*
X105918000Y-103378000D03*
X103378000Y-100838000D03*
X103378000Y-103378000D03*
X100838000Y-100838000D03*
D32*
X100838000Y-103378000D03*
D14*
G36*
X116075505Y-115785311D02*
G01*
X116101925Y-115789230D01*
X116127835Y-115795720D01*
X116152983Y-115804718D01*
X116177128Y-115816138D01*
X116200038Y-115829869D01*
X116221492Y-115845780D01*
X116241282Y-115863718D01*
X116259220Y-115883508D01*
X116275131Y-115904962D01*
X116288862Y-115927872D01*
X116300282Y-115952017D01*
X116309280Y-115977165D01*
X116315770Y-116003075D01*
X116319689Y-116029495D01*
X116321000Y-116056173D01*
X116321000Y-116763827D01*
X116319689Y-116790505D01*
X116315770Y-116816925D01*
X116309280Y-116842835D01*
X116300282Y-116867983D01*
X116288862Y-116892128D01*
X116275131Y-116915038D01*
X116259220Y-116936492D01*
X116241282Y-116956282D01*
X116221492Y-116974220D01*
X116200038Y-116990131D01*
X116177128Y-117003862D01*
X116152983Y-117015282D01*
X116127835Y-117024280D01*
X116101925Y-117030770D01*
X116075505Y-117034689D01*
X116048827Y-117036000D01*
X115091173Y-117036000D01*
X115064495Y-117034689D01*
X115038075Y-117030770D01*
X115012165Y-117024280D01*
X114987017Y-117015282D01*
X114962872Y-117003862D01*
X114939962Y-116990131D01*
X114918508Y-116974220D01*
X114898718Y-116956282D01*
X114880780Y-116936492D01*
X114864869Y-116915038D01*
X114851138Y-116892128D01*
X114839718Y-116867983D01*
X114830720Y-116842835D01*
X114824230Y-116816925D01*
X114820311Y-116790505D01*
X114819000Y-116763827D01*
X114819000Y-116056173D01*
X114820311Y-116029495D01*
X114824230Y-116003075D01*
X114830720Y-115977165D01*
X114839718Y-115952017D01*
X114851138Y-115927872D01*
X114864869Y-115904962D01*
X114880780Y-115883508D01*
X114898718Y-115863718D01*
X114918508Y-115845780D01*
X114939962Y-115829869D01*
X114962872Y-115816138D01*
X114987017Y-115804718D01*
X115012165Y-115795720D01*
X115038075Y-115789230D01*
X115064495Y-115785311D01*
X115091173Y-115784000D01*
X116048827Y-115784000D01*
X116075505Y-115785311D01*
X116075505Y-115785311D01*
G37*
D15*
X115570000Y-116410000D03*
D14*
G36*
X116075505Y-117835311D02*
G01*
X116101925Y-117839230D01*
X116127835Y-117845720D01*
X116152983Y-117854718D01*
X116177128Y-117866138D01*
X116200038Y-117879869D01*
X116221492Y-117895780D01*
X116241282Y-117913718D01*
X116259220Y-117933508D01*
X116275131Y-117954962D01*
X116288862Y-117977872D01*
X116300282Y-118002017D01*
X116309280Y-118027165D01*
X116315770Y-118053075D01*
X116319689Y-118079495D01*
X116321000Y-118106173D01*
X116321000Y-118813827D01*
X116319689Y-118840505D01*
X116315770Y-118866925D01*
X116309280Y-118892835D01*
X116300282Y-118917983D01*
X116288862Y-118942128D01*
X116275131Y-118965038D01*
X116259220Y-118986492D01*
X116241282Y-119006282D01*
X116221492Y-119024220D01*
X116200038Y-119040131D01*
X116177128Y-119053862D01*
X116152983Y-119065282D01*
X116127835Y-119074280D01*
X116101925Y-119080770D01*
X116075505Y-119084689D01*
X116048827Y-119086000D01*
X115091173Y-119086000D01*
X115064495Y-119084689D01*
X115038075Y-119080770D01*
X115012165Y-119074280D01*
X114987017Y-119065282D01*
X114962872Y-119053862D01*
X114939962Y-119040131D01*
X114918508Y-119024220D01*
X114898718Y-119006282D01*
X114880780Y-118986492D01*
X114864869Y-118965038D01*
X114851138Y-118942128D01*
X114839718Y-118917983D01*
X114830720Y-118892835D01*
X114824230Y-118866925D01*
X114820311Y-118840505D01*
X114819000Y-118813827D01*
X114819000Y-118106173D01*
X114820311Y-118079495D01*
X114824230Y-118053075D01*
X114830720Y-118027165D01*
X114839718Y-118002017D01*
X114851138Y-117977872D01*
X114864869Y-117954962D01*
X114880780Y-117933508D01*
X114898718Y-117913718D01*
X114918508Y-117895780D01*
X114939962Y-117879869D01*
X114962872Y-117866138D01*
X114987017Y-117854718D01*
X115012165Y-117845720D01*
X115038075Y-117839230D01*
X115064495Y-117835311D01*
X115091173Y-117834000D01*
X116048827Y-117834000D01*
X116075505Y-117835311D01*
X116075505Y-117835311D01*
G37*
D15*
X115570000Y-118460000D03*
D21*
X102780000Y-120220000D03*
X102780000Y-117720000D03*
X102780000Y-125300000D03*
X102780000Y-127800000D03*
M02*
