G04 #@! TF.GenerationSoftware,KiCad,Pcbnew,5.1.4*
G04 #@! TF.CreationDate,2019-09-28T02:59:40+02:00*
G04 #@! TF.ProjectId,stratosensor-power,73747261-746f-4736-956e-736f722d706f,rev?*
G04 #@! TF.SameCoordinates,Original*
G04 #@! TF.FileFunction,Soldermask,Bot*
G04 #@! TF.FilePolarity,Negative*
%FSLAX46Y46*%
G04 Gerber Fmt 4.6, Leading zero omitted, Abs format (unit mm)*
G04 Created by KiCad (PCBNEW 5.1.4) date 2019-09-28 02:59:40*
%MOMM*%
%LPD*%
G04 APERTURE LIST*
%ADD10C,0.100000*%
G04 APERTURE END LIST*
D10*
G36*
X195472536Y-143442256D02*
G01*
X195472538Y-143442257D01*
X195472539Y-143442257D01*
X195581444Y-143487367D01*
X195767358Y-143564375D01*
X196032689Y-143741664D01*
X196258336Y-143967311D01*
X196435625Y-144232642D01*
X196557744Y-144527464D01*
X196620000Y-144840444D01*
X196620000Y-145159556D01*
X196557744Y-145472536D01*
X196435625Y-145767358D01*
X196258336Y-146032689D01*
X196032689Y-146258336D01*
X195767358Y-146435625D01*
X195581444Y-146512633D01*
X195472539Y-146557743D01*
X195472538Y-146557743D01*
X195472536Y-146557744D01*
X195159556Y-146620000D01*
X194840444Y-146620000D01*
X194527464Y-146557744D01*
X194527462Y-146557743D01*
X194527461Y-146557743D01*
X194418556Y-146512633D01*
X194232642Y-146435625D01*
X193967311Y-146258336D01*
X193741664Y-146032689D01*
X193564375Y-145767358D01*
X193442256Y-145472536D01*
X193380000Y-145159556D01*
X193380000Y-144840444D01*
X193442256Y-144527464D01*
X193564375Y-144232642D01*
X193741664Y-143967311D01*
X193967311Y-143741664D01*
X194232642Y-143564375D01*
X194418556Y-143487367D01*
X194527461Y-143442257D01*
X194527462Y-143442257D01*
X194527464Y-143442256D01*
X194840444Y-143380000D01*
X195159556Y-143380000D01*
X195472536Y-143442256D01*
X195472536Y-143442256D01*
G37*
G36*
X105472536Y-143442256D02*
G01*
X105472538Y-143442257D01*
X105472539Y-143442257D01*
X105581444Y-143487367D01*
X105767358Y-143564375D01*
X106032689Y-143741664D01*
X106258336Y-143967311D01*
X106435625Y-144232642D01*
X106557744Y-144527464D01*
X106620000Y-144840444D01*
X106620000Y-145159556D01*
X106557744Y-145472536D01*
X106435625Y-145767358D01*
X106258336Y-146032689D01*
X106032689Y-146258336D01*
X105767358Y-146435625D01*
X105581444Y-146512633D01*
X105472539Y-146557743D01*
X105472538Y-146557743D01*
X105472536Y-146557744D01*
X105159556Y-146620000D01*
X104840444Y-146620000D01*
X104527464Y-146557744D01*
X104527462Y-146557743D01*
X104527461Y-146557743D01*
X104418556Y-146512633D01*
X104232642Y-146435625D01*
X103967311Y-146258336D01*
X103741664Y-146032689D01*
X103564375Y-145767358D01*
X103442256Y-145472536D01*
X103380000Y-145159556D01*
X103380000Y-144840444D01*
X103442256Y-144527464D01*
X103564375Y-144232642D01*
X103741664Y-143967311D01*
X103967311Y-143741664D01*
X104232642Y-143564375D01*
X104418556Y-143487367D01*
X104527461Y-143442257D01*
X104527462Y-143442257D01*
X104527464Y-143442256D01*
X104840444Y-143380000D01*
X105159556Y-143380000D01*
X105472536Y-143442256D01*
X105472536Y-143442256D01*
G37*
G36*
X160632536Y-141622256D02*
G01*
X160632538Y-141622257D01*
X160632539Y-141622257D01*
X160741444Y-141667367D01*
X160927358Y-141744375D01*
X161192689Y-141921664D01*
X161418336Y-142147311D01*
X161595625Y-142412642D01*
X161717744Y-142707464D01*
X161780000Y-143020444D01*
X161780000Y-143339556D01*
X161717744Y-143652536D01*
X161595625Y-143947358D01*
X161418336Y-144212689D01*
X161192689Y-144438336D01*
X160927358Y-144615625D01*
X160741444Y-144692633D01*
X160632539Y-144737743D01*
X160632538Y-144737743D01*
X160632536Y-144737744D01*
X160319556Y-144800000D01*
X160000444Y-144800000D01*
X159687464Y-144737744D01*
X159687462Y-144737743D01*
X159687461Y-144737743D01*
X159578556Y-144692633D01*
X159392642Y-144615625D01*
X159127311Y-144438336D01*
X158901664Y-144212689D01*
X158724375Y-143947358D01*
X158602256Y-143652536D01*
X158540000Y-143339556D01*
X158540000Y-143020444D01*
X158602256Y-142707464D01*
X158724375Y-142412642D01*
X158901664Y-142147311D01*
X159127311Y-141921664D01*
X159392642Y-141744375D01*
X159578556Y-141667367D01*
X159687461Y-141622257D01*
X159687462Y-141622257D01*
X159687464Y-141622256D01*
X160000444Y-141560000D01*
X160319556Y-141560000D01*
X160632536Y-141622256D01*
X160632536Y-141622256D01*
G37*
G36*
X125072536Y-141622256D02*
G01*
X125072538Y-141622257D01*
X125072539Y-141622257D01*
X125181444Y-141667367D01*
X125367358Y-141744375D01*
X125632689Y-141921664D01*
X125858336Y-142147311D01*
X126035625Y-142412642D01*
X126157744Y-142707464D01*
X126220000Y-143020444D01*
X126220000Y-143339556D01*
X126157744Y-143652536D01*
X126035625Y-143947358D01*
X125858336Y-144212689D01*
X125632689Y-144438336D01*
X125367358Y-144615625D01*
X125181444Y-144692633D01*
X125072539Y-144737743D01*
X125072538Y-144737743D01*
X125072536Y-144737744D01*
X124759556Y-144800000D01*
X124440444Y-144800000D01*
X124127464Y-144737744D01*
X124127462Y-144737743D01*
X124127461Y-144737743D01*
X124018556Y-144692633D01*
X123832642Y-144615625D01*
X123567311Y-144438336D01*
X123341664Y-144212689D01*
X123164375Y-143947358D01*
X123042256Y-143652536D01*
X122980000Y-143339556D01*
X122980000Y-143020444D01*
X123042256Y-142707464D01*
X123164375Y-142412642D01*
X123341664Y-142147311D01*
X123567311Y-141921664D01*
X123832642Y-141744375D01*
X124018556Y-141667367D01*
X124127461Y-141622257D01*
X124127462Y-141622257D01*
X124127464Y-141622256D01*
X124440444Y-141560000D01*
X124759556Y-141560000D01*
X125072536Y-141622256D01*
X125072536Y-141622256D01*
G37*
G36*
X115310000Y-144050000D02*
G01*
X113570000Y-144050000D01*
X113570000Y-142310000D01*
X115310000Y-142310000D01*
X115310000Y-144050000D01*
X115310000Y-144050000D01*
G37*
G36*
X196124469Y-138492877D02*
G01*
X196292237Y-138543769D01*
X196446849Y-138626411D01*
X196582370Y-138737630D01*
X196693589Y-138873151D01*
X196776231Y-139027763D01*
X196827123Y-139195531D01*
X196844307Y-139370000D01*
X196827123Y-139544469D01*
X196776231Y-139712237D01*
X196693589Y-139866849D01*
X196582370Y-140002370D01*
X196446849Y-140113589D01*
X196292237Y-140196231D01*
X196124469Y-140247123D01*
X195993725Y-140260000D01*
X195446275Y-140260000D01*
X195315531Y-140247123D01*
X195147763Y-140196231D01*
X194993151Y-140113589D01*
X194857630Y-140002370D01*
X194746411Y-139866849D01*
X194663769Y-139712237D01*
X194612877Y-139544469D01*
X194595693Y-139370000D01*
X194612877Y-139195531D01*
X194663769Y-139027763D01*
X194746411Y-138873151D01*
X194857630Y-138737630D01*
X194993151Y-138626411D01*
X195147763Y-138543769D01*
X195315531Y-138492877D01*
X195446275Y-138480000D01*
X195993725Y-138480000D01*
X196124469Y-138492877D01*
X196124469Y-138492877D01*
G37*
G36*
X175444601Y-136899590D02*
G01*
X175444604Y-136899591D01*
X175444603Y-136899591D01*
X175584731Y-136957634D01*
X175710847Y-137041902D01*
X175818098Y-137149153D01*
X175902366Y-137275269D01*
X175947260Y-137383654D01*
X175960410Y-137415399D01*
X175990000Y-137564162D01*
X175990000Y-137715838D01*
X175960410Y-137864601D01*
X175960409Y-137864603D01*
X175902366Y-138004731D01*
X175818098Y-138130847D01*
X175710847Y-138238098D01*
X175584731Y-138322366D01*
X175476346Y-138367260D01*
X175444601Y-138380410D01*
X175295838Y-138410000D01*
X175144162Y-138410000D01*
X174995399Y-138380410D01*
X174963654Y-138367260D01*
X174855269Y-138322366D01*
X174729153Y-138238098D01*
X174621902Y-138130847D01*
X174537634Y-138004731D01*
X174479591Y-137864603D01*
X174479590Y-137864601D01*
X174450000Y-137715838D01*
X174450000Y-137564162D01*
X174479590Y-137415399D01*
X174492740Y-137383654D01*
X174537634Y-137275269D01*
X174621902Y-137149153D01*
X174729153Y-137041902D01*
X174855269Y-136957634D01*
X174995397Y-136899591D01*
X174995396Y-136899591D01*
X174995399Y-136899590D01*
X175144162Y-136870000D01*
X175295838Y-136870000D01*
X175444601Y-136899590D01*
X175444601Y-136899590D01*
G37*
G36*
X196691415Y-135944020D02*
G01*
X196725933Y-135954491D01*
X196757740Y-135971492D01*
X196785624Y-135994376D01*
X196808508Y-136022260D01*
X196825509Y-136054067D01*
X196835980Y-136088585D01*
X196840000Y-136129400D01*
X196840000Y-137530600D01*
X196835980Y-137571415D01*
X196825509Y-137605933D01*
X196808508Y-137637740D01*
X196785624Y-137665624D01*
X196757740Y-137688508D01*
X196725933Y-137705509D01*
X196691415Y-137715980D01*
X196650600Y-137720000D01*
X194789400Y-137720000D01*
X194748585Y-137715980D01*
X194714067Y-137705509D01*
X194682260Y-137688508D01*
X194654376Y-137665624D01*
X194631492Y-137637740D01*
X194614491Y-137605933D01*
X194604020Y-137571415D01*
X194600000Y-137530600D01*
X194600000Y-136129400D01*
X194604020Y-136088585D01*
X194614491Y-136054067D01*
X194631492Y-136022260D01*
X194654376Y-135994376D01*
X194682260Y-135971492D01*
X194714067Y-135954491D01*
X194748585Y-135944020D01*
X194789400Y-135940000D01*
X196650600Y-135940000D01*
X196691415Y-135944020D01*
X196691415Y-135944020D01*
G37*
G36*
X105786290Y-126238020D02*
G01*
X105786292Y-126238021D01*
X105786293Y-126238021D01*
X106108409Y-126371446D01*
X106398310Y-126565152D01*
X106644848Y-126811690D01*
X106838554Y-127101591D01*
X106971979Y-127423707D01*
X106971980Y-127423710D01*
X107040000Y-127765670D01*
X107040000Y-128114330D01*
X106986485Y-128383370D01*
X106971979Y-128456293D01*
X106838554Y-128778409D01*
X106644848Y-129068310D01*
X106398310Y-129314848D01*
X106108409Y-129508554D01*
X105786293Y-129641979D01*
X105786292Y-129641979D01*
X105786290Y-129641980D01*
X105444330Y-129710000D01*
X105095670Y-129710000D01*
X104753710Y-129641980D01*
X104753708Y-129641979D01*
X104753707Y-129641979D01*
X104431591Y-129508554D01*
X104141690Y-129314848D01*
X103895152Y-129068310D01*
X103701446Y-128778409D01*
X103568021Y-128456293D01*
X103553516Y-128383370D01*
X103500000Y-128114330D01*
X103500000Y-127765670D01*
X103568020Y-127423710D01*
X103568021Y-127423707D01*
X103701446Y-127101591D01*
X103895152Y-126811690D01*
X104141690Y-126565152D01*
X104431591Y-126371446D01*
X104753707Y-126238021D01*
X104753708Y-126238021D01*
X104753710Y-126238020D01*
X105095670Y-126170000D01*
X105444330Y-126170000D01*
X105786290Y-126238020D01*
X105786290Y-126238020D01*
G37*
G36*
X178440000Y-129710000D02*
G01*
X174900000Y-129710000D01*
X174900000Y-126170000D01*
X178440000Y-126170000D01*
X178440000Y-129710000D01*
X178440000Y-129710000D01*
G37*
G36*
X114563368Y-126478412D02*
G01*
X114839990Y-126592993D01*
X115088944Y-126759339D01*
X115300661Y-126971056D01*
X115467007Y-127220010D01*
X115581588Y-127496632D01*
X115640000Y-127790293D01*
X115640000Y-128089707D01*
X115581588Y-128383368D01*
X115467007Y-128659990D01*
X115300661Y-128908944D01*
X115088944Y-129120661D01*
X114839990Y-129287007D01*
X114563368Y-129401588D01*
X114269707Y-129460000D01*
X113970293Y-129460000D01*
X113676632Y-129401588D01*
X113400010Y-129287007D01*
X113151056Y-129120661D01*
X112939339Y-128908944D01*
X112772993Y-128659990D01*
X112658412Y-128383368D01*
X112600000Y-128089707D01*
X112600000Y-127790293D01*
X112658412Y-127496632D01*
X112772993Y-127220010D01*
X112939339Y-126971056D01*
X113151056Y-126759339D01*
X113400010Y-126592993D01*
X113676632Y-126478412D01*
X113970293Y-126420000D01*
X114269707Y-126420000D01*
X114563368Y-126478412D01*
X114563368Y-126478412D01*
G37*
G36*
X168263368Y-126478412D02*
G01*
X168539990Y-126592993D01*
X168788944Y-126759339D01*
X169000661Y-126971056D01*
X169167007Y-127220010D01*
X169281588Y-127496632D01*
X169340000Y-127790293D01*
X169340000Y-128089707D01*
X169281588Y-128383368D01*
X169167007Y-128659990D01*
X169000661Y-128908944D01*
X168788944Y-129120661D01*
X168539990Y-129287007D01*
X168263368Y-129401588D01*
X167969707Y-129460000D01*
X167670293Y-129460000D01*
X167376632Y-129401588D01*
X167100010Y-129287007D01*
X166851056Y-129120661D01*
X166639339Y-128908944D01*
X166472993Y-128659990D01*
X166358412Y-128383368D01*
X166300000Y-128089707D01*
X166300000Y-127790293D01*
X166358412Y-127496632D01*
X166472993Y-127220010D01*
X166639339Y-126971056D01*
X166851056Y-126759339D01*
X167100010Y-126592993D01*
X167376632Y-126478412D01*
X167670293Y-126420000D01*
X167969707Y-126420000D01*
X168263368Y-126478412D01*
X168263368Y-126478412D01*
G37*
G36*
X189540548Y-118192587D02*
G01*
X189704546Y-118242336D01*
X189855683Y-118323120D01*
X189988159Y-118431841D01*
X190096880Y-118564317D01*
X190177664Y-118715454D01*
X190227413Y-118879452D01*
X190244210Y-119050000D01*
X190227413Y-119220548D01*
X190177664Y-119384546D01*
X190096880Y-119535683D01*
X189988159Y-119668159D01*
X189855683Y-119776880D01*
X189704546Y-119857664D01*
X189540548Y-119907413D01*
X189412743Y-119920000D01*
X189327257Y-119920000D01*
X189199452Y-119907413D01*
X189035454Y-119857664D01*
X188884317Y-119776880D01*
X188751841Y-119668159D01*
X188643120Y-119535683D01*
X188562336Y-119384546D01*
X188512587Y-119220548D01*
X188495790Y-119050000D01*
X188512587Y-118879452D01*
X188562336Y-118715454D01*
X188643120Y-118564317D01*
X188751841Y-118431841D01*
X188884317Y-118323120D01*
X189035454Y-118242336D01*
X189199452Y-118192587D01*
X189327257Y-118180000D01*
X189412743Y-118180000D01*
X189540548Y-118192587D01*
X189540548Y-118192587D01*
G37*
G36*
X190240000Y-117380000D02*
G01*
X188500000Y-117380000D01*
X188500000Y-115640000D01*
X190240000Y-115640000D01*
X190240000Y-117380000D01*
X190240000Y-117380000D01*
G37*
G36*
X145159162Y-112767652D02*
G01*
X145389133Y-112837413D01*
X145485364Y-112888850D01*
X145601074Y-112950698D01*
X145786844Y-113103156D01*
X145939302Y-113288926D01*
X145962894Y-113333064D01*
X146052587Y-113500867D01*
X146122348Y-113730838D01*
X146145903Y-113970000D01*
X146122348Y-114209162D01*
X146052587Y-114439133D01*
X146052586Y-114439134D01*
X145939302Y-114651074D01*
X145786844Y-114836844D01*
X145601074Y-114989302D01*
X145495104Y-115045944D01*
X145389133Y-115102587D01*
X145159162Y-115172348D01*
X144979935Y-115190000D01*
X144860065Y-115190000D01*
X144680838Y-115172348D01*
X144450867Y-115102587D01*
X144344896Y-115045944D01*
X144238926Y-114989302D01*
X144053156Y-114836844D01*
X143900698Y-114651074D01*
X143787414Y-114439134D01*
X143787413Y-114439133D01*
X143717652Y-114209162D01*
X143694097Y-113970000D01*
X143717652Y-113730838D01*
X143787413Y-113500867D01*
X143877106Y-113333064D01*
X143900698Y-113288926D01*
X144053156Y-113103156D01*
X144238926Y-112950698D01*
X144354636Y-112888850D01*
X144450867Y-112837413D01*
X144680838Y-112767652D01*
X144860065Y-112750000D01*
X144979935Y-112750000D01*
X145159162Y-112767652D01*
X145159162Y-112767652D01*
G37*
G36*
X119875861Y-112796884D02*
G01*
X119875863Y-112796885D01*
X119875864Y-112796885D01*
X119957878Y-112830857D01*
X120097887Y-112888850D01*
X120297705Y-113022364D01*
X120467636Y-113192295D01*
X120601150Y-113392113D01*
X120646197Y-113500866D01*
X120679631Y-113581582D01*
X120693116Y-113614139D01*
X120740000Y-113849840D01*
X120740000Y-114090160D01*
X120716324Y-114209185D01*
X120693115Y-114325864D01*
X120659143Y-114407878D01*
X120601150Y-114547887D01*
X120467636Y-114747705D01*
X120297705Y-114917636D01*
X120097887Y-115051150D01*
X119973709Y-115102586D01*
X119875864Y-115143115D01*
X119875863Y-115143115D01*
X119875861Y-115143116D01*
X119640160Y-115190000D01*
X119399840Y-115190000D01*
X119164139Y-115143116D01*
X119164137Y-115143115D01*
X119164136Y-115143115D01*
X119066291Y-115102586D01*
X118942113Y-115051150D01*
X118742295Y-114917636D01*
X118572364Y-114747705D01*
X118438850Y-114547887D01*
X118380857Y-114407878D01*
X118346885Y-114325864D01*
X118323676Y-114209185D01*
X118300000Y-114090160D01*
X118300000Y-113849840D01*
X118346884Y-113614139D01*
X118360370Y-113581582D01*
X118393803Y-113500866D01*
X118438850Y-113392113D01*
X118572364Y-113192295D01*
X118742295Y-113022364D01*
X118942113Y-112888850D01*
X119082122Y-112830857D01*
X119164136Y-112796885D01*
X119164137Y-112796885D01*
X119164139Y-112796884D01*
X119399840Y-112750000D01*
X119640160Y-112750000D01*
X119875861Y-112796884D01*
X119875861Y-112796884D01*
G37*
G36*
X150140413Y-113161865D02*
G01*
X150239185Y-113181512D01*
X150388416Y-113243325D01*
X150522720Y-113333064D01*
X150636936Y-113447280D01*
X150726675Y-113581584D01*
X150788488Y-113730815D01*
X150788493Y-113730840D01*
X150820000Y-113889235D01*
X150820000Y-114050765D01*
X150804244Y-114129974D01*
X150788488Y-114209185D01*
X150726675Y-114358416D01*
X150636936Y-114492720D01*
X150522720Y-114606936D01*
X150388416Y-114696675D01*
X150239185Y-114758488D01*
X150159974Y-114774244D01*
X150080765Y-114790000D01*
X149919235Y-114790000D01*
X149840026Y-114774244D01*
X149760815Y-114758488D01*
X149611584Y-114696675D01*
X149477280Y-114606936D01*
X149363064Y-114492720D01*
X149273325Y-114358416D01*
X149211512Y-114209185D01*
X149195756Y-114129974D01*
X149180000Y-114050765D01*
X149180000Y-113889235D01*
X149211507Y-113730840D01*
X149211512Y-113730815D01*
X149273325Y-113581584D01*
X149363064Y-113447280D01*
X149477280Y-113333064D01*
X149611584Y-113243325D01*
X149760815Y-113181512D01*
X149859587Y-113161865D01*
X149919235Y-113150000D01*
X150080765Y-113150000D01*
X150140413Y-113161865D01*
X150140413Y-113161865D01*
G37*
G36*
X165370631Y-113158899D02*
G01*
X165400748Y-113161865D01*
X165501061Y-113192295D01*
X165555320Y-113208754D01*
X165619997Y-113243325D01*
X165697772Y-113284896D01*
X165822633Y-113387367D01*
X165925104Y-113512228D01*
X165962174Y-113581582D01*
X166001246Y-113654680D01*
X166001246Y-113654681D01*
X166048135Y-113809252D01*
X166048135Y-113809254D01*
X166063968Y-113970000D01*
X166050741Y-114104293D01*
X166048135Y-114130748D01*
X166024349Y-114209160D01*
X166001246Y-114285320D01*
X165963175Y-114356545D01*
X165925104Y-114427772D01*
X165822633Y-114552633D01*
X165697772Y-114655104D01*
X165626545Y-114693175D01*
X165555320Y-114731246D01*
X165503795Y-114746876D01*
X165400748Y-114778135D01*
X165370631Y-114781101D01*
X165280284Y-114790000D01*
X165199716Y-114790000D01*
X165109369Y-114781101D01*
X165079252Y-114778135D01*
X164976205Y-114746876D01*
X164924680Y-114731246D01*
X164782228Y-114655104D01*
X164657367Y-114552633D01*
X164554896Y-114427772D01*
X164478754Y-114285320D01*
X164455651Y-114209160D01*
X164431865Y-114130748D01*
X164429259Y-114104293D01*
X164416032Y-113970000D01*
X164431865Y-113809254D01*
X164431865Y-113809252D01*
X164478754Y-113654681D01*
X164478754Y-113654680D01*
X164517826Y-113581582D01*
X164554896Y-113512228D01*
X164657367Y-113387367D01*
X164782228Y-113284896D01*
X164860003Y-113243325D01*
X164924680Y-113208754D01*
X164978939Y-113192295D01*
X165079252Y-113161865D01*
X165109369Y-113158899D01*
X165199716Y-113150000D01*
X165280284Y-113150000D01*
X165370631Y-113158899D01*
X165370631Y-113158899D01*
G37*
G36*
X196124469Y-110552877D02*
G01*
X196292237Y-110603769D01*
X196446849Y-110686411D01*
X196582370Y-110797630D01*
X196693589Y-110933151D01*
X196776231Y-111087763D01*
X196827123Y-111255531D01*
X196844307Y-111430000D01*
X196827123Y-111604469D01*
X196776231Y-111772237D01*
X196693589Y-111926849D01*
X196582370Y-112062370D01*
X196446849Y-112173589D01*
X196292237Y-112256231D01*
X196124469Y-112307123D01*
X195993725Y-112320000D01*
X195446275Y-112320000D01*
X195315531Y-112307123D01*
X195147763Y-112256231D01*
X194993151Y-112173589D01*
X194857630Y-112062370D01*
X194746411Y-111926849D01*
X194663769Y-111772237D01*
X194612877Y-111604469D01*
X194595693Y-111430000D01*
X194612877Y-111255531D01*
X194663769Y-111087763D01*
X194746411Y-110933151D01*
X194857630Y-110797630D01*
X194993151Y-110686411D01*
X195147763Y-110603769D01*
X195315531Y-110552877D01*
X195446275Y-110540000D01*
X195993725Y-110540000D01*
X196124469Y-110552877D01*
X196124469Y-110552877D01*
G37*
G36*
X175444601Y-108959590D02*
G01*
X175444604Y-108959591D01*
X175444603Y-108959591D01*
X175584731Y-109017634D01*
X175710847Y-109101902D01*
X175818098Y-109209153D01*
X175902366Y-109335269D01*
X175947260Y-109443654D01*
X175960410Y-109475399D01*
X175990000Y-109624162D01*
X175990000Y-109775838D01*
X175960410Y-109924601D01*
X175960409Y-109924603D01*
X175902366Y-110064731D01*
X175818098Y-110190847D01*
X175710847Y-110298098D01*
X175584731Y-110382366D01*
X175476346Y-110427260D01*
X175444601Y-110440410D01*
X175295838Y-110470000D01*
X175144162Y-110470000D01*
X174995399Y-110440410D01*
X174963654Y-110427260D01*
X174855269Y-110382366D01*
X174729153Y-110298098D01*
X174621902Y-110190847D01*
X174537634Y-110064731D01*
X174479591Y-109924603D01*
X174479590Y-109924601D01*
X174450000Y-109775838D01*
X174450000Y-109624162D01*
X174479590Y-109475399D01*
X174492740Y-109443654D01*
X174537634Y-109335269D01*
X174621902Y-109209153D01*
X174729153Y-109101902D01*
X174855269Y-109017634D01*
X174995397Y-108959591D01*
X174995396Y-108959591D01*
X174995399Y-108959590D01*
X175144162Y-108930000D01*
X175295838Y-108930000D01*
X175444601Y-108959590D01*
X175444601Y-108959590D01*
G37*
G36*
X196691415Y-108004020D02*
G01*
X196725933Y-108014491D01*
X196757740Y-108031492D01*
X196785624Y-108054376D01*
X196808508Y-108082260D01*
X196825509Y-108114067D01*
X196835980Y-108148585D01*
X196840000Y-108189400D01*
X196840000Y-109590600D01*
X196835980Y-109631415D01*
X196825509Y-109665933D01*
X196808508Y-109697740D01*
X196785624Y-109725624D01*
X196757740Y-109748508D01*
X196725933Y-109765509D01*
X196691415Y-109775980D01*
X196650600Y-109780000D01*
X194789400Y-109780000D01*
X194748585Y-109775980D01*
X194714067Y-109765509D01*
X194682260Y-109748508D01*
X194654376Y-109725624D01*
X194631492Y-109697740D01*
X194614491Y-109665933D01*
X194604020Y-109631415D01*
X194600000Y-109590600D01*
X194600000Y-108189400D01*
X194604020Y-108148585D01*
X194614491Y-108114067D01*
X194631492Y-108082260D01*
X194654376Y-108054376D01*
X194682260Y-108031492D01*
X194714067Y-108014491D01*
X194748585Y-108004020D01*
X194789400Y-108000000D01*
X196650600Y-108000000D01*
X196691415Y-108004020D01*
X196691415Y-108004020D01*
G37*
G36*
X178440000Y-101770000D02*
G01*
X174900000Y-101770000D01*
X174900000Y-98230000D01*
X178440000Y-98230000D01*
X178440000Y-101770000D01*
X178440000Y-101770000D01*
G37*
G36*
X105786290Y-98298020D02*
G01*
X105786292Y-98298021D01*
X105786293Y-98298021D01*
X106108409Y-98431446D01*
X106398310Y-98625152D01*
X106644848Y-98871690D01*
X106838554Y-99161591D01*
X106971979Y-99483707D01*
X106971980Y-99483710D01*
X107040000Y-99825670D01*
X107040000Y-100174330D01*
X106986485Y-100443370D01*
X106971979Y-100516293D01*
X106838554Y-100838409D01*
X106644848Y-101128310D01*
X106398310Y-101374848D01*
X106108409Y-101568554D01*
X105786293Y-101701979D01*
X105786292Y-101701979D01*
X105786290Y-101701980D01*
X105444330Y-101770000D01*
X105095670Y-101770000D01*
X104753710Y-101701980D01*
X104753708Y-101701979D01*
X104753707Y-101701979D01*
X104431591Y-101568554D01*
X104141690Y-101374848D01*
X103895152Y-101128310D01*
X103701446Y-100838409D01*
X103568021Y-100516293D01*
X103553516Y-100443370D01*
X103500000Y-100174330D01*
X103500000Y-99825670D01*
X103568020Y-99483710D01*
X103568021Y-99483707D01*
X103701446Y-99161591D01*
X103895152Y-98871690D01*
X104141690Y-98625152D01*
X104431591Y-98431446D01*
X104753707Y-98298021D01*
X104753708Y-98298021D01*
X104753710Y-98298020D01*
X105095670Y-98230000D01*
X105444330Y-98230000D01*
X105786290Y-98298020D01*
X105786290Y-98298020D01*
G37*
G36*
X168263368Y-98538412D02*
G01*
X168539990Y-98652993D01*
X168788944Y-98819339D01*
X169000661Y-99031056D01*
X169167007Y-99280010D01*
X169281588Y-99556632D01*
X169340000Y-99850293D01*
X169340000Y-100149707D01*
X169281588Y-100443368D01*
X169167007Y-100719990D01*
X169000661Y-100968944D01*
X168788944Y-101180661D01*
X168539990Y-101347007D01*
X168263368Y-101461588D01*
X167969707Y-101520000D01*
X167670293Y-101520000D01*
X167376632Y-101461588D01*
X167100010Y-101347007D01*
X166851056Y-101180661D01*
X166639339Y-100968944D01*
X166472993Y-100719990D01*
X166358412Y-100443368D01*
X166300000Y-100149707D01*
X166300000Y-99850293D01*
X166358412Y-99556632D01*
X166472993Y-99280010D01*
X166639339Y-99031056D01*
X166851056Y-98819339D01*
X167100010Y-98652993D01*
X167376632Y-98538412D01*
X167670293Y-98480000D01*
X167969707Y-98480000D01*
X168263368Y-98538412D01*
X168263368Y-98538412D01*
G37*
G36*
X114563368Y-98538412D02*
G01*
X114839990Y-98652993D01*
X115088944Y-98819339D01*
X115300661Y-99031056D01*
X115467007Y-99280010D01*
X115581588Y-99556632D01*
X115640000Y-99850293D01*
X115640000Y-100149707D01*
X115581588Y-100443368D01*
X115467007Y-100719990D01*
X115300661Y-100968944D01*
X115088944Y-101180661D01*
X114839990Y-101347007D01*
X114563368Y-101461588D01*
X114269707Y-101520000D01*
X113970293Y-101520000D01*
X113676632Y-101461588D01*
X113400010Y-101347007D01*
X113151056Y-101180661D01*
X112939339Y-100968944D01*
X112772993Y-100719990D01*
X112658412Y-100443368D01*
X112600000Y-100149707D01*
X112600000Y-99850293D01*
X112658412Y-99556632D01*
X112772993Y-99280010D01*
X112939339Y-99031056D01*
X113151056Y-98819339D01*
X113400010Y-98652993D01*
X113676632Y-98538412D01*
X113970293Y-98480000D01*
X114269707Y-98480000D01*
X114563368Y-98538412D01*
X114563368Y-98538412D01*
G37*
G36*
X189540548Y-90252587D02*
G01*
X189704546Y-90302336D01*
X189855683Y-90383120D01*
X189988159Y-90491841D01*
X190096880Y-90624317D01*
X190177664Y-90775454D01*
X190227413Y-90939452D01*
X190244210Y-91110000D01*
X190227413Y-91280548D01*
X190177664Y-91444546D01*
X190096880Y-91595683D01*
X189988159Y-91728159D01*
X189855683Y-91836880D01*
X189704546Y-91917664D01*
X189540548Y-91967413D01*
X189412743Y-91980000D01*
X189327257Y-91980000D01*
X189199452Y-91967413D01*
X189035454Y-91917664D01*
X188884317Y-91836880D01*
X188751841Y-91728159D01*
X188643120Y-91595683D01*
X188562336Y-91444546D01*
X188512587Y-91280548D01*
X188495790Y-91110000D01*
X188512587Y-90939452D01*
X188562336Y-90775454D01*
X188643120Y-90624317D01*
X188751841Y-90491841D01*
X188884317Y-90383120D01*
X189035454Y-90302336D01*
X189199452Y-90252587D01*
X189327257Y-90240000D01*
X189412743Y-90240000D01*
X189540548Y-90252587D01*
X189540548Y-90252587D01*
G37*
G36*
X190240000Y-89440000D02*
G01*
X188500000Y-89440000D01*
X188500000Y-87700000D01*
X190240000Y-87700000D01*
X190240000Y-89440000D01*
X190240000Y-89440000D01*
G37*
G36*
X119875861Y-84856884D02*
G01*
X119875863Y-84856885D01*
X119875864Y-84856885D01*
X119957878Y-84890857D01*
X120097887Y-84948850D01*
X120297705Y-85082364D01*
X120467636Y-85252295D01*
X120601150Y-85452113D01*
X120646197Y-85560866D01*
X120679631Y-85641582D01*
X120693116Y-85674139D01*
X120740000Y-85909840D01*
X120740000Y-86150160D01*
X120716324Y-86269185D01*
X120693115Y-86385864D01*
X120659143Y-86467878D01*
X120601150Y-86607887D01*
X120467636Y-86807705D01*
X120297705Y-86977636D01*
X120097887Y-87111150D01*
X119973709Y-87162586D01*
X119875864Y-87203115D01*
X119875863Y-87203115D01*
X119875861Y-87203116D01*
X119640160Y-87250000D01*
X119399840Y-87250000D01*
X119164139Y-87203116D01*
X119164137Y-87203115D01*
X119164136Y-87203115D01*
X119066291Y-87162586D01*
X118942113Y-87111150D01*
X118742295Y-86977636D01*
X118572364Y-86807705D01*
X118438850Y-86607887D01*
X118380857Y-86467878D01*
X118346885Y-86385864D01*
X118323676Y-86269185D01*
X118300000Y-86150160D01*
X118300000Y-85909840D01*
X118346884Y-85674139D01*
X118360370Y-85641582D01*
X118393803Y-85560866D01*
X118438850Y-85452113D01*
X118572364Y-85252295D01*
X118742295Y-85082364D01*
X118942113Y-84948850D01*
X119082122Y-84890857D01*
X119164136Y-84856885D01*
X119164137Y-84856885D01*
X119164139Y-84856884D01*
X119399840Y-84810000D01*
X119640160Y-84810000D01*
X119875861Y-84856884D01*
X119875861Y-84856884D01*
G37*
G36*
X145159162Y-84827652D02*
G01*
X145389133Y-84897413D01*
X145485364Y-84948850D01*
X145601074Y-85010698D01*
X145786844Y-85163156D01*
X145939302Y-85348926D01*
X145962894Y-85393064D01*
X146052587Y-85560867D01*
X146122348Y-85790838D01*
X146145903Y-86030000D01*
X146122348Y-86269162D01*
X146052587Y-86499133D01*
X146052586Y-86499134D01*
X145939302Y-86711074D01*
X145786844Y-86896844D01*
X145601074Y-87049302D01*
X145495104Y-87105944D01*
X145389133Y-87162587D01*
X145159162Y-87232348D01*
X144979935Y-87250000D01*
X144860065Y-87250000D01*
X144680838Y-87232348D01*
X144450867Y-87162587D01*
X144344896Y-87105944D01*
X144238926Y-87049302D01*
X144053156Y-86896844D01*
X143900698Y-86711074D01*
X143787414Y-86499134D01*
X143787413Y-86499133D01*
X143717652Y-86269162D01*
X143694097Y-86030000D01*
X143717652Y-85790838D01*
X143787413Y-85560867D01*
X143877106Y-85393064D01*
X143900698Y-85348926D01*
X144053156Y-85163156D01*
X144238926Y-85010698D01*
X144354636Y-84948850D01*
X144450867Y-84897413D01*
X144680838Y-84827652D01*
X144860065Y-84810000D01*
X144979935Y-84810000D01*
X145159162Y-84827652D01*
X145159162Y-84827652D01*
G37*
G36*
X165370631Y-85218899D02*
G01*
X165400748Y-85221865D01*
X165501061Y-85252295D01*
X165555320Y-85268754D01*
X165619997Y-85303325D01*
X165697772Y-85344896D01*
X165822633Y-85447367D01*
X165925104Y-85572228D01*
X165962174Y-85641582D01*
X166001246Y-85714680D01*
X166001246Y-85714681D01*
X166048135Y-85869252D01*
X166048135Y-85869254D01*
X166063968Y-86030000D01*
X166050741Y-86164293D01*
X166048135Y-86190748D01*
X166024349Y-86269160D01*
X166001246Y-86345320D01*
X165963175Y-86416545D01*
X165925104Y-86487772D01*
X165822633Y-86612633D01*
X165697772Y-86715104D01*
X165555320Y-86791246D01*
X165503795Y-86806876D01*
X165400748Y-86838135D01*
X165370631Y-86841101D01*
X165280284Y-86850000D01*
X165199716Y-86850000D01*
X165109369Y-86841101D01*
X165079252Y-86838135D01*
X164976205Y-86806876D01*
X164924680Y-86791246D01*
X164782228Y-86715104D01*
X164657367Y-86612633D01*
X164554896Y-86487772D01*
X164516825Y-86416545D01*
X164478754Y-86345320D01*
X164455651Y-86269160D01*
X164431865Y-86190748D01*
X164429259Y-86164293D01*
X164416032Y-86030000D01*
X164431865Y-85869254D01*
X164431865Y-85869252D01*
X164478754Y-85714681D01*
X164478754Y-85714680D01*
X164517826Y-85641582D01*
X164554896Y-85572228D01*
X164657367Y-85447367D01*
X164782228Y-85344896D01*
X164860003Y-85303325D01*
X164924680Y-85268754D01*
X164978939Y-85252295D01*
X165079252Y-85221865D01*
X165109369Y-85218899D01*
X165199716Y-85210000D01*
X165280284Y-85210000D01*
X165370631Y-85218899D01*
X165370631Y-85218899D01*
G37*
G36*
X150140413Y-85221865D02*
G01*
X150239185Y-85241512D01*
X150388416Y-85303325D01*
X150522720Y-85393064D01*
X150636936Y-85507280D01*
X150726675Y-85641584D01*
X150788488Y-85790815D01*
X150788493Y-85790840D01*
X150820000Y-85949235D01*
X150820000Y-86110765D01*
X150804244Y-86189974D01*
X150788488Y-86269185D01*
X150726675Y-86418416D01*
X150636936Y-86552720D01*
X150522720Y-86666936D01*
X150388416Y-86756675D01*
X150239185Y-86818488D01*
X150159974Y-86834244D01*
X150080765Y-86850000D01*
X149919235Y-86850000D01*
X149840026Y-86834244D01*
X149760815Y-86818488D01*
X149611584Y-86756675D01*
X149477280Y-86666936D01*
X149363064Y-86552720D01*
X149273325Y-86418416D01*
X149211512Y-86269185D01*
X149195756Y-86189974D01*
X149180000Y-86110765D01*
X149180000Y-85949235D01*
X149211507Y-85790840D01*
X149211512Y-85790815D01*
X149273325Y-85641584D01*
X149363064Y-85507280D01*
X149477280Y-85393064D01*
X149611584Y-85303325D01*
X149760815Y-85241512D01*
X149859587Y-85221865D01*
X149919235Y-85210000D01*
X150080765Y-85210000D01*
X150140413Y-85221865D01*
X150140413Y-85221865D01*
G37*
G36*
X196124469Y-82612877D02*
G01*
X196292237Y-82663769D01*
X196446849Y-82746411D01*
X196582370Y-82857630D01*
X196693589Y-82993151D01*
X196776231Y-83147763D01*
X196827123Y-83315531D01*
X196844307Y-83490000D01*
X196827123Y-83664469D01*
X196776231Y-83832237D01*
X196693589Y-83986849D01*
X196582370Y-84122370D01*
X196446849Y-84233589D01*
X196292237Y-84316231D01*
X196124469Y-84367123D01*
X195993725Y-84380000D01*
X195446275Y-84380000D01*
X195315531Y-84367123D01*
X195147763Y-84316231D01*
X194993151Y-84233589D01*
X194857630Y-84122370D01*
X194746411Y-83986849D01*
X194663769Y-83832237D01*
X194612877Y-83664469D01*
X194595693Y-83490000D01*
X194612877Y-83315531D01*
X194663769Y-83147763D01*
X194746411Y-82993151D01*
X194857630Y-82857630D01*
X194993151Y-82746411D01*
X195147763Y-82663769D01*
X195315531Y-82612877D01*
X195446275Y-82600000D01*
X195993725Y-82600000D01*
X196124469Y-82612877D01*
X196124469Y-82612877D01*
G37*
G36*
X175444601Y-81019590D02*
G01*
X175444604Y-81019591D01*
X175444603Y-81019591D01*
X175584731Y-81077634D01*
X175710847Y-81161902D01*
X175818098Y-81269153D01*
X175902366Y-81395269D01*
X175947260Y-81503654D01*
X175960410Y-81535399D01*
X175990000Y-81684162D01*
X175990000Y-81835838D01*
X175960410Y-81984601D01*
X175960409Y-81984603D01*
X175902366Y-82124731D01*
X175818098Y-82250847D01*
X175710847Y-82358098D01*
X175584731Y-82442366D01*
X175476346Y-82487260D01*
X175444601Y-82500410D01*
X175295838Y-82530000D01*
X175144162Y-82530000D01*
X174995399Y-82500410D01*
X174963654Y-82487260D01*
X174855269Y-82442366D01*
X174729153Y-82358098D01*
X174621902Y-82250847D01*
X174537634Y-82124731D01*
X174479591Y-81984603D01*
X174479590Y-81984601D01*
X174450000Y-81835838D01*
X174450000Y-81684162D01*
X174479590Y-81535399D01*
X174492740Y-81503654D01*
X174537634Y-81395269D01*
X174621902Y-81269153D01*
X174729153Y-81161902D01*
X174855269Y-81077634D01*
X174995397Y-81019591D01*
X174995396Y-81019591D01*
X174995399Y-81019590D01*
X175144162Y-80990000D01*
X175295838Y-80990000D01*
X175444601Y-81019590D01*
X175444601Y-81019590D01*
G37*
G36*
X196691415Y-80064020D02*
G01*
X196725933Y-80074491D01*
X196757740Y-80091492D01*
X196785624Y-80114376D01*
X196808508Y-80142260D01*
X196825509Y-80174067D01*
X196835980Y-80208585D01*
X196840000Y-80249400D01*
X196840000Y-81650600D01*
X196835980Y-81691415D01*
X196825509Y-81725933D01*
X196808508Y-81757740D01*
X196785624Y-81785624D01*
X196757740Y-81808508D01*
X196725933Y-81825509D01*
X196691415Y-81835980D01*
X196650600Y-81840000D01*
X194789400Y-81840000D01*
X194748585Y-81835980D01*
X194714067Y-81825509D01*
X194682260Y-81808508D01*
X194654376Y-81785624D01*
X194631492Y-81757740D01*
X194614491Y-81725933D01*
X194604020Y-81691415D01*
X194600000Y-81650600D01*
X194600000Y-80249400D01*
X194604020Y-80208585D01*
X194614491Y-80174067D01*
X194631492Y-80142260D01*
X194654376Y-80114376D01*
X194682260Y-80091492D01*
X194714067Y-80074491D01*
X194748585Y-80064020D01*
X194789400Y-80060000D01*
X196650600Y-80060000D01*
X196691415Y-80064020D01*
X196691415Y-80064020D01*
G37*
G36*
X178440000Y-73830000D02*
G01*
X174900000Y-73830000D01*
X174900000Y-70290000D01*
X178440000Y-70290000D01*
X178440000Y-73830000D01*
X178440000Y-73830000D01*
G37*
G36*
X105786290Y-70358020D02*
G01*
X105786292Y-70358021D01*
X105786293Y-70358021D01*
X106108409Y-70491446D01*
X106398310Y-70685152D01*
X106644848Y-70931690D01*
X106838554Y-71221591D01*
X106971979Y-71543707D01*
X106971980Y-71543710D01*
X107040000Y-71885670D01*
X107040000Y-72234330D01*
X106986485Y-72503370D01*
X106971979Y-72576293D01*
X106838554Y-72898409D01*
X106644848Y-73188310D01*
X106398310Y-73434848D01*
X106108409Y-73628554D01*
X105786293Y-73761979D01*
X105786292Y-73761979D01*
X105786290Y-73761980D01*
X105444330Y-73830000D01*
X105095670Y-73830000D01*
X104753710Y-73761980D01*
X104753708Y-73761979D01*
X104753707Y-73761979D01*
X104431591Y-73628554D01*
X104141690Y-73434848D01*
X103895152Y-73188310D01*
X103701446Y-72898409D01*
X103568021Y-72576293D01*
X103553516Y-72503370D01*
X103500000Y-72234330D01*
X103500000Y-71885670D01*
X103568020Y-71543710D01*
X103568021Y-71543707D01*
X103701446Y-71221591D01*
X103895152Y-70931690D01*
X104141690Y-70685152D01*
X104431591Y-70491446D01*
X104753707Y-70358021D01*
X104753708Y-70358021D01*
X104753710Y-70358020D01*
X105095670Y-70290000D01*
X105444330Y-70290000D01*
X105786290Y-70358020D01*
X105786290Y-70358020D01*
G37*
G36*
X168263368Y-70598412D02*
G01*
X168539990Y-70712993D01*
X168788944Y-70879339D01*
X169000661Y-71091056D01*
X169167007Y-71340010D01*
X169281588Y-71616632D01*
X169340000Y-71910293D01*
X169340000Y-72209707D01*
X169281588Y-72503368D01*
X169167007Y-72779990D01*
X169000661Y-73028944D01*
X168788944Y-73240661D01*
X168539990Y-73407007D01*
X168263368Y-73521588D01*
X167969707Y-73580000D01*
X167670293Y-73580000D01*
X167376632Y-73521588D01*
X167100010Y-73407007D01*
X166851056Y-73240661D01*
X166639339Y-73028944D01*
X166472993Y-72779990D01*
X166358412Y-72503368D01*
X166300000Y-72209707D01*
X166300000Y-71910293D01*
X166358412Y-71616632D01*
X166472993Y-71340010D01*
X166639339Y-71091056D01*
X166851056Y-70879339D01*
X167100010Y-70712993D01*
X167376632Y-70598412D01*
X167670293Y-70540000D01*
X167969707Y-70540000D01*
X168263368Y-70598412D01*
X168263368Y-70598412D01*
G37*
G36*
X114563368Y-70598412D02*
G01*
X114839990Y-70712993D01*
X115088944Y-70879339D01*
X115300661Y-71091056D01*
X115467007Y-71340010D01*
X115581588Y-71616632D01*
X115640000Y-71910293D01*
X115640000Y-72209707D01*
X115581588Y-72503368D01*
X115467007Y-72779990D01*
X115300661Y-73028944D01*
X115088944Y-73240661D01*
X114839990Y-73407007D01*
X114563368Y-73521588D01*
X114269707Y-73580000D01*
X113970293Y-73580000D01*
X113676632Y-73521588D01*
X113400010Y-73407007D01*
X113151056Y-73240661D01*
X112939339Y-73028944D01*
X112772993Y-72779990D01*
X112658412Y-72503368D01*
X112600000Y-72209707D01*
X112600000Y-71910293D01*
X112658412Y-71616632D01*
X112772993Y-71340010D01*
X112939339Y-71091056D01*
X113151056Y-70879339D01*
X113400010Y-70712993D01*
X113676632Y-70598412D01*
X113970293Y-70540000D01*
X114269707Y-70540000D01*
X114563368Y-70598412D01*
X114563368Y-70598412D01*
G37*
G36*
X189540548Y-62312587D02*
G01*
X189704546Y-62362336D01*
X189855683Y-62443120D01*
X189988159Y-62551841D01*
X190096880Y-62684317D01*
X190177664Y-62835454D01*
X190227413Y-62999452D01*
X190244210Y-63170000D01*
X190227413Y-63340548D01*
X190177664Y-63504546D01*
X190096880Y-63655683D01*
X189988159Y-63788159D01*
X189855683Y-63896880D01*
X189704546Y-63977664D01*
X189540548Y-64027413D01*
X189412743Y-64040000D01*
X189327257Y-64040000D01*
X189199452Y-64027413D01*
X189035454Y-63977664D01*
X188884317Y-63896880D01*
X188751841Y-63788159D01*
X188643120Y-63655683D01*
X188562336Y-63504546D01*
X188512587Y-63340548D01*
X188495790Y-63170000D01*
X188512587Y-62999452D01*
X188562336Y-62835454D01*
X188643120Y-62684317D01*
X188751841Y-62551841D01*
X188884317Y-62443120D01*
X189035454Y-62362336D01*
X189199452Y-62312587D01*
X189327257Y-62300000D01*
X189412743Y-62300000D01*
X189540548Y-62312587D01*
X189540548Y-62312587D01*
G37*
G36*
X190240000Y-61500000D02*
G01*
X188500000Y-61500000D01*
X188500000Y-59760000D01*
X190240000Y-59760000D01*
X190240000Y-61500000D01*
X190240000Y-61500000D01*
G37*
G36*
X160632536Y-55262256D02*
G01*
X160632538Y-55262257D01*
X160632539Y-55262257D01*
X160741444Y-55307367D01*
X160927358Y-55384375D01*
X161192689Y-55561664D01*
X161418336Y-55787311D01*
X161595625Y-56052642D01*
X161717744Y-56347464D01*
X161780000Y-56660444D01*
X161780000Y-56979556D01*
X161717744Y-57292536D01*
X161595625Y-57587358D01*
X161418336Y-57852689D01*
X161192689Y-58078336D01*
X160927358Y-58255625D01*
X160741444Y-58332633D01*
X160632539Y-58377743D01*
X160632538Y-58377743D01*
X160632536Y-58377744D01*
X160319556Y-58440000D01*
X160000444Y-58440000D01*
X159687464Y-58377744D01*
X159687462Y-58377743D01*
X159687461Y-58377743D01*
X159578556Y-58332633D01*
X159392642Y-58255625D01*
X159127311Y-58078336D01*
X158901664Y-57852689D01*
X158724375Y-57587358D01*
X158602256Y-57292536D01*
X158540000Y-56979556D01*
X158540000Y-56660444D01*
X158602256Y-56347464D01*
X158724375Y-56052642D01*
X158901664Y-55787311D01*
X159127311Y-55561664D01*
X159392642Y-55384375D01*
X159578556Y-55307367D01*
X159687461Y-55262257D01*
X159687462Y-55262257D01*
X159687464Y-55262256D01*
X160000444Y-55200000D01*
X160319556Y-55200000D01*
X160632536Y-55262256D01*
X160632536Y-55262256D01*
G37*
G36*
X125072536Y-55262256D02*
G01*
X125072538Y-55262257D01*
X125072539Y-55262257D01*
X125181444Y-55307367D01*
X125367358Y-55384375D01*
X125632689Y-55561664D01*
X125858336Y-55787311D01*
X126035625Y-56052642D01*
X126157744Y-56347464D01*
X126220000Y-56660444D01*
X126220000Y-56979556D01*
X126157744Y-57292536D01*
X126035625Y-57587358D01*
X125858336Y-57852689D01*
X125632689Y-58078336D01*
X125367358Y-58255625D01*
X125181444Y-58332633D01*
X125072539Y-58377743D01*
X125072538Y-58377743D01*
X125072536Y-58377744D01*
X124759556Y-58440000D01*
X124440444Y-58440000D01*
X124127464Y-58377744D01*
X124127462Y-58377743D01*
X124127461Y-58377743D01*
X124018556Y-58332633D01*
X123832642Y-58255625D01*
X123567311Y-58078336D01*
X123341664Y-57852689D01*
X123164375Y-57587358D01*
X123042256Y-57292536D01*
X122980000Y-56979556D01*
X122980000Y-56660444D01*
X123042256Y-56347464D01*
X123164375Y-56052642D01*
X123341664Y-55787311D01*
X123567311Y-55561664D01*
X123832642Y-55384375D01*
X124018556Y-55307367D01*
X124127461Y-55262257D01*
X124127462Y-55262257D01*
X124127464Y-55262256D01*
X124440444Y-55200000D01*
X124759556Y-55200000D01*
X125072536Y-55262256D01*
X125072536Y-55262256D01*
G37*
G36*
X115310000Y-57690000D02*
G01*
X113570000Y-57690000D01*
X113570000Y-55950000D01*
X115310000Y-55950000D01*
X115310000Y-57690000D01*
X115310000Y-57690000D01*
G37*
G36*
X195472536Y-53442256D02*
G01*
X195472538Y-53442257D01*
X195472539Y-53442257D01*
X195581444Y-53487367D01*
X195767358Y-53564375D01*
X196032689Y-53741664D01*
X196258336Y-53967311D01*
X196435625Y-54232642D01*
X196557744Y-54527464D01*
X196620000Y-54840444D01*
X196620000Y-55159556D01*
X196557744Y-55472536D01*
X196435625Y-55767358D01*
X196258336Y-56032689D01*
X196032689Y-56258336D01*
X195767358Y-56435625D01*
X195581444Y-56512633D01*
X195472539Y-56557743D01*
X195472538Y-56557743D01*
X195472536Y-56557744D01*
X195159556Y-56620000D01*
X194840444Y-56620000D01*
X194527464Y-56557744D01*
X194527462Y-56557743D01*
X194527461Y-56557743D01*
X194418556Y-56512633D01*
X194232642Y-56435625D01*
X193967311Y-56258336D01*
X193741664Y-56032689D01*
X193564375Y-55767358D01*
X193442256Y-55472536D01*
X193380000Y-55159556D01*
X193380000Y-54840444D01*
X193442256Y-54527464D01*
X193564375Y-54232642D01*
X193741664Y-53967311D01*
X193967311Y-53741664D01*
X194232642Y-53564375D01*
X194418556Y-53487367D01*
X194527461Y-53442257D01*
X194527462Y-53442257D01*
X194527464Y-53442256D01*
X194840444Y-53380000D01*
X195159556Y-53380000D01*
X195472536Y-53442256D01*
X195472536Y-53442256D01*
G37*
G36*
X105472536Y-53442256D02*
G01*
X105472538Y-53442257D01*
X105472539Y-53442257D01*
X105581444Y-53487367D01*
X105767358Y-53564375D01*
X106032689Y-53741664D01*
X106258336Y-53967311D01*
X106435625Y-54232642D01*
X106557744Y-54527464D01*
X106620000Y-54840444D01*
X106620000Y-55159556D01*
X106557744Y-55472536D01*
X106435625Y-55767358D01*
X106258336Y-56032689D01*
X106032689Y-56258336D01*
X105767358Y-56435625D01*
X105581444Y-56512633D01*
X105472539Y-56557743D01*
X105472538Y-56557743D01*
X105472536Y-56557744D01*
X105159556Y-56620000D01*
X104840444Y-56620000D01*
X104527464Y-56557744D01*
X104527462Y-56557743D01*
X104527461Y-56557743D01*
X104418556Y-56512633D01*
X104232642Y-56435625D01*
X103967311Y-56258336D01*
X103741664Y-56032689D01*
X103564375Y-55767358D01*
X103442256Y-55472536D01*
X103380000Y-55159556D01*
X103380000Y-54840444D01*
X103442256Y-54527464D01*
X103564375Y-54232642D01*
X103741664Y-53967311D01*
X103967311Y-53741664D01*
X104232642Y-53564375D01*
X104418556Y-53487367D01*
X104527461Y-53442257D01*
X104527462Y-53442257D01*
X104527464Y-53442256D01*
X104840444Y-53380000D01*
X105159556Y-53380000D01*
X105472536Y-53442256D01*
X105472536Y-53442256D01*
G37*
M02*
