M48
; DRILL file {KiCad 5.1.4} date Sat 28 Sep 2019 02:59:44 AM CEST
; FORMAT={-:-/ absolute / inch / decimal}
; #@! TF.CreationDate,2019-09-28T02:59:44+02:00
; #@! TF.GenerationSoftware,Kicad,Pcbnew,5.1.4
; #@! TF.FileFunction,Plated,1,2,PTH
FMAT,2
INCH
T1C0.0157
T2C0.0315
T3C0.0394
T4C0.0472
T5C0.0787
%
G90
G05
T1
X7.0305Y-2.987
X7.0305Y-3.062
X7.0305Y-4.087
X7.0305Y-4.162
X7.0305Y-5.187
X7.0305Y-5.262
X7.068Y-2.9495
X7.068Y-3.0245
X7.068Y-4.047
X7.068Y-4.1245
X7.068Y-5.147
X7.068Y-5.2245
X7.1055Y-2.912
X7.1055Y-2.987
X7.1055Y-3.062
X7.1055Y-4.012
X7.1055Y-4.087
X7.1055Y-4.162
X7.1055Y-5.112
X7.1055Y-5.187
X7.1055Y-5.262
X7.2555Y-2.7745
X7.2555Y-2.812
X7.2555Y-2.8495
X7.2555Y-3.8745
X7.2555Y-3.912
X7.2555Y-3.9495
X7.2555Y-4.9745
X7.2555Y-5.012
X7.2555Y-5.0495
X7.3055Y-2.9495
X7.3305Y-2.912
X7.3305Y-2.987
X7.3305Y-4.012
X7.3305Y-4.087
X7.3305Y-5.112
X7.3305Y-5.187
X7.368Y-3.017
X7.368Y-4.117
X7.368Y-5.217
X7.4055Y-2.987
X7.4055Y-4.087
X7.4055Y-5.187
X7.443Y-3.017
X7.443Y-4.117
X7.443Y-5.217
X7.4805Y-2.987
X7.4805Y-4.087
X7.4805Y-5.187
X7.5055Y-2.787
X7.5055Y-3.887
X7.5055Y-4.987
X7.5655Y-2.827
X7.5655Y-2.862
X7.5655Y-2.897
X7.5655Y-2.932
X7.5655Y-2.967
X7.5655Y-3.927
X7.5655Y-3.962
X7.5655Y-3.997
X7.5655Y-4.032
X7.5655Y-4.067
X7.5655Y-5.027
X7.5655Y-5.062
X7.5655Y-5.097
X7.5655Y-5.132
X7.5655Y-5.167
T2
X5.9055Y-4.487
X6.5055Y-4.487
X5.9055Y-3.387
X6.5055Y-3.387
T3
X4.5055Y-2.237
X7.4555Y-2.387
X7.4555Y-2.487
X4.5055Y-5.637
X7.4555Y-4.587
X7.4555Y-4.687
X7.4555Y-3.487
X7.4555Y-3.587
T4
X4.7055Y-4.487
X5.7055Y-4.487
X7.7055Y-5.387
X7.7055Y-5.487
X7.7055Y-3.187
X7.7055Y-3.287
X4.7055Y-3.387
X5.7055Y-3.387
X7.7055Y-4.287
X7.7055Y-4.387
T5
X4.1445Y-5.037
X6.9555Y-5.037
X4.1445Y-3.937
X6.9555Y-3.937
X4.1445Y-2.837
X6.9555Y-2.837
T0
M30
