G04 #@! TF.GenerationSoftware,KiCad,Pcbnew,5.1.4*
G04 #@! TF.CreationDate,2019-09-28T02:59:40+02:00*
G04 #@! TF.ProjectId,stratosensor-power,73747261-746f-4736-956e-736f722d706f,rev?*
G04 #@! TF.SameCoordinates,Original*
G04 #@! TF.FileFunction,Paste,Top*
G04 #@! TF.FilePolarity,Positive*
%FSLAX46Y46*%
G04 Gerber Fmt 4.6, Leading zero omitted, Abs format (unit mm)*
G04 Created by KiCad (PCBNEW 5.1.4) date 2019-09-28 02:59:40*
%MOMM*%
%LPD*%
G04 APERTURE LIST*
%ADD10R,1.220000X0.650000*%
%ADD11C,0.100000*%
%ADD12C,1.150000*%
%ADD13R,2.400000X4.200000*%
G04 APERTURE END LIST*
D10*
X182980000Y-128255000D03*
X182980000Y-127305000D03*
X182980000Y-126355000D03*
X185600000Y-126355000D03*
X185600000Y-127305000D03*
X185600000Y-128255000D03*
X182980000Y-100315000D03*
X182980000Y-99365000D03*
X182980000Y-98415000D03*
X185600000Y-98415000D03*
X185600000Y-99365000D03*
X185600000Y-100315000D03*
X182980000Y-72375000D03*
X182980000Y-71425000D03*
X182980000Y-70475000D03*
X185600000Y-70475000D03*
X185600000Y-71425000D03*
X185600000Y-72375000D03*
D11*
G36*
X188594505Y-138671204D02*
G01*
X188618773Y-138674804D01*
X188642572Y-138680765D01*
X188665671Y-138689030D01*
X188687850Y-138699520D01*
X188708893Y-138712132D01*
X188728599Y-138726747D01*
X188746777Y-138743223D01*
X188763253Y-138761401D01*
X188777868Y-138781107D01*
X188790480Y-138802150D01*
X188800970Y-138824329D01*
X188809235Y-138847428D01*
X188815196Y-138871227D01*
X188818796Y-138895495D01*
X188820000Y-138919999D01*
X188820000Y-139820001D01*
X188818796Y-139844505D01*
X188815196Y-139868773D01*
X188809235Y-139892572D01*
X188800970Y-139915671D01*
X188790480Y-139937850D01*
X188777868Y-139958893D01*
X188763253Y-139978599D01*
X188746777Y-139996777D01*
X188728599Y-140013253D01*
X188708893Y-140027868D01*
X188687850Y-140040480D01*
X188665671Y-140050970D01*
X188642572Y-140059235D01*
X188618773Y-140065196D01*
X188594505Y-140068796D01*
X188570001Y-140070000D01*
X187919999Y-140070000D01*
X187895495Y-140068796D01*
X187871227Y-140065196D01*
X187847428Y-140059235D01*
X187824329Y-140050970D01*
X187802150Y-140040480D01*
X187781107Y-140027868D01*
X187761401Y-140013253D01*
X187743223Y-139996777D01*
X187726747Y-139978599D01*
X187712132Y-139958893D01*
X187699520Y-139937850D01*
X187689030Y-139915671D01*
X187680765Y-139892572D01*
X187674804Y-139868773D01*
X187671204Y-139844505D01*
X187670000Y-139820001D01*
X187670000Y-138919999D01*
X187671204Y-138895495D01*
X187674804Y-138871227D01*
X187680765Y-138847428D01*
X187689030Y-138824329D01*
X187699520Y-138802150D01*
X187712132Y-138781107D01*
X187726747Y-138761401D01*
X187743223Y-138743223D01*
X187761401Y-138726747D01*
X187781107Y-138712132D01*
X187802150Y-138699520D01*
X187824329Y-138689030D01*
X187847428Y-138680765D01*
X187871227Y-138674804D01*
X187895495Y-138671204D01*
X187919999Y-138670000D01*
X188570001Y-138670000D01*
X188594505Y-138671204D01*
X188594505Y-138671204D01*
G37*
D12*
X188245000Y-139370000D03*
D11*
G36*
X186544505Y-138671204D02*
G01*
X186568773Y-138674804D01*
X186592572Y-138680765D01*
X186615671Y-138689030D01*
X186637850Y-138699520D01*
X186658893Y-138712132D01*
X186678599Y-138726747D01*
X186696777Y-138743223D01*
X186713253Y-138761401D01*
X186727868Y-138781107D01*
X186740480Y-138802150D01*
X186750970Y-138824329D01*
X186759235Y-138847428D01*
X186765196Y-138871227D01*
X186768796Y-138895495D01*
X186770000Y-138919999D01*
X186770000Y-139820001D01*
X186768796Y-139844505D01*
X186765196Y-139868773D01*
X186759235Y-139892572D01*
X186750970Y-139915671D01*
X186740480Y-139937850D01*
X186727868Y-139958893D01*
X186713253Y-139978599D01*
X186696777Y-139996777D01*
X186678599Y-140013253D01*
X186658893Y-140027868D01*
X186637850Y-140040480D01*
X186615671Y-140050970D01*
X186592572Y-140059235D01*
X186568773Y-140065196D01*
X186544505Y-140068796D01*
X186520001Y-140070000D01*
X185869999Y-140070000D01*
X185845495Y-140068796D01*
X185821227Y-140065196D01*
X185797428Y-140059235D01*
X185774329Y-140050970D01*
X185752150Y-140040480D01*
X185731107Y-140027868D01*
X185711401Y-140013253D01*
X185693223Y-139996777D01*
X185676747Y-139978599D01*
X185662132Y-139958893D01*
X185649520Y-139937850D01*
X185639030Y-139915671D01*
X185630765Y-139892572D01*
X185624804Y-139868773D01*
X185621204Y-139844505D01*
X185620000Y-139820001D01*
X185620000Y-138919999D01*
X185621204Y-138895495D01*
X185624804Y-138871227D01*
X185630765Y-138847428D01*
X185639030Y-138824329D01*
X185649520Y-138802150D01*
X185662132Y-138781107D01*
X185676747Y-138761401D01*
X185693223Y-138743223D01*
X185711401Y-138726747D01*
X185731107Y-138712132D01*
X185752150Y-138699520D01*
X185774329Y-138689030D01*
X185797428Y-138680765D01*
X185821227Y-138674804D01*
X185845495Y-138671204D01*
X185869999Y-138670000D01*
X186520001Y-138670000D01*
X186544505Y-138671204D01*
X186544505Y-138671204D01*
G37*
D12*
X186195000Y-139370000D03*
D11*
G36*
X183494505Y-129906204D02*
G01*
X183518773Y-129909804D01*
X183542572Y-129915765D01*
X183565671Y-129924030D01*
X183587850Y-129934520D01*
X183608893Y-129947132D01*
X183628599Y-129961747D01*
X183646777Y-129978223D01*
X183663253Y-129996401D01*
X183677868Y-130016107D01*
X183690480Y-130037150D01*
X183700970Y-130059329D01*
X183709235Y-130082428D01*
X183715196Y-130106227D01*
X183718796Y-130130495D01*
X183720000Y-130154999D01*
X183720000Y-130805001D01*
X183718796Y-130829505D01*
X183715196Y-130853773D01*
X183709235Y-130877572D01*
X183700970Y-130900671D01*
X183690480Y-130922850D01*
X183677868Y-130943893D01*
X183663253Y-130963599D01*
X183646777Y-130981777D01*
X183628599Y-130998253D01*
X183608893Y-131012868D01*
X183587850Y-131025480D01*
X183565671Y-131035970D01*
X183542572Y-131044235D01*
X183518773Y-131050196D01*
X183494505Y-131053796D01*
X183470001Y-131055000D01*
X182569999Y-131055000D01*
X182545495Y-131053796D01*
X182521227Y-131050196D01*
X182497428Y-131044235D01*
X182474329Y-131035970D01*
X182452150Y-131025480D01*
X182431107Y-131012868D01*
X182411401Y-130998253D01*
X182393223Y-130981777D01*
X182376747Y-130963599D01*
X182362132Y-130943893D01*
X182349520Y-130922850D01*
X182339030Y-130900671D01*
X182330765Y-130877572D01*
X182324804Y-130853773D01*
X182321204Y-130829505D01*
X182320000Y-130805001D01*
X182320000Y-130154999D01*
X182321204Y-130130495D01*
X182324804Y-130106227D01*
X182330765Y-130082428D01*
X182339030Y-130059329D01*
X182349520Y-130037150D01*
X182362132Y-130016107D01*
X182376747Y-129996401D01*
X182393223Y-129978223D01*
X182411401Y-129961747D01*
X182431107Y-129947132D01*
X182452150Y-129934520D01*
X182474329Y-129924030D01*
X182497428Y-129915765D01*
X182521227Y-129909804D01*
X182545495Y-129906204D01*
X182569999Y-129905000D01*
X183470001Y-129905000D01*
X183494505Y-129906204D01*
X183494505Y-129906204D01*
G37*
D12*
X183020000Y-130480000D03*
D11*
G36*
X183494505Y-131956204D02*
G01*
X183518773Y-131959804D01*
X183542572Y-131965765D01*
X183565671Y-131974030D01*
X183587850Y-131984520D01*
X183608893Y-131997132D01*
X183628599Y-132011747D01*
X183646777Y-132028223D01*
X183663253Y-132046401D01*
X183677868Y-132066107D01*
X183690480Y-132087150D01*
X183700970Y-132109329D01*
X183709235Y-132132428D01*
X183715196Y-132156227D01*
X183718796Y-132180495D01*
X183720000Y-132204999D01*
X183720000Y-132855001D01*
X183718796Y-132879505D01*
X183715196Y-132903773D01*
X183709235Y-132927572D01*
X183700970Y-132950671D01*
X183690480Y-132972850D01*
X183677868Y-132993893D01*
X183663253Y-133013599D01*
X183646777Y-133031777D01*
X183628599Y-133048253D01*
X183608893Y-133062868D01*
X183587850Y-133075480D01*
X183565671Y-133085970D01*
X183542572Y-133094235D01*
X183518773Y-133100196D01*
X183494505Y-133103796D01*
X183470001Y-133105000D01*
X182569999Y-133105000D01*
X182545495Y-133103796D01*
X182521227Y-133100196D01*
X182497428Y-133094235D01*
X182474329Y-133085970D01*
X182452150Y-133075480D01*
X182431107Y-133062868D01*
X182411401Y-133048253D01*
X182393223Y-133031777D01*
X182376747Y-133013599D01*
X182362132Y-132993893D01*
X182349520Y-132972850D01*
X182339030Y-132950671D01*
X182330765Y-132927572D01*
X182324804Y-132903773D01*
X182321204Y-132879505D01*
X182320000Y-132855001D01*
X182320000Y-132204999D01*
X182321204Y-132180495D01*
X182324804Y-132156227D01*
X182330765Y-132132428D01*
X182339030Y-132109329D01*
X182349520Y-132087150D01*
X182362132Y-132066107D01*
X182376747Y-132046401D01*
X182393223Y-132028223D01*
X182411401Y-132011747D01*
X182431107Y-131997132D01*
X182452150Y-131984520D01*
X182474329Y-131974030D01*
X182497428Y-131965765D01*
X182521227Y-131959804D01*
X182545495Y-131956204D01*
X182569999Y-131955000D01*
X183470001Y-131955000D01*
X183494505Y-131956204D01*
X183494505Y-131956204D01*
G37*
D12*
X183020000Y-132530000D03*
D11*
G36*
X198734505Y-129026204D02*
G01*
X198758773Y-129029804D01*
X198782572Y-129035765D01*
X198805671Y-129044030D01*
X198827850Y-129054520D01*
X198848893Y-129067132D01*
X198868599Y-129081747D01*
X198886777Y-129098223D01*
X198903253Y-129116401D01*
X198917868Y-129136107D01*
X198930480Y-129157150D01*
X198940970Y-129179329D01*
X198949235Y-129202428D01*
X198955196Y-129226227D01*
X198958796Y-129250495D01*
X198960000Y-129274999D01*
X198960000Y-129925001D01*
X198958796Y-129949505D01*
X198955196Y-129973773D01*
X198949235Y-129997572D01*
X198940970Y-130020671D01*
X198930480Y-130042850D01*
X198917868Y-130063893D01*
X198903253Y-130083599D01*
X198886777Y-130101777D01*
X198868599Y-130118253D01*
X198848893Y-130132868D01*
X198827850Y-130145480D01*
X198805671Y-130155970D01*
X198782572Y-130164235D01*
X198758773Y-130170196D01*
X198734505Y-130173796D01*
X198710001Y-130175000D01*
X197809999Y-130175000D01*
X197785495Y-130173796D01*
X197761227Y-130170196D01*
X197737428Y-130164235D01*
X197714329Y-130155970D01*
X197692150Y-130145480D01*
X197671107Y-130132868D01*
X197651401Y-130118253D01*
X197633223Y-130101777D01*
X197616747Y-130083599D01*
X197602132Y-130063893D01*
X197589520Y-130042850D01*
X197579030Y-130020671D01*
X197570765Y-129997572D01*
X197564804Y-129973773D01*
X197561204Y-129949505D01*
X197560000Y-129925001D01*
X197560000Y-129274999D01*
X197561204Y-129250495D01*
X197564804Y-129226227D01*
X197570765Y-129202428D01*
X197579030Y-129179329D01*
X197589520Y-129157150D01*
X197602132Y-129136107D01*
X197616747Y-129116401D01*
X197633223Y-129098223D01*
X197651401Y-129081747D01*
X197671107Y-129067132D01*
X197692150Y-129054520D01*
X197714329Y-129044030D01*
X197737428Y-129035765D01*
X197761227Y-129029804D01*
X197785495Y-129026204D01*
X197809999Y-129025000D01*
X198710001Y-129025000D01*
X198734505Y-129026204D01*
X198734505Y-129026204D01*
G37*
D12*
X198260000Y-129600000D03*
D11*
G36*
X198734505Y-126976204D02*
G01*
X198758773Y-126979804D01*
X198782572Y-126985765D01*
X198805671Y-126994030D01*
X198827850Y-127004520D01*
X198848893Y-127017132D01*
X198868599Y-127031747D01*
X198886777Y-127048223D01*
X198903253Y-127066401D01*
X198917868Y-127086107D01*
X198930480Y-127107150D01*
X198940970Y-127129329D01*
X198949235Y-127152428D01*
X198955196Y-127176227D01*
X198958796Y-127200495D01*
X198960000Y-127224999D01*
X198960000Y-127875001D01*
X198958796Y-127899505D01*
X198955196Y-127923773D01*
X198949235Y-127947572D01*
X198940970Y-127970671D01*
X198930480Y-127992850D01*
X198917868Y-128013893D01*
X198903253Y-128033599D01*
X198886777Y-128051777D01*
X198868599Y-128068253D01*
X198848893Y-128082868D01*
X198827850Y-128095480D01*
X198805671Y-128105970D01*
X198782572Y-128114235D01*
X198758773Y-128120196D01*
X198734505Y-128123796D01*
X198710001Y-128125000D01*
X197809999Y-128125000D01*
X197785495Y-128123796D01*
X197761227Y-128120196D01*
X197737428Y-128114235D01*
X197714329Y-128105970D01*
X197692150Y-128095480D01*
X197671107Y-128082868D01*
X197651401Y-128068253D01*
X197633223Y-128051777D01*
X197616747Y-128033599D01*
X197602132Y-128013893D01*
X197589520Y-127992850D01*
X197579030Y-127970671D01*
X197570765Y-127947572D01*
X197564804Y-127923773D01*
X197561204Y-127899505D01*
X197560000Y-127875001D01*
X197560000Y-127224999D01*
X197561204Y-127200495D01*
X197564804Y-127176227D01*
X197570765Y-127152428D01*
X197579030Y-127129329D01*
X197589520Y-127107150D01*
X197602132Y-127086107D01*
X197616747Y-127066401D01*
X197633223Y-127048223D01*
X197651401Y-127031747D01*
X197671107Y-127017132D01*
X197692150Y-127004520D01*
X197714329Y-126994030D01*
X197737428Y-126985765D01*
X197761227Y-126979804D01*
X197785495Y-126976204D01*
X197809999Y-126975000D01*
X198710001Y-126975000D01*
X198734505Y-126976204D01*
X198734505Y-126976204D01*
G37*
D12*
X198260000Y-127550000D03*
D11*
G36*
X186544505Y-136131204D02*
G01*
X186568773Y-136134804D01*
X186592572Y-136140765D01*
X186615671Y-136149030D01*
X186637850Y-136159520D01*
X186658893Y-136172132D01*
X186678599Y-136186747D01*
X186696777Y-136203223D01*
X186713253Y-136221401D01*
X186727868Y-136241107D01*
X186740480Y-136262150D01*
X186750970Y-136284329D01*
X186759235Y-136307428D01*
X186765196Y-136331227D01*
X186768796Y-136355495D01*
X186770000Y-136379999D01*
X186770000Y-137280001D01*
X186768796Y-137304505D01*
X186765196Y-137328773D01*
X186759235Y-137352572D01*
X186750970Y-137375671D01*
X186740480Y-137397850D01*
X186727868Y-137418893D01*
X186713253Y-137438599D01*
X186696777Y-137456777D01*
X186678599Y-137473253D01*
X186658893Y-137487868D01*
X186637850Y-137500480D01*
X186615671Y-137510970D01*
X186592572Y-137519235D01*
X186568773Y-137525196D01*
X186544505Y-137528796D01*
X186520001Y-137530000D01*
X185869999Y-137530000D01*
X185845495Y-137528796D01*
X185821227Y-137525196D01*
X185797428Y-137519235D01*
X185774329Y-137510970D01*
X185752150Y-137500480D01*
X185731107Y-137487868D01*
X185711401Y-137473253D01*
X185693223Y-137456777D01*
X185676747Y-137438599D01*
X185662132Y-137418893D01*
X185649520Y-137397850D01*
X185639030Y-137375671D01*
X185630765Y-137352572D01*
X185624804Y-137328773D01*
X185621204Y-137304505D01*
X185620000Y-137280001D01*
X185620000Y-136379999D01*
X185621204Y-136355495D01*
X185624804Y-136331227D01*
X185630765Y-136307428D01*
X185639030Y-136284329D01*
X185649520Y-136262150D01*
X185662132Y-136241107D01*
X185676747Y-136221401D01*
X185693223Y-136203223D01*
X185711401Y-136186747D01*
X185731107Y-136172132D01*
X185752150Y-136159520D01*
X185774329Y-136149030D01*
X185797428Y-136140765D01*
X185821227Y-136134804D01*
X185845495Y-136131204D01*
X185869999Y-136130000D01*
X186520001Y-136130000D01*
X186544505Y-136131204D01*
X186544505Y-136131204D01*
G37*
D12*
X186195000Y-136830000D03*
D11*
G36*
X188594505Y-136131204D02*
G01*
X188618773Y-136134804D01*
X188642572Y-136140765D01*
X188665671Y-136149030D01*
X188687850Y-136159520D01*
X188708893Y-136172132D01*
X188728599Y-136186747D01*
X188746777Y-136203223D01*
X188763253Y-136221401D01*
X188777868Y-136241107D01*
X188790480Y-136262150D01*
X188800970Y-136284329D01*
X188809235Y-136307428D01*
X188815196Y-136331227D01*
X188818796Y-136355495D01*
X188820000Y-136379999D01*
X188820000Y-137280001D01*
X188818796Y-137304505D01*
X188815196Y-137328773D01*
X188809235Y-137352572D01*
X188800970Y-137375671D01*
X188790480Y-137397850D01*
X188777868Y-137418893D01*
X188763253Y-137438599D01*
X188746777Y-137456777D01*
X188728599Y-137473253D01*
X188708893Y-137487868D01*
X188687850Y-137500480D01*
X188665671Y-137510970D01*
X188642572Y-137519235D01*
X188618773Y-137525196D01*
X188594505Y-137528796D01*
X188570001Y-137530000D01*
X187919999Y-137530000D01*
X187895495Y-137528796D01*
X187871227Y-137525196D01*
X187847428Y-137519235D01*
X187824329Y-137510970D01*
X187802150Y-137500480D01*
X187781107Y-137487868D01*
X187761401Y-137473253D01*
X187743223Y-137456777D01*
X187726747Y-137438599D01*
X187712132Y-137418893D01*
X187699520Y-137397850D01*
X187689030Y-137375671D01*
X187680765Y-137352572D01*
X187674804Y-137328773D01*
X187671204Y-137304505D01*
X187670000Y-137280001D01*
X187670000Y-136379999D01*
X187671204Y-136355495D01*
X187674804Y-136331227D01*
X187680765Y-136307428D01*
X187689030Y-136284329D01*
X187699520Y-136262150D01*
X187712132Y-136241107D01*
X187726747Y-136221401D01*
X187743223Y-136203223D01*
X187761401Y-136186747D01*
X187781107Y-136172132D01*
X187802150Y-136159520D01*
X187824329Y-136149030D01*
X187847428Y-136140765D01*
X187871227Y-136134804D01*
X187895495Y-136131204D01*
X187919999Y-136130000D01*
X188570001Y-136130000D01*
X188594505Y-136131204D01*
X188594505Y-136131204D01*
G37*
D12*
X188245000Y-136830000D03*
D11*
G36*
X185274505Y-118351204D02*
G01*
X185298773Y-118354804D01*
X185322572Y-118360765D01*
X185345671Y-118369030D01*
X185367850Y-118379520D01*
X185388893Y-118392132D01*
X185408599Y-118406747D01*
X185426777Y-118423223D01*
X185443253Y-118441401D01*
X185457868Y-118461107D01*
X185470480Y-118482150D01*
X185480970Y-118504329D01*
X185489235Y-118527428D01*
X185495196Y-118551227D01*
X185498796Y-118575495D01*
X185500000Y-118599999D01*
X185500000Y-119500001D01*
X185498796Y-119524505D01*
X185495196Y-119548773D01*
X185489235Y-119572572D01*
X185480970Y-119595671D01*
X185470480Y-119617850D01*
X185457868Y-119638893D01*
X185443253Y-119658599D01*
X185426777Y-119676777D01*
X185408599Y-119693253D01*
X185388893Y-119707868D01*
X185367850Y-119720480D01*
X185345671Y-119730970D01*
X185322572Y-119739235D01*
X185298773Y-119745196D01*
X185274505Y-119748796D01*
X185250001Y-119750000D01*
X184599999Y-119750000D01*
X184575495Y-119748796D01*
X184551227Y-119745196D01*
X184527428Y-119739235D01*
X184504329Y-119730970D01*
X184482150Y-119720480D01*
X184461107Y-119707868D01*
X184441401Y-119693253D01*
X184423223Y-119676777D01*
X184406747Y-119658599D01*
X184392132Y-119638893D01*
X184379520Y-119617850D01*
X184369030Y-119595671D01*
X184360765Y-119572572D01*
X184354804Y-119548773D01*
X184351204Y-119524505D01*
X184350000Y-119500001D01*
X184350000Y-118599999D01*
X184351204Y-118575495D01*
X184354804Y-118551227D01*
X184360765Y-118527428D01*
X184369030Y-118504329D01*
X184379520Y-118482150D01*
X184392132Y-118461107D01*
X184406747Y-118441401D01*
X184423223Y-118423223D01*
X184441401Y-118406747D01*
X184461107Y-118392132D01*
X184482150Y-118379520D01*
X184504329Y-118369030D01*
X184527428Y-118360765D01*
X184551227Y-118354804D01*
X184575495Y-118351204D01*
X184599999Y-118350000D01*
X185250001Y-118350000D01*
X185274505Y-118351204D01*
X185274505Y-118351204D01*
G37*
D12*
X184925000Y-119050000D03*
D11*
G36*
X183224505Y-118351204D02*
G01*
X183248773Y-118354804D01*
X183272572Y-118360765D01*
X183295671Y-118369030D01*
X183317850Y-118379520D01*
X183338893Y-118392132D01*
X183358599Y-118406747D01*
X183376777Y-118423223D01*
X183393253Y-118441401D01*
X183407868Y-118461107D01*
X183420480Y-118482150D01*
X183430970Y-118504329D01*
X183439235Y-118527428D01*
X183445196Y-118551227D01*
X183448796Y-118575495D01*
X183450000Y-118599999D01*
X183450000Y-119500001D01*
X183448796Y-119524505D01*
X183445196Y-119548773D01*
X183439235Y-119572572D01*
X183430970Y-119595671D01*
X183420480Y-119617850D01*
X183407868Y-119638893D01*
X183393253Y-119658599D01*
X183376777Y-119676777D01*
X183358599Y-119693253D01*
X183338893Y-119707868D01*
X183317850Y-119720480D01*
X183295671Y-119730970D01*
X183272572Y-119739235D01*
X183248773Y-119745196D01*
X183224505Y-119748796D01*
X183200001Y-119750000D01*
X182549999Y-119750000D01*
X182525495Y-119748796D01*
X182501227Y-119745196D01*
X182477428Y-119739235D01*
X182454329Y-119730970D01*
X182432150Y-119720480D01*
X182411107Y-119707868D01*
X182391401Y-119693253D01*
X182373223Y-119676777D01*
X182356747Y-119658599D01*
X182342132Y-119638893D01*
X182329520Y-119617850D01*
X182319030Y-119595671D01*
X182310765Y-119572572D01*
X182304804Y-119548773D01*
X182301204Y-119524505D01*
X182300000Y-119500001D01*
X182300000Y-118599999D01*
X182301204Y-118575495D01*
X182304804Y-118551227D01*
X182310765Y-118527428D01*
X182319030Y-118504329D01*
X182329520Y-118482150D01*
X182342132Y-118461107D01*
X182356747Y-118441401D01*
X182373223Y-118423223D01*
X182391401Y-118406747D01*
X182411107Y-118392132D01*
X182432150Y-118379520D01*
X182454329Y-118369030D01*
X182477428Y-118360765D01*
X182501227Y-118354804D01*
X182525495Y-118351204D01*
X182549999Y-118350000D01*
X183200001Y-118350000D01*
X183224505Y-118351204D01*
X183224505Y-118351204D01*
G37*
D12*
X182875000Y-119050000D03*
D11*
G36*
X188594505Y-110731204D02*
G01*
X188618773Y-110734804D01*
X188642572Y-110740765D01*
X188665671Y-110749030D01*
X188687850Y-110759520D01*
X188708893Y-110772132D01*
X188728599Y-110786747D01*
X188746777Y-110803223D01*
X188763253Y-110821401D01*
X188777868Y-110841107D01*
X188790480Y-110862150D01*
X188800970Y-110884329D01*
X188809235Y-110907428D01*
X188815196Y-110931227D01*
X188818796Y-110955495D01*
X188820000Y-110979999D01*
X188820000Y-111880001D01*
X188818796Y-111904505D01*
X188815196Y-111928773D01*
X188809235Y-111952572D01*
X188800970Y-111975671D01*
X188790480Y-111997850D01*
X188777868Y-112018893D01*
X188763253Y-112038599D01*
X188746777Y-112056777D01*
X188728599Y-112073253D01*
X188708893Y-112087868D01*
X188687850Y-112100480D01*
X188665671Y-112110970D01*
X188642572Y-112119235D01*
X188618773Y-112125196D01*
X188594505Y-112128796D01*
X188570001Y-112130000D01*
X187919999Y-112130000D01*
X187895495Y-112128796D01*
X187871227Y-112125196D01*
X187847428Y-112119235D01*
X187824329Y-112110970D01*
X187802150Y-112100480D01*
X187781107Y-112087868D01*
X187761401Y-112073253D01*
X187743223Y-112056777D01*
X187726747Y-112038599D01*
X187712132Y-112018893D01*
X187699520Y-111997850D01*
X187689030Y-111975671D01*
X187680765Y-111952572D01*
X187674804Y-111928773D01*
X187671204Y-111904505D01*
X187670000Y-111880001D01*
X187670000Y-110979999D01*
X187671204Y-110955495D01*
X187674804Y-110931227D01*
X187680765Y-110907428D01*
X187689030Y-110884329D01*
X187699520Y-110862150D01*
X187712132Y-110841107D01*
X187726747Y-110821401D01*
X187743223Y-110803223D01*
X187761401Y-110786747D01*
X187781107Y-110772132D01*
X187802150Y-110759520D01*
X187824329Y-110749030D01*
X187847428Y-110740765D01*
X187871227Y-110734804D01*
X187895495Y-110731204D01*
X187919999Y-110730000D01*
X188570001Y-110730000D01*
X188594505Y-110731204D01*
X188594505Y-110731204D01*
G37*
D12*
X188245000Y-111430000D03*
D11*
G36*
X186544505Y-110731204D02*
G01*
X186568773Y-110734804D01*
X186592572Y-110740765D01*
X186615671Y-110749030D01*
X186637850Y-110759520D01*
X186658893Y-110772132D01*
X186678599Y-110786747D01*
X186696777Y-110803223D01*
X186713253Y-110821401D01*
X186727868Y-110841107D01*
X186740480Y-110862150D01*
X186750970Y-110884329D01*
X186759235Y-110907428D01*
X186765196Y-110931227D01*
X186768796Y-110955495D01*
X186770000Y-110979999D01*
X186770000Y-111880001D01*
X186768796Y-111904505D01*
X186765196Y-111928773D01*
X186759235Y-111952572D01*
X186750970Y-111975671D01*
X186740480Y-111997850D01*
X186727868Y-112018893D01*
X186713253Y-112038599D01*
X186696777Y-112056777D01*
X186678599Y-112073253D01*
X186658893Y-112087868D01*
X186637850Y-112100480D01*
X186615671Y-112110970D01*
X186592572Y-112119235D01*
X186568773Y-112125196D01*
X186544505Y-112128796D01*
X186520001Y-112130000D01*
X185869999Y-112130000D01*
X185845495Y-112128796D01*
X185821227Y-112125196D01*
X185797428Y-112119235D01*
X185774329Y-112110970D01*
X185752150Y-112100480D01*
X185731107Y-112087868D01*
X185711401Y-112073253D01*
X185693223Y-112056777D01*
X185676747Y-112038599D01*
X185662132Y-112018893D01*
X185649520Y-111997850D01*
X185639030Y-111975671D01*
X185630765Y-111952572D01*
X185624804Y-111928773D01*
X185621204Y-111904505D01*
X185620000Y-111880001D01*
X185620000Y-110979999D01*
X185621204Y-110955495D01*
X185624804Y-110931227D01*
X185630765Y-110907428D01*
X185639030Y-110884329D01*
X185649520Y-110862150D01*
X185662132Y-110841107D01*
X185676747Y-110821401D01*
X185693223Y-110803223D01*
X185711401Y-110786747D01*
X185731107Y-110772132D01*
X185752150Y-110759520D01*
X185774329Y-110749030D01*
X185797428Y-110740765D01*
X185821227Y-110734804D01*
X185845495Y-110731204D01*
X185869999Y-110730000D01*
X186520001Y-110730000D01*
X186544505Y-110731204D01*
X186544505Y-110731204D01*
G37*
D12*
X186195000Y-111430000D03*
D11*
G36*
X183494505Y-101966204D02*
G01*
X183518773Y-101969804D01*
X183542572Y-101975765D01*
X183565671Y-101984030D01*
X183587850Y-101994520D01*
X183608893Y-102007132D01*
X183628599Y-102021747D01*
X183646777Y-102038223D01*
X183663253Y-102056401D01*
X183677868Y-102076107D01*
X183690480Y-102097150D01*
X183700970Y-102119329D01*
X183709235Y-102142428D01*
X183715196Y-102166227D01*
X183718796Y-102190495D01*
X183720000Y-102214999D01*
X183720000Y-102865001D01*
X183718796Y-102889505D01*
X183715196Y-102913773D01*
X183709235Y-102937572D01*
X183700970Y-102960671D01*
X183690480Y-102982850D01*
X183677868Y-103003893D01*
X183663253Y-103023599D01*
X183646777Y-103041777D01*
X183628599Y-103058253D01*
X183608893Y-103072868D01*
X183587850Y-103085480D01*
X183565671Y-103095970D01*
X183542572Y-103104235D01*
X183518773Y-103110196D01*
X183494505Y-103113796D01*
X183470001Y-103115000D01*
X182569999Y-103115000D01*
X182545495Y-103113796D01*
X182521227Y-103110196D01*
X182497428Y-103104235D01*
X182474329Y-103095970D01*
X182452150Y-103085480D01*
X182431107Y-103072868D01*
X182411401Y-103058253D01*
X182393223Y-103041777D01*
X182376747Y-103023599D01*
X182362132Y-103003893D01*
X182349520Y-102982850D01*
X182339030Y-102960671D01*
X182330765Y-102937572D01*
X182324804Y-102913773D01*
X182321204Y-102889505D01*
X182320000Y-102865001D01*
X182320000Y-102214999D01*
X182321204Y-102190495D01*
X182324804Y-102166227D01*
X182330765Y-102142428D01*
X182339030Y-102119329D01*
X182349520Y-102097150D01*
X182362132Y-102076107D01*
X182376747Y-102056401D01*
X182393223Y-102038223D01*
X182411401Y-102021747D01*
X182431107Y-102007132D01*
X182452150Y-101994520D01*
X182474329Y-101984030D01*
X182497428Y-101975765D01*
X182521227Y-101969804D01*
X182545495Y-101966204D01*
X182569999Y-101965000D01*
X183470001Y-101965000D01*
X183494505Y-101966204D01*
X183494505Y-101966204D01*
G37*
D12*
X183020000Y-102540000D03*
D11*
G36*
X183494505Y-104016204D02*
G01*
X183518773Y-104019804D01*
X183542572Y-104025765D01*
X183565671Y-104034030D01*
X183587850Y-104044520D01*
X183608893Y-104057132D01*
X183628599Y-104071747D01*
X183646777Y-104088223D01*
X183663253Y-104106401D01*
X183677868Y-104126107D01*
X183690480Y-104147150D01*
X183700970Y-104169329D01*
X183709235Y-104192428D01*
X183715196Y-104216227D01*
X183718796Y-104240495D01*
X183720000Y-104264999D01*
X183720000Y-104915001D01*
X183718796Y-104939505D01*
X183715196Y-104963773D01*
X183709235Y-104987572D01*
X183700970Y-105010671D01*
X183690480Y-105032850D01*
X183677868Y-105053893D01*
X183663253Y-105073599D01*
X183646777Y-105091777D01*
X183628599Y-105108253D01*
X183608893Y-105122868D01*
X183587850Y-105135480D01*
X183565671Y-105145970D01*
X183542572Y-105154235D01*
X183518773Y-105160196D01*
X183494505Y-105163796D01*
X183470001Y-105165000D01*
X182569999Y-105165000D01*
X182545495Y-105163796D01*
X182521227Y-105160196D01*
X182497428Y-105154235D01*
X182474329Y-105145970D01*
X182452150Y-105135480D01*
X182431107Y-105122868D01*
X182411401Y-105108253D01*
X182393223Y-105091777D01*
X182376747Y-105073599D01*
X182362132Y-105053893D01*
X182349520Y-105032850D01*
X182339030Y-105010671D01*
X182330765Y-104987572D01*
X182324804Y-104963773D01*
X182321204Y-104939505D01*
X182320000Y-104915001D01*
X182320000Y-104264999D01*
X182321204Y-104240495D01*
X182324804Y-104216227D01*
X182330765Y-104192428D01*
X182339030Y-104169329D01*
X182349520Y-104147150D01*
X182362132Y-104126107D01*
X182376747Y-104106401D01*
X182393223Y-104088223D01*
X182411401Y-104071747D01*
X182431107Y-104057132D01*
X182452150Y-104044520D01*
X182474329Y-104034030D01*
X182497428Y-104025765D01*
X182521227Y-104019804D01*
X182545495Y-104016204D01*
X182569999Y-104015000D01*
X183470001Y-104015000D01*
X183494505Y-104016204D01*
X183494505Y-104016204D01*
G37*
D12*
X183020000Y-104590000D03*
D11*
G36*
X198734505Y-101086204D02*
G01*
X198758773Y-101089804D01*
X198782572Y-101095765D01*
X198805671Y-101104030D01*
X198827850Y-101114520D01*
X198848893Y-101127132D01*
X198868599Y-101141747D01*
X198886777Y-101158223D01*
X198903253Y-101176401D01*
X198917868Y-101196107D01*
X198930480Y-101217150D01*
X198940970Y-101239329D01*
X198949235Y-101262428D01*
X198955196Y-101286227D01*
X198958796Y-101310495D01*
X198960000Y-101334999D01*
X198960000Y-101985001D01*
X198958796Y-102009505D01*
X198955196Y-102033773D01*
X198949235Y-102057572D01*
X198940970Y-102080671D01*
X198930480Y-102102850D01*
X198917868Y-102123893D01*
X198903253Y-102143599D01*
X198886777Y-102161777D01*
X198868599Y-102178253D01*
X198848893Y-102192868D01*
X198827850Y-102205480D01*
X198805671Y-102215970D01*
X198782572Y-102224235D01*
X198758773Y-102230196D01*
X198734505Y-102233796D01*
X198710001Y-102235000D01*
X197809999Y-102235000D01*
X197785495Y-102233796D01*
X197761227Y-102230196D01*
X197737428Y-102224235D01*
X197714329Y-102215970D01*
X197692150Y-102205480D01*
X197671107Y-102192868D01*
X197651401Y-102178253D01*
X197633223Y-102161777D01*
X197616747Y-102143599D01*
X197602132Y-102123893D01*
X197589520Y-102102850D01*
X197579030Y-102080671D01*
X197570765Y-102057572D01*
X197564804Y-102033773D01*
X197561204Y-102009505D01*
X197560000Y-101985001D01*
X197560000Y-101334999D01*
X197561204Y-101310495D01*
X197564804Y-101286227D01*
X197570765Y-101262428D01*
X197579030Y-101239329D01*
X197589520Y-101217150D01*
X197602132Y-101196107D01*
X197616747Y-101176401D01*
X197633223Y-101158223D01*
X197651401Y-101141747D01*
X197671107Y-101127132D01*
X197692150Y-101114520D01*
X197714329Y-101104030D01*
X197737428Y-101095765D01*
X197761227Y-101089804D01*
X197785495Y-101086204D01*
X197809999Y-101085000D01*
X198710001Y-101085000D01*
X198734505Y-101086204D01*
X198734505Y-101086204D01*
G37*
D12*
X198260000Y-101660000D03*
D11*
G36*
X198734505Y-99036204D02*
G01*
X198758773Y-99039804D01*
X198782572Y-99045765D01*
X198805671Y-99054030D01*
X198827850Y-99064520D01*
X198848893Y-99077132D01*
X198868599Y-99091747D01*
X198886777Y-99108223D01*
X198903253Y-99126401D01*
X198917868Y-99146107D01*
X198930480Y-99167150D01*
X198940970Y-99189329D01*
X198949235Y-99212428D01*
X198955196Y-99236227D01*
X198958796Y-99260495D01*
X198960000Y-99284999D01*
X198960000Y-99935001D01*
X198958796Y-99959505D01*
X198955196Y-99983773D01*
X198949235Y-100007572D01*
X198940970Y-100030671D01*
X198930480Y-100052850D01*
X198917868Y-100073893D01*
X198903253Y-100093599D01*
X198886777Y-100111777D01*
X198868599Y-100128253D01*
X198848893Y-100142868D01*
X198827850Y-100155480D01*
X198805671Y-100165970D01*
X198782572Y-100174235D01*
X198758773Y-100180196D01*
X198734505Y-100183796D01*
X198710001Y-100185000D01*
X197809999Y-100185000D01*
X197785495Y-100183796D01*
X197761227Y-100180196D01*
X197737428Y-100174235D01*
X197714329Y-100165970D01*
X197692150Y-100155480D01*
X197671107Y-100142868D01*
X197651401Y-100128253D01*
X197633223Y-100111777D01*
X197616747Y-100093599D01*
X197602132Y-100073893D01*
X197589520Y-100052850D01*
X197579030Y-100030671D01*
X197570765Y-100007572D01*
X197564804Y-99983773D01*
X197561204Y-99959505D01*
X197560000Y-99935001D01*
X197560000Y-99284999D01*
X197561204Y-99260495D01*
X197564804Y-99236227D01*
X197570765Y-99212428D01*
X197579030Y-99189329D01*
X197589520Y-99167150D01*
X197602132Y-99146107D01*
X197616747Y-99126401D01*
X197633223Y-99108223D01*
X197651401Y-99091747D01*
X197671107Y-99077132D01*
X197692150Y-99064520D01*
X197714329Y-99054030D01*
X197737428Y-99045765D01*
X197761227Y-99039804D01*
X197785495Y-99036204D01*
X197809999Y-99035000D01*
X198710001Y-99035000D01*
X198734505Y-99036204D01*
X198734505Y-99036204D01*
G37*
D12*
X198260000Y-99610000D03*
D11*
G36*
X186544505Y-108191204D02*
G01*
X186568773Y-108194804D01*
X186592572Y-108200765D01*
X186615671Y-108209030D01*
X186637850Y-108219520D01*
X186658893Y-108232132D01*
X186678599Y-108246747D01*
X186696777Y-108263223D01*
X186713253Y-108281401D01*
X186727868Y-108301107D01*
X186740480Y-108322150D01*
X186750970Y-108344329D01*
X186759235Y-108367428D01*
X186765196Y-108391227D01*
X186768796Y-108415495D01*
X186770000Y-108439999D01*
X186770000Y-109340001D01*
X186768796Y-109364505D01*
X186765196Y-109388773D01*
X186759235Y-109412572D01*
X186750970Y-109435671D01*
X186740480Y-109457850D01*
X186727868Y-109478893D01*
X186713253Y-109498599D01*
X186696777Y-109516777D01*
X186678599Y-109533253D01*
X186658893Y-109547868D01*
X186637850Y-109560480D01*
X186615671Y-109570970D01*
X186592572Y-109579235D01*
X186568773Y-109585196D01*
X186544505Y-109588796D01*
X186520001Y-109590000D01*
X185869999Y-109590000D01*
X185845495Y-109588796D01*
X185821227Y-109585196D01*
X185797428Y-109579235D01*
X185774329Y-109570970D01*
X185752150Y-109560480D01*
X185731107Y-109547868D01*
X185711401Y-109533253D01*
X185693223Y-109516777D01*
X185676747Y-109498599D01*
X185662132Y-109478893D01*
X185649520Y-109457850D01*
X185639030Y-109435671D01*
X185630765Y-109412572D01*
X185624804Y-109388773D01*
X185621204Y-109364505D01*
X185620000Y-109340001D01*
X185620000Y-108439999D01*
X185621204Y-108415495D01*
X185624804Y-108391227D01*
X185630765Y-108367428D01*
X185639030Y-108344329D01*
X185649520Y-108322150D01*
X185662132Y-108301107D01*
X185676747Y-108281401D01*
X185693223Y-108263223D01*
X185711401Y-108246747D01*
X185731107Y-108232132D01*
X185752150Y-108219520D01*
X185774329Y-108209030D01*
X185797428Y-108200765D01*
X185821227Y-108194804D01*
X185845495Y-108191204D01*
X185869999Y-108190000D01*
X186520001Y-108190000D01*
X186544505Y-108191204D01*
X186544505Y-108191204D01*
G37*
D12*
X186195000Y-108890000D03*
D11*
G36*
X188594505Y-108191204D02*
G01*
X188618773Y-108194804D01*
X188642572Y-108200765D01*
X188665671Y-108209030D01*
X188687850Y-108219520D01*
X188708893Y-108232132D01*
X188728599Y-108246747D01*
X188746777Y-108263223D01*
X188763253Y-108281401D01*
X188777868Y-108301107D01*
X188790480Y-108322150D01*
X188800970Y-108344329D01*
X188809235Y-108367428D01*
X188815196Y-108391227D01*
X188818796Y-108415495D01*
X188820000Y-108439999D01*
X188820000Y-109340001D01*
X188818796Y-109364505D01*
X188815196Y-109388773D01*
X188809235Y-109412572D01*
X188800970Y-109435671D01*
X188790480Y-109457850D01*
X188777868Y-109478893D01*
X188763253Y-109498599D01*
X188746777Y-109516777D01*
X188728599Y-109533253D01*
X188708893Y-109547868D01*
X188687850Y-109560480D01*
X188665671Y-109570970D01*
X188642572Y-109579235D01*
X188618773Y-109585196D01*
X188594505Y-109588796D01*
X188570001Y-109590000D01*
X187919999Y-109590000D01*
X187895495Y-109588796D01*
X187871227Y-109585196D01*
X187847428Y-109579235D01*
X187824329Y-109570970D01*
X187802150Y-109560480D01*
X187781107Y-109547868D01*
X187761401Y-109533253D01*
X187743223Y-109516777D01*
X187726747Y-109498599D01*
X187712132Y-109478893D01*
X187699520Y-109457850D01*
X187689030Y-109435671D01*
X187680765Y-109412572D01*
X187674804Y-109388773D01*
X187671204Y-109364505D01*
X187670000Y-109340001D01*
X187670000Y-108439999D01*
X187671204Y-108415495D01*
X187674804Y-108391227D01*
X187680765Y-108367428D01*
X187689030Y-108344329D01*
X187699520Y-108322150D01*
X187712132Y-108301107D01*
X187726747Y-108281401D01*
X187743223Y-108263223D01*
X187761401Y-108246747D01*
X187781107Y-108232132D01*
X187802150Y-108219520D01*
X187824329Y-108209030D01*
X187847428Y-108200765D01*
X187871227Y-108194804D01*
X187895495Y-108191204D01*
X187919999Y-108190000D01*
X188570001Y-108190000D01*
X188594505Y-108191204D01*
X188594505Y-108191204D01*
G37*
D12*
X188245000Y-108890000D03*
D11*
G36*
X185274505Y-90411204D02*
G01*
X185298773Y-90414804D01*
X185322572Y-90420765D01*
X185345671Y-90429030D01*
X185367850Y-90439520D01*
X185388893Y-90452132D01*
X185408599Y-90466747D01*
X185426777Y-90483223D01*
X185443253Y-90501401D01*
X185457868Y-90521107D01*
X185470480Y-90542150D01*
X185480970Y-90564329D01*
X185489235Y-90587428D01*
X185495196Y-90611227D01*
X185498796Y-90635495D01*
X185500000Y-90659999D01*
X185500000Y-91560001D01*
X185498796Y-91584505D01*
X185495196Y-91608773D01*
X185489235Y-91632572D01*
X185480970Y-91655671D01*
X185470480Y-91677850D01*
X185457868Y-91698893D01*
X185443253Y-91718599D01*
X185426777Y-91736777D01*
X185408599Y-91753253D01*
X185388893Y-91767868D01*
X185367850Y-91780480D01*
X185345671Y-91790970D01*
X185322572Y-91799235D01*
X185298773Y-91805196D01*
X185274505Y-91808796D01*
X185250001Y-91810000D01*
X184599999Y-91810000D01*
X184575495Y-91808796D01*
X184551227Y-91805196D01*
X184527428Y-91799235D01*
X184504329Y-91790970D01*
X184482150Y-91780480D01*
X184461107Y-91767868D01*
X184441401Y-91753253D01*
X184423223Y-91736777D01*
X184406747Y-91718599D01*
X184392132Y-91698893D01*
X184379520Y-91677850D01*
X184369030Y-91655671D01*
X184360765Y-91632572D01*
X184354804Y-91608773D01*
X184351204Y-91584505D01*
X184350000Y-91560001D01*
X184350000Y-90659999D01*
X184351204Y-90635495D01*
X184354804Y-90611227D01*
X184360765Y-90587428D01*
X184369030Y-90564329D01*
X184379520Y-90542150D01*
X184392132Y-90521107D01*
X184406747Y-90501401D01*
X184423223Y-90483223D01*
X184441401Y-90466747D01*
X184461107Y-90452132D01*
X184482150Y-90439520D01*
X184504329Y-90429030D01*
X184527428Y-90420765D01*
X184551227Y-90414804D01*
X184575495Y-90411204D01*
X184599999Y-90410000D01*
X185250001Y-90410000D01*
X185274505Y-90411204D01*
X185274505Y-90411204D01*
G37*
D12*
X184925000Y-91110000D03*
D11*
G36*
X183224505Y-90411204D02*
G01*
X183248773Y-90414804D01*
X183272572Y-90420765D01*
X183295671Y-90429030D01*
X183317850Y-90439520D01*
X183338893Y-90452132D01*
X183358599Y-90466747D01*
X183376777Y-90483223D01*
X183393253Y-90501401D01*
X183407868Y-90521107D01*
X183420480Y-90542150D01*
X183430970Y-90564329D01*
X183439235Y-90587428D01*
X183445196Y-90611227D01*
X183448796Y-90635495D01*
X183450000Y-90659999D01*
X183450000Y-91560001D01*
X183448796Y-91584505D01*
X183445196Y-91608773D01*
X183439235Y-91632572D01*
X183430970Y-91655671D01*
X183420480Y-91677850D01*
X183407868Y-91698893D01*
X183393253Y-91718599D01*
X183376777Y-91736777D01*
X183358599Y-91753253D01*
X183338893Y-91767868D01*
X183317850Y-91780480D01*
X183295671Y-91790970D01*
X183272572Y-91799235D01*
X183248773Y-91805196D01*
X183224505Y-91808796D01*
X183200001Y-91810000D01*
X182549999Y-91810000D01*
X182525495Y-91808796D01*
X182501227Y-91805196D01*
X182477428Y-91799235D01*
X182454329Y-91790970D01*
X182432150Y-91780480D01*
X182411107Y-91767868D01*
X182391401Y-91753253D01*
X182373223Y-91736777D01*
X182356747Y-91718599D01*
X182342132Y-91698893D01*
X182329520Y-91677850D01*
X182319030Y-91655671D01*
X182310765Y-91632572D01*
X182304804Y-91608773D01*
X182301204Y-91584505D01*
X182300000Y-91560001D01*
X182300000Y-90659999D01*
X182301204Y-90635495D01*
X182304804Y-90611227D01*
X182310765Y-90587428D01*
X182319030Y-90564329D01*
X182329520Y-90542150D01*
X182342132Y-90521107D01*
X182356747Y-90501401D01*
X182373223Y-90483223D01*
X182391401Y-90466747D01*
X182411107Y-90452132D01*
X182432150Y-90439520D01*
X182454329Y-90429030D01*
X182477428Y-90420765D01*
X182501227Y-90414804D01*
X182525495Y-90411204D01*
X182549999Y-90410000D01*
X183200001Y-90410000D01*
X183224505Y-90411204D01*
X183224505Y-90411204D01*
G37*
D12*
X182875000Y-91110000D03*
D11*
G36*
X188594505Y-82791204D02*
G01*
X188618773Y-82794804D01*
X188642572Y-82800765D01*
X188665671Y-82809030D01*
X188687850Y-82819520D01*
X188708893Y-82832132D01*
X188728599Y-82846747D01*
X188746777Y-82863223D01*
X188763253Y-82881401D01*
X188777868Y-82901107D01*
X188790480Y-82922150D01*
X188800970Y-82944329D01*
X188809235Y-82967428D01*
X188815196Y-82991227D01*
X188818796Y-83015495D01*
X188820000Y-83039999D01*
X188820000Y-83940001D01*
X188818796Y-83964505D01*
X188815196Y-83988773D01*
X188809235Y-84012572D01*
X188800970Y-84035671D01*
X188790480Y-84057850D01*
X188777868Y-84078893D01*
X188763253Y-84098599D01*
X188746777Y-84116777D01*
X188728599Y-84133253D01*
X188708893Y-84147868D01*
X188687850Y-84160480D01*
X188665671Y-84170970D01*
X188642572Y-84179235D01*
X188618773Y-84185196D01*
X188594505Y-84188796D01*
X188570001Y-84190000D01*
X187919999Y-84190000D01*
X187895495Y-84188796D01*
X187871227Y-84185196D01*
X187847428Y-84179235D01*
X187824329Y-84170970D01*
X187802150Y-84160480D01*
X187781107Y-84147868D01*
X187761401Y-84133253D01*
X187743223Y-84116777D01*
X187726747Y-84098599D01*
X187712132Y-84078893D01*
X187699520Y-84057850D01*
X187689030Y-84035671D01*
X187680765Y-84012572D01*
X187674804Y-83988773D01*
X187671204Y-83964505D01*
X187670000Y-83940001D01*
X187670000Y-83039999D01*
X187671204Y-83015495D01*
X187674804Y-82991227D01*
X187680765Y-82967428D01*
X187689030Y-82944329D01*
X187699520Y-82922150D01*
X187712132Y-82901107D01*
X187726747Y-82881401D01*
X187743223Y-82863223D01*
X187761401Y-82846747D01*
X187781107Y-82832132D01*
X187802150Y-82819520D01*
X187824329Y-82809030D01*
X187847428Y-82800765D01*
X187871227Y-82794804D01*
X187895495Y-82791204D01*
X187919999Y-82790000D01*
X188570001Y-82790000D01*
X188594505Y-82791204D01*
X188594505Y-82791204D01*
G37*
D12*
X188245000Y-83490000D03*
D11*
G36*
X186544505Y-82791204D02*
G01*
X186568773Y-82794804D01*
X186592572Y-82800765D01*
X186615671Y-82809030D01*
X186637850Y-82819520D01*
X186658893Y-82832132D01*
X186678599Y-82846747D01*
X186696777Y-82863223D01*
X186713253Y-82881401D01*
X186727868Y-82901107D01*
X186740480Y-82922150D01*
X186750970Y-82944329D01*
X186759235Y-82967428D01*
X186765196Y-82991227D01*
X186768796Y-83015495D01*
X186770000Y-83039999D01*
X186770000Y-83940001D01*
X186768796Y-83964505D01*
X186765196Y-83988773D01*
X186759235Y-84012572D01*
X186750970Y-84035671D01*
X186740480Y-84057850D01*
X186727868Y-84078893D01*
X186713253Y-84098599D01*
X186696777Y-84116777D01*
X186678599Y-84133253D01*
X186658893Y-84147868D01*
X186637850Y-84160480D01*
X186615671Y-84170970D01*
X186592572Y-84179235D01*
X186568773Y-84185196D01*
X186544505Y-84188796D01*
X186520001Y-84190000D01*
X185869999Y-84190000D01*
X185845495Y-84188796D01*
X185821227Y-84185196D01*
X185797428Y-84179235D01*
X185774329Y-84170970D01*
X185752150Y-84160480D01*
X185731107Y-84147868D01*
X185711401Y-84133253D01*
X185693223Y-84116777D01*
X185676747Y-84098599D01*
X185662132Y-84078893D01*
X185649520Y-84057850D01*
X185639030Y-84035671D01*
X185630765Y-84012572D01*
X185624804Y-83988773D01*
X185621204Y-83964505D01*
X185620000Y-83940001D01*
X185620000Y-83039999D01*
X185621204Y-83015495D01*
X185624804Y-82991227D01*
X185630765Y-82967428D01*
X185639030Y-82944329D01*
X185649520Y-82922150D01*
X185662132Y-82901107D01*
X185676747Y-82881401D01*
X185693223Y-82863223D01*
X185711401Y-82846747D01*
X185731107Y-82832132D01*
X185752150Y-82819520D01*
X185774329Y-82809030D01*
X185797428Y-82800765D01*
X185821227Y-82794804D01*
X185845495Y-82791204D01*
X185869999Y-82790000D01*
X186520001Y-82790000D01*
X186544505Y-82791204D01*
X186544505Y-82791204D01*
G37*
D12*
X186195000Y-83490000D03*
D11*
G36*
X183494505Y-74026204D02*
G01*
X183518773Y-74029804D01*
X183542572Y-74035765D01*
X183565671Y-74044030D01*
X183587850Y-74054520D01*
X183608893Y-74067132D01*
X183628599Y-74081747D01*
X183646777Y-74098223D01*
X183663253Y-74116401D01*
X183677868Y-74136107D01*
X183690480Y-74157150D01*
X183700970Y-74179329D01*
X183709235Y-74202428D01*
X183715196Y-74226227D01*
X183718796Y-74250495D01*
X183720000Y-74274999D01*
X183720000Y-74925001D01*
X183718796Y-74949505D01*
X183715196Y-74973773D01*
X183709235Y-74997572D01*
X183700970Y-75020671D01*
X183690480Y-75042850D01*
X183677868Y-75063893D01*
X183663253Y-75083599D01*
X183646777Y-75101777D01*
X183628599Y-75118253D01*
X183608893Y-75132868D01*
X183587850Y-75145480D01*
X183565671Y-75155970D01*
X183542572Y-75164235D01*
X183518773Y-75170196D01*
X183494505Y-75173796D01*
X183470001Y-75175000D01*
X182569999Y-75175000D01*
X182545495Y-75173796D01*
X182521227Y-75170196D01*
X182497428Y-75164235D01*
X182474329Y-75155970D01*
X182452150Y-75145480D01*
X182431107Y-75132868D01*
X182411401Y-75118253D01*
X182393223Y-75101777D01*
X182376747Y-75083599D01*
X182362132Y-75063893D01*
X182349520Y-75042850D01*
X182339030Y-75020671D01*
X182330765Y-74997572D01*
X182324804Y-74973773D01*
X182321204Y-74949505D01*
X182320000Y-74925001D01*
X182320000Y-74274999D01*
X182321204Y-74250495D01*
X182324804Y-74226227D01*
X182330765Y-74202428D01*
X182339030Y-74179329D01*
X182349520Y-74157150D01*
X182362132Y-74136107D01*
X182376747Y-74116401D01*
X182393223Y-74098223D01*
X182411401Y-74081747D01*
X182431107Y-74067132D01*
X182452150Y-74054520D01*
X182474329Y-74044030D01*
X182497428Y-74035765D01*
X182521227Y-74029804D01*
X182545495Y-74026204D01*
X182569999Y-74025000D01*
X183470001Y-74025000D01*
X183494505Y-74026204D01*
X183494505Y-74026204D01*
G37*
D12*
X183020000Y-74600000D03*
D11*
G36*
X183494505Y-76076204D02*
G01*
X183518773Y-76079804D01*
X183542572Y-76085765D01*
X183565671Y-76094030D01*
X183587850Y-76104520D01*
X183608893Y-76117132D01*
X183628599Y-76131747D01*
X183646777Y-76148223D01*
X183663253Y-76166401D01*
X183677868Y-76186107D01*
X183690480Y-76207150D01*
X183700970Y-76229329D01*
X183709235Y-76252428D01*
X183715196Y-76276227D01*
X183718796Y-76300495D01*
X183720000Y-76324999D01*
X183720000Y-76975001D01*
X183718796Y-76999505D01*
X183715196Y-77023773D01*
X183709235Y-77047572D01*
X183700970Y-77070671D01*
X183690480Y-77092850D01*
X183677868Y-77113893D01*
X183663253Y-77133599D01*
X183646777Y-77151777D01*
X183628599Y-77168253D01*
X183608893Y-77182868D01*
X183587850Y-77195480D01*
X183565671Y-77205970D01*
X183542572Y-77214235D01*
X183518773Y-77220196D01*
X183494505Y-77223796D01*
X183470001Y-77225000D01*
X182569999Y-77225000D01*
X182545495Y-77223796D01*
X182521227Y-77220196D01*
X182497428Y-77214235D01*
X182474329Y-77205970D01*
X182452150Y-77195480D01*
X182431107Y-77182868D01*
X182411401Y-77168253D01*
X182393223Y-77151777D01*
X182376747Y-77133599D01*
X182362132Y-77113893D01*
X182349520Y-77092850D01*
X182339030Y-77070671D01*
X182330765Y-77047572D01*
X182324804Y-77023773D01*
X182321204Y-76999505D01*
X182320000Y-76975001D01*
X182320000Y-76324999D01*
X182321204Y-76300495D01*
X182324804Y-76276227D01*
X182330765Y-76252428D01*
X182339030Y-76229329D01*
X182349520Y-76207150D01*
X182362132Y-76186107D01*
X182376747Y-76166401D01*
X182393223Y-76148223D01*
X182411401Y-76131747D01*
X182431107Y-76117132D01*
X182452150Y-76104520D01*
X182474329Y-76094030D01*
X182497428Y-76085765D01*
X182521227Y-76079804D01*
X182545495Y-76076204D01*
X182569999Y-76075000D01*
X183470001Y-76075000D01*
X183494505Y-76076204D01*
X183494505Y-76076204D01*
G37*
D12*
X183020000Y-76650000D03*
D11*
G36*
X198734505Y-73146204D02*
G01*
X198758773Y-73149804D01*
X198782572Y-73155765D01*
X198805671Y-73164030D01*
X198827850Y-73174520D01*
X198848893Y-73187132D01*
X198868599Y-73201747D01*
X198886777Y-73218223D01*
X198903253Y-73236401D01*
X198917868Y-73256107D01*
X198930480Y-73277150D01*
X198940970Y-73299329D01*
X198949235Y-73322428D01*
X198955196Y-73346227D01*
X198958796Y-73370495D01*
X198960000Y-73394999D01*
X198960000Y-74045001D01*
X198958796Y-74069505D01*
X198955196Y-74093773D01*
X198949235Y-74117572D01*
X198940970Y-74140671D01*
X198930480Y-74162850D01*
X198917868Y-74183893D01*
X198903253Y-74203599D01*
X198886777Y-74221777D01*
X198868599Y-74238253D01*
X198848893Y-74252868D01*
X198827850Y-74265480D01*
X198805671Y-74275970D01*
X198782572Y-74284235D01*
X198758773Y-74290196D01*
X198734505Y-74293796D01*
X198710001Y-74295000D01*
X197809999Y-74295000D01*
X197785495Y-74293796D01*
X197761227Y-74290196D01*
X197737428Y-74284235D01*
X197714329Y-74275970D01*
X197692150Y-74265480D01*
X197671107Y-74252868D01*
X197651401Y-74238253D01*
X197633223Y-74221777D01*
X197616747Y-74203599D01*
X197602132Y-74183893D01*
X197589520Y-74162850D01*
X197579030Y-74140671D01*
X197570765Y-74117572D01*
X197564804Y-74093773D01*
X197561204Y-74069505D01*
X197560000Y-74045001D01*
X197560000Y-73394999D01*
X197561204Y-73370495D01*
X197564804Y-73346227D01*
X197570765Y-73322428D01*
X197579030Y-73299329D01*
X197589520Y-73277150D01*
X197602132Y-73256107D01*
X197616747Y-73236401D01*
X197633223Y-73218223D01*
X197651401Y-73201747D01*
X197671107Y-73187132D01*
X197692150Y-73174520D01*
X197714329Y-73164030D01*
X197737428Y-73155765D01*
X197761227Y-73149804D01*
X197785495Y-73146204D01*
X197809999Y-73145000D01*
X198710001Y-73145000D01*
X198734505Y-73146204D01*
X198734505Y-73146204D01*
G37*
D12*
X198260000Y-73720000D03*
D11*
G36*
X198734505Y-71096204D02*
G01*
X198758773Y-71099804D01*
X198782572Y-71105765D01*
X198805671Y-71114030D01*
X198827850Y-71124520D01*
X198848893Y-71137132D01*
X198868599Y-71151747D01*
X198886777Y-71168223D01*
X198903253Y-71186401D01*
X198917868Y-71206107D01*
X198930480Y-71227150D01*
X198940970Y-71249329D01*
X198949235Y-71272428D01*
X198955196Y-71296227D01*
X198958796Y-71320495D01*
X198960000Y-71344999D01*
X198960000Y-71995001D01*
X198958796Y-72019505D01*
X198955196Y-72043773D01*
X198949235Y-72067572D01*
X198940970Y-72090671D01*
X198930480Y-72112850D01*
X198917868Y-72133893D01*
X198903253Y-72153599D01*
X198886777Y-72171777D01*
X198868599Y-72188253D01*
X198848893Y-72202868D01*
X198827850Y-72215480D01*
X198805671Y-72225970D01*
X198782572Y-72234235D01*
X198758773Y-72240196D01*
X198734505Y-72243796D01*
X198710001Y-72245000D01*
X197809999Y-72245000D01*
X197785495Y-72243796D01*
X197761227Y-72240196D01*
X197737428Y-72234235D01*
X197714329Y-72225970D01*
X197692150Y-72215480D01*
X197671107Y-72202868D01*
X197651401Y-72188253D01*
X197633223Y-72171777D01*
X197616747Y-72153599D01*
X197602132Y-72133893D01*
X197589520Y-72112850D01*
X197579030Y-72090671D01*
X197570765Y-72067572D01*
X197564804Y-72043773D01*
X197561204Y-72019505D01*
X197560000Y-71995001D01*
X197560000Y-71344999D01*
X197561204Y-71320495D01*
X197564804Y-71296227D01*
X197570765Y-71272428D01*
X197579030Y-71249329D01*
X197589520Y-71227150D01*
X197602132Y-71206107D01*
X197616747Y-71186401D01*
X197633223Y-71168223D01*
X197651401Y-71151747D01*
X197671107Y-71137132D01*
X197692150Y-71124520D01*
X197714329Y-71114030D01*
X197737428Y-71105765D01*
X197761227Y-71099804D01*
X197785495Y-71096204D01*
X197809999Y-71095000D01*
X198710001Y-71095000D01*
X198734505Y-71096204D01*
X198734505Y-71096204D01*
G37*
D12*
X198260000Y-71670000D03*
D11*
G36*
X186544505Y-80251204D02*
G01*
X186568773Y-80254804D01*
X186592572Y-80260765D01*
X186615671Y-80269030D01*
X186637850Y-80279520D01*
X186658893Y-80292132D01*
X186678599Y-80306747D01*
X186696777Y-80323223D01*
X186713253Y-80341401D01*
X186727868Y-80361107D01*
X186740480Y-80382150D01*
X186750970Y-80404329D01*
X186759235Y-80427428D01*
X186765196Y-80451227D01*
X186768796Y-80475495D01*
X186770000Y-80499999D01*
X186770000Y-81400001D01*
X186768796Y-81424505D01*
X186765196Y-81448773D01*
X186759235Y-81472572D01*
X186750970Y-81495671D01*
X186740480Y-81517850D01*
X186727868Y-81538893D01*
X186713253Y-81558599D01*
X186696777Y-81576777D01*
X186678599Y-81593253D01*
X186658893Y-81607868D01*
X186637850Y-81620480D01*
X186615671Y-81630970D01*
X186592572Y-81639235D01*
X186568773Y-81645196D01*
X186544505Y-81648796D01*
X186520001Y-81650000D01*
X185869999Y-81650000D01*
X185845495Y-81648796D01*
X185821227Y-81645196D01*
X185797428Y-81639235D01*
X185774329Y-81630970D01*
X185752150Y-81620480D01*
X185731107Y-81607868D01*
X185711401Y-81593253D01*
X185693223Y-81576777D01*
X185676747Y-81558599D01*
X185662132Y-81538893D01*
X185649520Y-81517850D01*
X185639030Y-81495671D01*
X185630765Y-81472572D01*
X185624804Y-81448773D01*
X185621204Y-81424505D01*
X185620000Y-81400001D01*
X185620000Y-80499999D01*
X185621204Y-80475495D01*
X185624804Y-80451227D01*
X185630765Y-80427428D01*
X185639030Y-80404329D01*
X185649520Y-80382150D01*
X185662132Y-80361107D01*
X185676747Y-80341401D01*
X185693223Y-80323223D01*
X185711401Y-80306747D01*
X185731107Y-80292132D01*
X185752150Y-80279520D01*
X185774329Y-80269030D01*
X185797428Y-80260765D01*
X185821227Y-80254804D01*
X185845495Y-80251204D01*
X185869999Y-80250000D01*
X186520001Y-80250000D01*
X186544505Y-80251204D01*
X186544505Y-80251204D01*
G37*
D12*
X186195000Y-80950000D03*
D11*
G36*
X188594505Y-80251204D02*
G01*
X188618773Y-80254804D01*
X188642572Y-80260765D01*
X188665671Y-80269030D01*
X188687850Y-80279520D01*
X188708893Y-80292132D01*
X188728599Y-80306747D01*
X188746777Y-80323223D01*
X188763253Y-80341401D01*
X188777868Y-80361107D01*
X188790480Y-80382150D01*
X188800970Y-80404329D01*
X188809235Y-80427428D01*
X188815196Y-80451227D01*
X188818796Y-80475495D01*
X188820000Y-80499999D01*
X188820000Y-81400001D01*
X188818796Y-81424505D01*
X188815196Y-81448773D01*
X188809235Y-81472572D01*
X188800970Y-81495671D01*
X188790480Y-81517850D01*
X188777868Y-81538893D01*
X188763253Y-81558599D01*
X188746777Y-81576777D01*
X188728599Y-81593253D01*
X188708893Y-81607868D01*
X188687850Y-81620480D01*
X188665671Y-81630970D01*
X188642572Y-81639235D01*
X188618773Y-81645196D01*
X188594505Y-81648796D01*
X188570001Y-81650000D01*
X187919999Y-81650000D01*
X187895495Y-81648796D01*
X187871227Y-81645196D01*
X187847428Y-81639235D01*
X187824329Y-81630970D01*
X187802150Y-81620480D01*
X187781107Y-81607868D01*
X187761401Y-81593253D01*
X187743223Y-81576777D01*
X187726747Y-81558599D01*
X187712132Y-81538893D01*
X187699520Y-81517850D01*
X187689030Y-81495671D01*
X187680765Y-81472572D01*
X187674804Y-81448773D01*
X187671204Y-81424505D01*
X187670000Y-81400001D01*
X187670000Y-80499999D01*
X187671204Y-80475495D01*
X187674804Y-80451227D01*
X187680765Y-80427428D01*
X187689030Y-80404329D01*
X187699520Y-80382150D01*
X187712132Y-80361107D01*
X187726747Y-80341401D01*
X187743223Y-80323223D01*
X187761401Y-80306747D01*
X187781107Y-80292132D01*
X187802150Y-80279520D01*
X187824329Y-80269030D01*
X187847428Y-80260765D01*
X187871227Y-80254804D01*
X187895495Y-80251204D01*
X187919999Y-80250000D01*
X188570001Y-80250000D01*
X188594505Y-80251204D01*
X188594505Y-80251204D01*
G37*
D12*
X188245000Y-80950000D03*
D11*
G36*
X185274505Y-62471204D02*
G01*
X185298773Y-62474804D01*
X185322572Y-62480765D01*
X185345671Y-62489030D01*
X185367850Y-62499520D01*
X185388893Y-62512132D01*
X185408599Y-62526747D01*
X185426777Y-62543223D01*
X185443253Y-62561401D01*
X185457868Y-62581107D01*
X185470480Y-62602150D01*
X185480970Y-62624329D01*
X185489235Y-62647428D01*
X185495196Y-62671227D01*
X185498796Y-62695495D01*
X185500000Y-62719999D01*
X185500000Y-63620001D01*
X185498796Y-63644505D01*
X185495196Y-63668773D01*
X185489235Y-63692572D01*
X185480970Y-63715671D01*
X185470480Y-63737850D01*
X185457868Y-63758893D01*
X185443253Y-63778599D01*
X185426777Y-63796777D01*
X185408599Y-63813253D01*
X185388893Y-63827868D01*
X185367850Y-63840480D01*
X185345671Y-63850970D01*
X185322572Y-63859235D01*
X185298773Y-63865196D01*
X185274505Y-63868796D01*
X185250001Y-63870000D01*
X184599999Y-63870000D01*
X184575495Y-63868796D01*
X184551227Y-63865196D01*
X184527428Y-63859235D01*
X184504329Y-63850970D01*
X184482150Y-63840480D01*
X184461107Y-63827868D01*
X184441401Y-63813253D01*
X184423223Y-63796777D01*
X184406747Y-63778599D01*
X184392132Y-63758893D01*
X184379520Y-63737850D01*
X184369030Y-63715671D01*
X184360765Y-63692572D01*
X184354804Y-63668773D01*
X184351204Y-63644505D01*
X184350000Y-63620001D01*
X184350000Y-62719999D01*
X184351204Y-62695495D01*
X184354804Y-62671227D01*
X184360765Y-62647428D01*
X184369030Y-62624329D01*
X184379520Y-62602150D01*
X184392132Y-62581107D01*
X184406747Y-62561401D01*
X184423223Y-62543223D01*
X184441401Y-62526747D01*
X184461107Y-62512132D01*
X184482150Y-62499520D01*
X184504329Y-62489030D01*
X184527428Y-62480765D01*
X184551227Y-62474804D01*
X184575495Y-62471204D01*
X184599999Y-62470000D01*
X185250001Y-62470000D01*
X185274505Y-62471204D01*
X185274505Y-62471204D01*
G37*
D12*
X184925000Y-63170000D03*
D11*
G36*
X183224505Y-62471204D02*
G01*
X183248773Y-62474804D01*
X183272572Y-62480765D01*
X183295671Y-62489030D01*
X183317850Y-62499520D01*
X183338893Y-62512132D01*
X183358599Y-62526747D01*
X183376777Y-62543223D01*
X183393253Y-62561401D01*
X183407868Y-62581107D01*
X183420480Y-62602150D01*
X183430970Y-62624329D01*
X183439235Y-62647428D01*
X183445196Y-62671227D01*
X183448796Y-62695495D01*
X183450000Y-62719999D01*
X183450000Y-63620001D01*
X183448796Y-63644505D01*
X183445196Y-63668773D01*
X183439235Y-63692572D01*
X183430970Y-63715671D01*
X183420480Y-63737850D01*
X183407868Y-63758893D01*
X183393253Y-63778599D01*
X183376777Y-63796777D01*
X183358599Y-63813253D01*
X183338893Y-63827868D01*
X183317850Y-63840480D01*
X183295671Y-63850970D01*
X183272572Y-63859235D01*
X183248773Y-63865196D01*
X183224505Y-63868796D01*
X183200001Y-63870000D01*
X182549999Y-63870000D01*
X182525495Y-63868796D01*
X182501227Y-63865196D01*
X182477428Y-63859235D01*
X182454329Y-63850970D01*
X182432150Y-63840480D01*
X182411107Y-63827868D01*
X182391401Y-63813253D01*
X182373223Y-63796777D01*
X182356747Y-63778599D01*
X182342132Y-63758893D01*
X182329520Y-63737850D01*
X182319030Y-63715671D01*
X182310765Y-63692572D01*
X182304804Y-63668773D01*
X182301204Y-63644505D01*
X182300000Y-63620001D01*
X182300000Y-62719999D01*
X182301204Y-62695495D01*
X182304804Y-62671227D01*
X182310765Y-62647428D01*
X182319030Y-62624329D01*
X182329520Y-62602150D01*
X182342132Y-62581107D01*
X182356747Y-62561401D01*
X182373223Y-62543223D01*
X182391401Y-62526747D01*
X182411107Y-62512132D01*
X182432150Y-62499520D01*
X182454329Y-62489030D01*
X182477428Y-62480765D01*
X182501227Y-62474804D01*
X182525495Y-62471204D01*
X182549999Y-62470000D01*
X183200001Y-62470000D01*
X183224505Y-62471204D01*
X183224505Y-62471204D01*
G37*
D12*
X182875000Y-63170000D03*
D13*
X192890000Y-124130000D03*
X188390000Y-124130000D03*
X192890000Y-96190000D03*
X188390000Y-96190000D03*
X192890000Y-68250000D03*
X188390000Y-68250000D03*
D11*
G36*
X198734505Y-131421204D02*
G01*
X198758773Y-131424804D01*
X198782572Y-131430765D01*
X198805671Y-131439030D01*
X198827850Y-131449520D01*
X198848893Y-131462132D01*
X198868599Y-131476747D01*
X198886777Y-131493223D01*
X198903253Y-131511401D01*
X198917868Y-131531107D01*
X198930480Y-131552150D01*
X198940970Y-131574329D01*
X198949235Y-131597428D01*
X198955196Y-131621227D01*
X198958796Y-131645495D01*
X198960000Y-131669999D01*
X198960000Y-132320001D01*
X198958796Y-132344505D01*
X198955196Y-132368773D01*
X198949235Y-132392572D01*
X198940970Y-132415671D01*
X198930480Y-132437850D01*
X198917868Y-132458893D01*
X198903253Y-132478599D01*
X198886777Y-132496777D01*
X198868599Y-132513253D01*
X198848893Y-132527868D01*
X198827850Y-132540480D01*
X198805671Y-132550970D01*
X198782572Y-132559235D01*
X198758773Y-132565196D01*
X198734505Y-132568796D01*
X198710001Y-132570000D01*
X197809999Y-132570000D01*
X197785495Y-132568796D01*
X197761227Y-132565196D01*
X197737428Y-132559235D01*
X197714329Y-132550970D01*
X197692150Y-132540480D01*
X197671107Y-132527868D01*
X197651401Y-132513253D01*
X197633223Y-132496777D01*
X197616747Y-132478599D01*
X197602132Y-132458893D01*
X197589520Y-132437850D01*
X197579030Y-132415671D01*
X197570765Y-132392572D01*
X197564804Y-132368773D01*
X197561204Y-132344505D01*
X197560000Y-132320001D01*
X197560000Y-131669999D01*
X197561204Y-131645495D01*
X197564804Y-131621227D01*
X197570765Y-131597428D01*
X197579030Y-131574329D01*
X197589520Y-131552150D01*
X197602132Y-131531107D01*
X197616747Y-131511401D01*
X197633223Y-131493223D01*
X197651401Y-131476747D01*
X197671107Y-131462132D01*
X197692150Y-131449520D01*
X197714329Y-131439030D01*
X197737428Y-131430765D01*
X197761227Y-131424804D01*
X197785495Y-131421204D01*
X197809999Y-131420000D01*
X198710001Y-131420000D01*
X198734505Y-131421204D01*
X198734505Y-131421204D01*
G37*
D12*
X198260000Y-131995000D03*
D11*
G36*
X198734505Y-133471204D02*
G01*
X198758773Y-133474804D01*
X198782572Y-133480765D01*
X198805671Y-133489030D01*
X198827850Y-133499520D01*
X198848893Y-133512132D01*
X198868599Y-133526747D01*
X198886777Y-133543223D01*
X198903253Y-133561401D01*
X198917868Y-133581107D01*
X198930480Y-133602150D01*
X198940970Y-133624329D01*
X198949235Y-133647428D01*
X198955196Y-133671227D01*
X198958796Y-133695495D01*
X198960000Y-133719999D01*
X198960000Y-134370001D01*
X198958796Y-134394505D01*
X198955196Y-134418773D01*
X198949235Y-134442572D01*
X198940970Y-134465671D01*
X198930480Y-134487850D01*
X198917868Y-134508893D01*
X198903253Y-134528599D01*
X198886777Y-134546777D01*
X198868599Y-134563253D01*
X198848893Y-134577868D01*
X198827850Y-134590480D01*
X198805671Y-134600970D01*
X198782572Y-134609235D01*
X198758773Y-134615196D01*
X198734505Y-134618796D01*
X198710001Y-134620000D01*
X197809999Y-134620000D01*
X197785495Y-134618796D01*
X197761227Y-134615196D01*
X197737428Y-134609235D01*
X197714329Y-134600970D01*
X197692150Y-134590480D01*
X197671107Y-134577868D01*
X197651401Y-134563253D01*
X197633223Y-134546777D01*
X197616747Y-134528599D01*
X197602132Y-134508893D01*
X197589520Y-134487850D01*
X197579030Y-134465671D01*
X197570765Y-134442572D01*
X197564804Y-134418773D01*
X197561204Y-134394505D01*
X197560000Y-134370001D01*
X197560000Y-133719999D01*
X197561204Y-133695495D01*
X197564804Y-133671227D01*
X197570765Y-133647428D01*
X197579030Y-133624329D01*
X197589520Y-133602150D01*
X197602132Y-133581107D01*
X197616747Y-133561401D01*
X197633223Y-133543223D01*
X197651401Y-133526747D01*
X197671107Y-133512132D01*
X197692150Y-133499520D01*
X197714329Y-133489030D01*
X197737428Y-133480765D01*
X197761227Y-133474804D01*
X197785495Y-133471204D01*
X197809999Y-133470000D01*
X198710001Y-133470000D01*
X198734505Y-133471204D01*
X198734505Y-133471204D01*
G37*
D12*
X198260000Y-134045000D03*
D11*
G36*
X198734505Y-103481204D02*
G01*
X198758773Y-103484804D01*
X198782572Y-103490765D01*
X198805671Y-103499030D01*
X198827850Y-103509520D01*
X198848893Y-103522132D01*
X198868599Y-103536747D01*
X198886777Y-103553223D01*
X198903253Y-103571401D01*
X198917868Y-103591107D01*
X198930480Y-103612150D01*
X198940970Y-103634329D01*
X198949235Y-103657428D01*
X198955196Y-103681227D01*
X198958796Y-103705495D01*
X198960000Y-103729999D01*
X198960000Y-104380001D01*
X198958796Y-104404505D01*
X198955196Y-104428773D01*
X198949235Y-104452572D01*
X198940970Y-104475671D01*
X198930480Y-104497850D01*
X198917868Y-104518893D01*
X198903253Y-104538599D01*
X198886777Y-104556777D01*
X198868599Y-104573253D01*
X198848893Y-104587868D01*
X198827850Y-104600480D01*
X198805671Y-104610970D01*
X198782572Y-104619235D01*
X198758773Y-104625196D01*
X198734505Y-104628796D01*
X198710001Y-104630000D01*
X197809999Y-104630000D01*
X197785495Y-104628796D01*
X197761227Y-104625196D01*
X197737428Y-104619235D01*
X197714329Y-104610970D01*
X197692150Y-104600480D01*
X197671107Y-104587868D01*
X197651401Y-104573253D01*
X197633223Y-104556777D01*
X197616747Y-104538599D01*
X197602132Y-104518893D01*
X197589520Y-104497850D01*
X197579030Y-104475671D01*
X197570765Y-104452572D01*
X197564804Y-104428773D01*
X197561204Y-104404505D01*
X197560000Y-104380001D01*
X197560000Y-103729999D01*
X197561204Y-103705495D01*
X197564804Y-103681227D01*
X197570765Y-103657428D01*
X197579030Y-103634329D01*
X197589520Y-103612150D01*
X197602132Y-103591107D01*
X197616747Y-103571401D01*
X197633223Y-103553223D01*
X197651401Y-103536747D01*
X197671107Y-103522132D01*
X197692150Y-103509520D01*
X197714329Y-103499030D01*
X197737428Y-103490765D01*
X197761227Y-103484804D01*
X197785495Y-103481204D01*
X197809999Y-103480000D01*
X198710001Y-103480000D01*
X198734505Y-103481204D01*
X198734505Y-103481204D01*
G37*
D12*
X198260000Y-104055000D03*
D11*
G36*
X198734505Y-105531204D02*
G01*
X198758773Y-105534804D01*
X198782572Y-105540765D01*
X198805671Y-105549030D01*
X198827850Y-105559520D01*
X198848893Y-105572132D01*
X198868599Y-105586747D01*
X198886777Y-105603223D01*
X198903253Y-105621401D01*
X198917868Y-105641107D01*
X198930480Y-105662150D01*
X198940970Y-105684329D01*
X198949235Y-105707428D01*
X198955196Y-105731227D01*
X198958796Y-105755495D01*
X198960000Y-105779999D01*
X198960000Y-106430001D01*
X198958796Y-106454505D01*
X198955196Y-106478773D01*
X198949235Y-106502572D01*
X198940970Y-106525671D01*
X198930480Y-106547850D01*
X198917868Y-106568893D01*
X198903253Y-106588599D01*
X198886777Y-106606777D01*
X198868599Y-106623253D01*
X198848893Y-106637868D01*
X198827850Y-106650480D01*
X198805671Y-106660970D01*
X198782572Y-106669235D01*
X198758773Y-106675196D01*
X198734505Y-106678796D01*
X198710001Y-106680000D01*
X197809999Y-106680000D01*
X197785495Y-106678796D01*
X197761227Y-106675196D01*
X197737428Y-106669235D01*
X197714329Y-106660970D01*
X197692150Y-106650480D01*
X197671107Y-106637868D01*
X197651401Y-106623253D01*
X197633223Y-106606777D01*
X197616747Y-106588599D01*
X197602132Y-106568893D01*
X197589520Y-106547850D01*
X197579030Y-106525671D01*
X197570765Y-106502572D01*
X197564804Y-106478773D01*
X197561204Y-106454505D01*
X197560000Y-106430001D01*
X197560000Y-105779999D01*
X197561204Y-105755495D01*
X197564804Y-105731227D01*
X197570765Y-105707428D01*
X197579030Y-105684329D01*
X197589520Y-105662150D01*
X197602132Y-105641107D01*
X197616747Y-105621401D01*
X197633223Y-105603223D01*
X197651401Y-105586747D01*
X197671107Y-105572132D01*
X197692150Y-105559520D01*
X197714329Y-105549030D01*
X197737428Y-105540765D01*
X197761227Y-105534804D01*
X197785495Y-105531204D01*
X197809999Y-105530000D01*
X198710001Y-105530000D01*
X198734505Y-105531204D01*
X198734505Y-105531204D01*
G37*
D12*
X198260000Y-106105000D03*
D11*
G36*
X198734505Y-75541204D02*
G01*
X198758773Y-75544804D01*
X198782572Y-75550765D01*
X198805671Y-75559030D01*
X198827850Y-75569520D01*
X198848893Y-75582132D01*
X198868599Y-75596747D01*
X198886777Y-75613223D01*
X198903253Y-75631401D01*
X198917868Y-75651107D01*
X198930480Y-75672150D01*
X198940970Y-75694329D01*
X198949235Y-75717428D01*
X198955196Y-75741227D01*
X198958796Y-75765495D01*
X198960000Y-75789999D01*
X198960000Y-76440001D01*
X198958796Y-76464505D01*
X198955196Y-76488773D01*
X198949235Y-76512572D01*
X198940970Y-76535671D01*
X198930480Y-76557850D01*
X198917868Y-76578893D01*
X198903253Y-76598599D01*
X198886777Y-76616777D01*
X198868599Y-76633253D01*
X198848893Y-76647868D01*
X198827850Y-76660480D01*
X198805671Y-76670970D01*
X198782572Y-76679235D01*
X198758773Y-76685196D01*
X198734505Y-76688796D01*
X198710001Y-76690000D01*
X197809999Y-76690000D01*
X197785495Y-76688796D01*
X197761227Y-76685196D01*
X197737428Y-76679235D01*
X197714329Y-76670970D01*
X197692150Y-76660480D01*
X197671107Y-76647868D01*
X197651401Y-76633253D01*
X197633223Y-76616777D01*
X197616747Y-76598599D01*
X197602132Y-76578893D01*
X197589520Y-76557850D01*
X197579030Y-76535671D01*
X197570765Y-76512572D01*
X197564804Y-76488773D01*
X197561204Y-76464505D01*
X197560000Y-76440001D01*
X197560000Y-75789999D01*
X197561204Y-75765495D01*
X197564804Y-75741227D01*
X197570765Y-75717428D01*
X197579030Y-75694329D01*
X197589520Y-75672150D01*
X197602132Y-75651107D01*
X197616747Y-75631401D01*
X197633223Y-75613223D01*
X197651401Y-75596747D01*
X197671107Y-75582132D01*
X197692150Y-75569520D01*
X197714329Y-75559030D01*
X197737428Y-75550765D01*
X197761227Y-75544804D01*
X197785495Y-75541204D01*
X197809999Y-75540000D01*
X198710001Y-75540000D01*
X198734505Y-75541204D01*
X198734505Y-75541204D01*
G37*
D12*
X198260000Y-76115000D03*
D11*
G36*
X198734505Y-77591204D02*
G01*
X198758773Y-77594804D01*
X198782572Y-77600765D01*
X198805671Y-77609030D01*
X198827850Y-77619520D01*
X198848893Y-77632132D01*
X198868599Y-77646747D01*
X198886777Y-77663223D01*
X198903253Y-77681401D01*
X198917868Y-77701107D01*
X198930480Y-77722150D01*
X198940970Y-77744329D01*
X198949235Y-77767428D01*
X198955196Y-77791227D01*
X198958796Y-77815495D01*
X198960000Y-77839999D01*
X198960000Y-78490001D01*
X198958796Y-78514505D01*
X198955196Y-78538773D01*
X198949235Y-78562572D01*
X198940970Y-78585671D01*
X198930480Y-78607850D01*
X198917868Y-78628893D01*
X198903253Y-78648599D01*
X198886777Y-78666777D01*
X198868599Y-78683253D01*
X198848893Y-78697868D01*
X198827850Y-78710480D01*
X198805671Y-78720970D01*
X198782572Y-78729235D01*
X198758773Y-78735196D01*
X198734505Y-78738796D01*
X198710001Y-78740000D01*
X197809999Y-78740000D01*
X197785495Y-78738796D01*
X197761227Y-78735196D01*
X197737428Y-78729235D01*
X197714329Y-78720970D01*
X197692150Y-78710480D01*
X197671107Y-78697868D01*
X197651401Y-78683253D01*
X197633223Y-78666777D01*
X197616747Y-78648599D01*
X197602132Y-78628893D01*
X197589520Y-78607850D01*
X197579030Y-78585671D01*
X197570765Y-78562572D01*
X197564804Y-78538773D01*
X197561204Y-78514505D01*
X197560000Y-78490001D01*
X197560000Y-77839999D01*
X197561204Y-77815495D01*
X197564804Y-77791227D01*
X197570765Y-77767428D01*
X197579030Y-77744329D01*
X197589520Y-77722150D01*
X197602132Y-77701107D01*
X197616747Y-77681401D01*
X197633223Y-77663223D01*
X197651401Y-77646747D01*
X197671107Y-77632132D01*
X197692150Y-77619520D01*
X197714329Y-77609030D01*
X197737428Y-77600765D01*
X197761227Y-77594804D01*
X197785495Y-77591204D01*
X197809999Y-77590000D01*
X198710001Y-77590000D01*
X198734505Y-77591204D01*
X198734505Y-77591204D01*
G37*
D12*
X198260000Y-78165000D03*
D11*
G36*
X194019505Y-129781204D02*
G01*
X194043773Y-129784804D01*
X194067572Y-129790765D01*
X194090671Y-129799030D01*
X194112850Y-129809520D01*
X194133893Y-129822132D01*
X194153599Y-129836747D01*
X194171777Y-129853223D01*
X194188253Y-129871401D01*
X194202868Y-129891107D01*
X194215480Y-129912150D01*
X194225970Y-129934329D01*
X194234235Y-129957428D01*
X194240196Y-129981227D01*
X194243796Y-130005495D01*
X194245000Y-130029999D01*
X194245000Y-130930001D01*
X194243796Y-130954505D01*
X194240196Y-130978773D01*
X194234235Y-131002572D01*
X194225970Y-131025671D01*
X194215480Y-131047850D01*
X194202868Y-131068893D01*
X194188253Y-131088599D01*
X194171777Y-131106777D01*
X194153599Y-131123253D01*
X194133893Y-131137868D01*
X194112850Y-131150480D01*
X194090671Y-131160970D01*
X194067572Y-131169235D01*
X194043773Y-131175196D01*
X194019505Y-131178796D01*
X193995001Y-131180000D01*
X193344999Y-131180000D01*
X193320495Y-131178796D01*
X193296227Y-131175196D01*
X193272428Y-131169235D01*
X193249329Y-131160970D01*
X193227150Y-131150480D01*
X193206107Y-131137868D01*
X193186401Y-131123253D01*
X193168223Y-131106777D01*
X193151747Y-131088599D01*
X193137132Y-131068893D01*
X193124520Y-131047850D01*
X193114030Y-131025671D01*
X193105765Y-131002572D01*
X193099804Y-130978773D01*
X193096204Y-130954505D01*
X193095000Y-130930001D01*
X193095000Y-130029999D01*
X193096204Y-130005495D01*
X193099804Y-129981227D01*
X193105765Y-129957428D01*
X193114030Y-129934329D01*
X193124520Y-129912150D01*
X193137132Y-129891107D01*
X193151747Y-129871401D01*
X193168223Y-129853223D01*
X193186401Y-129836747D01*
X193206107Y-129822132D01*
X193227150Y-129809520D01*
X193249329Y-129799030D01*
X193272428Y-129790765D01*
X193296227Y-129784804D01*
X193320495Y-129781204D01*
X193344999Y-129780000D01*
X193995001Y-129780000D01*
X194019505Y-129781204D01*
X194019505Y-129781204D01*
G37*
D12*
X193670000Y-130480000D03*
D11*
G36*
X196069505Y-129781204D02*
G01*
X196093773Y-129784804D01*
X196117572Y-129790765D01*
X196140671Y-129799030D01*
X196162850Y-129809520D01*
X196183893Y-129822132D01*
X196203599Y-129836747D01*
X196221777Y-129853223D01*
X196238253Y-129871401D01*
X196252868Y-129891107D01*
X196265480Y-129912150D01*
X196275970Y-129934329D01*
X196284235Y-129957428D01*
X196290196Y-129981227D01*
X196293796Y-130005495D01*
X196295000Y-130029999D01*
X196295000Y-130930001D01*
X196293796Y-130954505D01*
X196290196Y-130978773D01*
X196284235Y-131002572D01*
X196275970Y-131025671D01*
X196265480Y-131047850D01*
X196252868Y-131068893D01*
X196238253Y-131088599D01*
X196221777Y-131106777D01*
X196203599Y-131123253D01*
X196183893Y-131137868D01*
X196162850Y-131150480D01*
X196140671Y-131160970D01*
X196117572Y-131169235D01*
X196093773Y-131175196D01*
X196069505Y-131178796D01*
X196045001Y-131180000D01*
X195394999Y-131180000D01*
X195370495Y-131178796D01*
X195346227Y-131175196D01*
X195322428Y-131169235D01*
X195299329Y-131160970D01*
X195277150Y-131150480D01*
X195256107Y-131137868D01*
X195236401Y-131123253D01*
X195218223Y-131106777D01*
X195201747Y-131088599D01*
X195187132Y-131068893D01*
X195174520Y-131047850D01*
X195164030Y-131025671D01*
X195155765Y-131002572D01*
X195149804Y-130978773D01*
X195146204Y-130954505D01*
X195145000Y-130930001D01*
X195145000Y-130029999D01*
X195146204Y-130005495D01*
X195149804Y-129981227D01*
X195155765Y-129957428D01*
X195164030Y-129934329D01*
X195174520Y-129912150D01*
X195187132Y-129891107D01*
X195201747Y-129871401D01*
X195218223Y-129853223D01*
X195236401Y-129836747D01*
X195256107Y-129822132D01*
X195277150Y-129809520D01*
X195299329Y-129799030D01*
X195322428Y-129790765D01*
X195346227Y-129784804D01*
X195370495Y-129781204D01*
X195394999Y-129780000D01*
X196045001Y-129780000D01*
X196069505Y-129781204D01*
X196069505Y-129781204D01*
G37*
D12*
X195720000Y-130480000D03*
D11*
G36*
X194019505Y-127876204D02*
G01*
X194043773Y-127879804D01*
X194067572Y-127885765D01*
X194090671Y-127894030D01*
X194112850Y-127904520D01*
X194133893Y-127917132D01*
X194153599Y-127931747D01*
X194171777Y-127948223D01*
X194188253Y-127966401D01*
X194202868Y-127986107D01*
X194215480Y-128007150D01*
X194225970Y-128029329D01*
X194234235Y-128052428D01*
X194240196Y-128076227D01*
X194243796Y-128100495D01*
X194245000Y-128124999D01*
X194245000Y-129025001D01*
X194243796Y-129049505D01*
X194240196Y-129073773D01*
X194234235Y-129097572D01*
X194225970Y-129120671D01*
X194215480Y-129142850D01*
X194202868Y-129163893D01*
X194188253Y-129183599D01*
X194171777Y-129201777D01*
X194153599Y-129218253D01*
X194133893Y-129232868D01*
X194112850Y-129245480D01*
X194090671Y-129255970D01*
X194067572Y-129264235D01*
X194043773Y-129270196D01*
X194019505Y-129273796D01*
X193995001Y-129275000D01*
X193344999Y-129275000D01*
X193320495Y-129273796D01*
X193296227Y-129270196D01*
X193272428Y-129264235D01*
X193249329Y-129255970D01*
X193227150Y-129245480D01*
X193206107Y-129232868D01*
X193186401Y-129218253D01*
X193168223Y-129201777D01*
X193151747Y-129183599D01*
X193137132Y-129163893D01*
X193124520Y-129142850D01*
X193114030Y-129120671D01*
X193105765Y-129097572D01*
X193099804Y-129073773D01*
X193096204Y-129049505D01*
X193095000Y-129025001D01*
X193095000Y-128124999D01*
X193096204Y-128100495D01*
X193099804Y-128076227D01*
X193105765Y-128052428D01*
X193114030Y-128029329D01*
X193124520Y-128007150D01*
X193137132Y-127986107D01*
X193151747Y-127966401D01*
X193168223Y-127948223D01*
X193186401Y-127931747D01*
X193206107Y-127917132D01*
X193227150Y-127904520D01*
X193249329Y-127894030D01*
X193272428Y-127885765D01*
X193296227Y-127879804D01*
X193320495Y-127876204D01*
X193344999Y-127875000D01*
X193995001Y-127875000D01*
X194019505Y-127876204D01*
X194019505Y-127876204D01*
G37*
D12*
X193670000Y-128575000D03*
D11*
G36*
X196069505Y-127876204D02*
G01*
X196093773Y-127879804D01*
X196117572Y-127885765D01*
X196140671Y-127894030D01*
X196162850Y-127904520D01*
X196183893Y-127917132D01*
X196203599Y-127931747D01*
X196221777Y-127948223D01*
X196238253Y-127966401D01*
X196252868Y-127986107D01*
X196265480Y-128007150D01*
X196275970Y-128029329D01*
X196284235Y-128052428D01*
X196290196Y-128076227D01*
X196293796Y-128100495D01*
X196295000Y-128124999D01*
X196295000Y-129025001D01*
X196293796Y-129049505D01*
X196290196Y-129073773D01*
X196284235Y-129097572D01*
X196275970Y-129120671D01*
X196265480Y-129142850D01*
X196252868Y-129163893D01*
X196238253Y-129183599D01*
X196221777Y-129201777D01*
X196203599Y-129218253D01*
X196183893Y-129232868D01*
X196162850Y-129245480D01*
X196140671Y-129255970D01*
X196117572Y-129264235D01*
X196093773Y-129270196D01*
X196069505Y-129273796D01*
X196045001Y-129275000D01*
X195394999Y-129275000D01*
X195370495Y-129273796D01*
X195346227Y-129270196D01*
X195322428Y-129264235D01*
X195299329Y-129255970D01*
X195277150Y-129245480D01*
X195256107Y-129232868D01*
X195236401Y-129218253D01*
X195218223Y-129201777D01*
X195201747Y-129183599D01*
X195187132Y-129163893D01*
X195174520Y-129142850D01*
X195164030Y-129120671D01*
X195155765Y-129097572D01*
X195149804Y-129073773D01*
X195146204Y-129049505D01*
X195145000Y-129025001D01*
X195145000Y-128124999D01*
X195146204Y-128100495D01*
X195149804Y-128076227D01*
X195155765Y-128052428D01*
X195164030Y-128029329D01*
X195174520Y-128007150D01*
X195187132Y-127986107D01*
X195201747Y-127966401D01*
X195218223Y-127948223D01*
X195236401Y-127931747D01*
X195256107Y-127917132D01*
X195277150Y-127904520D01*
X195299329Y-127894030D01*
X195322428Y-127885765D01*
X195346227Y-127879804D01*
X195370495Y-127876204D01*
X195394999Y-127875000D01*
X196045001Y-127875000D01*
X196069505Y-127876204D01*
X196069505Y-127876204D01*
G37*
D12*
X195720000Y-128575000D03*
D11*
G36*
X190479505Y-127611204D02*
G01*
X190503773Y-127614804D01*
X190527572Y-127620765D01*
X190550671Y-127629030D01*
X190572850Y-127639520D01*
X190593893Y-127652132D01*
X190613599Y-127666747D01*
X190631777Y-127683223D01*
X190648253Y-127701401D01*
X190662868Y-127721107D01*
X190675480Y-127742150D01*
X190685970Y-127764329D01*
X190694235Y-127787428D01*
X190700196Y-127811227D01*
X190703796Y-127835495D01*
X190705000Y-127859999D01*
X190705000Y-128510001D01*
X190703796Y-128534505D01*
X190700196Y-128558773D01*
X190694235Y-128582572D01*
X190685970Y-128605671D01*
X190675480Y-128627850D01*
X190662868Y-128648893D01*
X190648253Y-128668599D01*
X190631777Y-128686777D01*
X190613599Y-128703253D01*
X190593893Y-128717868D01*
X190572850Y-128730480D01*
X190550671Y-128740970D01*
X190527572Y-128749235D01*
X190503773Y-128755196D01*
X190479505Y-128758796D01*
X190455001Y-128760000D01*
X189554999Y-128760000D01*
X189530495Y-128758796D01*
X189506227Y-128755196D01*
X189482428Y-128749235D01*
X189459329Y-128740970D01*
X189437150Y-128730480D01*
X189416107Y-128717868D01*
X189396401Y-128703253D01*
X189378223Y-128686777D01*
X189361747Y-128668599D01*
X189347132Y-128648893D01*
X189334520Y-128627850D01*
X189324030Y-128605671D01*
X189315765Y-128582572D01*
X189309804Y-128558773D01*
X189306204Y-128534505D01*
X189305000Y-128510001D01*
X189305000Y-127859999D01*
X189306204Y-127835495D01*
X189309804Y-127811227D01*
X189315765Y-127787428D01*
X189324030Y-127764329D01*
X189334520Y-127742150D01*
X189347132Y-127721107D01*
X189361747Y-127701401D01*
X189378223Y-127683223D01*
X189396401Y-127666747D01*
X189416107Y-127652132D01*
X189437150Y-127639520D01*
X189459329Y-127629030D01*
X189482428Y-127620765D01*
X189506227Y-127614804D01*
X189530495Y-127611204D01*
X189554999Y-127610000D01*
X190455001Y-127610000D01*
X190479505Y-127611204D01*
X190479505Y-127611204D01*
G37*
D12*
X190005000Y-128185000D03*
D11*
G36*
X190479505Y-129661204D02*
G01*
X190503773Y-129664804D01*
X190527572Y-129670765D01*
X190550671Y-129679030D01*
X190572850Y-129689520D01*
X190593893Y-129702132D01*
X190613599Y-129716747D01*
X190631777Y-129733223D01*
X190648253Y-129751401D01*
X190662868Y-129771107D01*
X190675480Y-129792150D01*
X190685970Y-129814329D01*
X190694235Y-129837428D01*
X190700196Y-129861227D01*
X190703796Y-129885495D01*
X190705000Y-129909999D01*
X190705000Y-130560001D01*
X190703796Y-130584505D01*
X190700196Y-130608773D01*
X190694235Y-130632572D01*
X190685970Y-130655671D01*
X190675480Y-130677850D01*
X190662868Y-130698893D01*
X190648253Y-130718599D01*
X190631777Y-130736777D01*
X190613599Y-130753253D01*
X190593893Y-130767868D01*
X190572850Y-130780480D01*
X190550671Y-130790970D01*
X190527572Y-130799235D01*
X190503773Y-130805196D01*
X190479505Y-130808796D01*
X190455001Y-130810000D01*
X189554999Y-130810000D01*
X189530495Y-130808796D01*
X189506227Y-130805196D01*
X189482428Y-130799235D01*
X189459329Y-130790970D01*
X189437150Y-130780480D01*
X189416107Y-130767868D01*
X189396401Y-130753253D01*
X189378223Y-130736777D01*
X189361747Y-130718599D01*
X189347132Y-130698893D01*
X189334520Y-130677850D01*
X189324030Y-130655671D01*
X189315765Y-130632572D01*
X189309804Y-130608773D01*
X189306204Y-130584505D01*
X189305000Y-130560001D01*
X189305000Y-129909999D01*
X189306204Y-129885495D01*
X189309804Y-129861227D01*
X189315765Y-129837428D01*
X189324030Y-129814329D01*
X189334520Y-129792150D01*
X189347132Y-129771107D01*
X189361747Y-129751401D01*
X189378223Y-129733223D01*
X189396401Y-129716747D01*
X189416107Y-129702132D01*
X189437150Y-129689520D01*
X189459329Y-129679030D01*
X189482428Y-129670765D01*
X189506227Y-129664804D01*
X189530495Y-129661204D01*
X189554999Y-129660000D01*
X190455001Y-129660000D01*
X190479505Y-129661204D01*
X190479505Y-129661204D01*
G37*
D12*
X190005000Y-130235000D03*
D11*
G36*
X188574505Y-127611204D02*
G01*
X188598773Y-127614804D01*
X188622572Y-127620765D01*
X188645671Y-127629030D01*
X188667850Y-127639520D01*
X188688893Y-127652132D01*
X188708599Y-127666747D01*
X188726777Y-127683223D01*
X188743253Y-127701401D01*
X188757868Y-127721107D01*
X188770480Y-127742150D01*
X188780970Y-127764329D01*
X188789235Y-127787428D01*
X188795196Y-127811227D01*
X188798796Y-127835495D01*
X188800000Y-127859999D01*
X188800000Y-128510001D01*
X188798796Y-128534505D01*
X188795196Y-128558773D01*
X188789235Y-128582572D01*
X188780970Y-128605671D01*
X188770480Y-128627850D01*
X188757868Y-128648893D01*
X188743253Y-128668599D01*
X188726777Y-128686777D01*
X188708599Y-128703253D01*
X188688893Y-128717868D01*
X188667850Y-128730480D01*
X188645671Y-128740970D01*
X188622572Y-128749235D01*
X188598773Y-128755196D01*
X188574505Y-128758796D01*
X188550001Y-128760000D01*
X187649999Y-128760000D01*
X187625495Y-128758796D01*
X187601227Y-128755196D01*
X187577428Y-128749235D01*
X187554329Y-128740970D01*
X187532150Y-128730480D01*
X187511107Y-128717868D01*
X187491401Y-128703253D01*
X187473223Y-128686777D01*
X187456747Y-128668599D01*
X187442132Y-128648893D01*
X187429520Y-128627850D01*
X187419030Y-128605671D01*
X187410765Y-128582572D01*
X187404804Y-128558773D01*
X187401204Y-128534505D01*
X187400000Y-128510001D01*
X187400000Y-127859999D01*
X187401204Y-127835495D01*
X187404804Y-127811227D01*
X187410765Y-127787428D01*
X187419030Y-127764329D01*
X187429520Y-127742150D01*
X187442132Y-127721107D01*
X187456747Y-127701401D01*
X187473223Y-127683223D01*
X187491401Y-127666747D01*
X187511107Y-127652132D01*
X187532150Y-127639520D01*
X187554329Y-127629030D01*
X187577428Y-127620765D01*
X187601227Y-127614804D01*
X187625495Y-127611204D01*
X187649999Y-127610000D01*
X188550001Y-127610000D01*
X188574505Y-127611204D01*
X188574505Y-127611204D01*
G37*
D12*
X188100000Y-128185000D03*
D11*
G36*
X188574505Y-129661204D02*
G01*
X188598773Y-129664804D01*
X188622572Y-129670765D01*
X188645671Y-129679030D01*
X188667850Y-129689520D01*
X188688893Y-129702132D01*
X188708599Y-129716747D01*
X188726777Y-129733223D01*
X188743253Y-129751401D01*
X188757868Y-129771107D01*
X188770480Y-129792150D01*
X188780970Y-129814329D01*
X188789235Y-129837428D01*
X188795196Y-129861227D01*
X188798796Y-129885495D01*
X188800000Y-129909999D01*
X188800000Y-130560001D01*
X188798796Y-130584505D01*
X188795196Y-130608773D01*
X188789235Y-130632572D01*
X188780970Y-130655671D01*
X188770480Y-130677850D01*
X188757868Y-130698893D01*
X188743253Y-130718599D01*
X188726777Y-130736777D01*
X188708599Y-130753253D01*
X188688893Y-130767868D01*
X188667850Y-130780480D01*
X188645671Y-130790970D01*
X188622572Y-130799235D01*
X188598773Y-130805196D01*
X188574505Y-130808796D01*
X188550001Y-130810000D01*
X187649999Y-130810000D01*
X187625495Y-130808796D01*
X187601227Y-130805196D01*
X187577428Y-130799235D01*
X187554329Y-130790970D01*
X187532150Y-130780480D01*
X187511107Y-130767868D01*
X187491401Y-130753253D01*
X187473223Y-130736777D01*
X187456747Y-130718599D01*
X187442132Y-130698893D01*
X187429520Y-130677850D01*
X187419030Y-130655671D01*
X187410765Y-130632572D01*
X187404804Y-130608773D01*
X187401204Y-130584505D01*
X187400000Y-130560001D01*
X187400000Y-129909999D01*
X187401204Y-129885495D01*
X187404804Y-129861227D01*
X187410765Y-129837428D01*
X187419030Y-129814329D01*
X187429520Y-129792150D01*
X187442132Y-129771107D01*
X187456747Y-129751401D01*
X187473223Y-129733223D01*
X187491401Y-129716747D01*
X187511107Y-129702132D01*
X187532150Y-129689520D01*
X187554329Y-129679030D01*
X187577428Y-129670765D01*
X187601227Y-129664804D01*
X187625495Y-129661204D01*
X187649999Y-129660000D01*
X188550001Y-129660000D01*
X188574505Y-129661204D01*
X188574505Y-129661204D01*
G37*
D12*
X188100000Y-130235000D03*
D11*
G36*
X186544505Y-133591204D02*
G01*
X186568773Y-133594804D01*
X186592572Y-133600765D01*
X186615671Y-133609030D01*
X186637850Y-133619520D01*
X186658893Y-133632132D01*
X186678599Y-133646747D01*
X186696777Y-133663223D01*
X186713253Y-133681401D01*
X186727868Y-133701107D01*
X186740480Y-133722150D01*
X186750970Y-133744329D01*
X186759235Y-133767428D01*
X186765196Y-133791227D01*
X186768796Y-133815495D01*
X186770000Y-133839999D01*
X186770000Y-134740001D01*
X186768796Y-134764505D01*
X186765196Y-134788773D01*
X186759235Y-134812572D01*
X186750970Y-134835671D01*
X186740480Y-134857850D01*
X186727868Y-134878893D01*
X186713253Y-134898599D01*
X186696777Y-134916777D01*
X186678599Y-134933253D01*
X186658893Y-134947868D01*
X186637850Y-134960480D01*
X186615671Y-134970970D01*
X186592572Y-134979235D01*
X186568773Y-134985196D01*
X186544505Y-134988796D01*
X186520001Y-134990000D01*
X185869999Y-134990000D01*
X185845495Y-134988796D01*
X185821227Y-134985196D01*
X185797428Y-134979235D01*
X185774329Y-134970970D01*
X185752150Y-134960480D01*
X185731107Y-134947868D01*
X185711401Y-134933253D01*
X185693223Y-134916777D01*
X185676747Y-134898599D01*
X185662132Y-134878893D01*
X185649520Y-134857850D01*
X185639030Y-134835671D01*
X185630765Y-134812572D01*
X185624804Y-134788773D01*
X185621204Y-134764505D01*
X185620000Y-134740001D01*
X185620000Y-133839999D01*
X185621204Y-133815495D01*
X185624804Y-133791227D01*
X185630765Y-133767428D01*
X185639030Y-133744329D01*
X185649520Y-133722150D01*
X185662132Y-133701107D01*
X185676747Y-133681401D01*
X185693223Y-133663223D01*
X185711401Y-133646747D01*
X185731107Y-133632132D01*
X185752150Y-133619520D01*
X185774329Y-133609030D01*
X185797428Y-133600765D01*
X185821227Y-133594804D01*
X185845495Y-133591204D01*
X185869999Y-133590000D01*
X186520001Y-133590000D01*
X186544505Y-133591204D01*
X186544505Y-133591204D01*
G37*
D12*
X186195000Y-134290000D03*
D11*
G36*
X188594505Y-133591204D02*
G01*
X188618773Y-133594804D01*
X188642572Y-133600765D01*
X188665671Y-133609030D01*
X188687850Y-133619520D01*
X188708893Y-133632132D01*
X188728599Y-133646747D01*
X188746777Y-133663223D01*
X188763253Y-133681401D01*
X188777868Y-133701107D01*
X188790480Y-133722150D01*
X188800970Y-133744329D01*
X188809235Y-133767428D01*
X188815196Y-133791227D01*
X188818796Y-133815495D01*
X188820000Y-133839999D01*
X188820000Y-134740001D01*
X188818796Y-134764505D01*
X188815196Y-134788773D01*
X188809235Y-134812572D01*
X188800970Y-134835671D01*
X188790480Y-134857850D01*
X188777868Y-134878893D01*
X188763253Y-134898599D01*
X188746777Y-134916777D01*
X188728599Y-134933253D01*
X188708893Y-134947868D01*
X188687850Y-134960480D01*
X188665671Y-134970970D01*
X188642572Y-134979235D01*
X188618773Y-134985196D01*
X188594505Y-134988796D01*
X188570001Y-134990000D01*
X187919999Y-134990000D01*
X187895495Y-134988796D01*
X187871227Y-134985196D01*
X187847428Y-134979235D01*
X187824329Y-134970970D01*
X187802150Y-134960480D01*
X187781107Y-134947868D01*
X187761401Y-134933253D01*
X187743223Y-134916777D01*
X187726747Y-134898599D01*
X187712132Y-134878893D01*
X187699520Y-134857850D01*
X187689030Y-134835671D01*
X187680765Y-134812572D01*
X187674804Y-134788773D01*
X187671204Y-134764505D01*
X187670000Y-134740001D01*
X187670000Y-133839999D01*
X187671204Y-133815495D01*
X187674804Y-133791227D01*
X187680765Y-133767428D01*
X187689030Y-133744329D01*
X187699520Y-133722150D01*
X187712132Y-133701107D01*
X187726747Y-133681401D01*
X187743223Y-133663223D01*
X187761401Y-133646747D01*
X187781107Y-133632132D01*
X187802150Y-133619520D01*
X187824329Y-133609030D01*
X187847428Y-133600765D01*
X187871227Y-133594804D01*
X187895495Y-133591204D01*
X187919999Y-133590000D01*
X188570001Y-133590000D01*
X188594505Y-133591204D01*
X188594505Y-133591204D01*
G37*
D12*
X188245000Y-134290000D03*
D11*
G36*
X183614505Y-123431204D02*
G01*
X183638773Y-123434804D01*
X183662572Y-123440765D01*
X183685671Y-123449030D01*
X183707850Y-123459520D01*
X183728893Y-123472132D01*
X183748599Y-123486747D01*
X183766777Y-123503223D01*
X183783253Y-123521401D01*
X183797868Y-123541107D01*
X183810480Y-123562150D01*
X183820970Y-123584329D01*
X183829235Y-123607428D01*
X183835196Y-123631227D01*
X183838796Y-123655495D01*
X183840000Y-123679999D01*
X183840000Y-124580001D01*
X183838796Y-124604505D01*
X183835196Y-124628773D01*
X183829235Y-124652572D01*
X183820970Y-124675671D01*
X183810480Y-124697850D01*
X183797868Y-124718893D01*
X183783253Y-124738599D01*
X183766777Y-124756777D01*
X183748599Y-124773253D01*
X183728893Y-124787868D01*
X183707850Y-124800480D01*
X183685671Y-124810970D01*
X183662572Y-124819235D01*
X183638773Y-124825196D01*
X183614505Y-124828796D01*
X183590001Y-124830000D01*
X182939999Y-124830000D01*
X182915495Y-124828796D01*
X182891227Y-124825196D01*
X182867428Y-124819235D01*
X182844329Y-124810970D01*
X182822150Y-124800480D01*
X182801107Y-124787868D01*
X182781401Y-124773253D01*
X182763223Y-124756777D01*
X182746747Y-124738599D01*
X182732132Y-124718893D01*
X182719520Y-124697850D01*
X182709030Y-124675671D01*
X182700765Y-124652572D01*
X182694804Y-124628773D01*
X182691204Y-124604505D01*
X182690000Y-124580001D01*
X182690000Y-123679999D01*
X182691204Y-123655495D01*
X182694804Y-123631227D01*
X182700765Y-123607428D01*
X182709030Y-123584329D01*
X182719520Y-123562150D01*
X182732132Y-123541107D01*
X182746747Y-123521401D01*
X182763223Y-123503223D01*
X182781401Y-123486747D01*
X182801107Y-123472132D01*
X182822150Y-123459520D01*
X182844329Y-123449030D01*
X182867428Y-123440765D01*
X182891227Y-123434804D01*
X182915495Y-123431204D01*
X182939999Y-123430000D01*
X183590001Y-123430000D01*
X183614505Y-123431204D01*
X183614505Y-123431204D01*
G37*
D12*
X183265000Y-124130000D03*
D11*
G36*
X185664505Y-123431204D02*
G01*
X185688773Y-123434804D01*
X185712572Y-123440765D01*
X185735671Y-123449030D01*
X185757850Y-123459520D01*
X185778893Y-123472132D01*
X185798599Y-123486747D01*
X185816777Y-123503223D01*
X185833253Y-123521401D01*
X185847868Y-123541107D01*
X185860480Y-123562150D01*
X185870970Y-123584329D01*
X185879235Y-123607428D01*
X185885196Y-123631227D01*
X185888796Y-123655495D01*
X185890000Y-123679999D01*
X185890000Y-124580001D01*
X185888796Y-124604505D01*
X185885196Y-124628773D01*
X185879235Y-124652572D01*
X185870970Y-124675671D01*
X185860480Y-124697850D01*
X185847868Y-124718893D01*
X185833253Y-124738599D01*
X185816777Y-124756777D01*
X185798599Y-124773253D01*
X185778893Y-124787868D01*
X185757850Y-124800480D01*
X185735671Y-124810970D01*
X185712572Y-124819235D01*
X185688773Y-124825196D01*
X185664505Y-124828796D01*
X185640001Y-124830000D01*
X184989999Y-124830000D01*
X184965495Y-124828796D01*
X184941227Y-124825196D01*
X184917428Y-124819235D01*
X184894329Y-124810970D01*
X184872150Y-124800480D01*
X184851107Y-124787868D01*
X184831401Y-124773253D01*
X184813223Y-124756777D01*
X184796747Y-124738599D01*
X184782132Y-124718893D01*
X184769520Y-124697850D01*
X184759030Y-124675671D01*
X184750765Y-124652572D01*
X184744804Y-124628773D01*
X184741204Y-124604505D01*
X184740000Y-124580001D01*
X184740000Y-123679999D01*
X184741204Y-123655495D01*
X184744804Y-123631227D01*
X184750765Y-123607428D01*
X184759030Y-123584329D01*
X184769520Y-123562150D01*
X184782132Y-123541107D01*
X184796747Y-123521401D01*
X184813223Y-123503223D01*
X184831401Y-123486747D01*
X184851107Y-123472132D01*
X184872150Y-123459520D01*
X184894329Y-123449030D01*
X184917428Y-123440765D01*
X184941227Y-123434804D01*
X184965495Y-123431204D01*
X184989999Y-123430000D01*
X185640001Y-123430000D01*
X185664505Y-123431204D01*
X185664505Y-123431204D01*
G37*
D12*
X185315000Y-124130000D03*
D11*
G36*
X194019505Y-101841204D02*
G01*
X194043773Y-101844804D01*
X194067572Y-101850765D01*
X194090671Y-101859030D01*
X194112850Y-101869520D01*
X194133893Y-101882132D01*
X194153599Y-101896747D01*
X194171777Y-101913223D01*
X194188253Y-101931401D01*
X194202868Y-101951107D01*
X194215480Y-101972150D01*
X194225970Y-101994329D01*
X194234235Y-102017428D01*
X194240196Y-102041227D01*
X194243796Y-102065495D01*
X194245000Y-102089999D01*
X194245000Y-102990001D01*
X194243796Y-103014505D01*
X194240196Y-103038773D01*
X194234235Y-103062572D01*
X194225970Y-103085671D01*
X194215480Y-103107850D01*
X194202868Y-103128893D01*
X194188253Y-103148599D01*
X194171777Y-103166777D01*
X194153599Y-103183253D01*
X194133893Y-103197868D01*
X194112850Y-103210480D01*
X194090671Y-103220970D01*
X194067572Y-103229235D01*
X194043773Y-103235196D01*
X194019505Y-103238796D01*
X193995001Y-103240000D01*
X193344999Y-103240000D01*
X193320495Y-103238796D01*
X193296227Y-103235196D01*
X193272428Y-103229235D01*
X193249329Y-103220970D01*
X193227150Y-103210480D01*
X193206107Y-103197868D01*
X193186401Y-103183253D01*
X193168223Y-103166777D01*
X193151747Y-103148599D01*
X193137132Y-103128893D01*
X193124520Y-103107850D01*
X193114030Y-103085671D01*
X193105765Y-103062572D01*
X193099804Y-103038773D01*
X193096204Y-103014505D01*
X193095000Y-102990001D01*
X193095000Y-102089999D01*
X193096204Y-102065495D01*
X193099804Y-102041227D01*
X193105765Y-102017428D01*
X193114030Y-101994329D01*
X193124520Y-101972150D01*
X193137132Y-101951107D01*
X193151747Y-101931401D01*
X193168223Y-101913223D01*
X193186401Y-101896747D01*
X193206107Y-101882132D01*
X193227150Y-101869520D01*
X193249329Y-101859030D01*
X193272428Y-101850765D01*
X193296227Y-101844804D01*
X193320495Y-101841204D01*
X193344999Y-101840000D01*
X193995001Y-101840000D01*
X194019505Y-101841204D01*
X194019505Y-101841204D01*
G37*
D12*
X193670000Y-102540000D03*
D11*
G36*
X196069505Y-101841204D02*
G01*
X196093773Y-101844804D01*
X196117572Y-101850765D01*
X196140671Y-101859030D01*
X196162850Y-101869520D01*
X196183893Y-101882132D01*
X196203599Y-101896747D01*
X196221777Y-101913223D01*
X196238253Y-101931401D01*
X196252868Y-101951107D01*
X196265480Y-101972150D01*
X196275970Y-101994329D01*
X196284235Y-102017428D01*
X196290196Y-102041227D01*
X196293796Y-102065495D01*
X196295000Y-102089999D01*
X196295000Y-102990001D01*
X196293796Y-103014505D01*
X196290196Y-103038773D01*
X196284235Y-103062572D01*
X196275970Y-103085671D01*
X196265480Y-103107850D01*
X196252868Y-103128893D01*
X196238253Y-103148599D01*
X196221777Y-103166777D01*
X196203599Y-103183253D01*
X196183893Y-103197868D01*
X196162850Y-103210480D01*
X196140671Y-103220970D01*
X196117572Y-103229235D01*
X196093773Y-103235196D01*
X196069505Y-103238796D01*
X196045001Y-103240000D01*
X195394999Y-103240000D01*
X195370495Y-103238796D01*
X195346227Y-103235196D01*
X195322428Y-103229235D01*
X195299329Y-103220970D01*
X195277150Y-103210480D01*
X195256107Y-103197868D01*
X195236401Y-103183253D01*
X195218223Y-103166777D01*
X195201747Y-103148599D01*
X195187132Y-103128893D01*
X195174520Y-103107850D01*
X195164030Y-103085671D01*
X195155765Y-103062572D01*
X195149804Y-103038773D01*
X195146204Y-103014505D01*
X195145000Y-102990001D01*
X195145000Y-102089999D01*
X195146204Y-102065495D01*
X195149804Y-102041227D01*
X195155765Y-102017428D01*
X195164030Y-101994329D01*
X195174520Y-101972150D01*
X195187132Y-101951107D01*
X195201747Y-101931401D01*
X195218223Y-101913223D01*
X195236401Y-101896747D01*
X195256107Y-101882132D01*
X195277150Y-101869520D01*
X195299329Y-101859030D01*
X195322428Y-101850765D01*
X195346227Y-101844804D01*
X195370495Y-101841204D01*
X195394999Y-101840000D01*
X196045001Y-101840000D01*
X196069505Y-101841204D01*
X196069505Y-101841204D01*
G37*
D12*
X195720000Y-102540000D03*
D11*
G36*
X194019505Y-99936204D02*
G01*
X194043773Y-99939804D01*
X194067572Y-99945765D01*
X194090671Y-99954030D01*
X194112850Y-99964520D01*
X194133893Y-99977132D01*
X194153599Y-99991747D01*
X194171777Y-100008223D01*
X194188253Y-100026401D01*
X194202868Y-100046107D01*
X194215480Y-100067150D01*
X194225970Y-100089329D01*
X194234235Y-100112428D01*
X194240196Y-100136227D01*
X194243796Y-100160495D01*
X194245000Y-100184999D01*
X194245000Y-101085001D01*
X194243796Y-101109505D01*
X194240196Y-101133773D01*
X194234235Y-101157572D01*
X194225970Y-101180671D01*
X194215480Y-101202850D01*
X194202868Y-101223893D01*
X194188253Y-101243599D01*
X194171777Y-101261777D01*
X194153599Y-101278253D01*
X194133893Y-101292868D01*
X194112850Y-101305480D01*
X194090671Y-101315970D01*
X194067572Y-101324235D01*
X194043773Y-101330196D01*
X194019505Y-101333796D01*
X193995001Y-101335000D01*
X193344999Y-101335000D01*
X193320495Y-101333796D01*
X193296227Y-101330196D01*
X193272428Y-101324235D01*
X193249329Y-101315970D01*
X193227150Y-101305480D01*
X193206107Y-101292868D01*
X193186401Y-101278253D01*
X193168223Y-101261777D01*
X193151747Y-101243599D01*
X193137132Y-101223893D01*
X193124520Y-101202850D01*
X193114030Y-101180671D01*
X193105765Y-101157572D01*
X193099804Y-101133773D01*
X193096204Y-101109505D01*
X193095000Y-101085001D01*
X193095000Y-100184999D01*
X193096204Y-100160495D01*
X193099804Y-100136227D01*
X193105765Y-100112428D01*
X193114030Y-100089329D01*
X193124520Y-100067150D01*
X193137132Y-100046107D01*
X193151747Y-100026401D01*
X193168223Y-100008223D01*
X193186401Y-99991747D01*
X193206107Y-99977132D01*
X193227150Y-99964520D01*
X193249329Y-99954030D01*
X193272428Y-99945765D01*
X193296227Y-99939804D01*
X193320495Y-99936204D01*
X193344999Y-99935000D01*
X193995001Y-99935000D01*
X194019505Y-99936204D01*
X194019505Y-99936204D01*
G37*
D12*
X193670000Y-100635000D03*
D11*
G36*
X196069505Y-99936204D02*
G01*
X196093773Y-99939804D01*
X196117572Y-99945765D01*
X196140671Y-99954030D01*
X196162850Y-99964520D01*
X196183893Y-99977132D01*
X196203599Y-99991747D01*
X196221777Y-100008223D01*
X196238253Y-100026401D01*
X196252868Y-100046107D01*
X196265480Y-100067150D01*
X196275970Y-100089329D01*
X196284235Y-100112428D01*
X196290196Y-100136227D01*
X196293796Y-100160495D01*
X196295000Y-100184999D01*
X196295000Y-101085001D01*
X196293796Y-101109505D01*
X196290196Y-101133773D01*
X196284235Y-101157572D01*
X196275970Y-101180671D01*
X196265480Y-101202850D01*
X196252868Y-101223893D01*
X196238253Y-101243599D01*
X196221777Y-101261777D01*
X196203599Y-101278253D01*
X196183893Y-101292868D01*
X196162850Y-101305480D01*
X196140671Y-101315970D01*
X196117572Y-101324235D01*
X196093773Y-101330196D01*
X196069505Y-101333796D01*
X196045001Y-101335000D01*
X195394999Y-101335000D01*
X195370495Y-101333796D01*
X195346227Y-101330196D01*
X195322428Y-101324235D01*
X195299329Y-101315970D01*
X195277150Y-101305480D01*
X195256107Y-101292868D01*
X195236401Y-101278253D01*
X195218223Y-101261777D01*
X195201747Y-101243599D01*
X195187132Y-101223893D01*
X195174520Y-101202850D01*
X195164030Y-101180671D01*
X195155765Y-101157572D01*
X195149804Y-101133773D01*
X195146204Y-101109505D01*
X195145000Y-101085001D01*
X195145000Y-100184999D01*
X195146204Y-100160495D01*
X195149804Y-100136227D01*
X195155765Y-100112428D01*
X195164030Y-100089329D01*
X195174520Y-100067150D01*
X195187132Y-100046107D01*
X195201747Y-100026401D01*
X195218223Y-100008223D01*
X195236401Y-99991747D01*
X195256107Y-99977132D01*
X195277150Y-99964520D01*
X195299329Y-99954030D01*
X195322428Y-99945765D01*
X195346227Y-99939804D01*
X195370495Y-99936204D01*
X195394999Y-99935000D01*
X196045001Y-99935000D01*
X196069505Y-99936204D01*
X196069505Y-99936204D01*
G37*
D12*
X195720000Y-100635000D03*
D11*
G36*
X190479505Y-99671204D02*
G01*
X190503773Y-99674804D01*
X190527572Y-99680765D01*
X190550671Y-99689030D01*
X190572850Y-99699520D01*
X190593893Y-99712132D01*
X190613599Y-99726747D01*
X190631777Y-99743223D01*
X190648253Y-99761401D01*
X190662868Y-99781107D01*
X190675480Y-99802150D01*
X190685970Y-99824329D01*
X190694235Y-99847428D01*
X190700196Y-99871227D01*
X190703796Y-99895495D01*
X190705000Y-99919999D01*
X190705000Y-100570001D01*
X190703796Y-100594505D01*
X190700196Y-100618773D01*
X190694235Y-100642572D01*
X190685970Y-100665671D01*
X190675480Y-100687850D01*
X190662868Y-100708893D01*
X190648253Y-100728599D01*
X190631777Y-100746777D01*
X190613599Y-100763253D01*
X190593893Y-100777868D01*
X190572850Y-100790480D01*
X190550671Y-100800970D01*
X190527572Y-100809235D01*
X190503773Y-100815196D01*
X190479505Y-100818796D01*
X190455001Y-100820000D01*
X189554999Y-100820000D01*
X189530495Y-100818796D01*
X189506227Y-100815196D01*
X189482428Y-100809235D01*
X189459329Y-100800970D01*
X189437150Y-100790480D01*
X189416107Y-100777868D01*
X189396401Y-100763253D01*
X189378223Y-100746777D01*
X189361747Y-100728599D01*
X189347132Y-100708893D01*
X189334520Y-100687850D01*
X189324030Y-100665671D01*
X189315765Y-100642572D01*
X189309804Y-100618773D01*
X189306204Y-100594505D01*
X189305000Y-100570001D01*
X189305000Y-99919999D01*
X189306204Y-99895495D01*
X189309804Y-99871227D01*
X189315765Y-99847428D01*
X189324030Y-99824329D01*
X189334520Y-99802150D01*
X189347132Y-99781107D01*
X189361747Y-99761401D01*
X189378223Y-99743223D01*
X189396401Y-99726747D01*
X189416107Y-99712132D01*
X189437150Y-99699520D01*
X189459329Y-99689030D01*
X189482428Y-99680765D01*
X189506227Y-99674804D01*
X189530495Y-99671204D01*
X189554999Y-99670000D01*
X190455001Y-99670000D01*
X190479505Y-99671204D01*
X190479505Y-99671204D01*
G37*
D12*
X190005000Y-100245000D03*
D11*
G36*
X190479505Y-101721204D02*
G01*
X190503773Y-101724804D01*
X190527572Y-101730765D01*
X190550671Y-101739030D01*
X190572850Y-101749520D01*
X190593893Y-101762132D01*
X190613599Y-101776747D01*
X190631777Y-101793223D01*
X190648253Y-101811401D01*
X190662868Y-101831107D01*
X190675480Y-101852150D01*
X190685970Y-101874329D01*
X190694235Y-101897428D01*
X190700196Y-101921227D01*
X190703796Y-101945495D01*
X190705000Y-101969999D01*
X190705000Y-102620001D01*
X190703796Y-102644505D01*
X190700196Y-102668773D01*
X190694235Y-102692572D01*
X190685970Y-102715671D01*
X190675480Y-102737850D01*
X190662868Y-102758893D01*
X190648253Y-102778599D01*
X190631777Y-102796777D01*
X190613599Y-102813253D01*
X190593893Y-102827868D01*
X190572850Y-102840480D01*
X190550671Y-102850970D01*
X190527572Y-102859235D01*
X190503773Y-102865196D01*
X190479505Y-102868796D01*
X190455001Y-102870000D01*
X189554999Y-102870000D01*
X189530495Y-102868796D01*
X189506227Y-102865196D01*
X189482428Y-102859235D01*
X189459329Y-102850970D01*
X189437150Y-102840480D01*
X189416107Y-102827868D01*
X189396401Y-102813253D01*
X189378223Y-102796777D01*
X189361747Y-102778599D01*
X189347132Y-102758893D01*
X189334520Y-102737850D01*
X189324030Y-102715671D01*
X189315765Y-102692572D01*
X189309804Y-102668773D01*
X189306204Y-102644505D01*
X189305000Y-102620001D01*
X189305000Y-101969999D01*
X189306204Y-101945495D01*
X189309804Y-101921227D01*
X189315765Y-101897428D01*
X189324030Y-101874329D01*
X189334520Y-101852150D01*
X189347132Y-101831107D01*
X189361747Y-101811401D01*
X189378223Y-101793223D01*
X189396401Y-101776747D01*
X189416107Y-101762132D01*
X189437150Y-101749520D01*
X189459329Y-101739030D01*
X189482428Y-101730765D01*
X189506227Y-101724804D01*
X189530495Y-101721204D01*
X189554999Y-101720000D01*
X190455001Y-101720000D01*
X190479505Y-101721204D01*
X190479505Y-101721204D01*
G37*
D12*
X190005000Y-102295000D03*
D11*
G36*
X188574505Y-99671204D02*
G01*
X188598773Y-99674804D01*
X188622572Y-99680765D01*
X188645671Y-99689030D01*
X188667850Y-99699520D01*
X188688893Y-99712132D01*
X188708599Y-99726747D01*
X188726777Y-99743223D01*
X188743253Y-99761401D01*
X188757868Y-99781107D01*
X188770480Y-99802150D01*
X188780970Y-99824329D01*
X188789235Y-99847428D01*
X188795196Y-99871227D01*
X188798796Y-99895495D01*
X188800000Y-99919999D01*
X188800000Y-100570001D01*
X188798796Y-100594505D01*
X188795196Y-100618773D01*
X188789235Y-100642572D01*
X188780970Y-100665671D01*
X188770480Y-100687850D01*
X188757868Y-100708893D01*
X188743253Y-100728599D01*
X188726777Y-100746777D01*
X188708599Y-100763253D01*
X188688893Y-100777868D01*
X188667850Y-100790480D01*
X188645671Y-100800970D01*
X188622572Y-100809235D01*
X188598773Y-100815196D01*
X188574505Y-100818796D01*
X188550001Y-100820000D01*
X187649999Y-100820000D01*
X187625495Y-100818796D01*
X187601227Y-100815196D01*
X187577428Y-100809235D01*
X187554329Y-100800970D01*
X187532150Y-100790480D01*
X187511107Y-100777868D01*
X187491401Y-100763253D01*
X187473223Y-100746777D01*
X187456747Y-100728599D01*
X187442132Y-100708893D01*
X187429520Y-100687850D01*
X187419030Y-100665671D01*
X187410765Y-100642572D01*
X187404804Y-100618773D01*
X187401204Y-100594505D01*
X187400000Y-100570001D01*
X187400000Y-99919999D01*
X187401204Y-99895495D01*
X187404804Y-99871227D01*
X187410765Y-99847428D01*
X187419030Y-99824329D01*
X187429520Y-99802150D01*
X187442132Y-99781107D01*
X187456747Y-99761401D01*
X187473223Y-99743223D01*
X187491401Y-99726747D01*
X187511107Y-99712132D01*
X187532150Y-99699520D01*
X187554329Y-99689030D01*
X187577428Y-99680765D01*
X187601227Y-99674804D01*
X187625495Y-99671204D01*
X187649999Y-99670000D01*
X188550001Y-99670000D01*
X188574505Y-99671204D01*
X188574505Y-99671204D01*
G37*
D12*
X188100000Y-100245000D03*
D11*
G36*
X188574505Y-101721204D02*
G01*
X188598773Y-101724804D01*
X188622572Y-101730765D01*
X188645671Y-101739030D01*
X188667850Y-101749520D01*
X188688893Y-101762132D01*
X188708599Y-101776747D01*
X188726777Y-101793223D01*
X188743253Y-101811401D01*
X188757868Y-101831107D01*
X188770480Y-101852150D01*
X188780970Y-101874329D01*
X188789235Y-101897428D01*
X188795196Y-101921227D01*
X188798796Y-101945495D01*
X188800000Y-101969999D01*
X188800000Y-102620001D01*
X188798796Y-102644505D01*
X188795196Y-102668773D01*
X188789235Y-102692572D01*
X188780970Y-102715671D01*
X188770480Y-102737850D01*
X188757868Y-102758893D01*
X188743253Y-102778599D01*
X188726777Y-102796777D01*
X188708599Y-102813253D01*
X188688893Y-102827868D01*
X188667850Y-102840480D01*
X188645671Y-102850970D01*
X188622572Y-102859235D01*
X188598773Y-102865196D01*
X188574505Y-102868796D01*
X188550001Y-102870000D01*
X187649999Y-102870000D01*
X187625495Y-102868796D01*
X187601227Y-102865196D01*
X187577428Y-102859235D01*
X187554329Y-102850970D01*
X187532150Y-102840480D01*
X187511107Y-102827868D01*
X187491401Y-102813253D01*
X187473223Y-102796777D01*
X187456747Y-102778599D01*
X187442132Y-102758893D01*
X187429520Y-102737850D01*
X187419030Y-102715671D01*
X187410765Y-102692572D01*
X187404804Y-102668773D01*
X187401204Y-102644505D01*
X187400000Y-102620001D01*
X187400000Y-101969999D01*
X187401204Y-101945495D01*
X187404804Y-101921227D01*
X187410765Y-101897428D01*
X187419030Y-101874329D01*
X187429520Y-101852150D01*
X187442132Y-101831107D01*
X187456747Y-101811401D01*
X187473223Y-101793223D01*
X187491401Y-101776747D01*
X187511107Y-101762132D01*
X187532150Y-101749520D01*
X187554329Y-101739030D01*
X187577428Y-101730765D01*
X187601227Y-101724804D01*
X187625495Y-101721204D01*
X187649999Y-101720000D01*
X188550001Y-101720000D01*
X188574505Y-101721204D01*
X188574505Y-101721204D01*
G37*
D12*
X188100000Y-102295000D03*
D11*
G36*
X186544505Y-105651204D02*
G01*
X186568773Y-105654804D01*
X186592572Y-105660765D01*
X186615671Y-105669030D01*
X186637850Y-105679520D01*
X186658893Y-105692132D01*
X186678599Y-105706747D01*
X186696777Y-105723223D01*
X186713253Y-105741401D01*
X186727868Y-105761107D01*
X186740480Y-105782150D01*
X186750970Y-105804329D01*
X186759235Y-105827428D01*
X186765196Y-105851227D01*
X186768796Y-105875495D01*
X186770000Y-105899999D01*
X186770000Y-106800001D01*
X186768796Y-106824505D01*
X186765196Y-106848773D01*
X186759235Y-106872572D01*
X186750970Y-106895671D01*
X186740480Y-106917850D01*
X186727868Y-106938893D01*
X186713253Y-106958599D01*
X186696777Y-106976777D01*
X186678599Y-106993253D01*
X186658893Y-107007868D01*
X186637850Y-107020480D01*
X186615671Y-107030970D01*
X186592572Y-107039235D01*
X186568773Y-107045196D01*
X186544505Y-107048796D01*
X186520001Y-107050000D01*
X185869999Y-107050000D01*
X185845495Y-107048796D01*
X185821227Y-107045196D01*
X185797428Y-107039235D01*
X185774329Y-107030970D01*
X185752150Y-107020480D01*
X185731107Y-107007868D01*
X185711401Y-106993253D01*
X185693223Y-106976777D01*
X185676747Y-106958599D01*
X185662132Y-106938893D01*
X185649520Y-106917850D01*
X185639030Y-106895671D01*
X185630765Y-106872572D01*
X185624804Y-106848773D01*
X185621204Y-106824505D01*
X185620000Y-106800001D01*
X185620000Y-105899999D01*
X185621204Y-105875495D01*
X185624804Y-105851227D01*
X185630765Y-105827428D01*
X185639030Y-105804329D01*
X185649520Y-105782150D01*
X185662132Y-105761107D01*
X185676747Y-105741401D01*
X185693223Y-105723223D01*
X185711401Y-105706747D01*
X185731107Y-105692132D01*
X185752150Y-105679520D01*
X185774329Y-105669030D01*
X185797428Y-105660765D01*
X185821227Y-105654804D01*
X185845495Y-105651204D01*
X185869999Y-105650000D01*
X186520001Y-105650000D01*
X186544505Y-105651204D01*
X186544505Y-105651204D01*
G37*
D12*
X186195000Y-106350000D03*
D11*
G36*
X188594505Y-105651204D02*
G01*
X188618773Y-105654804D01*
X188642572Y-105660765D01*
X188665671Y-105669030D01*
X188687850Y-105679520D01*
X188708893Y-105692132D01*
X188728599Y-105706747D01*
X188746777Y-105723223D01*
X188763253Y-105741401D01*
X188777868Y-105761107D01*
X188790480Y-105782150D01*
X188800970Y-105804329D01*
X188809235Y-105827428D01*
X188815196Y-105851227D01*
X188818796Y-105875495D01*
X188820000Y-105899999D01*
X188820000Y-106800001D01*
X188818796Y-106824505D01*
X188815196Y-106848773D01*
X188809235Y-106872572D01*
X188800970Y-106895671D01*
X188790480Y-106917850D01*
X188777868Y-106938893D01*
X188763253Y-106958599D01*
X188746777Y-106976777D01*
X188728599Y-106993253D01*
X188708893Y-107007868D01*
X188687850Y-107020480D01*
X188665671Y-107030970D01*
X188642572Y-107039235D01*
X188618773Y-107045196D01*
X188594505Y-107048796D01*
X188570001Y-107050000D01*
X187919999Y-107050000D01*
X187895495Y-107048796D01*
X187871227Y-107045196D01*
X187847428Y-107039235D01*
X187824329Y-107030970D01*
X187802150Y-107020480D01*
X187781107Y-107007868D01*
X187761401Y-106993253D01*
X187743223Y-106976777D01*
X187726747Y-106958599D01*
X187712132Y-106938893D01*
X187699520Y-106917850D01*
X187689030Y-106895671D01*
X187680765Y-106872572D01*
X187674804Y-106848773D01*
X187671204Y-106824505D01*
X187670000Y-106800001D01*
X187670000Y-105899999D01*
X187671204Y-105875495D01*
X187674804Y-105851227D01*
X187680765Y-105827428D01*
X187689030Y-105804329D01*
X187699520Y-105782150D01*
X187712132Y-105761107D01*
X187726747Y-105741401D01*
X187743223Y-105723223D01*
X187761401Y-105706747D01*
X187781107Y-105692132D01*
X187802150Y-105679520D01*
X187824329Y-105669030D01*
X187847428Y-105660765D01*
X187871227Y-105654804D01*
X187895495Y-105651204D01*
X187919999Y-105650000D01*
X188570001Y-105650000D01*
X188594505Y-105651204D01*
X188594505Y-105651204D01*
G37*
D12*
X188245000Y-106350000D03*
D11*
G36*
X183614505Y-95491204D02*
G01*
X183638773Y-95494804D01*
X183662572Y-95500765D01*
X183685671Y-95509030D01*
X183707850Y-95519520D01*
X183728893Y-95532132D01*
X183748599Y-95546747D01*
X183766777Y-95563223D01*
X183783253Y-95581401D01*
X183797868Y-95601107D01*
X183810480Y-95622150D01*
X183820970Y-95644329D01*
X183829235Y-95667428D01*
X183835196Y-95691227D01*
X183838796Y-95715495D01*
X183840000Y-95739999D01*
X183840000Y-96640001D01*
X183838796Y-96664505D01*
X183835196Y-96688773D01*
X183829235Y-96712572D01*
X183820970Y-96735671D01*
X183810480Y-96757850D01*
X183797868Y-96778893D01*
X183783253Y-96798599D01*
X183766777Y-96816777D01*
X183748599Y-96833253D01*
X183728893Y-96847868D01*
X183707850Y-96860480D01*
X183685671Y-96870970D01*
X183662572Y-96879235D01*
X183638773Y-96885196D01*
X183614505Y-96888796D01*
X183590001Y-96890000D01*
X182939999Y-96890000D01*
X182915495Y-96888796D01*
X182891227Y-96885196D01*
X182867428Y-96879235D01*
X182844329Y-96870970D01*
X182822150Y-96860480D01*
X182801107Y-96847868D01*
X182781401Y-96833253D01*
X182763223Y-96816777D01*
X182746747Y-96798599D01*
X182732132Y-96778893D01*
X182719520Y-96757850D01*
X182709030Y-96735671D01*
X182700765Y-96712572D01*
X182694804Y-96688773D01*
X182691204Y-96664505D01*
X182690000Y-96640001D01*
X182690000Y-95739999D01*
X182691204Y-95715495D01*
X182694804Y-95691227D01*
X182700765Y-95667428D01*
X182709030Y-95644329D01*
X182719520Y-95622150D01*
X182732132Y-95601107D01*
X182746747Y-95581401D01*
X182763223Y-95563223D01*
X182781401Y-95546747D01*
X182801107Y-95532132D01*
X182822150Y-95519520D01*
X182844329Y-95509030D01*
X182867428Y-95500765D01*
X182891227Y-95494804D01*
X182915495Y-95491204D01*
X182939999Y-95490000D01*
X183590001Y-95490000D01*
X183614505Y-95491204D01*
X183614505Y-95491204D01*
G37*
D12*
X183265000Y-96190000D03*
D11*
G36*
X185664505Y-95491204D02*
G01*
X185688773Y-95494804D01*
X185712572Y-95500765D01*
X185735671Y-95509030D01*
X185757850Y-95519520D01*
X185778893Y-95532132D01*
X185798599Y-95546747D01*
X185816777Y-95563223D01*
X185833253Y-95581401D01*
X185847868Y-95601107D01*
X185860480Y-95622150D01*
X185870970Y-95644329D01*
X185879235Y-95667428D01*
X185885196Y-95691227D01*
X185888796Y-95715495D01*
X185890000Y-95739999D01*
X185890000Y-96640001D01*
X185888796Y-96664505D01*
X185885196Y-96688773D01*
X185879235Y-96712572D01*
X185870970Y-96735671D01*
X185860480Y-96757850D01*
X185847868Y-96778893D01*
X185833253Y-96798599D01*
X185816777Y-96816777D01*
X185798599Y-96833253D01*
X185778893Y-96847868D01*
X185757850Y-96860480D01*
X185735671Y-96870970D01*
X185712572Y-96879235D01*
X185688773Y-96885196D01*
X185664505Y-96888796D01*
X185640001Y-96890000D01*
X184989999Y-96890000D01*
X184965495Y-96888796D01*
X184941227Y-96885196D01*
X184917428Y-96879235D01*
X184894329Y-96870970D01*
X184872150Y-96860480D01*
X184851107Y-96847868D01*
X184831401Y-96833253D01*
X184813223Y-96816777D01*
X184796747Y-96798599D01*
X184782132Y-96778893D01*
X184769520Y-96757850D01*
X184759030Y-96735671D01*
X184750765Y-96712572D01*
X184744804Y-96688773D01*
X184741204Y-96664505D01*
X184740000Y-96640001D01*
X184740000Y-95739999D01*
X184741204Y-95715495D01*
X184744804Y-95691227D01*
X184750765Y-95667428D01*
X184759030Y-95644329D01*
X184769520Y-95622150D01*
X184782132Y-95601107D01*
X184796747Y-95581401D01*
X184813223Y-95563223D01*
X184831401Y-95546747D01*
X184851107Y-95532132D01*
X184872150Y-95519520D01*
X184894329Y-95509030D01*
X184917428Y-95500765D01*
X184941227Y-95494804D01*
X184965495Y-95491204D01*
X184989999Y-95490000D01*
X185640001Y-95490000D01*
X185664505Y-95491204D01*
X185664505Y-95491204D01*
G37*
D12*
X185315000Y-96190000D03*
D11*
G36*
X194019505Y-73901204D02*
G01*
X194043773Y-73904804D01*
X194067572Y-73910765D01*
X194090671Y-73919030D01*
X194112850Y-73929520D01*
X194133893Y-73942132D01*
X194153599Y-73956747D01*
X194171777Y-73973223D01*
X194188253Y-73991401D01*
X194202868Y-74011107D01*
X194215480Y-74032150D01*
X194225970Y-74054329D01*
X194234235Y-74077428D01*
X194240196Y-74101227D01*
X194243796Y-74125495D01*
X194245000Y-74149999D01*
X194245000Y-75050001D01*
X194243796Y-75074505D01*
X194240196Y-75098773D01*
X194234235Y-75122572D01*
X194225970Y-75145671D01*
X194215480Y-75167850D01*
X194202868Y-75188893D01*
X194188253Y-75208599D01*
X194171777Y-75226777D01*
X194153599Y-75243253D01*
X194133893Y-75257868D01*
X194112850Y-75270480D01*
X194090671Y-75280970D01*
X194067572Y-75289235D01*
X194043773Y-75295196D01*
X194019505Y-75298796D01*
X193995001Y-75300000D01*
X193344999Y-75300000D01*
X193320495Y-75298796D01*
X193296227Y-75295196D01*
X193272428Y-75289235D01*
X193249329Y-75280970D01*
X193227150Y-75270480D01*
X193206107Y-75257868D01*
X193186401Y-75243253D01*
X193168223Y-75226777D01*
X193151747Y-75208599D01*
X193137132Y-75188893D01*
X193124520Y-75167850D01*
X193114030Y-75145671D01*
X193105765Y-75122572D01*
X193099804Y-75098773D01*
X193096204Y-75074505D01*
X193095000Y-75050001D01*
X193095000Y-74149999D01*
X193096204Y-74125495D01*
X193099804Y-74101227D01*
X193105765Y-74077428D01*
X193114030Y-74054329D01*
X193124520Y-74032150D01*
X193137132Y-74011107D01*
X193151747Y-73991401D01*
X193168223Y-73973223D01*
X193186401Y-73956747D01*
X193206107Y-73942132D01*
X193227150Y-73929520D01*
X193249329Y-73919030D01*
X193272428Y-73910765D01*
X193296227Y-73904804D01*
X193320495Y-73901204D01*
X193344999Y-73900000D01*
X193995001Y-73900000D01*
X194019505Y-73901204D01*
X194019505Y-73901204D01*
G37*
D12*
X193670000Y-74600000D03*
D11*
G36*
X196069505Y-73901204D02*
G01*
X196093773Y-73904804D01*
X196117572Y-73910765D01*
X196140671Y-73919030D01*
X196162850Y-73929520D01*
X196183893Y-73942132D01*
X196203599Y-73956747D01*
X196221777Y-73973223D01*
X196238253Y-73991401D01*
X196252868Y-74011107D01*
X196265480Y-74032150D01*
X196275970Y-74054329D01*
X196284235Y-74077428D01*
X196290196Y-74101227D01*
X196293796Y-74125495D01*
X196295000Y-74149999D01*
X196295000Y-75050001D01*
X196293796Y-75074505D01*
X196290196Y-75098773D01*
X196284235Y-75122572D01*
X196275970Y-75145671D01*
X196265480Y-75167850D01*
X196252868Y-75188893D01*
X196238253Y-75208599D01*
X196221777Y-75226777D01*
X196203599Y-75243253D01*
X196183893Y-75257868D01*
X196162850Y-75270480D01*
X196140671Y-75280970D01*
X196117572Y-75289235D01*
X196093773Y-75295196D01*
X196069505Y-75298796D01*
X196045001Y-75300000D01*
X195394999Y-75300000D01*
X195370495Y-75298796D01*
X195346227Y-75295196D01*
X195322428Y-75289235D01*
X195299329Y-75280970D01*
X195277150Y-75270480D01*
X195256107Y-75257868D01*
X195236401Y-75243253D01*
X195218223Y-75226777D01*
X195201747Y-75208599D01*
X195187132Y-75188893D01*
X195174520Y-75167850D01*
X195164030Y-75145671D01*
X195155765Y-75122572D01*
X195149804Y-75098773D01*
X195146204Y-75074505D01*
X195145000Y-75050001D01*
X195145000Y-74149999D01*
X195146204Y-74125495D01*
X195149804Y-74101227D01*
X195155765Y-74077428D01*
X195164030Y-74054329D01*
X195174520Y-74032150D01*
X195187132Y-74011107D01*
X195201747Y-73991401D01*
X195218223Y-73973223D01*
X195236401Y-73956747D01*
X195256107Y-73942132D01*
X195277150Y-73929520D01*
X195299329Y-73919030D01*
X195322428Y-73910765D01*
X195346227Y-73904804D01*
X195370495Y-73901204D01*
X195394999Y-73900000D01*
X196045001Y-73900000D01*
X196069505Y-73901204D01*
X196069505Y-73901204D01*
G37*
D12*
X195720000Y-74600000D03*
D11*
G36*
X194019505Y-71996204D02*
G01*
X194043773Y-71999804D01*
X194067572Y-72005765D01*
X194090671Y-72014030D01*
X194112850Y-72024520D01*
X194133893Y-72037132D01*
X194153599Y-72051747D01*
X194171777Y-72068223D01*
X194188253Y-72086401D01*
X194202868Y-72106107D01*
X194215480Y-72127150D01*
X194225970Y-72149329D01*
X194234235Y-72172428D01*
X194240196Y-72196227D01*
X194243796Y-72220495D01*
X194245000Y-72244999D01*
X194245000Y-73145001D01*
X194243796Y-73169505D01*
X194240196Y-73193773D01*
X194234235Y-73217572D01*
X194225970Y-73240671D01*
X194215480Y-73262850D01*
X194202868Y-73283893D01*
X194188253Y-73303599D01*
X194171777Y-73321777D01*
X194153599Y-73338253D01*
X194133893Y-73352868D01*
X194112850Y-73365480D01*
X194090671Y-73375970D01*
X194067572Y-73384235D01*
X194043773Y-73390196D01*
X194019505Y-73393796D01*
X193995001Y-73395000D01*
X193344999Y-73395000D01*
X193320495Y-73393796D01*
X193296227Y-73390196D01*
X193272428Y-73384235D01*
X193249329Y-73375970D01*
X193227150Y-73365480D01*
X193206107Y-73352868D01*
X193186401Y-73338253D01*
X193168223Y-73321777D01*
X193151747Y-73303599D01*
X193137132Y-73283893D01*
X193124520Y-73262850D01*
X193114030Y-73240671D01*
X193105765Y-73217572D01*
X193099804Y-73193773D01*
X193096204Y-73169505D01*
X193095000Y-73145001D01*
X193095000Y-72244999D01*
X193096204Y-72220495D01*
X193099804Y-72196227D01*
X193105765Y-72172428D01*
X193114030Y-72149329D01*
X193124520Y-72127150D01*
X193137132Y-72106107D01*
X193151747Y-72086401D01*
X193168223Y-72068223D01*
X193186401Y-72051747D01*
X193206107Y-72037132D01*
X193227150Y-72024520D01*
X193249329Y-72014030D01*
X193272428Y-72005765D01*
X193296227Y-71999804D01*
X193320495Y-71996204D01*
X193344999Y-71995000D01*
X193995001Y-71995000D01*
X194019505Y-71996204D01*
X194019505Y-71996204D01*
G37*
D12*
X193670000Y-72695000D03*
D11*
G36*
X196069505Y-71996204D02*
G01*
X196093773Y-71999804D01*
X196117572Y-72005765D01*
X196140671Y-72014030D01*
X196162850Y-72024520D01*
X196183893Y-72037132D01*
X196203599Y-72051747D01*
X196221777Y-72068223D01*
X196238253Y-72086401D01*
X196252868Y-72106107D01*
X196265480Y-72127150D01*
X196275970Y-72149329D01*
X196284235Y-72172428D01*
X196290196Y-72196227D01*
X196293796Y-72220495D01*
X196295000Y-72244999D01*
X196295000Y-73145001D01*
X196293796Y-73169505D01*
X196290196Y-73193773D01*
X196284235Y-73217572D01*
X196275970Y-73240671D01*
X196265480Y-73262850D01*
X196252868Y-73283893D01*
X196238253Y-73303599D01*
X196221777Y-73321777D01*
X196203599Y-73338253D01*
X196183893Y-73352868D01*
X196162850Y-73365480D01*
X196140671Y-73375970D01*
X196117572Y-73384235D01*
X196093773Y-73390196D01*
X196069505Y-73393796D01*
X196045001Y-73395000D01*
X195394999Y-73395000D01*
X195370495Y-73393796D01*
X195346227Y-73390196D01*
X195322428Y-73384235D01*
X195299329Y-73375970D01*
X195277150Y-73365480D01*
X195256107Y-73352868D01*
X195236401Y-73338253D01*
X195218223Y-73321777D01*
X195201747Y-73303599D01*
X195187132Y-73283893D01*
X195174520Y-73262850D01*
X195164030Y-73240671D01*
X195155765Y-73217572D01*
X195149804Y-73193773D01*
X195146204Y-73169505D01*
X195145000Y-73145001D01*
X195145000Y-72244999D01*
X195146204Y-72220495D01*
X195149804Y-72196227D01*
X195155765Y-72172428D01*
X195164030Y-72149329D01*
X195174520Y-72127150D01*
X195187132Y-72106107D01*
X195201747Y-72086401D01*
X195218223Y-72068223D01*
X195236401Y-72051747D01*
X195256107Y-72037132D01*
X195277150Y-72024520D01*
X195299329Y-72014030D01*
X195322428Y-72005765D01*
X195346227Y-71999804D01*
X195370495Y-71996204D01*
X195394999Y-71995000D01*
X196045001Y-71995000D01*
X196069505Y-71996204D01*
X196069505Y-71996204D01*
G37*
D12*
X195720000Y-72695000D03*
D11*
G36*
X190479505Y-71740204D02*
G01*
X190503773Y-71743804D01*
X190527572Y-71749765D01*
X190550671Y-71758030D01*
X190572850Y-71768520D01*
X190593893Y-71781132D01*
X190613599Y-71795747D01*
X190631777Y-71812223D01*
X190648253Y-71830401D01*
X190662868Y-71850107D01*
X190675480Y-71871150D01*
X190685970Y-71893329D01*
X190694235Y-71916428D01*
X190700196Y-71940227D01*
X190703796Y-71964495D01*
X190705000Y-71988999D01*
X190705000Y-72639001D01*
X190703796Y-72663505D01*
X190700196Y-72687773D01*
X190694235Y-72711572D01*
X190685970Y-72734671D01*
X190675480Y-72756850D01*
X190662868Y-72777893D01*
X190648253Y-72797599D01*
X190631777Y-72815777D01*
X190613599Y-72832253D01*
X190593893Y-72846868D01*
X190572850Y-72859480D01*
X190550671Y-72869970D01*
X190527572Y-72878235D01*
X190503773Y-72884196D01*
X190479505Y-72887796D01*
X190455001Y-72889000D01*
X189554999Y-72889000D01*
X189530495Y-72887796D01*
X189506227Y-72884196D01*
X189482428Y-72878235D01*
X189459329Y-72869970D01*
X189437150Y-72859480D01*
X189416107Y-72846868D01*
X189396401Y-72832253D01*
X189378223Y-72815777D01*
X189361747Y-72797599D01*
X189347132Y-72777893D01*
X189334520Y-72756850D01*
X189324030Y-72734671D01*
X189315765Y-72711572D01*
X189309804Y-72687773D01*
X189306204Y-72663505D01*
X189305000Y-72639001D01*
X189305000Y-71988999D01*
X189306204Y-71964495D01*
X189309804Y-71940227D01*
X189315765Y-71916428D01*
X189324030Y-71893329D01*
X189334520Y-71871150D01*
X189347132Y-71850107D01*
X189361747Y-71830401D01*
X189378223Y-71812223D01*
X189396401Y-71795747D01*
X189416107Y-71781132D01*
X189437150Y-71768520D01*
X189459329Y-71758030D01*
X189482428Y-71749765D01*
X189506227Y-71743804D01*
X189530495Y-71740204D01*
X189554999Y-71739000D01*
X190455001Y-71739000D01*
X190479505Y-71740204D01*
X190479505Y-71740204D01*
G37*
D12*
X190005000Y-72314000D03*
D11*
G36*
X190479505Y-73790204D02*
G01*
X190503773Y-73793804D01*
X190527572Y-73799765D01*
X190550671Y-73808030D01*
X190572850Y-73818520D01*
X190593893Y-73831132D01*
X190613599Y-73845747D01*
X190631777Y-73862223D01*
X190648253Y-73880401D01*
X190662868Y-73900107D01*
X190675480Y-73921150D01*
X190685970Y-73943329D01*
X190694235Y-73966428D01*
X190700196Y-73990227D01*
X190703796Y-74014495D01*
X190705000Y-74038999D01*
X190705000Y-74689001D01*
X190703796Y-74713505D01*
X190700196Y-74737773D01*
X190694235Y-74761572D01*
X190685970Y-74784671D01*
X190675480Y-74806850D01*
X190662868Y-74827893D01*
X190648253Y-74847599D01*
X190631777Y-74865777D01*
X190613599Y-74882253D01*
X190593893Y-74896868D01*
X190572850Y-74909480D01*
X190550671Y-74919970D01*
X190527572Y-74928235D01*
X190503773Y-74934196D01*
X190479505Y-74937796D01*
X190455001Y-74939000D01*
X189554999Y-74939000D01*
X189530495Y-74937796D01*
X189506227Y-74934196D01*
X189482428Y-74928235D01*
X189459329Y-74919970D01*
X189437150Y-74909480D01*
X189416107Y-74896868D01*
X189396401Y-74882253D01*
X189378223Y-74865777D01*
X189361747Y-74847599D01*
X189347132Y-74827893D01*
X189334520Y-74806850D01*
X189324030Y-74784671D01*
X189315765Y-74761572D01*
X189309804Y-74737773D01*
X189306204Y-74713505D01*
X189305000Y-74689001D01*
X189305000Y-74038999D01*
X189306204Y-74014495D01*
X189309804Y-73990227D01*
X189315765Y-73966428D01*
X189324030Y-73943329D01*
X189334520Y-73921150D01*
X189347132Y-73900107D01*
X189361747Y-73880401D01*
X189378223Y-73862223D01*
X189396401Y-73845747D01*
X189416107Y-73831132D01*
X189437150Y-73818520D01*
X189459329Y-73808030D01*
X189482428Y-73799765D01*
X189506227Y-73793804D01*
X189530495Y-73790204D01*
X189554999Y-73789000D01*
X190455001Y-73789000D01*
X190479505Y-73790204D01*
X190479505Y-73790204D01*
G37*
D12*
X190005000Y-74364000D03*
D11*
G36*
X188574505Y-71740204D02*
G01*
X188598773Y-71743804D01*
X188622572Y-71749765D01*
X188645671Y-71758030D01*
X188667850Y-71768520D01*
X188688893Y-71781132D01*
X188708599Y-71795747D01*
X188726777Y-71812223D01*
X188743253Y-71830401D01*
X188757868Y-71850107D01*
X188770480Y-71871150D01*
X188780970Y-71893329D01*
X188789235Y-71916428D01*
X188795196Y-71940227D01*
X188798796Y-71964495D01*
X188800000Y-71988999D01*
X188800000Y-72639001D01*
X188798796Y-72663505D01*
X188795196Y-72687773D01*
X188789235Y-72711572D01*
X188780970Y-72734671D01*
X188770480Y-72756850D01*
X188757868Y-72777893D01*
X188743253Y-72797599D01*
X188726777Y-72815777D01*
X188708599Y-72832253D01*
X188688893Y-72846868D01*
X188667850Y-72859480D01*
X188645671Y-72869970D01*
X188622572Y-72878235D01*
X188598773Y-72884196D01*
X188574505Y-72887796D01*
X188550001Y-72889000D01*
X187649999Y-72889000D01*
X187625495Y-72887796D01*
X187601227Y-72884196D01*
X187577428Y-72878235D01*
X187554329Y-72869970D01*
X187532150Y-72859480D01*
X187511107Y-72846868D01*
X187491401Y-72832253D01*
X187473223Y-72815777D01*
X187456747Y-72797599D01*
X187442132Y-72777893D01*
X187429520Y-72756850D01*
X187419030Y-72734671D01*
X187410765Y-72711572D01*
X187404804Y-72687773D01*
X187401204Y-72663505D01*
X187400000Y-72639001D01*
X187400000Y-71988999D01*
X187401204Y-71964495D01*
X187404804Y-71940227D01*
X187410765Y-71916428D01*
X187419030Y-71893329D01*
X187429520Y-71871150D01*
X187442132Y-71850107D01*
X187456747Y-71830401D01*
X187473223Y-71812223D01*
X187491401Y-71795747D01*
X187511107Y-71781132D01*
X187532150Y-71768520D01*
X187554329Y-71758030D01*
X187577428Y-71749765D01*
X187601227Y-71743804D01*
X187625495Y-71740204D01*
X187649999Y-71739000D01*
X188550001Y-71739000D01*
X188574505Y-71740204D01*
X188574505Y-71740204D01*
G37*
D12*
X188100000Y-72314000D03*
D11*
G36*
X188574505Y-73790204D02*
G01*
X188598773Y-73793804D01*
X188622572Y-73799765D01*
X188645671Y-73808030D01*
X188667850Y-73818520D01*
X188688893Y-73831132D01*
X188708599Y-73845747D01*
X188726777Y-73862223D01*
X188743253Y-73880401D01*
X188757868Y-73900107D01*
X188770480Y-73921150D01*
X188780970Y-73943329D01*
X188789235Y-73966428D01*
X188795196Y-73990227D01*
X188798796Y-74014495D01*
X188800000Y-74038999D01*
X188800000Y-74689001D01*
X188798796Y-74713505D01*
X188795196Y-74737773D01*
X188789235Y-74761572D01*
X188780970Y-74784671D01*
X188770480Y-74806850D01*
X188757868Y-74827893D01*
X188743253Y-74847599D01*
X188726777Y-74865777D01*
X188708599Y-74882253D01*
X188688893Y-74896868D01*
X188667850Y-74909480D01*
X188645671Y-74919970D01*
X188622572Y-74928235D01*
X188598773Y-74934196D01*
X188574505Y-74937796D01*
X188550001Y-74939000D01*
X187649999Y-74939000D01*
X187625495Y-74937796D01*
X187601227Y-74934196D01*
X187577428Y-74928235D01*
X187554329Y-74919970D01*
X187532150Y-74909480D01*
X187511107Y-74896868D01*
X187491401Y-74882253D01*
X187473223Y-74865777D01*
X187456747Y-74847599D01*
X187442132Y-74827893D01*
X187429520Y-74806850D01*
X187419030Y-74784671D01*
X187410765Y-74761572D01*
X187404804Y-74737773D01*
X187401204Y-74713505D01*
X187400000Y-74689001D01*
X187400000Y-74038999D01*
X187401204Y-74014495D01*
X187404804Y-73990227D01*
X187410765Y-73966428D01*
X187419030Y-73943329D01*
X187429520Y-73921150D01*
X187442132Y-73900107D01*
X187456747Y-73880401D01*
X187473223Y-73862223D01*
X187491401Y-73845747D01*
X187511107Y-73831132D01*
X187532150Y-73818520D01*
X187554329Y-73808030D01*
X187577428Y-73799765D01*
X187601227Y-73793804D01*
X187625495Y-73790204D01*
X187649999Y-73789000D01*
X188550001Y-73789000D01*
X188574505Y-73790204D01*
X188574505Y-73790204D01*
G37*
D12*
X188100000Y-74364000D03*
D11*
G36*
X186544505Y-77711204D02*
G01*
X186568773Y-77714804D01*
X186592572Y-77720765D01*
X186615671Y-77729030D01*
X186637850Y-77739520D01*
X186658893Y-77752132D01*
X186678599Y-77766747D01*
X186696777Y-77783223D01*
X186713253Y-77801401D01*
X186727868Y-77821107D01*
X186740480Y-77842150D01*
X186750970Y-77864329D01*
X186759235Y-77887428D01*
X186765196Y-77911227D01*
X186768796Y-77935495D01*
X186770000Y-77959999D01*
X186770000Y-78860001D01*
X186768796Y-78884505D01*
X186765196Y-78908773D01*
X186759235Y-78932572D01*
X186750970Y-78955671D01*
X186740480Y-78977850D01*
X186727868Y-78998893D01*
X186713253Y-79018599D01*
X186696777Y-79036777D01*
X186678599Y-79053253D01*
X186658893Y-79067868D01*
X186637850Y-79080480D01*
X186615671Y-79090970D01*
X186592572Y-79099235D01*
X186568773Y-79105196D01*
X186544505Y-79108796D01*
X186520001Y-79110000D01*
X185869999Y-79110000D01*
X185845495Y-79108796D01*
X185821227Y-79105196D01*
X185797428Y-79099235D01*
X185774329Y-79090970D01*
X185752150Y-79080480D01*
X185731107Y-79067868D01*
X185711401Y-79053253D01*
X185693223Y-79036777D01*
X185676747Y-79018599D01*
X185662132Y-78998893D01*
X185649520Y-78977850D01*
X185639030Y-78955671D01*
X185630765Y-78932572D01*
X185624804Y-78908773D01*
X185621204Y-78884505D01*
X185620000Y-78860001D01*
X185620000Y-77959999D01*
X185621204Y-77935495D01*
X185624804Y-77911227D01*
X185630765Y-77887428D01*
X185639030Y-77864329D01*
X185649520Y-77842150D01*
X185662132Y-77821107D01*
X185676747Y-77801401D01*
X185693223Y-77783223D01*
X185711401Y-77766747D01*
X185731107Y-77752132D01*
X185752150Y-77739520D01*
X185774329Y-77729030D01*
X185797428Y-77720765D01*
X185821227Y-77714804D01*
X185845495Y-77711204D01*
X185869999Y-77710000D01*
X186520001Y-77710000D01*
X186544505Y-77711204D01*
X186544505Y-77711204D01*
G37*
D12*
X186195000Y-78410000D03*
D11*
G36*
X188594505Y-77711204D02*
G01*
X188618773Y-77714804D01*
X188642572Y-77720765D01*
X188665671Y-77729030D01*
X188687850Y-77739520D01*
X188708893Y-77752132D01*
X188728599Y-77766747D01*
X188746777Y-77783223D01*
X188763253Y-77801401D01*
X188777868Y-77821107D01*
X188790480Y-77842150D01*
X188800970Y-77864329D01*
X188809235Y-77887428D01*
X188815196Y-77911227D01*
X188818796Y-77935495D01*
X188820000Y-77959999D01*
X188820000Y-78860001D01*
X188818796Y-78884505D01*
X188815196Y-78908773D01*
X188809235Y-78932572D01*
X188800970Y-78955671D01*
X188790480Y-78977850D01*
X188777868Y-78998893D01*
X188763253Y-79018599D01*
X188746777Y-79036777D01*
X188728599Y-79053253D01*
X188708893Y-79067868D01*
X188687850Y-79080480D01*
X188665671Y-79090970D01*
X188642572Y-79099235D01*
X188618773Y-79105196D01*
X188594505Y-79108796D01*
X188570001Y-79110000D01*
X187919999Y-79110000D01*
X187895495Y-79108796D01*
X187871227Y-79105196D01*
X187847428Y-79099235D01*
X187824329Y-79090970D01*
X187802150Y-79080480D01*
X187781107Y-79067868D01*
X187761401Y-79053253D01*
X187743223Y-79036777D01*
X187726747Y-79018599D01*
X187712132Y-78998893D01*
X187699520Y-78977850D01*
X187689030Y-78955671D01*
X187680765Y-78932572D01*
X187674804Y-78908773D01*
X187671204Y-78884505D01*
X187670000Y-78860001D01*
X187670000Y-77959999D01*
X187671204Y-77935495D01*
X187674804Y-77911227D01*
X187680765Y-77887428D01*
X187689030Y-77864329D01*
X187699520Y-77842150D01*
X187712132Y-77821107D01*
X187726747Y-77801401D01*
X187743223Y-77783223D01*
X187761401Y-77766747D01*
X187781107Y-77752132D01*
X187802150Y-77739520D01*
X187824329Y-77729030D01*
X187847428Y-77720765D01*
X187871227Y-77714804D01*
X187895495Y-77711204D01*
X187919999Y-77710000D01*
X188570001Y-77710000D01*
X188594505Y-77711204D01*
X188594505Y-77711204D01*
G37*
D12*
X188245000Y-78410000D03*
D11*
G36*
X183614505Y-67551204D02*
G01*
X183638773Y-67554804D01*
X183662572Y-67560765D01*
X183685671Y-67569030D01*
X183707850Y-67579520D01*
X183728893Y-67592132D01*
X183748599Y-67606747D01*
X183766777Y-67623223D01*
X183783253Y-67641401D01*
X183797868Y-67661107D01*
X183810480Y-67682150D01*
X183820970Y-67704329D01*
X183829235Y-67727428D01*
X183835196Y-67751227D01*
X183838796Y-67775495D01*
X183840000Y-67799999D01*
X183840000Y-68700001D01*
X183838796Y-68724505D01*
X183835196Y-68748773D01*
X183829235Y-68772572D01*
X183820970Y-68795671D01*
X183810480Y-68817850D01*
X183797868Y-68838893D01*
X183783253Y-68858599D01*
X183766777Y-68876777D01*
X183748599Y-68893253D01*
X183728893Y-68907868D01*
X183707850Y-68920480D01*
X183685671Y-68930970D01*
X183662572Y-68939235D01*
X183638773Y-68945196D01*
X183614505Y-68948796D01*
X183590001Y-68950000D01*
X182939999Y-68950000D01*
X182915495Y-68948796D01*
X182891227Y-68945196D01*
X182867428Y-68939235D01*
X182844329Y-68930970D01*
X182822150Y-68920480D01*
X182801107Y-68907868D01*
X182781401Y-68893253D01*
X182763223Y-68876777D01*
X182746747Y-68858599D01*
X182732132Y-68838893D01*
X182719520Y-68817850D01*
X182709030Y-68795671D01*
X182700765Y-68772572D01*
X182694804Y-68748773D01*
X182691204Y-68724505D01*
X182690000Y-68700001D01*
X182690000Y-67799999D01*
X182691204Y-67775495D01*
X182694804Y-67751227D01*
X182700765Y-67727428D01*
X182709030Y-67704329D01*
X182719520Y-67682150D01*
X182732132Y-67661107D01*
X182746747Y-67641401D01*
X182763223Y-67623223D01*
X182781401Y-67606747D01*
X182801107Y-67592132D01*
X182822150Y-67579520D01*
X182844329Y-67569030D01*
X182867428Y-67560765D01*
X182891227Y-67554804D01*
X182915495Y-67551204D01*
X182939999Y-67550000D01*
X183590001Y-67550000D01*
X183614505Y-67551204D01*
X183614505Y-67551204D01*
G37*
D12*
X183265000Y-68250000D03*
D11*
G36*
X185664505Y-67551204D02*
G01*
X185688773Y-67554804D01*
X185712572Y-67560765D01*
X185735671Y-67569030D01*
X185757850Y-67579520D01*
X185778893Y-67592132D01*
X185798599Y-67606747D01*
X185816777Y-67623223D01*
X185833253Y-67641401D01*
X185847868Y-67661107D01*
X185860480Y-67682150D01*
X185870970Y-67704329D01*
X185879235Y-67727428D01*
X185885196Y-67751227D01*
X185888796Y-67775495D01*
X185890000Y-67799999D01*
X185890000Y-68700001D01*
X185888796Y-68724505D01*
X185885196Y-68748773D01*
X185879235Y-68772572D01*
X185870970Y-68795671D01*
X185860480Y-68817850D01*
X185847868Y-68838893D01*
X185833253Y-68858599D01*
X185816777Y-68876777D01*
X185798599Y-68893253D01*
X185778893Y-68907868D01*
X185757850Y-68920480D01*
X185735671Y-68930970D01*
X185712572Y-68939235D01*
X185688773Y-68945196D01*
X185664505Y-68948796D01*
X185640001Y-68950000D01*
X184989999Y-68950000D01*
X184965495Y-68948796D01*
X184941227Y-68945196D01*
X184917428Y-68939235D01*
X184894329Y-68930970D01*
X184872150Y-68920480D01*
X184851107Y-68907868D01*
X184831401Y-68893253D01*
X184813223Y-68876777D01*
X184796747Y-68858599D01*
X184782132Y-68838893D01*
X184769520Y-68817850D01*
X184759030Y-68795671D01*
X184750765Y-68772572D01*
X184744804Y-68748773D01*
X184741204Y-68724505D01*
X184740000Y-68700001D01*
X184740000Y-67799999D01*
X184741204Y-67775495D01*
X184744804Y-67751227D01*
X184750765Y-67727428D01*
X184759030Y-67704329D01*
X184769520Y-67682150D01*
X184782132Y-67661107D01*
X184796747Y-67641401D01*
X184813223Y-67623223D01*
X184831401Y-67606747D01*
X184851107Y-67592132D01*
X184872150Y-67579520D01*
X184894329Y-67569030D01*
X184917428Y-67560765D01*
X184941227Y-67554804D01*
X184965495Y-67551204D01*
X184989999Y-67550000D01*
X185640001Y-67550000D01*
X185664505Y-67551204D01*
X185664505Y-67551204D01*
G37*
D12*
X185315000Y-68250000D03*
M02*
