G04 #@! TF.GenerationSoftware,KiCad,Pcbnew,5.1.4*
G04 #@! TF.CreationDate,2019-09-28T02:59:40+02:00*
G04 #@! TF.ProjectId,stratosensor-power,73747261-746f-4736-956e-736f722d706f,rev?*
G04 #@! TF.SameCoordinates,Original*
G04 #@! TF.FileFunction,Copper,L2,Bot*
G04 #@! TF.FilePolarity,Positive*
%FSLAX46Y46*%
G04 Gerber Fmt 4.6, Leading zero omitted, Abs format (unit mm)*
G04 Created by KiCad (PCBNEW 5.1.4) date 2019-09-28 02:59:40*
%MOMM*%
%LPD*%
G04 APERTURE LIST*
%ADD10O,2.400000X2.400000*%
%ADD11C,2.400000*%
%ADD12R,1.700000X1.700000*%
%ADD13O,1.600000X1.600000*%
%ADD14C,1.600000*%
%ADD15R,3.500000X3.500000*%
%ADD16C,3.500000*%
%ADD17O,1.700000X1.700000*%
%ADD18O,2.200000X1.740000*%
%ADD19C,0.100000*%
%ADD20C,1.740000*%
%ADD21C,0.800000*%
%ADD22C,3.000000*%
%ADD23C,0.250000*%
G04 APERTURE END LIST*
D10*
X144920000Y-86030000D03*
D11*
X119520000Y-86030000D03*
D10*
X144920000Y-113970000D03*
D11*
X119520000Y-113970000D03*
D12*
X114440000Y-56820000D03*
X114440000Y-143180000D03*
D13*
X165240000Y-86030000D03*
D14*
X150000000Y-86030000D03*
D13*
X165240000Y-113970000D03*
D14*
X150000000Y-113970000D03*
D15*
X176670000Y-72060000D03*
D16*
X105270000Y-72060000D03*
D15*
X176670000Y-100000000D03*
D16*
X105270000Y-100000000D03*
D15*
X176670000Y-127940000D03*
D16*
X105270000Y-127940000D03*
D17*
X189370000Y-119050000D03*
D12*
X189370000Y-116510000D03*
D17*
X189370000Y-91110000D03*
D12*
X189370000Y-88570000D03*
D17*
X189370000Y-63170000D03*
D12*
X189370000Y-60630000D03*
D18*
X195720000Y-139370000D03*
D19*
G36*
X196594505Y-135961204D02*
G01*
X196618773Y-135964804D01*
X196642572Y-135970765D01*
X196665671Y-135979030D01*
X196687850Y-135989520D01*
X196708893Y-136002132D01*
X196728599Y-136016747D01*
X196746777Y-136033223D01*
X196763253Y-136051401D01*
X196777868Y-136071107D01*
X196790480Y-136092150D01*
X196800970Y-136114329D01*
X196809235Y-136137428D01*
X196815196Y-136161227D01*
X196818796Y-136185495D01*
X196820000Y-136209999D01*
X196820000Y-137450001D01*
X196818796Y-137474505D01*
X196815196Y-137498773D01*
X196809235Y-137522572D01*
X196800970Y-137545671D01*
X196790480Y-137567850D01*
X196777868Y-137588893D01*
X196763253Y-137608599D01*
X196746777Y-137626777D01*
X196728599Y-137643253D01*
X196708893Y-137657868D01*
X196687850Y-137670480D01*
X196665671Y-137680970D01*
X196642572Y-137689235D01*
X196618773Y-137695196D01*
X196594505Y-137698796D01*
X196570001Y-137700000D01*
X194869999Y-137700000D01*
X194845495Y-137698796D01*
X194821227Y-137695196D01*
X194797428Y-137689235D01*
X194774329Y-137680970D01*
X194752150Y-137670480D01*
X194731107Y-137657868D01*
X194711401Y-137643253D01*
X194693223Y-137626777D01*
X194676747Y-137608599D01*
X194662132Y-137588893D01*
X194649520Y-137567850D01*
X194639030Y-137545671D01*
X194630765Y-137522572D01*
X194624804Y-137498773D01*
X194621204Y-137474505D01*
X194620000Y-137450001D01*
X194620000Y-136209999D01*
X194621204Y-136185495D01*
X194624804Y-136161227D01*
X194630765Y-136137428D01*
X194639030Y-136114329D01*
X194649520Y-136092150D01*
X194662132Y-136071107D01*
X194676747Y-136051401D01*
X194693223Y-136033223D01*
X194711401Y-136016747D01*
X194731107Y-136002132D01*
X194752150Y-135989520D01*
X194774329Y-135979030D01*
X194797428Y-135970765D01*
X194821227Y-135964804D01*
X194845495Y-135961204D01*
X194869999Y-135960000D01*
X196570001Y-135960000D01*
X196594505Y-135961204D01*
X196594505Y-135961204D01*
G37*
D20*
X195720000Y-136830000D03*
D18*
X195720000Y-111430000D03*
D19*
G36*
X196594505Y-108021204D02*
G01*
X196618773Y-108024804D01*
X196642572Y-108030765D01*
X196665671Y-108039030D01*
X196687850Y-108049520D01*
X196708893Y-108062132D01*
X196728599Y-108076747D01*
X196746777Y-108093223D01*
X196763253Y-108111401D01*
X196777868Y-108131107D01*
X196790480Y-108152150D01*
X196800970Y-108174329D01*
X196809235Y-108197428D01*
X196815196Y-108221227D01*
X196818796Y-108245495D01*
X196820000Y-108269999D01*
X196820000Y-109510001D01*
X196818796Y-109534505D01*
X196815196Y-109558773D01*
X196809235Y-109582572D01*
X196800970Y-109605671D01*
X196790480Y-109627850D01*
X196777868Y-109648893D01*
X196763253Y-109668599D01*
X196746777Y-109686777D01*
X196728599Y-109703253D01*
X196708893Y-109717868D01*
X196687850Y-109730480D01*
X196665671Y-109740970D01*
X196642572Y-109749235D01*
X196618773Y-109755196D01*
X196594505Y-109758796D01*
X196570001Y-109760000D01*
X194869999Y-109760000D01*
X194845495Y-109758796D01*
X194821227Y-109755196D01*
X194797428Y-109749235D01*
X194774329Y-109740970D01*
X194752150Y-109730480D01*
X194731107Y-109717868D01*
X194711401Y-109703253D01*
X194693223Y-109686777D01*
X194676747Y-109668599D01*
X194662132Y-109648893D01*
X194649520Y-109627850D01*
X194639030Y-109605671D01*
X194630765Y-109582572D01*
X194624804Y-109558773D01*
X194621204Y-109534505D01*
X194620000Y-109510001D01*
X194620000Y-108269999D01*
X194621204Y-108245495D01*
X194624804Y-108221227D01*
X194630765Y-108197428D01*
X194639030Y-108174329D01*
X194649520Y-108152150D01*
X194662132Y-108131107D01*
X194676747Y-108111401D01*
X194693223Y-108093223D01*
X194711401Y-108076747D01*
X194731107Y-108062132D01*
X194752150Y-108049520D01*
X194774329Y-108039030D01*
X194797428Y-108030765D01*
X194821227Y-108024804D01*
X194845495Y-108021204D01*
X194869999Y-108020000D01*
X196570001Y-108020000D01*
X196594505Y-108021204D01*
X196594505Y-108021204D01*
G37*
D20*
X195720000Y-108890000D03*
D19*
G36*
X196594505Y-80081204D02*
G01*
X196618773Y-80084804D01*
X196642572Y-80090765D01*
X196665671Y-80099030D01*
X196687850Y-80109520D01*
X196708893Y-80122132D01*
X196728599Y-80136747D01*
X196746777Y-80153223D01*
X196763253Y-80171401D01*
X196777868Y-80191107D01*
X196790480Y-80212150D01*
X196800970Y-80234329D01*
X196809235Y-80257428D01*
X196815196Y-80281227D01*
X196818796Y-80305495D01*
X196820000Y-80329999D01*
X196820000Y-81570001D01*
X196818796Y-81594505D01*
X196815196Y-81618773D01*
X196809235Y-81642572D01*
X196800970Y-81665671D01*
X196790480Y-81687850D01*
X196777868Y-81708893D01*
X196763253Y-81728599D01*
X196746777Y-81746777D01*
X196728599Y-81763253D01*
X196708893Y-81777868D01*
X196687850Y-81790480D01*
X196665671Y-81800970D01*
X196642572Y-81809235D01*
X196618773Y-81815196D01*
X196594505Y-81818796D01*
X196570001Y-81820000D01*
X194869999Y-81820000D01*
X194845495Y-81818796D01*
X194821227Y-81815196D01*
X194797428Y-81809235D01*
X194774329Y-81800970D01*
X194752150Y-81790480D01*
X194731107Y-81777868D01*
X194711401Y-81763253D01*
X194693223Y-81746777D01*
X194676747Y-81728599D01*
X194662132Y-81708893D01*
X194649520Y-81687850D01*
X194639030Y-81665671D01*
X194630765Y-81642572D01*
X194624804Y-81618773D01*
X194621204Y-81594505D01*
X194620000Y-81570001D01*
X194620000Y-80329999D01*
X194621204Y-80305495D01*
X194624804Y-80281227D01*
X194630765Y-80257428D01*
X194639030Y-80234329D01*
X194649520Y-80212150D01*
X194662132Y-80191107D01*
X194676747Y-80171401D01*
X194693223Y-80153223D01*
X194711401Y-80136747D01*
X194731107Y-80122132D01*
X194752150Y-80109520D01*
X194774329Y-80099030D01*
X194797428Y-80090765D01*
X194821227Y-80084804D01*
X194845495Y-80081204D01*
X194869999Y-80080000D01*
X196570001Y-80080000D01*
X196594505Y-80081204D01*
X196594505Y-80081204D01*
G37*
D20*
X195720000Y-80950000D03*
D18*
X195720000Y-83490000D03*
D21*
X190005000Y-75870000D03*
X188100000Y-75870000D03*
X186195000Y-75870000D03*
X186195000Y-73965000D03*
X180480000Y-77775000D03*
X180480000Y-75870000D03*
X180480000Y-73965000D03*
X178575000Y-77775000D03*
X178575000Y-75870000D03*
X186195000Y-103810000D03*
X188100000Y-103810000D03*
X180480000Y-101905000D03*
X180480000Y-103810000D03*
X178575000Y-103810000D03*
X178575000Y-105715000D03*
X190005000Y-103810000D03*
X180480000Y-105715000D03*
X186195000Y-101905000D03*
X190005000Y-131750000D03*
X180480000Y-133655000D03*
X186195000Y-131750000D03*
X180480000Y-129845000D03*
X178575000Y-131750000D03*
X188100000Y-131750000D03*
X186195000Y-129845000D03*
X178575000Y-133655000D03*
X180480000Y-131750000D03*
X179527500Y-132702500D03*
X179527500Y-130734000D03*
X179527500Y-104762500D03*
X179527500Y-102794000D03*
X179527500Y-74917500D03*
X179527500Y-76822500D03*
X189052500Y-132512000D03*
X187147500Y-132512000D03*
X189052500Y-104572000D03*
X187147500Y-104572000D03*
X189052500Y-76632000D03*
X187147500Y-76632000D03*
X185560000Y-74917500D03*
X184290000Y-70472500D03*
X184290000Y-71425000D03*
X184290000Y-72377500D03*
X192164000Y-71806000D03*
X192164000Y-73584000D03*
X192164000Y-75362000D03*
X192164000Y-103302000D03*
X184290000Y-98412500D03*
X192164000Y-101524000D03*
X192164000Y-99746000D03*
X184290000Y-100317500D03*
X184290000Y-99365000D03*
X184290000Y-127305000D03*
X192164000Y-131242000D03*
X192164000Y-129464000D03*
X184290000Y-128257500D03*
X192164000Y-127686000D03*
X184290000Y-126352500D03*
X190640000Y-70790000D03*
X190640000Y-98730000D03*
X190640000Y-126670000D03*
X192164000Y-74473000D03*
X192164000Y-72695000D03*
X192164000Y-100635000D03*
X192164000Y-102413000D03*
X192164000Y-128575000D03*
X192164000Y-130353000D03*
D22*
X105550000Y-127940000D02*
X119520000Y-113970000D01*
X105270000Y-127940000D02*
X105550000Y-127940000D01*
X105550000Y-100000000D02*
X119520000Y-86030000D01*
X105270000Y-100000000D02*
X105550000Y-100000000D01*
X176670000Y-100000000D02*
X174130000Y-100000000D01*
X174130000Y-100000000D02*
X165240000Y-108890000D01*
X165240000Y-108890000D02*
X165240000Y-113970000D01*
X176670000Y-72060000D02*
X174130000Y-72060000D01*
X165240000Y-80950000D02*
X165240000Y-86030000D01*
X174130000Y-72060000D02*
X165240000Y-80950000D01*
X144920000Y-113970000D02*
X150000000Y-113970000D01*
X144920000Y-86030000D02*
X150000000Y-86030000D01*
D23*
G36*
X198850001Y-148850000D02*
G01*
X101150000Y-148850000D01*
X101150000Y-144731611D01*
X102275000Y-144731611D01*
X102275000Y-145268389D01*
X102379720Y-145794853D01*
X102585136Y-146290771D01*
X102883354Y-146737086D01*
X103262914Y-147116646D01*
X103709229Y-147414864D01*
X104205147Y-147620280D01*
X104731611Y-147725000D01*
X105268389Y-147725000D01*
X105794853Y-147620280D01*
X106290771Y-147414864D01*
X106737086Y-147116646D01*
X107116646Y-146737086D01*
X107414864Y-146290771D01*
X107620280Y-145794853D01*
X107725000Y-145268389D01*
X107725000Y-144731611D01*
X107620280Y-144205147D01*
X107547732Y-144030000D01*
X113313669Y-144030000D01*
X113318979Y-144083910D01*
X113334703Y-144135747D01*
X113360239Y-144183521D01*
X113394604Y-144225396D01*
X113436479Y-144259761D01*
X113484253Y-144285297D01*
X113536090Y-144301021D01*
X113590000Y-144306331D01*
X114196250Y-144305000D01*
X114265000Y-144236250D01*
X114265000Y-143355000D01*
X114615000Y-143355000D01*
X114615000Y-144236250D01*
X114683750Y-144305000D01*
X115290000Y-144306331D01*
X115343910Y-144301021D01*
X115395747Y-144285297D01*
X115443521Y-144259761D01*
X115485396Y-144225396D01*
X115519761Y-144183521D01*
X115545297Y-144135747D01*
X115561021Y-144083910D01*
X115566331Y-144030000D01*
X115565000Y-143423750D01*
X115496250Y-143355000D01*
X114615000Y-143355000D01*
X114265000Y-143355000D01*
X113383750Y-143355000D01*
X113315000Y-143423750D01*
X113313669Y-144030000D01*
X107547732Y-144030000D01*
X107414864Y-143709229D01*
X107116646Y-143262914D01*
X106737086Y-142883354D01*
X106290771Y-142585136D01*
X105794853Y-142379720D01*
X105544894Y-142330000D01*
X113313669Y-142330000D01*
X113315000Y-142936250D01*
X113383750Y-143005000D01*
X114265000Y-143005000D01*
X114265000Y-142123750D01*
X114615000Y-142123750D01*
X114615000Y-143005000D01*
X115496250Y-143005000D01*
X115565000Y-142936250D01*
X115565054Y-142911611D01*
X121875000Y-142911611D01*
X121875000Y-143448389D01*
X121979720Y-143974853D01*
X122185136Y-144470771D01*
X122483354Y-144917086D01*
X122862914Y-145296646D01*
X123309229Y-145594864D01*
X123805147Y-145800280D01*
X124331611Y-145905000D01*
X124868389Y-145905000D01*
X125394853Y-145800280D01*
X125890771Y-145594864D01*
X126337086Y-145296646D01*
X126716646Y-144917086D01*
X127014864Y-144470771D01*
X127220280Y-143974853D01*
X127325000Y-143448389D01*
X127325000Y-142911611D01*
X157435000Y-142911611D01*
X157435000Y-143448389D01*
X157539720Y-143974853D01*
X157745136Y-144470771D01*
X158043354Y-144917086D01*
X158422914Y-145296646D01*
X158869229Y-145594864D01*
X159365147Y-145800280D01*
X159891611Y-145905000D01*
X160428389Y-145905000D01*
X160954853Y-145800280D01*
X161450771Y-145594864D01*
X161897086Y-145296646D01*
X162276646Y-144917086D01*
X162400576Y-144731611D01*
X192275000Y-144731611D01*
X192275000Y-145268389D01*
X192379720Y-145794853D01*
X192585136Y-146290771D01*
X192883354Y-146737086D01*
X193262914Y-147116646D01*
X193709229Y-147414864D01*
X194205147Y-147620280D01*
X194731611Y-147725000D01*
X195268389Y-147725000D01*
X195794853Y-147620280D01*
X196290771Y-147414864D01*
X196737086Y-147116646D01*
X197116646Y-146737086D01*
X197414864Y-146290771D01*
X197620280Y-145794853D01*
X197725000Y-145268389D01*
X197725000Y-144731611D01*
X197620280Y-144205147D01*
X197414864Y-143709229D01*
X197116646Y-143262914D01*
X196737086Y-142883354D01*
X196290771Y-142585136D01*
X195794853Y-142379720D01*
X195268389Y-142275000D01*
X194731611Y-142275000D01*
X194205147Y-142379720D01*
X193709229Y-142585136D01*
X193262914Y-142883354D01*
X192883354Y-143262914D01*
X192585136Y-143709229D01*
X192379720Y-144205147D01*
X192275000Y-144731611D01*
X162400576Y-144731611D01*
X162574864Y-144470771D01*
X162780280Y-143974853D01*
X162885000Y-143448389D01*
X162885000Y-142911611D01*
X162780280Y-142385147D01*
X162574864Y-141889229D01*
X162276646Y-141442914D01*
X161897086Y-141063354D01*
X161450771Y-140765136D01*
X160954853Y-140559720D01*
X160428389Y-140455000D01*
X159891611Y-140455000D01*
X159365147Y-140559720D01*
X158869229Y-140765136D01*
X158422914Y-141063354D01*
X158043354Y-141442914D01*
X157745136Y-141889229D01*
X157539720Y-142385147D01*
X157435000Y-142911611D01*
X127325000Y-142911611D01*
X127220280Y-142385147D01*
X127014864Y-141889229D01*
X126716646Y-141442914D01*
X126337086Y-141063354D01*
X125890771Y-140765136D01*
X125394853Y-140559720D01*
X124868389Y-140455000D01*
X124331611Y-140455000D01*
X123805147Y-140559720D01*
X123309229Y-140765136D01*
X122862914Y-141063354D01*
X122483354Y-141442914D01*
X122185136Y-141889229D01*
X121979720Y-142385147D01*
X121875000Y-142911611D01*
X115565054Y-142911611D01*
X115566331Y-142330000D01*
X115561021Y-142276090D01*
X115545297Y-142224253D01*
X115519761Y-142176479D01*
X115485396Y-142134604D01*
X115443521Y-142100239D01*
X115395747Y-142074703D01*
X115343910Y-142058979D01*
X115290000Y-142053669D01*
X114683750Y-142055000D01*
X114615000Y-142123750D01*
X114265000Y-142123750D01*
X114196250Y-142055000D01*
X113590000Y-142053669D01*
X113536090Y-142058979D01*
X113484253Y-142074703D01*
X113436479Y-142100239D01*
X113394604Y-142134604D01*
X113360239Y-142176479D01*
X113334703Y-142224253D01*
X113318979Y-142276090D01*
X113313669Y-142330000D01*
X105544894Y-142330000D01*
X105268389Y-142275000D01*
X104731611Y-142275000D01*
X104205147Y-142379720D01*
X103709229Y-142585136D01*
X103262914Y-142883354D01*
X102883354Y-143262914D01*
X102585136Y-143709229D01*
X102379720Y-144205147D01*
X102275000Y-144731611D01*
X101150000Y-144731611D01*
X101150000Y-139719859D01*
X194399759Y-139719859D01*
X194469394Y-139901068D01*
X194592611Y-140089974D01*
X194750314Y-140251212D01*
X194936443Y-140378585D01*
X195143845Y-140467199D01*
X195364549Y-140513648D01*
X195545000Y-140450443D01*
X195545000Y-139545000D01*
X195895000Y-139545000D01*
X195895000Y-140450443D01*
X196075451Y-140513648D01*
X196296155Y-140467199D01*
X196503557Y-140378585D01*
X196689686Y-140251212D01*
X196847389Y-140089974D01*
X196970606Y-139901068D01*
X197040241Y-139719859D01*
X197011927Y-139545000D01*
X195895000Y-139545000D01*
X195545000Y-139545000D01*
X194428073Y-139545000D01*
X194399759Y-139719859D01*
X101150000Y-139719859D01*
X101150000Y-137455329D01*
X173345000Y-137455329D01*
X173345000Y-137824671D01*
X173417056Y-138186917D01*
X173558397Y-138528145D01*
X173763593Y-138835243D01*
X174024757Y-139096407D01*
X174331855Y-139301603D01*
X174673083Y-139442944D01*
X175035329Y-139515000D01*
X175404671Y-139515000D01*
X175766917Y-139442944D01*
X176108145Y-139301603D01*
X176415243Y-139096407D01*
X176676407Y-138835243D01*
X176881603Y-138528145D01*
X177022944Y-138186917D01*
X177095000Y-137824671D01*
X177095000Y-137455329D01*
X177022944Y-137093083D01*
X176881603Y-136751855D01*
X176676407Y-136444757D01*
X176441649Y-136209999D01*
X193489557Y-136209999D01*
X193489557Y-137450001D01*
X193516082Y-137719312D01*
X193594637Y-137978273D01*
X193722203Y-138216933D01*
X193893879Y-138426121D01*
X194103067Y-138597797D01*
X194341727Y-138725363D01*
X194510147Y-138776453D01*
X194469394Y-138838932D01*
X194399759Y-139020141D01*
X194428073Y-139195000D01*
X195545000Y-139195000D01*
X195545000Y-139175000D01*
X195895000Y-139175000D01*
X195895000Y-139195000D01*
X197011927Y-139195000D01*
X197040241Y-139020141D01*
X196970606Y-138838932D01*
X196929853Y-138776453D01*
X197098273Y-138725363D01*
X197336933Y-138597797D01*
X197546121Y-138426121D01*
X197717797Y-138216933D01*
X197845363Y-137978273D01*
X197923918Y-137719312D01*
X197950443Y-137450001D01*
X197950443Y-136209999D01*
X197923918Y-135940688D01*
X197845363Y-135681727D01*
X197717797Y-135443067D01*
X197546121Y-135233879D01*
X197336933Y-135062203D01*
X197098273Y-134934637D01*
X196839312Y-134856082D01*
X196570001Y-134829557D01*
X194869999Y-134829557D01*
X194600688Y-134856082D01*
X194341727Y-134934637D01*
X194103067Y-135062203D01*
X193893879Y-135233879D01*
X193722203Y-135443067D01*
X193594637Y-135681727D01*
X193516082Y-135940688D01*
X193489557Y-136209999D01*
X176441649Y-136209999D01*
X176415243Y-136183593D01*
X176108145Y-135978397D01*
X175766917Y-135837056D01*
X175404671Y-135765000D01*
X175035329Y-135765000D01*
X174673083Y-135837056D01*
X174331855Y-135978397D01*
X174024757Y-136183593D01*
X173763593Y-136444757D01*
X173558397Y-136751855D01*
X173417056Y-137093083D01*
X173345000Y-137455329D01*
X101150000Y-137455329D01*
X101150000Y-127656837D01*
X102395000Y-127656837D01*
X102395000Y-128223163D01*
X102505485Y-128778607D01*
X102722208Y-129301823D01*
X103036842Y-129772706D01*
X103437294Y-130173158D01*
X103908177Y-130487792D01*
X104431393Y-130704515D01*
X104986837Y-130815000D01*
X105553163Y-130815000D01*
X106108607Y-130704515D01*
X106631823Y-130487792D01*
X107102706Y-130173158D01*
X107503158Y-129772706D01*
X107651272Y-129551038D01*
X109520850Y-127681460D01*
X111495000Y-127681460D01*
X111495000Y-128198540D01*
X111595878Y-128705684D01*
X111793755Y-129183404D01*
X112081030Y-129613340D01*
X112446660Y-129978970D01*
X112876596Y-130266245D01*
X113354316Y-130464122D01*
X113861460Y-130565000D01*
X114378540Y-130565000D01*
X114885684Y-130464122D01*
X115363404Y-130266245D01*
X115793340Y-129978970D01*
X116158970Y-129613340D01*
X116446245Y-129183404D01*
X116644122Y-128705684D01*
X116745000Y-128198540D01*
X116745000Y-127681460D01*
X165195000Y-127681460D01*
X165195000Y-128198540D01*
X165295878Y-128705684D01*
X165493755Y-129183404D01*
X165781030Y-129613340D01*
X166146660Y-129978970D01*
X166576596Y-130266245D01*
X167054316Y-130464122D01*
X167561460Y-130565000D01*
X168078540Y-130565000D01*
X168585684Y-130464122D01*
X169063404Y-130266245D01*
X169493340Y-129978970D01*
X169858970Y-129613340D01*
X170146245Y-129183404D01*
X170344122Y-128705684D01*
X170445000Y-128198540D01*
X170445000Y-127681460D01*
X170344122Y-127174316D01*
X170146245Y-126696596D01*
X169858970Y-126266660D01*
X169782310Y-126190000D01*
X173789557Y-126190000D01*
X173789557Y-129690000D01*
X173811278Y-129910538D01*
X173875607Y-130122602D01*
X173980071Y-130318040D01*
X174120656Y-130489344D01*
X174291960Y-130629929D01*
X174487398Y-130734393D01*
X174699462Y-130798722D01*
X174920000Y-130820443D01*
X176180000Y-130820443D01*
X176180000Y-133790000D01*
X176189624Y-133936841D01*
X176206661Y-134066251D01*
X176282672Y-134349929D01*
X176332622Y-134470519D01*
X176479469Y-134724862D01*
X176558929Y-134828415D01*
X176766585Y-135036071D01*
X176870138Y-135115531D01*
X177124481Y-135262378D01*
X177245071Y-135312328D01*
X177528749Y-135388339D01*
X177658159Y-135405376D01*
X177805000Y-135415000D01*
X190140000Y-135415000D01*
X190286841Y-135405376D01*
X190416251Y-135388339D01*
X190699929Y-135312328D01*
X190820519Y-135262378D01*
X191074862Y-135115531D01*
X191178415Y-135036071D01*
X191386071Y-134828415D01*
X191465531Y-134724862D01*
X191612378Y-134470519D01*
X191662328Y-134349929D01*
X191738339Y-134066251D01*
X191755376Y-133936841D01*
X191765000Y-133790000D01*
X191765000Y-129710000D01*
X191755376Y-129563159D01*
X191738339Y-129433749D01*
X191662328Y-129150071D01*
X191612378Y-129029481D01*
X191465531Y-128775138D01*
X191386071Y-128671585D01*
X191178415Y-128463929D01*
X191074862Y-128384469D01*
X190820519Y-128237622D01*
X190699929Y-128187672D01*
X190416251Y-128111661D01*
X190286841Y-128094624D01*
X190140000Y-128085000D01*
X179550443Y-128085000D01*
X179550443Y-126190000D01*
X179528722Y-125969462D01*
X179464393Y-125757398D01*
X179359929Y-125561960D01*
X179219344Y-125390656D01*
X179048040Y-125250071D01*
X178852602Y-125145607D01*
X178640538Y-125081278D01*
X178420000Y-125059557D01*
X174920000Y-125059557D01*
X174699462Y-125081278D01*
X174487398Y-125145607D01*
X174291960Y-125250071D01*
X174120656Y-125390656D01*
X173980071Y-125561960D01*
X173875607Y-125757398D01*
X173811278Y-125969462D01*
X173789557Y-126190000D01*
X169782310Y-126190000D01*
X169493340Y-125901030D01*
X169063404Y-125613755D01*
X168585684Y-125415878D01*
X168078540Y-125315000D01*
X167561460Y-125315000D01*
X167054316Y-125415878D01*
X166576596Y-125613755D01*
X166146660Y-125901030D01*
X165781030Y-126266660D01*
X165493755Y-126696596D01*
X165295878Y-127174316D01*
X165195000Y-127681460D01*
X116745000Y-127681460D01*
X116644122Y-127174316D01*
X116446245Y-126696596D01*
X116158970Y-126266660D01*
X115793340Y-125901030D01*
X115363404Y-125613755D01*
X114885684Y-125415878D01*
X114378540Y-125315000D01*
X113861460Y-125315000D01*
X113354316Y-125415878D01*
X112876596Y-125613755D01*
X112446660Y-125901030D01*
X112081030Y-126266660D01*
X111793755Y-126696596D01*
X111595878Y-127174316D01*
X111495000Y-127681460D01*
X109520850Y-127681460D01*
X118152310Y-119050000D01*
X187385444Y-119050000D01*
X187423577Y-119437168D01*
X187536509Y-119809457D01*
X187719902Y-120152560D01*
X187966707Y-120453293D01*
X188267440Y-120700098D01*
X188610543Y-120883491D01*
X188982832Y-120996423D01*
X189272977Y-121025000D01*
X189467023Y-121025000D01*
X189757168Y-120996423D01*
X190129457Y-120883491D01*
X190472560Y-120700098D01*
X190773293Y-120453293D01*
X191020098Y-120152560D01*
X191203491Y-119809457D01*
X191316423Y-119437168D01*
X191354556Y-119050000D01*
X191316423Y-118662832D01*
X191203491Y-118290543D01*
X191088392Y-118075209D01*
X191159929Y-117988040D01*
X191264393Y-117792602D01*
X191328722Y-117580538D01*
X191350443Y-117360000D01*
X191350443Y-115660000D01*
X191328722Y-115439462D01*
X191264393Y-115227398D01*
X191159929Y-115031960D01*
X191019344Y-114860656D01*
X190848040Y-114720071D01*
X190652602Y-114615607D01*
X190440538Y-114551278D01*
X190220000Y-114529557D01*
X188520000Y-114529557D01*
X188299462Y-114551278D01*
X188087398Y-114615607D01*
X187891960Y-114720071D01*
X187720656Y-114860656D01*
X187580071Y-115031960D01*
X187475607Y-115227398D01*
X187411278Y-115439462D01*
X187389557Y-115660000D01*
X187389557Y-117360000D01*
X187411278Y-117580538D01*
X187475607Y-117792602D01*
X187580071Y-117988040D01*
X187651608Y-118075209D01*
X187536509Y-118290543D01*
X187423577Y-118662832D01*
X187385444Y-119050000D01*
X118152310Y-119050000D01*
X121467339Y-115734971D01*
X121713167Y-115435429D01*
X121956917Y-114979406D01*
X122107017Y-114484591D01*
X122157700Y-113970001D01*
X122157700Y-113970000D01*
X142282299Y-113970000D01*
X142332982Y-114484590D01*
X142483082Y-114979404D01*
X142726832Y-115435428D01*
X143054864Y-115835136D01*
X143454572Y-116163168D01*
X143910596Y-116406918D01*
X144405410Y-116557018D01*
X144791045Y-116595000D01*
X150128955Y-116595000D01*
X150514590Y-116557018D01*
X151009404Y-116406918D01*
X151465428Y-116163168D01*
X151865136Y-115835136D01*
X152193168Y-115435428D01*
X152436918Y-114979404D01*
X152587018Y-114484590D01*
X152637701Y-113970000D01*
X152587018Y-113455410D01*
X152436918Y-112960596D01*
X152193168Y-112504572D01*
X151865136Y-112104864D01*
X151465428Y-111776832D01*
X151009404Y-111533082D01*
X150514590Y-111382982D01*
X150128955Y-111345000D01*
X144791045Y-111345000D01*
X144405410Y-111382982D01*
X143910596Y-111533082D01*
X143454572Y-111776832D01*
X143054864Y-112104864D01*
X142726832Y-112504572D01*
X142483082Y-112960596D01*
X142332982Y-113455410D01*
X142282299Y-113970000D01*
X122157700Y-113970000D01*
X122107017Y-113455411D01*
X121956917Y-112960596D01*
X121713167Y-112504573D01*
X121385135Y-112104865D01*
X120985427Y-111776833D01*
X120529404Y-111533083D01*
X120034589Y-111382983D01*
X119519999Y-111332300D01*
X119005409Y-111382983D01*
X118510594Y-111533083D01*
X118054571Y-111776833D01*
X117755029Y-112022661D01*
X104644618Y-125133072D01*
X104431393Y-125175485D01*
X103908177Y-125392208D01*
X103437294Y-125706842D01*
X103036842Y-126107294D01*
X102722208Y-126578177D01*
X102505485Y-127101393D01*
X102395000Y-127656837D01*
X101150000Y-127656837D01*
X101150000Y-108890000D01*
X162602300Y-108890000D01*
X162615000Y-109018947D01*
X162615001Y-114098955D01*
X162652983Y-114484590D01*
X162803083Y-114979404D01*
X163046833Y-115435428D01*
X163374865Y-115835136D01*
X163774573Y-116163168D01*
X164230597Y-116406918D01*
X164725411Y-116557018D01*
X165240000Y-116607701D01*
X165754590Y-116557018D01*
X166249404Y-116406918D01*
X166705428Y-116163168D01*
X167105136Y-115835136D01*
X167433168Y-115435428D01*
X167676918Y-114979404D01*
X167827018Y-114484590D01*
X167865000Y-114098955D01*
X167865000Y-111779859D01*
X194399759Y-111779859D01*
X194469394Y-111961068D01*
X194592611Y-112149974D01*
X194750314Y-112311212D01*
X194936443Y-112438585D01*
X195143845Y-112527199D01*
X195364549Y-112573648D01*
X195545000Y-112510443D01*
X195545000Y-111605000D01*
X195895000Y-111605000D01*
X195895000Y-112510443D01*
X196075451Y-112573648D01*
X196296155Y-112527199D01*
X196503557Y-112438585D01*
X196689686Y-112311212D01*
X196847389Y-112149974D01*
X196970606Y-111961068D01*
X197040241Y-111779859D01*
X197011927Y-111605000D01*
X195895000Y-111605000D01*
X195545000Y-111605000D01*
X194428073Y-111605000D01*
X194399759Y-111779859D01*
X167865000Y-111779859D01*
X167865000Y-109977310D01*
X168326981Y-109515329D01*
X173345000Y-109515329D01*
X173345000Y-109884671D01*
X173417056Y-110246917D01*
X173558397Y-110588145D01*
X173763593Y-110895243D01*
X174024757Y-111156407D01*
X174331855Y-111361603D01*
X174673083Y-111502944D01*
X175035329Y-111575000D01*
X175404671Y-111575000D01*
X175766917Y-111502944D01*
X176108145Y-111361603D01*
X176415243Y-111156407D01*
X176676407Y-110895243D01*
X176881603Y-110588145D01*
X177022944Y-110246917D01*
X177095000Y-109884671D01*
X177095000Y-109515329D01*
X177022944Y-109153083D01*
X176881603Y-108811855D01*
X176676407Y-108504757D01*
X176441649Y-108269999D01*
X193489557Y-108269999D01*
X193489557Y-109510001D01*
X193516082Y-109779312D01*
X193594637Y-110038273D01*
X193722203Y-110276933D01*
X193893879Y-110486121D01*
X194103067Y-110657797D01*
X194341727Y-110785363D01*
X194510147Y-110836453D01*
X194469394Y-110898932D01*
X194399759Y-111080141D01*
X194428073Y-111255000D01*
X195545000Y-111255000D01*
X195545000Y-111235000D01*
X195895000Y-111235000D01*
X195895000Y-111255000D01*
X197011927Y-111255000D01*
X197040241Y-111080141D01*
X196970606Y-110898932D01*
X196929853Y-110836453D01*
X197098273Y-110785363D01*
X197336933Y-110657797D01*
X197546121Y-110486121D01*
X197717797Y-110276933D01*
X197845363Y-110038273D01*
X197923918Y-109779312D01*
X197950443Y-109510001D01*
X197950443Y-108269999D01*
X197923918Y-108000688D01*
X197845363Y-107741727D01*
X197717797Y-107503067D01*
X197546121Y-107293879D01*
X197336933Y-107122203D01*
X197098273Y-106994637D01*
X196839312Y-106916082D01*
X196570001Y-106889557D01*
X194869999Y-106889557D01*
X194600688Y-106916082D01*
X194341727Y-106994637D01*
X194103067Y-107122203D01*
X193893879Y-107293879D01*
X193722203Y-107503067D01*
X193594637Y-107741727D01*
X193516082Y-108000688D01*
X193489557Y-108269999D01*
X176441649Y-108269999D01*
X176415243Y-108243593D01*
X176108145Y-108038397D01*
X175766917Y-107897056D01*
X175404671Y-107825000D01*
X175035329Y-107825000D01*
X174673083Y-107897056D01*
X174331855Y-108038397D01*
X174024757Y-108243593D01*
X173763593Y-108504757D01*
X173558397Y-108811855D01*
X173417056Y-109153083D01*
X173345000Y-109515329D01*
X168326981Y-109515329D01*
X174961868Y-102880443D01*
X176180000Y-102880443D01*
X176180000Y-105850000D01*
X176189624Y-105996841D01*
X176206661Y-106126251D01*
X176282672Y-106409929D01*
X176332622Y-106530519D01*
X176479469Y-106784862D01*
X176558929Y-106888415D01*
X176766585Y-107096071D01*
X176870138Y-107175531D01*
X177124481Y-107322378D01*
X177245071Y-107372328D01*
X177528749Y-107448339D01*
X177658159Y-107465376D01*
X177805000Y-107475000D01*
X190140000Y-107475000D01*
X190286841Y-107465376D01*
X190416251Y-107448339D01*
X190699929Y-107372328D01*
X190820519Y-107322378D01*
X191074862Y-107175531D01*
X191178415Y-107096071D01*
X191386071Y-106888415D01*
X191465531Y-106784862D01*
X191612378Y-106530519D01*
X191662328Y-106409929D01*
X191738339Y-106126251D01*
X191755376Y-105996841D01*
X191765000Y-105850000D01*
X191765000Y-101770000D01*
X191755376Y-101623159D01*
X191738339Y-101493749D01*
X191662328Y-101210071D01*
X191612378Y-101089481D01*
X191465531Y-100835138D01*
X191386071Y-100731585D01*
X191178415Y-100523929D01*
X191074862Y-100444469D01*
X190820519Y-100297622D01*
X190699929Y-100247672D01*
X190416251Y-100171661D01*
X190286841Y-100154624D01*
X190140000Y-100145000D01*
X179550443Y-100145000D01*
X179550443Y-98250000D01*
X179528722Y-98029462D01*
X179464393Y-97817398D01*
X179359929Y-97621960D01*
X179219344Y-97450656D01*
X179048040Y-97310071D01*
X178852602Y-97205607D01*
X178640538Y-97141278D01*
X178420000Y-97119557D01*
X174920000Y-97119557D01*
X174699462Y-97141278D01*
X174487398Y-97205607D01*
X174291960Y-97310071D01*
X174217784Y-97370946D01*
X174130000Y-97362300D01*
X174001053Y-97375000D01*
X174001045Y-97375000D01*
X173615410Y-97412982D01*
X173120596Y-97563082D01*
X172739388Y-97766842D01*
X172664572Y-97806832D01*
X172365029Y-98052660D01*
X172365025Y-98052664D01*
X172264864Y-98134864D01*
X172182664Y-98235025D01*
X170445000Y-99972689D01*
X170445000Y-99741460D01*
X170344122Y-99234316D01*
X170146245Y-98756596D01*
X169858970Y-98326660D01*
X169493340Y-97961030D01*
X169063404Y-97673755D01*
X168585684Y-97475878D01*
X168078540Y-97375000D01*
X167561460Y-97375000D01*
X167054316Y-97475878D01*
X166576596Y-97673755D01*
X166146660Y-97961030D01*
X165781030Y-98326660D01*
X165493755Y-98756596D01*
X165295878Y-99234316D01*
X165195000Y-99741460D01*
X165195000Y-100258540D01*
X165295878Y-100765684D01*
X165493755Y-101243404D01*
X165781030Y-101673340D01*
X166146660Y-102038970D01*
X166576596Y-102326245D01*
X167054316Y-102524122D01*
X167561460Y-102625000D01*
X167792690Y-102625000D01*
X163475031Y-106942659D01*
X163374864Y-107024864D01*
X163046832Y-107424573D01*
X162803082Y-107880597D01*
X162652982Y-108375411D01*
X162615000Y-108761046D01*
X162615000Y-108761053D01*
X162602300Y-108890000D01*
X101150000Y-108890000D01*
X101150000Y-99716837D01*
X102395000Y-99716837D01*
X102395000Y-100283163D01*
X102505485Y-100838607D01*
X102722208Y-101361823D01*
X103036842Y-101832706D01*
X103437294Y-102233158D01*
X103908177Y-102547792D01*
X104431393Y-102764515D01*
X104986837Y-102875000D01*
X105553163Y-102875000D01*
X106108607Y-102764515D01*
X106631823Y-102547792D01*
X107102706Y-102233158D01*
X107503158Y-101832706D01*
X107651272Y-101611038D01*
X109520850Y-99741460D01*
X111495000Y-99741460D01*
X111495000Y-100258540D01*
X111595878Y-100765684D01*
X111793755Y-101243404D01*
X112081030Y-101673340D01*
X112446660Y-102038970D01*
X112876596Y-102326245D01*
X113354316Y-102524122D01*
X113861460Y-102625000D01*
X114378540Y-102625000D01*
X114885684Y-102524122D01*
X115363404Y-102326245D01*
X115793340Y-102038970D01*
X116158970Y-101673340D01*
X116446245Y-101243404D01*
X116644122Y-100765684D01*
X116745000Y-100258540D01*
X116745000Y-99741460D01*
X116644122Y-99234316D01*
X116446245Y-98756596D01*
X116158970Y-98326660D01*
X115793340Y-97961030D01*
X115363404Y-97673755D01*
X114885684Y-97475878D01*
X114378540Y-97375000D01*
X113861460Y-97375000D01*
X113354316Y-97475878D01*
X112876596Y-97673755D01*
X112446660Y-97961030D01*
X112081030Y-98326660D01*
X111793755Y-98756596D01*
X111595878Y-99234316D01*
X111495000Y-99741460D01*
X109520850Y-99741460D01*
X118152310Y-91110000D01*
X187385444Y-91110000D01*
X187423577Y-91497168D01*
X187536509Y-91869457D01*
X187719902Y-92212560D01*
X187966707Y-92513293D01*
X188267440Y-92760098D01*
X188610543Y-92943491D01*
X188982832Y-93056423D01*
X189272977Y-93085000D01*
X189467023Y-93085000D01*
X189757168Y-93056423D01*
X190129457Y-92943491D01*
X190472560Y-92760098D01*
X190773293Y-92513293D01*
X191020098Y-92212560D01*
X191203491Y-91869457D01*
X191316423Y-91497168D01*
X191354556Y-91110000D01*
X191316423Y-90722832D01*
X191203491Y-90350543D01*
X191088392Y-90135209D01*
X191159929Y-90048040D01*
X191264393Y-89852602D01*
X191328722Y-89640538D01*
X191350443Y-89420000D01*
X191350443Y-87720000D01*
X191328722Y-87499462D01*
X191264393Y-87287398D01*
X191159929Y-87091960D01*
X191019344Y-86920656D01*
X190848040Y-86780071D01*
X190652602Y-86675607D01*
X190440538Y-86611278D01*
X190220000Y-86589557D01*
X188520000Y-86589557D01*
X188299462Y-86611278D01*
X188087398Y-86675607D01*
X187891960Y-86780071D01*
X187720656Y-86920656D01*
X187580071Y-87091960D01*
X187475607Y-87287398D01*
X187411278Y-87499462D01*
X187389557Y-87720000D01*
X187389557Y-89420000D01*
X187411278Y-89640538D01*
X187475607Y-89852602D01*
X187580071Y-90048040D01*
X187651608Y-90135209D01*
X187536509Y-90350543D01*
X187423577Y-90722832D01*
X187385444Y-91110000D01*
X118152310Y-91110000D01*
X121467339Y-87794971D01*
X121713167Y-87495429D01*
X121956917Y-87039406D01*
X122107017Y-86544591D01*
X122157700Y-86030001D01*
X122157700Y-86030000D01*
X142282299Y-86030000D01*
X142332982Y-86544590D01*
X142483082Y-87039404D01*
X142726832Y-87495428D01*
X143054864Y-87895136D01*
X143454572Y-88223168D01*
X143910596Y-88466918D01*
X144405410Y-88617018D01*
X144791045Y-88655000D01*
X150128955Y-88655000D01*
X150514590Y-88617018D01*
X151009404Y-88466918D01*
X151465428Y-88223168D01*
X151865136Y-87895136D01*
X152193168Y-87495428D01*
X152436918Y-87039404D01*
X152587018Y-86544590D01*
X152637701Y-86030000D01*
X152587018Y-85515410D01*
X152436918Y-85020596D01*
X152193168Y-84564572D01*
X151865136Y-84164864D01*
X151465428Y-83836832D01*
X151009404Y-83593082D01*
X150514590Y-83442982D01*
X150128955Y-83405000D01*
X144791045Y-83405000D01*
X144405410Y-83442982D01*
X143910596Y-83593082D01*
X143454572Y-83836832D01*
X143054864Y-84164864D01*
X142726832Y-84564572D01*
X142483082Y-85020596D01*
X142332982Y-85515410D01*
X142282299Y-86030000D01*
X122157700Y-86030000D01*
X122107017Y-85515411D01*
X121956917Y-85020596D01*
X121713167Y-84564573D01*
X121385135Y-84164865D01*
X120985427Y-83836833D01*
X120529404Y-83593083D01*
X120034589Y-83442983D01*
X119519999Y-83392300D01*
X119005409Y-83442983D01*
X118510594Y-83593083D01*
X118054571Y-83836833D01*
X117755029Y-84082661D01*
X104644618Y-97193072D01*
X104431393Y-97235485D01*
X103908177Y-97452208D01*
X103437294Y-97766842D01*
X103036842Y-98167294D01*
X102722208Y-98638177D01*
X102505485Y-99161393D01*
X102395000Y-99716837D01*
X101150000Y-99716837D01*
X101150000Y-80950000D01*
X162602300Y-80950000D01*
X162615000Y-81078947D01*
X162615001Y-86158955D01*
X162652983Y-86544590D01*
X162803083Y-87039404D01*
X163046833Y-87495428D01*
X163374865Y-87895136D01*
X163774573Y-88223168D01*
X164230597Y-88466918D01*
X164725411Y-88617018D01*
X165240000Y-88667701D01*
X165754590Y-88617018D01*
X166249404Y-88466918D01*
X166705428Y-88223168D01*
X167105136Y-87895136D01*
X167433168Y-87495428D01*
X167676918Y-87039404D01*
X167827018Y-86544590D01*
X167865000Y-86158955D01*
X167865000Y-83839859D01*
X194399759Y-83839859D01*
X194469394Y-84021068D01*
X194592611Y-84209974D01*
X194750314Y-84371212D01*
X194936443Y-84498585D01*
X195143845Y-84587199D01*
X195364549Y-84633648D01*
X195545000Y-84570443D01*
X195545000Y-83665000D01*
X195895000Y-83665000D01*
X195895000Y-84570443D01*
X196075451Y-84633648D01*
X196296155Y-84587199D01*
X196503557Y-84498585D01*
X196689686Y-84371212D01*
X196847389Y-84209974D01*
X196970606Y-84021068D01*
X197040241Y-83839859D01*
X197011927Y-83665000D01*
X195895000Y-83665000D01*
X195545000Y-83665000D01*
X194428073Y-83665000D01*
X194399759Y-83839859D01*
X167865000Y-83839859D01*
X167865000Y-82037310D01*
X168326981Y-81575329D01*
X173345000Y-81575329D01*
X173345000Y-81944671D01*
X173417056Y-82306917D01*
X173558397Y-82648145D01*
X173763593Y-82955243D01*
X174024757Y-83216407D01*
X174331855Y-83421603D01*
X174673083Y-83562944D01*
X175035329Y-83635000D01*
X175404671Y-83635000D01*
X175766917Y-83562944D01*
X176108145Y-83421603D01*
X176415243Y-83216407D01*
X176676407Y-82955243D01*
X176881603Y-82648145D01*
X177022944Y-82306917D01*
X177095000Y-81944671D01*
X177095000Y-81575329D01*
X177022944Y-81213083D01*
X176881603Y-80871855D01*
X176676407Y-80564757D01*
X176441649Y-80329999D01*
X193489557Y-80329999D01*
X193489557Y-81570001D01*
X193516082Y-81839312D01*
X193594637Y-82098273D01*
X193722203Y-82336933D01*
X193893879Y-82546121D01*
X194103067Y-82717797D01*
X194341727Y-82845363D01*
X194510147Y-82896453D01*
X194469394Y-82958932D01*
X194399759Y-83140141D01*
X194428073Y-83315000D01*
X195545000Y-83315000D01*
X195545000Y-83295000D01*
X195895000Y-83295000D01*
X195895000Y-83315000D01*
X197011927Y-83315000D01*
X197040241Y-83140141D01*
X196970606Y-82958932D01*
X196929853Y-82896453D01*
X197098273Y-82845363D01*
X197336933Y-82717797D01*
X197546121Y-82546121D01*
X197717797Y-82336933D01*
X197845363Y-82098273D01*
X197923918Y-81839312D01*
X197950443Y-81570001D01*
X197950443Y-80329999D01*
X197923918Y-80060688D01*
X197845363Y-79801727D01*
X197717797Y-79563067D01*
X197546121Y-79353879D01*
X197336933Y-79182203D01*
X197098273Y-79054637D01*
X196839312Y-78976082D01*
X196570001Y-78949557D01*
X194869999Y-78949557D01*
X194600688Y-78976082D01*
X194341727Y-79054637D01*
X194103067Y-79182203D01*
X193893879Y-79353879D01*
X193722203Y-79563067D01*
X193594637Y-79801727D01*
X193516082Y-80060688D01*
X193489557Y-80329999D01*
X176441649Y-80329999D01*
X176415243Y-80303593D01*
X176108145Y-80098397D01*
X175766917Y-79957056D01*
X175404671Y-79885000D01*
X175035329Y-79885000D01*
X174673083Y-79957056D01*
X174331855Y-80098397D01*
X174024757Y-80303593D01*
X173763593Y-80564757D01*
X173558397Y-80871855D01*
X173417056Y-81213083D01*
X173345000Y-81575329D01*
X168326981Y-81575329D01*
X174961868Y-74940443D01*
X176180000Y-74940443D01*
X176180000Y-77910000D01*
X176189624Y-78056841D01*
X176206661Y-78186251D01*
X176282672Y-78469929D01*
X176332622Y-78590519D01*
X176479469Y-78844862D01*
X176558929Y-78948415D01*
X176766585Y-79156071D01*
X176870138Y-79235531D01*
X177124481Y-79382378D01*
X177245071Y-79432328D01*
X177528749Y-79508339D01*
X177658159Y-79525376D01*
X177805000Y-79535000D01*
X190140000Y-79535000D01*
X190286841Y-79525376D01*
X190416251Y-79508339D01*
X190699929Y-79432328D01*
X190820519Y-79382378D01*
X191074862Y-79235531D01*
X191178415Y-79156071D01*
X191386071Y-78948415D01*
X191465531Y-78844862D01*
X191612378Y-78590519D01*
X191662328Y-78469929D01*
X191738339Y-78186251D01*
X191755376Y-78056841D01*
X191765000Y-77910000D01*
X191765000Y-73830000D01*
X191755376Y-73683159D01*
X191738339Y-73553749D01*
X191662328Y-73270071D01*
X191612378Y-73149481D01*
X191465531Y-72895138D01*
X191386071Y-72791585D01*
X191178415Y-72583929D01*
X191074862Y-72504469D01*
X190820519Y-72357622D01*
X190699929Y-72307672D01*
X190416251Y-72231661D01*
X190286841Y-72214624D01*
X190140000Y-72205000D01*
X179550443Y-72205000D01*
X179550443Y-70310000D01*
X179528722Y-70089462D01*
X179464393Y-69877398D01*
X179359929Y-69681960D01*
X179219344Y-69510656D01*
X179048040Y-69370071D01*
X178852602Y-69265607D01*
X178640538Y-69201278D01*
X178420000Y-69179557D01*
X174920000Y-69179557D01*
X174699462Y-69201278D01*
X174487398Y-69265607D01*
X174291960Y-69370071D01*
X174217784Y-69430946D01*
X174130000Y-69422300D01*
X174001053Y-69435000D01*
X174001045Y-69435000D01*
X173615410Y-69472982D01*
X173120596Y-69623082D01*
X172664572Y-69866832D01*
X172365029Y-70112660D01*
X172365025Y-70112664D01*
X172264864Y-70194864D01*
X172182664Y-70295025D01*
X170445000Y-72032689D01*
X170445000Y-71801460D01*
X170344122Y-71294316D01*
X170146245Y-70816596D01*
X169858970Y-70386660D01*
X169493340Y-70021030D01*
X169063404Y-69733755D01*
X168585684Y-69535878D01*
X168078540Y-69435000D01*
X167561460Y-69435000D01*
X167054316Y-69535878D01*
X166576596Y-69733755D01*
X166146660Y-70021030D01*
X165781030Y-70386660D01*
X165493755Y-70816596D01*
X165295878Y-71294316D01*
X165195000Y-71801460D01*
X165195000Y-72318540D01*
X165295878Y-72825684D01*
X165493755Y-73303404D01*
X165781030Y-73733340D01*
X166146660Y-74098970D01*
X166576596Y-74386245D01*
X167054316Y-74584122D01*
X167561460Y-74685000D01*
X167792690Y-74685000D01*
X163475031Y-79002659D01*
X163374864Y-79084864D01*
X163046832Y-79484573D01*
X162803082Y-79940597D01*
X162652982Y-80435411D01*
X162615000Y-80821046D01*
X162615000Y-80821053D01*
X162602300Y-80950000D01*
X101150000Y-80950000D01*
X101150000Y-73568431D01*
X104009056Y-73568431D01*
X104219985Y-73802950D01*
X104580194Y-73974307D01*
X104966911Y-74072099D01*
X105365275Y-74092566D01*
X105759978Y-74034924D01*
X106135852Y-73901386D01*
X106320015Y-73802950D01*
X106530944Y-73568431D01*
X105270000Y-72307487D01*
X104009056Y-73568431D01*
X101150000Y-73568431D01*
X101150000Y-72155275D01*
X103237434Y-72155275D01*
X103295076Y-72549978D01*
X103428614Y-72925852D01*
X103527050Y-73110015D01*
X103761569Y-73320944D01*
X105022513Y-72060000D01*
X105517487Y-72060000D01*
X106778431Y-73320944D01*
X107012950Y-73110015D01*
X107184307Y-72749806D01*
X107282099Y-72363089D01*
X107302566Y-71964725D01*
X107278723Y-71801460D01*
X111495000Y-71801460D01*
X111495000Y-72318540D01*
X111595878Y-72825684D01*
X111793755Y-73303404D01*
X112081030Y-73733340D01*
X112446660Y-74098970D01*
X112876596Y-74386245D01*
X113354316Y-74584122D01*
X113861460Y-74685000D01*
X114378540Y-74685000D01*
X114885684Y-74584122D01*
X115363404Y-74386245D01*
X115793340Y-74098970D01*
X116158970Y-73733340D01*
X116446245Y-73303404D01*
X116644122Y-72825684D01*
X116745000Y-72318540D01*
X116745000Y-71801460D01*
X116644122Y-71294316D01*
X116446245Y-70816596D01*
X116158970Y-70386660D01*
X115793340Y-70021030D01*
X115363404Y-69733755D01*
X114885684Y-69535878D01*
X114378540Y-69435000D01*
X113861460Y-69435000D01*
X113354316Y-69535878D01*
X112876596Y-69733755D01*
X112446660Y-70021030D01*
X112081030Y-70386660D01*
X111793755Y-70816596D01*
X111595878Y-71294316D01*
X111495000Y-71801460D01*
X107278723Y-71801460D01*
X107244924Y-71570022D01*
X107111386Y-71194148D01*
X107012950Y-71009985D01*
X106778431Y-70799056D01*
X105517487Y-72060000D01*
X105022513Y-72060000D01*
X103761569Y-70799056D01*
X103527050Y-71009985D01*
X103355693Y-71370194D01*
X103257901Y-71756911D01*
X103237434Y-72155275D01*
X101150000Y-72155275D01*
X101150000Y-70551569D01*
X104009056Y-70551569D01*
X105270000Y-71812513D01*
X106530944Y-70551569D01*
X106320015Y-70317050D01*
X105959806Y-70145693D01*
X105573089Y-70047901D01*
X105174725Y-70027434D01*
X104780022Y-70085076D01*
X104404148Y-70218614D01*
X104219985Y-70317050D01*
X104009056Y-70551569D01*
X101150000Y-70551569D01*
X101150000Y-63170000D01*
X187385444Y-63170000D01*
X187423577Y-63557168D01*
X187536509Y-63929457D01*
X187719902Y-64272560D01*
X187966707Y-64573293D01*
X188267440Y-64820098D01*
X188610543Y-65003491D01*
X188982832Y-65116423D01*
X189272977Y-65145000D01*
X189467023Y-65145000D01*
X189757168Y-65116423D01*
X190129457Y-65003491D01*
X190472560Y-64820098D01*
X190773293Y-64573293D01*
X191020098Y-64272560D01*
X191203491Y-63929457D01*
X191316423Y-63557168D01*
X191354556Y-63170000D01*
X191316423Y-62782832D01*
X191203491Y-62410543D01*
X191088392Y-62195209D01*
X191159929Y-62108040D01*
X191264393Y-61912602D01*
X191328722Y-61700538D01*
X191350443Y-61480000D01*
X191350443Y-59780000D01*
X191328722Y-59559462D01*
X191264393Y-59347398D01*
X191159929Y-59151960D01*
X191019344Y-58980656D01*
X190848040Y-58840071D01*
X190652602Y-58735607D01*
X190440538Y-58671278D01*
X190220000Y-58649557D01*
X188520000Y-58649557D01*
X188299462Y-58671278D01*
X188087398Y-58735607D01*
X187891960Y-58840071D01*
X187720656Y-58980656D01*
X187580071Y-59151960D01*
X187475607Y-59347398D01*
X187411278Y-59559462D01*
X187389557Y-59780000D01*
X187389557Y-61480000D01*
X187411278Y-61700538D01*
X187475607Y-61912602D01*
X187580071Y-62108040D01*
X187651608Y-62195209D01*
X187536509Y-62410543D01*
X187423577Y-62782832D01*
X187385444Y-63170000D01*
X101150000Y-63170000D01*
X101150000Y-54731611D01*
X102275000Y-54731611D01*
X102275000Y-55268389D01*
X102379720Y-55794853D01*
X102585136Y-56290771D01*
X102883354Y-56737086D01*
X103262914Y-57116646D01*
X103709229Y-57414864D01*
X104205147Y-57620280D01*
X104731611Y-57725000D01*
X105268389Y-57725000D01*
X105794853Y-57620280D01*
X106290771Y-57414864D01*
X106737086Y-57116646D01*
X107116646Y-56737086D01*
X107414864Y-56290771D01*
X107547731Y-55970000D01*
X112459557Y-55970000D01*
X112459557Y-57670000D01*
X112481278Y-57890538D01*
X112545607Y-58102602D01*
X112650071Y-58298040D01*
X112790656Y-58469344D01*
X112961960Y-58609929D01*
X113157398Y-58714393D01*
X113369462Y-58778722D01*
X113590000Y-58800443D01*
X115290000Y-58800443D01*
X115510538Y-58778722D01*
X115722602Y-58714393D01*
X115918040Y-58609929D01*
X116089344Y-58469344D01*
X116229929Y-58298040D01*
X116334393Y-58102602D01*
X116398722Y-57890538D01*
X116420443Y-57670000D01*
X116420443Y-56551611D01*
X121875000Y-56551611D01*
X121875000Y-57088389D01*
X121979720Y-57614853D01*
X122185136Y-58110771D01*
X122483354Y-58557086D01*
X122862914Y-58936646D01*
X123309229Y-59234864D01*
X123805147Y-59440280D01*
X124331611Y-59545000D01*
X124868389Y-59545000D01*
X125394853Y-59440280D01*
X125890771Y-59234864D01*
X126337086Y-58936646D01*
X126716646Y-58557086D01*
X127014864Y-58110771D01*
X127220280Y-57614853D01*
X127325000Y-57088389D01*
X127325000Y-56551611D01*
X157435000Y-56551611D01*
X157435000Y-57088389D01*
X157539720Y-57614853D01*
X157745136Y-58110771D01*
X158043354Y-58557086D01*
X158422914Y-58936646D01*
X158869229Y-59234864D01*
X159365147Y-59440280D01*
X159891611Y-59545000D01*
X160428389Y-59545000D01*
X160954853Y-59440280D01*
X161450771Y-59234864D01*
X161897086Y-58936646D01*
X162276646Y-58557086D01*
X162574864Y-58110771D01*
X162780280Y-57614853D01*
X162885000Y-57088389D01*
X162885000Y-56551611D01*
X162780280Y-56025147D01*
X162574864Y-55529229D01*
X162276646Y-55082914D01*
X161925343Y-54731611D01*
X192275000Y-54731611D01*
X192275000Y-55268389D01*
X192379720Y-55794853D01*
X192585136Y-56290771D01*
X192883354Y-56737086D01*
X193262914Y-57116646D01*
X193709229Y-57414864D01*
X194205147Y-57620280D01*
X194731611Y-57725000D01*
X195268389Y-57725000D01*
X195794853Y-57620280D01*
X196290771Y-57414864D01*
X196737086Y-57116646D01*
X197116646Y-56737086D01*
X197414864Y-56290771D01*
X197620280Y-55794853D01*
X197725000Y-55268389D01*
X197725000Y-54731611D01*
X197620280Y-54205147D01*
X197414864Y-53709229D01*
X197116646Y-53262914D01*
X196737086Y-52883354D01*
X196290771Y-52585136D01*
X195794853Y-52379720D01*
X195268389Y-52275000D01*
X194731611Y-52275000D01*
X194205147Y-52379720D01*
X193709229Y-52585136D01*
X193262914Y-52883354D01*
X192883354Y-53262914D01*
X192585136Y-53709229D01*
X192379720Y-54205147D01*
X192275000Y-54731611D01*
X161925343Y-54731611D01*
X161897086Y-54703354D01*
X161450771Y-54405136D01*
X160954853Y-54199720D01*
X160428389Y-54095000D01*
X159891611Y-54095000D01*
X159365147Y-54199720D01*
X158869229Y-54405136D01*
X158422914Y-54703354D01*
X158043354Y-55082914D01*
X157745136Y-55529229D01*
X157539720Y-56025147D01*
X157435000Y-56551611D01*
X127325000Y-56551611D01*
X127220280Y-56025147D01*
X127014864Y-55529229D01*
X126716646Y-55082914D01*
X126337086Y-54703354D01*
X125890771Y-54405136D01*
X125394853Y-54199720D01*
X124868389Y-54095000D01*
X124331611Y-54095000D01*
X123805147Y-54199720D01*
X123309229Y-54405136D01*
X122862914Y-54703354D01*
X122483354Y-55082914D01*
X122185136Y-55529229D01*
X121979720Y-56025147D01*
X121875000Y-56551611D01*
X116420443Y-56551611D01*
X116420443Y-55970000D01*
X116398722Y-55749462D01*
X116334393Y-55537398D01*
X116229929Y-55341960D01*
X116089344Y-55170656D01*
X115918040Y-55030071D01*
X115722602Y-54925607D01*
X115510538Y-54861278D01*
X115290000Y-54839557D01*
X113590000Y-54839557D01*
X113369462Y-54861278D01*
X113157398Y-54925607D01*
X112961960Y-55030071D01*
X112790656Y-55170656D01*
X112650071Y-55341960D01*
X112545607Y-55537398D01*
X112481278Y-55749462D01*
X112459557Y-55970000D01*
X107547731Y-55970000D01*
X107620280Y-55794853D01*
X107725000Y-55268389D01*
X107725000Y-54731611D01*
X107620280Y-54205147D01*
X107414864Y-53709229D01*
X107116646Y-53262914D01*
X106737086Y-52883354D01*
X106290771Y-52585136D01*
X105794853Y-52379720D01*
X105268389Y-52275000D01*
X104731611Y-52275000D01*
X104205147Y-52379720D01*
X103709229Y-52585136D01*
X103262914Y-52883354D01*
X102883354Y-53262914D01*
X102585136Y-53709229D01*
X102379720Y-54205147D01*
X102275000Y-54731611D01*
X101150000Y-54731611D01*
X101150000Y-51150000D01*
X198850000Y-51150000D01*
X198850001Y-148850000D01*
X198850001Y-148850000D01*
G37*
X198850001Y-148850000D02*
X101150000Y-148850000D01*
X101150000Y-144731611D01*
X102275000Y-144731611D01*
X102275000Y-145268389D01*
X102379720Y-145794853D01*
X102585136Y-146290771D01*
X102883354Y-146737086D01*
X103262914Y-147116646D01*
X103709229Y-147414864D01*
X104205147Y-147620280D01*
X104731611Y-147725000D01*
X105268389Y-147725000D01*
X105794853Y-147620280D01*
X106290771Y-147414864D01*
X106737086Y-147116646D01*
X107116646Y-146737086D01*
X107414864Y-146290771D01*
X107620280Y-145794853D01*
X107725000Y-145268389D01*
X107725000Y-144731611D01*
X107620280Y-144205147D01*
X107547732Y-144030000D01*
X113313669Y-144030000D01*
X113318979Y-144083910D01*
X113334703Y-144135747D01*
X113360239Y-144183521D01*
X113394604Y-144225396D01*
X113436479Y-144259761D01*
X113484253Y-144285297D01*
X113536090Y-144301021D01*
X113590000Y-144306331D01*
X114196250Y-144305000D01*
X114265000Y-144236250D01*
X114265000Y-143355000D01*
X114615000Y-143355000D01*
X114615000Y-144236250D01*
X114683750Y-144305000D01*
X115290000Y-144306331D01*
X115343910Y-144301021D01*
X115395747Y-144285297D01*
X115443521Y-144259761D01*
X115485396Y-144225396D01*
X115519761Y-144183521D01*
X115545297Y-144135747D01*
X115561021Y-144083910D01*
X115566331Y-144030000D01*
X115565000Y-143423750D01*
X115496250Y-143355000D01*
X114615000Y-143355000D01*
X114265000Y-143355000D01*
X113383750Y-143355000D01*
X113315000Y-143423750D01*
X113313669Y-144030000D01*
X107547732Y-144030000D01*
X107414864Y-143709229D01*
X107116646Y-143262914D01*
X106737086Y-142883354D01*
X106290771Y-142585136D01*
X105794853Y-142379720D01*
X105544894Y-142330000D01*
X113313669Y-142330000D01*
X113315000Y-142936250D01*
X113383750Y-143005000D01*
X114265000Y-143005000D01*
X114265000Y-142123750D01*
X114615000Y-142123750D01*
X114615000Y-143005000D01*
X115496250Y-143005000D01*
X115565000Y-142936250D01*
X115565054Y-142911611D01*
X121875000Y-142911611D01*
X121875000Y-143448389D01*
X121979720Y-143974853D01*
X122185136Y-144470771D01*
X122483354Y-144917086D01*
X122862914Y-145296646D01*
X123309229Y-145594864D01*
X123805147Y-145800280D01*
X124331611Y-145905000D01*
X124868389Y-145905000D01*
X125394853Y-145800280D01*
X125890771Y-145594864D01*
X126337086Y-145296646D01*
X126716646Y-144917086D01*
X127014864Y-144470771D01*
X127220280Y-143974853D01*
X127325000Y-143448389D01*
X127325000Y-142911611D01*
X157435000Y-142911611D01*
X157435000Y-143448389D01*
X157539720Y-143974853D01*
X157745136Y-144470771D01*
X158043354Y-144917086D01*
X158422914Y-145296646D01*
X158869229Y-145594864D01*
X159365147Y-145800280D01*
X159891611Y-145905000D01*
X160428389Y-145905000D01*
X160954853Y-145800280D01*
X161450771Y-145594864D01*
X161897086Y-145296646D01*
X162276646Y-144917086D01*
X162400576Y-144731611D01*
X192275000Y-144731611D01*
X192275000Y-145268389D01*
X192379720Y-145794853D01*
X192585136Y-146290771D01*
X192883354Y-146737086D01*
X193262914Y-147116646D01*
X193709229Y-147414864D01*
X194205147Y-147620280D01*
X194731611Y-147725000D01*
X195268389Y-147725000D01*
X195794853Y-147620280D01*
X196290771Y-147414864D01*
X196737086Y-147116646D01*
X197116646Y-146737086D01*
X197414864Y-146290771D01*
X197620280Y-145794853D01*
X197725000Y-145268389D01*
X197725000Y-144731611D01*
X197620280Y-144205147D01*
X197414864Y-143709229D01*
X197116646Y-143262914D01*
X196737086Y-142883354D01*
X196290771Y-142585136D01*
X195794853Y-142379720D01*
X195268389Y-142275000D01*
X194731611Y-142275000D01*
X194205147Y-142379720D01*
X193709229Y-142585136D01*
X193262914Y-142883354D01*
X192883354Y-143262914D01*
X192585136Y-143709229D01*
X192379720Y-144205147D01*
X192275000Y-144731611D01*
X162400576Y-144731611D01*
X162574864Y-144470771D01*
X162780280Y-143974853D01*
X162885000Y-143448389D01*
X162885000Y-142911611D01*
X162780280Y-142385147D01*
X162574864Y-141889229D01*
X162276646Y-141442914D01*
X161897086Y-141063354D01*
X161450771Y-140765136D01*
X160954853Y-140559720D01*
X160428389Y-140455000D01*
X159891611Y-140455000D01*
X159365147Y-140559720D01*
X158869229Y-140765136D01*
X158422914Y-141063354D01*
X158043354Y-141442914D01*
X157745136Y-141889229D01*
X157539720Y-142385147D01*
X157435000Y-142911611D01*
X127325000Y-142911611D01*
X127220280Y-142385147D01*
X127014864Y-141889229D01*
X126716646Y-141442914D01*
X126337086Y-141063354D01*
X125890771Y-140765136D01*
X125394853Y-140559720D01*
X124868389Y-140455000D01*
X124331611Y-140455000D01*
X123805147Y-140559720D01*
X123309229Y-140765136D01*
X122862914Y-141063354D01*
X122483354Y-141442914D01*
X122185136Y-141889229D01*
X121979720Y-142385147D01*
X121875000Y-142911611D01*
X115565054Y-142911611D01*
X115566331Y-142330000D01*
X115561021Y-142276090D01*
X115545297Y-142224253D01*
X115519761Y-142176479D01*
X115485396Y-142134604D01*
X115443521Y-142100239D01*
X115395747Y-142074703D01*
X115343910Y-142058979D01*
X115290000Y-142053669D01*
X114683750Y-142055000D01*
X114615000Y-142123750D01*
X114265000Y-142123750D01*
X114196250Y-142055000D01*
X113590000Y-142053669D01*
X113536090Y-142058979D01*
X113484253Y-142074703D01*
X113436479Y-142100239D01*
X113394604Y-142134604D01*
X113360239Y-142176479D01*
X113334703Y-142224253D01*
X113318979Y-142276090D01*
X113313669Y-142330000D01*
X105544894Y-142330000D01*
X105268389Y-142275000D01*
X104731611Y-142275000D01*
X104205147Y-142379720D01*
X103709229Y-142585136D01*
X103262914Y-142883354D01*
X102883354Y-143262914D01*
X102585136Y-143709229D01*
X102379720Y-144205147D01*
X102275000Y-144731611D01*
X101150000Y-144731611D01*
X101150000Y-139719859D01*
X194399759Y-139719859D01*
X194469394Y-139901068D01*
X194592611Y-140089974D01*
X194750314Y-140251212D01*
X194936443Y-140378585D01*
X195143845Y-140467199D01*
X195364549Y-140513648D01*
X195545000Y-140450443D01*
X195545000Y-139545000D01*
X195895000Y-139545000D01*
X195895000Y-140450443D01*
X196075451Y-140513648D01*
X196296155Y-140467199D01*
X196503557Y-140378585D01*
X196689686Y-140251212D01*
X196847389Y-140089974D01*
X196970606Y-139901068D01*
X197040241Y-139719859D01*
X197011927Y-139545000D01*
X195895000Y-139545000D01*
X195545000Y-139545000D01*
X194428073Y-139545000D01*
X194399759Y-139719859D01*
X101150000Y-139719859D01*
X101150000Y-137455329D01*
X173345000Y-137455329D01*
X173345000Y-137824671D01*
X173417056Y-138186917D01*
X173558397Y-138528145D01*
X173763593Y-138835243D01*
X174024757Y-139096407D01*
X174331855Y-139301603D01*
X174673083Y-139442944D01*
X175035329Y-139515000D01*
X175404671Y-139515000D01*
X175766917Y-139442944D01*
X176108145Y-139301603D01*
X176415243Y-139096407D01*
X176676407Y-138835243D01*
X176881603Y-138528145D01*
X177022944Y-138186917D01*
X177095000Y-137824671D01*
X177095000Y-137455329D01*
X177022944Y-137093083D01*
X176881603Y-136751855D01*
X176676407Y-136444757D01*
X176441649Y-136209999D01*
X193489557Y-136209999D01*
X193489557Y-137450001D01*
X193516082Y-137719312D01*
X193594637Y-137978273D01*
X193722203Y-138216933D01*
X193893879Y-138426121D01*
X194103067Y-138597797D01*
X194341727Y-138725363D01*
X194510147Y-138776453D01*
X194469394Y-138838932D01*
X194399759Y-139020141D01*
X194428073Y-139195000D01*
X195545000Y-139195000D01*
X195545000Y-139175000D01*
X195895000Y-139175000D01*
X195895000Y-139195000D01*
X197011927Y-139195000D01*
X197040241Y-139020141D01*
X196970606Y-138838932D01*
X196929853Y-138776453D01*
X197098273Y-138725363D01*
X197336933Y-138597797D01*
X197546121Y-138426121D01*
X197717797Y-138216933D01*
X197845363Y-137978273D01*
X197923918Y-137719312D01*
X197950443Y-137450001D01*
X197950443Y-136209999D01*
X197923918Y-135940688D01*
X197845363Y-135681727D01*
X197717797Y-135443067D01*
X197546121Y-135233879D01*
X197336933Y-135062203D01*
X197098273Y-134934637D01*
X196839312Y-134856082D01*
X196570001Y-134829557D01*
X194869999Y-134829557D01*
X194600688Y-134856082D01*
X194341727Y-134934637D01*
X194103067Y-135062203D01*
X193893879Y-135233879D01*
X193722203Y-135443067D01*
X193594637Y-135681727D01*
X193516082Y-135940688D01*
X193489557Y-136209999D01*
X176441649Y-136209999D01*
X176415243Y-136183593D01*
X176108145Y-135978397D01*
X175766917Y-135837056D01*
X175404671Y-135765000D01*
X175035329Y-135765000D01*
X174673083Y-135837056D01*
X174331855Y-135978397D01*
X174024757Y-136183593D01*
X173763593Y-136444757D01*
X173558397Y-136751855D01*
X173417056Y-137093083D01*
X173345000Y-137455329D01*
X101150000Y-137455329D01*
X101150000Y-127656837D01*
X102395000Y-127656837D01*
X102395000Y-128223163D01*
X102505485Y-128778607D01*
X102722208Y-129301823D01*
X103036842Y-129772706D01*
X103437294Y-130173158D01*
X103908177Y-130487792D01*
X104431393Y-130704515D01*
X104986837Y-130815000D01*
X105553163Y-130815000D01*
X106108607Y-130704515D01*
X106631823Y-130487792D01*
X107102706Y-130173158D01*
X107503158Y-129772706D01*
X107651272Y-129551038D01*
X109520850Y-127681460D01*
X111495000Y-127681460D01*
X111495000Y-128198540D01*
X111595878Y-128705684D01*
X111793755Y-129183404D01*
X112081030Y-129613340D01*
X112446660Y-129978970D01*
X112876596Y-130266245D01*
X113354316Y-130464122D01*
X113861460Y-130565000D01*
X114378540Y-130565000D01*
X114885684Y-130464122D01*
X115363404Y-130266245D01*
X115793340Y-129978970D01*
X116158970Y-129613340D01*
X116446245Y-129183404D01*
X116644122Y-128705684D01*
X116745000Y-128198540D01*
X116745000Y-127681460D01*
X165195000Y-127681460D01*
X165195000Y-128198540D01*
X165295878Y-128705684D01*
X165493755Y-129183404D01*
X165781030Y-129613340D01*
X166146660Y-129978970D01*
X166576596Y-130266245D01*
X167054316Y-130464122D01*
X167561460Y-130565000D01*
X168078540Y-130565000D01*
X168585684Y-130464122D01*
X169063404Y-130266245D01*
X169493340Y-129978970D01*
X169858970Y-129613340D01*
X170146245Y-129183404D01*
X170344122Y-128705684D01*
X170445000Y-128198540D01*
X170445000Y-127681460D01*
X170344122Y-127174316D01*
X170146245Y-126696596D01*
X169858970Y-126266660D01*
X169782310Y-126190000D01*
X173789557Y-126190000D01*
X173789557Y-129690000D01*
X173811278Y-129910538D01*
X173875607Y-130122602D01*
X173980071Y-130318040D01*
X174120656Y-130489344D01*
X174291960Y-130629929D01*
X174487398Y-130734393D01*
X174699462Y-130798722D01*
X174920000Y-130820443D01*
X176180000Y-130820443D01*
X176180000Y-133790000D01*
X176189624Y-133936841D01*
X176206661Y-134066251D01*
X176282672Y-134349929D01*
X176332622Y-134470519D01*
X176479469Y-134724862D01*
X176558929Y-134828415D01*
X176766585Y-135036071D01*
X176870138Y-135115531D01*
X177124481Y-135262378D01*
X177245071Y-135312328D01*
X177528749Y-135388339D01*
X177658159Y-135405376D01*
X177805000Y-135415000D01*
X190140000Y-135415000D01*
X190286841Y-135405376D01*
X190416251Y-135388339D01*
X190699929Y-135312328D01*
X190820519Y-135262378D01*
X191074862Y-135115531D01*
X191178415Y-135036071D01*
X191386071Y-134828415D01*
X191465531Y-134724862D01*
X191612378Y-134470519D01*
X191662328Y-134349929D01*
X191738339Y-134066251D01*
X191755376Y-133936841D01*
X191765000Y-133790000D01*
X191765000Y-129710000D01*
X191755376Y-129563159D01*
X191738339Y-129433749D01*
X191662328Y-129150071D01*
X191612378Y-129029481D01*
X191465531Y-128775138D01*
X191386071Y-128671585D01*
X191178415Y-128463929D01*
X191074862Y-128384469D01*
X190820519Y-128237622D01*
X190699929Y-128187672D01*
X190416251Y-128111661D01*
X190286841Y-128094624D01*
X190140000Y-128085000D01*
X179550443Y-128085000D01*
X179550443Y-126190000D01*
X179528722Y-125969462D01*
X179464393Y-125757398D01*
X179359929Y-125561960D01*
X179219344Y-125390656D01*
X179048040Y-125250071D01*
X178852602Y-125145607D01*
X178640538Y-125081278D01*
X178420000Y-125059557D01*
X174920000Y-125059557D01*
X174699462Y-125081278D01*
X174487398Y-125145607D01*
X174291960Y-125250071D01*
X174120656Y-125390656D01*
X173980071Y-125561960D01*
X173875607Y-125757398D01*
X173811278Y-125969462D01*
X173789557Y-126190000D01*
X169782310Y-126190000D01*
X169493340Y-125901030D01*
X169063404Y-125613755D01*
X168585684Y-125415878D01*
X168078540Y-125315000D01*
X167561460Y-125315000D01*
X167054316Y-125415878D01*
X166576596Y-125613755D01*
X166146660Y-125901030D01*
X165781030Y-126266660D01*
X165493755Y-126696596D01*
X165295878Y-127174316D01*
X165195000Y-127681460D01*
X116745000Y-127681460D01*
X116644122Y-127174316D01*
X116446245Y-126696596D01*
X116158970Y-126266660D01*
X115793340Y-125901030D01*
X115363404Y-125613755D01*
X114885684Y-125415878D01*
X114378540Y-125315000D01*
X113861460Y-125315000D01*
X113354316Y-125415878D01*
X112876596Y-125613755D01*
X112446660Y-125901030D01*
X112081030Y-126266660D01*
X111793755Y-126696596D01*
X111595878Y-127174316D01*
X111495000Y-127681460D01*
X109520850Y-127681460D01*
X118152310Y-119050000D01*
X187385444Y-119050000D01*
X187423577Y-119437168D01*
X187536509Y-119809457D01*
X187719902Y-120152560D01*
X187966707Y-120453293D01*
X188267440Y-120700098D01*
X188610543Y-120883491D01*
X188982832Y-120996423D01*
X189272977Y-121025000D01*
X189467023Y-121025000D01*
X189757168Y-120996423D01*
X190129457Y-120883491D01*
X190472560Y-120700098D01*
X190773293Y-120453293D01*
X191020098Y-120152560D01*
X191203491Y-119809457D01*
X191316423Y-119437168D01*
X191354556Y-119050000D01*
X191316423Y-118662832D01*
X191203491Y-118290543D01*
X191088392Y-118075209D01*
X191159929Y-117988040D01*
X191264393Y-117792602D01*
X191328722Y-117580538D01*
X191350443Y-117360000D01*
X191350443Y-115660000D01*
X191328722Y-115439462D01*
X191264393Y-115227398D01*
X191159929Y-115031960D01*
X191019344Y-114860656D01*
X190848040Y-114720071D01*
X190652602Y-114615607D01*
X190440538Y-114551278D01*
X190220000Y-114529557D01*
X188520000Y-114529557D01*
X188299462Y-114551278D01*
X188087398Y-114615607D01*
X187891960Y-114720071D01*
X187720656Y-114860656D01*
X187580071Y-115031960D01*
X187475607Y-115227398D01*
X187411278Y-115439462D01*
X187389557Y-115660000D01*
X187389557Y-117360000D01*
X187411278Y-117580538D01*
X187475607Y-117792602D01*
X187580071Y-117988040D01*
X187651608Y-118075209D01*
X187536509Y-118290543D01*
X187423577Y-118662832D01*
X187385444Y-119050000D01*
X118152310Y-119050000D01*
X121467339Y-115734971D01*
X121713167Y-115435429D01*
X121956917Y-114979406D01*
X122107017Y-114484591D01*
X122157700Y-113970001D01*
X122157700Y-113970000D01*
X142282299Y-113970000D01*
X142332982Y-114484590D01*
X142483082Y-114979404D01*
X142726832Y-115435428D01*
X143054864Y-115835136D01*
X143454572Y-116163168D01*
X143910596Y-116406918D01*
X144405410Y-116557018D01*
X144791045Y-116595000D01*
X150128955Y-116595000D01*
X150514590Y-116557018D01*
X151009404Y-116406918D01*
X151465428Y-116163168D01*
X151865136Y-115835136D01*
X152193168Y-115435428D01*
X152436918Y-114979404D01*
X152587018Y-114484590D01*
X152637701Y-113970000D01*
X152587018Y-113455410D01*
X152436918Y-112960596D01*
X152193168Y-112504572D01*
X151865136Y-112104864D01*
X151465428Y-111776832D01*
X151009404Y-111533082D01*
X150514590Y-111382982D01*
X150128955Y-111345000D01*
X144791045Y-111345000D01*
X144405410Y-111382982D01*
X143910596Y-111533082D01*
X143454572Y-111776832D01*
X143054864Y-112104864D01*
X142726832Y-112504572D01*
X142483082Y-112960596D01*
X142332982Y-113455410D01*
X142282299Y-113970000D01*
X122157700Y-113970000D01*
X122107017Y-113455411D01*
X121956917Y-112960596D01*
X121713167Y-112504573D01*
X121385135Y-112104865D01*
X120985427Y-111776833D01*
X120529404Y-111533083D01*
X120034589Y-111382983D01*
X119519999Y-111332300D01*
X119005409Y-111382983D01*
X118510594Y-111533083D01*
X118054571Y-111776833D01*
X117755029Y-112022661D01*
X104644618Y-125133072D01*
X104431393Y-125175485D01*
X103908177Y-125392208D01*
X103437294Y-125706842D01*
X103036842Y-126107294D01*
X102722208Y-126578177D01*
X102505485Y-127101393D01*
X102395000Y-127656837D01*
X101150000Y-127656837D01*
X101150000Y-108890000D01*
X162602300Y-108890000D01*
X162615000Y-109018947D01*
X162615001Y-114098955D01*
X162652983Y-114484590D01*
X162803083Y-114979404D01*
X163046833Y-115435428D01*
X163374865Y-115835136D01*
X163774573Y-116163168D01*
X164230597Y-116406918D01*
X164725411Y-116557018D01*
X165240000Y-116607701D01*
X165754590Y-116557018D01*
X166249404Y-116406918D01*
X166705428Y-116163168D01*
X167105136Y-115835136D01*
X167433168Y-115435428D01*
X167676918Y-114979404D01*
X167827018Y-114484590D01*
X167865000Y-114098955D01*
X167865000Y-111779859D01*
X194399759Y-111779859D01*
X194469394Y-111961068D01*
X194592611Y-112149974D01*
X194750314Y-112311212D01*
X194936443Y-112438585D01*
X195143845Y-112527199D01*
X195364549Y-112573648D01*
X195545000Y-112510443D01*
X195545000Y-111605000D01*
X195895000Y-111605000D01*
X195895000Y-112510443D01*
X196075451Y-112573648D01*
X196296155Y-112527199D01*
X196503557Y-112438585D01*
X196689686Y-112311212D01*
X196847389Y-112149974D01*
X196970606Y-111961068D01*
X197040241Y-111779859D01*
X197011927Y-111605000D01*
X195895000Y-111605000D01*
X195545000Y-111605000D01*
X194428073Y-111605000D01*
X194399759Y-111779859D01*
X167865000Y-111779859D01*
X167865000Y-109977310D01*
X168326981Y-109515329D01*
X173345000Y-109515329D01*
X173345000Y-109884671D01*
X173417056Y-110246917D01*
X173558397Y-110588145D01*
X173763593Y-110895243D01*
X174024757Y-111156407D01*
X174331855Y-111361603D01*
X174673083Y-111502944D01*
X175035329Y-111575000D01*
X175404671Y-111575000D01*
X175766917Y-111502944D01*
X176108145Y-111361603D01*
X176415243Y-111156407D01*
X176676407Y-110895243D01*
X176881603Y-110588145D01*
X177022944Y-110246917D01*
X177095000Y-109884671D01*
X177095000Y-109515329D01*
X177022944Y-109153083D01*
X176881603Y-108811855D01*
X176676407Y-108504757D01*
X176441649Y-108269999D01*
X193489557Y-108269999D01*
X193489557Y-109510001D01*
X193516082Y-109779312D01*
X193594637Y-110038273D01*
X193722203Y-110276933D01*
X193893879Y-110486121D01*
X194103067Y-110657797D01*
X194341727Y-110785363D01*
X194510147Y-110836453D01*
X194469394Y-110898932D01*
X194399759Y-111080141D01*
X194428073Y-111255000D01*
X195545000Y-111255000D01*
X195545000Y-111235000D01*
X195895000Y-111235000D01*
X195895000Y-111255000D01*
X197011927Y-111255000D01*
X197040241Y-111080141D01*
X196970606Y-110898932D01*
X196929853Y-110836453D01*
X197098273Y-110785363D01*
X197336933Y-110657797D01*
X197546121Y-110486121D01*
X197717797Y-110276933D01*
X197845363Y-110038273D01*
X197923918Y-109779312D01*
X197950443Y-109510001D01*
X197950443Y-108269999D01*
X197923918Y-108000688D01*
X197845363Y-107741727D01*
X197717797Y-107503067D01*
X197546121Y-107293879D01*
X197336933Y-107122203D01*
X197098273Y-106994637D01*
X196839312Y-106916082D01*
X196570001Y-106889557D01*
X194869999Y-106889557D01*
X194600688Y-106916082D01*
X194341727Y-106994637D01*
X194103067Y-107122203D01*
X193893879Y-107293879D01*
X193722203Y-107503067D01*
X193594637Y-107741727D01*
X193516082Y-108000688D01*
X193489557Y-108269999D01*
X176441649Y-108269999D01*
X176415243Y-108243593D01*
X176108145Y-108038397D01*
X175766917Y-107897056D01*
X175404671Y-107825000D01*
X175035329Y-107825000D01*
X174673083Y-107897056D01*
X174331855Y-108038397D01*
X174024757Y-108243593D01*
X173763593Y-108504757D01*
X173558397Y-108811855D01*
X173417056Y-109153083D01*
X173345000Y-109515329D01*
X168326981Y-109515329D01*
X174961868Y-102880443D01*
X176180000Y-102880443D01*
X176180000Y-105850000D01*
X176189624Y-105996841D01*
X176206661Y-106126251D01*
X176282672Y-106409929D01*
X176332622Y-106530519D01*
X176479469Y-106784862D01*
X176558929Y-106888415D01*
X176766585Y-107096071D01*
X176870138Y-107175531D01*
X177124481Y-107322378D01*
X177245071Y-107372328D01*
X177528749Y-107448339D01*
X177658159Y-107465376D01*
X177805000Y-107475000D01*
X190140000Y-107475000D01*
X190286841Y-107465376D01*
X190416251Y-107448339D01*
X190699929Y-107372328D01*
X190820519Y-107322378D01*
X191074862Y-107175531D01*
X191178415Y-107096071D01*
X191386071Y-106888415D01*
X191465531Y-106784862D01*
X191612378Y-106530519D01*
X191662328Y-106409929D01*
X191738339Y-106126251D01*
X191755376Y-105996841D01*
X191765000Y-105850000D01*
X191765000Y-101770000D01*
X191755376Y-101623159D01*
X191738339Y-101493749D01*
X191662328Y-101210071D01*
X191612378Y-101089481D01*
X191465531Y-100835138D01*
X191386071Y-100731585D01*
X191178415Y-100523929D01*
X191074862Y-100444469D01*
X190820519Y-100297622D01*
X190699929Y-100247672D01*
X190416251Y-100171661D01*
X190286841Y-100154624D01*
X190140000Y-100145000D01*
X179550443Y-100145000D01*
X179550443Y-98250000D01*
X179528722Y-98029462D01*
X179464393Y-97817398D01*
X179359929Y-97621960D01*
X179219344Y-97450656D01*
X179048040Y-97310071D01*
X178852602Y-97205607D01*
X178640538Y-97141278D01*
X178420000Y-97119557D01*
X174920000Y-97119557D01*
X174699462Y-97141278D01*
X174487398Y-97205607D01*
X174291960Y-97310071D01*
X174217784Y-97370946D01*
X174130000Y-97362300D01*
X174001053Y-97375000D01*
X174001045Y-97375000D01*
X173615410Y-97412982D01*
X173120596Y-97563082D01*
X172739388Y-97766842D01*
X172664572Y-97806832D01*
X172365029Y-98052660D01*
X172365025Y-98052664D01*
X172264864Y-98134864D01*
X172182664Y-98235025D01*
X170445000Y-99972689D01*
X170445000Y-99741460D01*
X170344122Y-99234316D01*
X170146245Y-98756596D01*
X169858970Y-98326660D01*
X169493340Y-97961030D01*
X169063404Y-97673755D01*
X168585684Y-97475878D01*
X168078540Y-97375000D01*
X167561460Y-97375000D01*
X167054316Y-97475878D01*
X166576596Y-97673755D01*
X166146660Y-97961030D01*
X165781030Y-98326660D01*
X165493755Y-98756596D01*
X165295878Y-99234316D01*
X165195000Y-99741460D01*
X165195000Y-100258540D01*
X165295878Y-100765684D01*
X165493755Y-101243404D01*
X165781030Y-101673340D01*
X166146660Y-102038970D01*
X166576596Y-102326245D01*
X167054316Y-102524122D01*
X167561460Y-102625000D01*
X167792690Y-102625000D01*
X163475031Y-106942659D01*
X163374864Y-107024864D01*
X163046832Y-107424573D01*
X162803082Y-107880597D01*
X162652982Y-108375411D01*
X162615000Y-108761046D01*
X162615000Y-108761053D01*
X162602300Y-108890000D01*
X101150000Y-108890000D01*
X101150000Y-99716837D01*
X102395000Y-99716837D01*
X102395000Y-100283163D01*
X102505485Y-100838607D01*
X102722208Y-101361823D01*
X103036842Y-101832706D01*
X103437294Y-102233158D01*
X103908177Y-102547792D01*
X104431393Y-102764515D01*
X104986837Y-102875000D01*
X105553163Y-102875000D01*
X106108607Y-102764515D01*
X106631823Y-102547792D01*
X107102706Y-102233158D01*
X107503158Y-101832706D01*
X107651272Y-101611038D01*
X109520850Y-99741460D01*
X111495000Y-99741460D01*
X111495000Y-100258540D01*
X111595878Y-100765684D01*
X111793755Y-101243404D01*
X112081030Y-101673340D01*
X112446660Y-102038970D01*
X112876596Y-102326245D01*
X113354316Y-102524122D01*
X113861460Y-102625000D01*
X114378540Y-102625000D01*
X114885684Y-102524122D01*
X115363404Y-102326245D01*
X115793340Y-102038970D01*
X116158970Y-101673340D01*
X116446245Y-101243404D01*
X116644122Y-100765684D01*
X116745000Y-100258540D01*
X116745000Y-99741460D01*
X116644122Y-99234316D01*
X116446245Y-98756596D01*
X116158970Y-98326660D01*
X115793340Y-97961030D01*
X115363404Y-97673755D01*
X114885684Y-97475878D01*
X114378540Y-97375000D01*
X113861460Y-97375000D01*
X113354316Y-97475878D01*
X112876596Y-97673755D01*
X112446660Y-97961030D01*
X112081030Y-98326660D01*
X111793755Y-98756596D01*
X111595878Y-99234316D01*
X111495000Y-99741460D01*
X109520850Y-99741460D01*
X118152310Y-91110000D01*
X187385444Y-91110000D01*
X187423577Y-91497168D01*
X187536509Y-91869457D01*
X187719902Y-92212560D01*
X187966707Y-92513293D01*
X188267440Y-92760098D01*
X188610543Y-92943491D01*
X188982832Y-93056423D01*
X189272977Y-93085000D01*
X189467023Y-93085000D01*
X189757168Y-93056423D01*
X190129457Y-92943491D01*
X190472560Y-92760098D01*
X190773293Y-92513293D01*
X191020098Y-92212560D01*
X191203491Y-91869457D01*
X191316423Y-91497168D01*
X191354556Y-91110000D01*
X191316423Y-90722832D01*
X191203491Y-90350543D01*
X191088392Y-90135209D01*
X191159929Y-90048040D01*
X191264393Y-89852602D01*
X191328722Y-89640538D01*
X191350443Y-89420000D01*
X191350443Y-87720000D01*
X191328722Y-87499462D01*
X191264393Y-87287398D01*
X191159929Y-87091960D01*
X191019344Y-86920656D01*
X190848040Y-86780071D01*
X190652602Y-86675607D01*
X190440538Y-86611278D01*
X190220000Y-86589557D01*
X188520000Y-86589557D01*
X188299462Y-86611278D01*
X188087398Y-86675607D01*
X187891960Y-86780071D01*
X187720656Y-86920656D01*
X187580071Y-87091960D01*
X187475607Y-87287398D01*
X187411278Y-87499462D01*
X187389557Y-87720000D01*
X187389557Y-89420000D01*
X187411278Y-89640538D01*
X187475607Y-89852602D01*
X187580071Y-90048040D01*
X187651608Y-90135209D01*
X187536509Y-90350543D01*
X187423577Y-90722832D01*
X187385444Y-91110000D01*
X118152310Y-91110000D01*
X121467339Y-87794971D01*
X121713167Y-87495429D01*
X121956917Y-87039406D01*
X122107017Y-86544591D01*
X122157700Y-86030001D01*
X122157700Y-86030000D01*
X142282299Y-86030000D01*
X142332982Y-86544590D01*
X142483082Y-87039404D01*
X142726832Y-87495428D01*
X143054864Y-87895136D01*
X143454572Y-88223168D01*
X143910596Y-88466918D01*
X144405410Y-88617018D01*
X144791045Y-88655000D01*
X150128955Y-88655000D01*
X150514590Y-88617018D01*
X151009404Y-88466918D01*
X151465428Y-88223168D01*
X151865136Y-87895136D01*
X152193168Y-87495428D01*
X152436918Y-87039404D01*
X152587018Y-86544590D01*
X152637701Y-86030000D01*
X152587018Y-85515410D01*
X152436918Y-85020596D01*
X152193168Y-84564572D01*
X151865136Y-84164864D01*
X151465428Y-83836832D01*
X151009404Y-83593082D01*
X150514590Y-83442982D01*
X150128955Y-83405000D01*
X144791045Y-83405000D01*
X144405410Y-83442982D01*
X143910596Y-83593082D01*
X143454572Y-83836832D01*
X143054864Y-84164864D01*
X142726832Y-84564572D01*
X142483082Y-85020596D01*
X142332982Y-85515410D01*
X142282299Y-86030000D01*
X122157700Y-86030000D01*
X122107017Y-85515411D01*
X121956917Y-85020596D01*
X121713167Y-84564573D01*
X121385135Y-84164865D01*
X120985427Y-83836833D01*
X120529404Y-83593083D01*
X120034589Y-83442983D01*
X119519999Y-83392300D01*
X119005409Y-83442983D01*
X118510594Y-83593083D01*
X118054571Y-83836833D01*
X117755029Y-84082661D01*
X104644618Y-97193072D01*
X104431393Y-97235485D01*
X103908177Y-97452208D01*
X103437294Y-97766842D01*
X103036842Y-98167294D01*
X102722208Y-98638177D01*
X102505485Y-99161393D01*
X102395000Y-99716837D01*
X101150000Y-99716837D01*
X101150000Y-80950000D01*
X162602300Y-80950000D01*
X162615000Y-81078947D01*
X162615001Y-86158955D01*
X162652983Y-86544590D01*
X162803083Y-87039404D01*
X163046833Y-87495428D01*
X163374865Y-87895136D01*
X163774573Y-88223168D01*
X164230597Y-88466918D01*
X164725411Y-88617018D01*
X165240000Y-88667701D01*
X165754590Y-88617018D01*
X166249404Y-88466918D01*
X166705428Y-88223168D01*
X167105136Y-87895136D01*
X167433168Y-87495428D01*
X167676918Y-87039404D01*
X167827018Y-86544590D01*
X167865000Y-86158955D01*
X167865000Y-83839859D01*
X194399759Y-83839859D01*
X194469394Y-84021068D01*
X194592611Y-84209974D01*
X194750314Y-84371212D01*
X194936443Y-84498585D01*
X195143845Y-84587199D01*
X195364549Y-84633648D01*
X195545000Y-84570443D01*
X195545000Y-83665000D01*
X195895000Y-83665000D01*
X195895000Y-84570443D01*
X196075451Y-84633648D01*
X196296155Y-84587199D01*
X196503557Y-84498585D01*
X196689686Y-84371212D01*
X196847389Y-84209974D01*
X196970606Y-84021068D01*
X197040241Y-83839859D01*
X197011927Y-83665000D01*
X195895000Y-83665000D01*
X195545000Y-83665000D01*
X194428073Y-83665000D01*
X194399759Y-83839859D01*
X167865000Y-83839859D01*
X167865000Y-82037310D01*
X168326981Y-81575329D01*
X173345000Y-81575329D01*
X173345000Y-81944671D01*
X173417056Y-82306917D01*
X173558397Y-82648145D01*
X173763593Y-82955243D01*
X174024757Y-83216407D01*
X174331855Y-83421603D01*
X174673083Y-83562944D01*
X175035329Y-83635000D01*
X175404671Y-83635000D01*
X175766917Y-83562944D01*
X176108145Y-83421603D01*
X176415243Y-83216407D01*
X176676407Y-82955243D01*
X176881603Y-82648145D01*
X177022944Y-82306917D01*
X177095000Y-81944671D01*
X177095000Y-81575329D01*
X177022944Y-81213083D01*
X176881603Y-80871855D01*
X176676407Y-80564757D01*
X176441649Y-80329999D01*
X193489557Y-80329999D01*
X193489557Y-81570001D01*
X193516082Y-81839312D01*
X193594637Y-82098273D01*
X193722203Y-82336933D01*
X193893879Y-82546121D01*
X194103067Y-82717797D01*
X194341727Y-82845363D01*
X194510147Y-82896453D01*
X194469394Y-82958932D01*
X194399759Y-83140141D01*
X194428073Y-83315000D01*
X195545000Y-83315000D01*
X195545000Y-83295000D01*
X195895000Y-83295000D01*
X195895000Y-83315000D01*
X197011927Y-83315000D01*
X197040241Y-83140141D01*
X196970606Y-82958932D01*
X196929853Y-82896453D01*
X197098273Y-82845363D01*
X197336933Y-82717797D01*
X197546121Y-82546121D01*
X197717797Y-82336933D01*
X197845363Y-82098273D01*
X197923918Y-81839312D01*
X197950443Y-81570001D01*
X197950443Y-80329999D01*
X197923918Y-80060688D01*
X197845363Y-79801727D01*
X197717797Y-79563067D01*
X197546121Y-79353879D01*
X197336933Y-79182203D01*
X197098273Y-79054637D01*
X196839312Y-78976082D01*
X196570001Y-78949557D01*
X194869999Y-78949557D01*
X194600688Y-78976082D01*
X194341727Y-79054637D01*
X194103067Y-79182203D01*
X193893879Y-79353879D01*
X193722203Y-79563067D01*
X193594637Y-79801727D01*
X193516082Y-80060688D01*
X193489557Y-80329999D01*
X176441649Y-80329999D01*
X176415243Y-80303593D01*
X176108145Y-80098397D01*
X175766917Y-79957056D01*
X175404671Y-79885000D01*
X175035329Y-79885000D01*
X174673083Y-79957056D01*
X174331855Y-80098397D01*
X174024757Y-80303593D01*
X173763593Y-80564757D01*
X173558397Y-80871855D01*
X173417056Y-81213083D01*
X173345000Y-81575329D01*
X168326981Y-81575329D01*
X174961868Y-74940443D01*
X176180000Y-74940443D01*
X176180000Y-77910000D01*
X176189624Y-78056841D01*
X176206661Y-78186251D01*
X176282672Y-78469929D01*
X176332622Y-78590519D01*
X176479469Y-78844862D01*
X176558929Y-78948415D01*
X176766585Y-79156071D01*
X176870138Y-79235531D01*
X177124481Y-79382378D01*
X177245071Y-79432328D01*
X177528749Y-79508339D01*
X177658159Y-79525376D01*
X177805000Y-79535000D01*
X190140000Y-79535000D01*
X190286841Y-79525376D01*
X190416251Y-79508339D01*
X190699929Y-79432328D01*
X190820519Y-79382378D01*
X191074862Y-79235531D01*
X191178415Y-79156071D01*
X191386071Y-78948415D01*
X191465531Y-78844862D01*
X191612378Y-78590519D01*
X191662328Y-78469929D01*
X191738339Y-78186251D01*
X191755376Y-78056841D01*
X191765000Y-77910000D01*
X191765000Y-73830000D01*
X191755376Y-73683159D01*
X191738339Y-73553749D01*
X191662328Y-73270071D01*
X191612378Y-73149481D01*
X191465531Y-72895138D01*
X191386071Y-72791585D01*
X191178415Y-72583929D01*
X191074862Y-72504469D01*
X190820519Y-72357622D01*
X190699929Y-72307672D01*
X190416251Y-72231661D01*
X190286841Y-72214624D01*
X190140000Y-72205000D01*
X179550443Y-72205000D01*
X179550443Y-70310000D01*
X179528722Y-70089462D01*
X179464393Y-69877398D01*
X179359929Y-69681960D01*
X179219344Y-69510656D01*
X179048040Y-69370071D01*
X178852602Y-69265607D01*
X178640538Y-69201278D01*
X178420000Y-69179557D01*
X174920000Y-69179557D01*
X174699462Y-69201278D01*
X174487398Y-69265607D01*
X174291960Y-69370071D01*
X174217784Y-69430946D01*
X174130000Y-69422300D01*
X174001053Y-69435000D01*
X174001045Y-69435000D01*
X173615410Y-69472982D01*
X173120596Y-69623082D01*
X172664572Y-69866832D01*
X172365029Y-70112660D01*
X172365025Y-70112664D01*
X172264864Y-70194864D01*
X172182664Y-70295025D01*
X170445000Y-72032689D01*
X170445000Y-71801460D01*
X170344122Y-71294316D01*
X170146245Y-70816596D01*
X169858970Y-70386660D01*
X169493340Y-70021030D01*
X169063404Y-69733755D01*
X168585684Y-69535878D01*
X168078540Y-69435000D01*
X167561460Y-69435000D01*
X167054316Y-69535878D01*
X166576596Y-69733755D01*
X166146660Y-70021030D01*
X165781030Y-70386660D01*
X165493755Y-70816596D01*
X165295878Y-71294316D01*
X165195000Y-71801460D01*
X165195000Y-72318540D01*
X165295878Y-72825684D01*
X165493755Y-73303404D01*
X165781030Y-73733340D01*
X166146660Y-74098970D01*
X166576596Y-74386245D01*
X167054316Y-74584122D01*
X167561460Y-74685000D01*
X167792690Y-74685000D01*
X163475031Y-79002659D01*
X163374864Y-79084864D01*
X163046832Y-79484573D01*
X162803082Y-79940597D01*
X162652982Y-80435411D01*
X162615000Y-80821046D01*
X162615000Y-80821053D01*
X162602300Y-80950000D01*
X101150000Y-80950000D01*
X101150000Y-73568431D01*
X104009056Y-73568431D01*
X104219985Y-73802950D01*
X104580194Y-73974307D01*
X104966911Y-74072099D01*
X105365275Y-74092566D01*
X105759978Y-74034924D01*
X106135852Y-73901386D01*
X106320015Y-73802950D01*
X106530944Y-73568431D01*
X105270000Y-72307487D01*
X104009056Y-73568431D01*
X101150000Y-73568431D01*
X101150000Y-72155275D01*
X103237434Y-72155275D01*
X103295076Y-72549978D01*
X103428614Y-72925852D01*
X103527050Y-73110015D01*
X103761569Y-73320944D01*
X105022513Y-72060000D01*
X105517487Y-72060000D01*
X106778431Y-73320944D01*
X107012950Y-73110015D01*
X107184307Y-72749806D01*
X107282099Y-72363089D01*
X107302566Y-71964725D01*
X107278723Y-71801460D01*
X111495000Y-71801460D01*
X111495000Y-72318540D01*
X111595878Y-72825684D01*
X111793755Y-73303404D01*
X112081030Y-73733340D01*
X112446660Y-74098970D01*
X112876596Y-74386245D01*
X113354316Y-74584122D01*
X113861460Y-74685000D01*
X114378540Y-74685000D01*
X114885684Y-74584122D01*
X115363404Y-74386245D01*
X115793340Y-74098970D01*
X116158970Y-73733340D01*
X116446245Y-73303404D01*
X116644122Y-72825684D01*
X116745000Y-72318540D01*
X116745000Y-71801460D01*
X116644122Y-71294316D01*
X116446245Y-70816596D01*
X116158970Y-70386660D01*
X115793340Y-70021030D01*
X115363404Y-69733755D01*
X114885684Y-69535878D01*
X114378540Y-69435000D01*
X113861460Y-69435000D01*
X113354316Y-69535878D01*
X112876596Y-69733755D01*
X112446660Y-70021030D01*
X112081030Y-70386660D01*
X111793755Y-70816596D01*
X111595878Y-71294316D01*
X111495000Y-71801460D01*
X107278723Y-71801460D01*
X107244924Y-71570022D01*
X107111386Y-71194148D01*
X107012950Y-71009985D01*
X106778431Y-70799056D01*
X105517487Y-72060000D01*
X105022513Y-72060000D01*
X103761569Y-70799056D01*
X103527050Y-71009985D01*
X103355693Y-71370194D01*
X103257901Y-71756911D01*
X103237434Y-72155275D01*
X101150000Y-72155275D01*
X101150000Y-70551569D01*
X104009056Y-70551569D01*
X105270000Y-71812513D01*
X106530944Y-70551569D01*
X106320015Y-70317050D01*
X105959806Y-70145693D01*
X105573089Y-70047901D01*
X105174725Y-70027434D01*
X104780022Y-70085076D01*
X104404148Y-70218614D01*
X104219985Y-70317050D01*
X104009056Y-70551569D01*
X101150000Y-70551569D01*
X101150000Y-63170000D01*
X187385444Y-63170000D01*
X187423577Y-63557168D01*
X187536509Y-63929457D01*
X187719902Y-64272560D01*
X187966707Y-64573293D01*
X188267440Y-64820098D01*
X188610543Y-65003491D01*
X188982832Y-65116423D01*
X189272977Y-65145000D01*
X189467023Y-65145000D01*
X189757168Y-65116423D01*
X190129457Y-65003491D01*
X190472560Y-64820098D01*
X190773293Y-64573293D01*
X191020098Y-64272560D01*
X191203491Y-63929457D01*
X191316423Y-63557168D01*
X191354556Y-63170000D01*
X191316423Y-62782832D01*
X191203491Y-62410543D01*
X191088392Y-62195209D01*
X191159929Y-62108040D01*
X191264393Y-61912602D01*
X191328722Y-61700538D01*
X191350443Y-61480000D01*
X191350443Y-59780000D01*
X191328722Y-59559462D01*
X191264393Y-59347398D01*
X191159929Y-59151960D01*
X191019344Y-58980656D01*
X190848040Y-58840071D01*
X190652602Y-58735607D01*
X190440538Y-58671278D01*
X190220000Y-58649557D01*
X188520000Y-58649557D01*
X188299462Y-58671278D01*
X188087398Y-58735607D01*
X187891960Y-58840071D01*
X187720656Y-58980656D01*
X187580071Y-59151960D01*
X187475607Y-59347398D01*
X187411278Y-59559462D01*
X187389557Y-59780000D01*
X187389557Y-61480000D01*
X187411278Y-61700538D01*
X187475607Y-61912602D01*
X187580071Y-62108040D01*
X187651608Y-62195209D01*
X187536509Y-62410543D01*
X187423577Y-62782832D01*
X187385444Y-63170000D01*
X101150000Y-63170000D01*
X101150000Y-54731611D01*
X102275000Y-54731611D01*
X102275000Y-55268389D01*
X102379720Y-55794853D01*
X102585136Y-56290771D01*
X102883354Y-56737086D01*
X103262914Y-57116646D01*
X103709229Y-57414864D01*
X104205147Y-57620280D01*
X104731611Y-57725000D01*
X105268389Y-57725000D01*
X105794853Y-57620280D01*
X106290771Y-57414864D01*
X106737086Y-57116646D01*
X107116646Y-56737086D01*
X107414864Y-56290771D01*
X107547731Y-55970000D01*
X112459557Y-55970000D01*
X112459557Y-57670000D01*
X112481278Y-57890538D01*
X112545607Y-58102602D01*
X112650071Y-58298040D01*
X112790656Y-58469344D01*
X112961960Y-58609929D01*
X113157398Y-58714393D01*
X113369462Y-58778722D01*
X113590000Y-58800443D01*
X115290000Y-58800443D01*
X115510538Y-58778722D01*
X115722602Y-58714393D01*
X115918040Y-58609929D01*
X116089344Y-58469344D01*
X116229929Y-58298040D01*
X116334393Y-58102602D01*
X116398722Y-57890538D01*
X116420443Y-57670000D01*
X116420443Y-56551611D01*
X121875000Y-56551611D01*
X121875000Y-57088389D01*
X121979720Y-57614853D01*
X122185136Y-58110771D01*
X122483354Y-58557086D01*
X122862914Y-58936646D01*
X123309229Y-59234864D01*
X123805147Y-59440280D01*
X124331611Y-59545000D01*
X124868389Y-59545000D01*
X125394853Y-59440280D01*
X125890771Y-59234864D01*
X126337086Y-58936646D01*
X126716646Y-58557086D01*
X127014864Y-58110771D01*
X127220280Y-57614853D01*
X127325000Y-57088389D01*
X127325000Y-56551611D01*
X157435000Y-56551611D01*
X157435000Y-57088389D01*
X157539720Y-57614853D01*
X157745136Y-58110771D01*
X158043354Y-58557086D01*
X158422914Y-58936646D01*
X158869229Y-59234864D01*
X159365147Y-59440280D01*
X159891611Y-59545000D01*
X160428389Y-59545000D01*
X160954853Y-59440280D01*
X161450771Y-59234864D01*
X161897086Y-58936646D01*
X162276646Y-58557086D01*
X162574864Y-58110771D01*
X162780280Y-57614853D01*
X162885000Y-57088389D01*
X162885000Y-56551611D01*
X162780280Y-56025147D01*
X162574864Y-55529229D01*
X162276646Y-55082914D01*
X161925343Y-54731611D01*
X192275000Y-54731611D01*
X192275000Y-55268389D01*
X192379720Y-55794853D01*
X192585136Y-56290771D01*
X192883354Y-56737086D01*
X193262914Y-57116646D01*
X193709229Y-57414864D01*
X194205147Y-57620280D01*
X194731611Y-57725000D01*
X195268389Y-57725000D01*
X195794853Y-57620280D01*
X196290771Y-57414864D01*
X196737086Y-57116646D01*
X197116646Y-56737086D01*
X197414864Y-56290771D01*
X197620280Y-55794853D01*
X197725000Y-55268389D01*
X197725000Y-54731611D01*
X197620280Y-54205147D01*
X197414864Y-53709229D01*
X197116646Y-53262914D01*
X196737086Y-52883354D01*
X196290771Y-52585136D01*
X195794853Y-52379720D01*
X195268389Y-52275000D01*
X194731611Y-52275000D01*
X194205147Y-52379720D01*
X193709229Y-52585136D01*
X193262914Y-52883354D01*
X192883354Y-53262914D01*
X192585136Y-53709229D01*
X192379720Y-54205147D01*
X192275000Y-54731611D01*
X161925343Y-54731611D01*
X161897086Y-54703354D01*
X161450771Y-54405136D01*
X160954853Y-54199720D01*
X160428389Y-54095000D01*
X159891611Y-54095000D01*
X159365147Y-54199720D01*
X158869229Y-54405136D01*
X158422914Y-54703354D01*
X158043354Y-55082914D01*
X157745136Y-55529229D01*
X157539720Y-56025147D01*
X157435000Y-56551611D01*
X127325000Y-56551611D01*
X127220280Y-56025147D01*
X127014864Y-55529229D01*
X126716646Y-55082914D01*
X126337086Y-54703354D01*
X125890771Y-54405136D01*
X125394853Y-54199720D01*
X124868389Y-54095000D01*
X124331611Y-54095000D01*
X123805147Y-54199720D01*
X123309229Y-54405136D01*
X122862914Y-54703354D01*
X122483354Y-55082914D01*
X122185136Y-55529229D01*
X121979720Y-56025147D01*
X121875000Y-56551611D01*
X116420443Y-56551611D01*
X116420443Y-55970000D01*
X116398722Y-55749462D01*
X116334393Y-55537398D01*
X116229929Y-55341960D01*
X116089344Y-55170656D01*
X115918040Y-55030071D01*
X115722602Y-54925607D01*
X115510538Y-54861278D01*
X115290000Y-54839557D01*
X113590000Y-54839557D01*
X113369462Y-54861278D01*
X113157398Y-54925607D01*
X112961960Y-55030071D01*
X112790656Y-55170656D01*
X112650071Y-55341960D01*
X112545607Y-55537398D01*
X112481278Y-55749462D01*
X112459557Y-55970000D01*
X107547731Y-55970000D01*
X107620280Y-55794853D01*
X107725000Y-55268389D01*
X107725000Y-54731611D01*
X107620280Y-54205147D01*
X107414864Y-53709229D01*
X107116646Y-53262914D01*
X106737086Y-52883354D01*
X106290771Y-52585136D01*
X105794853Y-52379720D01*
X105268389Y-52275000D01*
X104731611Y-52275000D01*
X104205147Y-52379720D01*
X103709229Y-52585136D01*
X103262914Y-52883354D01*
X102883354Y-53262914D01*
X102585136Y-53709229D01*
X102379720Y-54205147D01*
X102275000Y-54731611D01*
X101150000Y-54731611D01*
X101150000Y-51150000D01*
X198850000Y-51150000D01*
X198850001Y-148850000D01*
G36*
X183317869Y-73562045D02*
G01*
X183567642Y-73728938D01*
X183845174Y-73843895D01*
X184139801Y-73902500D01*
X184440199Y-73902500D01*
X184734826Y-73843895D01*
X185012358Y-73728938D01*
X185262131Y-73562045D01*
X185369176Y-73455000D01*
X190131804Y-73455000D01*
X190236780Y-73468820D01*
X190326959Y-73506173D01*
X190404402Y-73565598D01*
X190463827Y-73643041D01*
X190501180Y-73733220D01*
X190515000Y-73838196D01*
X190515000Y-77901804D01*
X190501180Y-78006780D01*
X190463827Y-78096959D01*
X190404402Y-78174402D01*
X190326959Y-78233827D01*
X190236780Y-78271180D01*
X190131804Y-78285000D01*
X177813196Y-78285000D01*
X177708220Y-78271180D01*
X177618041Y-78233827D01*
X177540598Y-78174402D01*
X177481173Y-78096959D01*
X177443820Y-78006780D01*
X177430000Y-77901804D01*
X177430000Y-74940443D01*
X178420000Y-74940443D01*
X178640538Y-74918722D01*
X178852602Y-74854393D01*
X179048040Y-74749929D01*
X179219344Y-74609344D01*
X179359929Y-74438040D01*
X179464393Y-74242602D01*
X179528722Y-74030538D01*
X179550443Y-73810000D01*
X179550443Y-73455000D01*
X183210824Y-73455000D01*
X183317869Y-73562045D01*
X183317869Y-73562045D01*
G37*
X183317869Y-73562045D02*
X183567642Y-73728938D01*
X183845174Y-73843895D01*
X184139801Y-73902500D01*
X184440199Y-73902500D01*
X184734826Y-73843895D01*
X185012358Y-73728938D01*
X185262131Y-73562045D01*
X185369176Y-73455000D01*
X190131804Y-73455000D01*
X190236780Y-73468820D01*
X190326959Y-73506173D01*
X190404402Y-73565598D01*
X190463827Y-73643041D01*
X190501180Y-73733220D01*
X190515000Y-73838196D01*
X190515000Y-77901804D01*
X190501180Y-78006780D01*
X190463827Y-78096959D01*
X190404402Y-78174402D01*
X190326959Y-78233827D01*
X190236780Y-78271180D01*
X190131804Y-78285000D01*
X177813196Y-78285000D01*
X177708220Y-78271180D01*
X177618041Y-78233827D01*
X177540598Y-78174402D01*
X177481173Y-78096959D01*
X177443820Y-78006780D01*
X177430000Y-77901804D01*
X177430000Y-74940443D01*
X178420000Y-74940443D01*
X178640538Y-74918722D01*
X178852602Y-74854393D01*
X179048040Y-74749929D01*
X179219344Y-74609344D01*
X179359929Y-74438040D01*
X179464393Y-74242602D01*
X179528722Y-74030538D01*
X179550443Y-73810000D01*
X179550443Y-73455000D01*
X183210824Y-73455000D01*
X183317869Y-73562045D01*
G36*
X183317869Y-101502045D02*
G01*
X183567642Y-101668938D01*
X183845174Y-101783895D01*
X184139801Y-101842500D01*
X184440199Y-101842500D01*
X184734826Y-101783895D01*
X185012358Y-101668938D01*
X185262131Y-101502045D01*
X185369176Y-101395000D01*
X190131804Y-101395000D01*
X190236780Y-101408820D01*
X190326959Y-101446173D01*
X190404402Y-101505598D01*
X190463827Y-101583041D01*
X190501180Y-101673220D01*
X190515000Y-101778196D01*
X190515000Y-105841804D01*
X190501180Y-105946780D01*
X190463827Y-106036959D01*
X190404402Y-106114402D01*
X190326959Y-106173827D01*
X190236780Y-106211180D01*
X190131804Y-106225000D01*
X177813196Y-106225000D01*
X177708220Y-106211180D01*
X177618041Y-106173827D01*
X177540598Y-106114402D01*
X177481173Y-106036959D01*
X177443820Y-105946780D01*
X177430000Y-105841804D01*
X177430000Y-102880443D01*
X178420000Y-102880443D01*
X178640538Y-102858722D01*
X178852602Y-102794393D01*
X179048040Y-102689929D01*
X179219344Y-102549344D01*
X179359929Y-102378040D01*
X179464393Y-102182602D01*
X179528722Y-101970538D01*
X179550443Y-101750000D01*
X179550443Y-101395000D01*
X183210824Y-101395000D01*
X183317869Y-101502045D01*
X183317869Y-101502045D01*
G37*
X183317869Y-101502045D02*
X183567642Y-101668938D01*
X183845174Y-101783895D01*
X184139801Y-101842500D01*
X184440199Y-101842500D01*
X184734826Y-101783895D01*
X185012358Y-101668938D01*
X185262131Y-101502045D01*
X185369176Y-101395000D01*
X190131804Y-101395000D01*
X190236780Y-101408820D01*
X190326959Y-101446173D01*
X190404402Y-101505598D01*
X190463827Y-101583041D01*
X190501180Y-101673220D01*
X190515000Y-101778196D01*
X190515000Y-105841804D01*
X190501180Y-105946780D01*
X190463827Y-106036959D01*
X190404402Y-106114402D01*
X190326959Y-106173827D01*
X190236780Y-106211180D01*
X190131804Y-106225000D01*
X177813196Y-106225000D01*
X177708220Y-106211180D01*
X177618041Y-106173827D01*
X177540598Y-106114402D01*
X177481173Y-106036959D01*
X177443820Y-105946780D01*
X177430000Y-105841804D01*
X177430000Y-102880443D01*
X178420000Y-102880443D01*
X178640538Y-102858722D01*
X178852602Y-102794393D01*
X179048040Y-102689929D01*
X179219344Y-102549344D01*
X179359929Y-102378040D01*
X179464393Y-102182602D01*
X179528722Y-101970538D01*
X179550443Y-101750000D01*
X179550443Y-101395000D01*
X183210824Y-101395000D01*
X183317869Y-101502045D01*
G36*
X183317869Y-129442045D02*
G01*
X183567642Y-129608938D01*
X183845174Y-129723895D01*
X184139801Y-129782500D01*
X184440199Y-129782500D01*
X184734826Y-129723895D01*
X185012358Y-129608938D01*
X185262131Y-129442045D01*
X185369176Y-129335000D01*
X190131804Y-129335000D01*
X190236780Y-129348820D01*
X190326959Y-129386173D01*
X190404402Y-129445598D01*
X190463827Y-129523041D01*
X190501180Y-129613220D01*
X190515000Y-129718196D01*
X190515000Y-133781804D01*
X190501180Y-133886780D01*
X190463827Y-133976959D01*
X190404402Y-134054402D01*
X190326959Y-134113827D01*
X190236780Y-134151180D01*
X190131804Y-134165000D01*
X177813196Y-134165000D01*
X177708220Y-134151180D01*
X177618041Y-134113827D01*
X177540598Y-134054402D01*
X177481173Y-133976959D01*
X177443820Y-133886780D01*
X177430000Y-133781804D01*
X177430000Y-129965456D01*
X178420000Y-129966331D01*
X178473910Y-129961021D01*
X178525747Y-129945297D01*
X178573521Y-129919761D01*
X178615396Y-129885396D01*
X178649761Y-129843521D01*
X178675297Y-129795747D01*
X178691021Y-129743910D01*
X178696331Y-129690000D01*
X178696017Y-129335000D01*
X183210824Y-129335000D01*
X183317869Y-129442045D01*
X183317869Y-129442045D01*
G37*
X183317869Y-129442045D02*
X183567642Y-129608938D01*
X183845174Y-129723895D01*
X184139801Y-129782500D01*
X184440199Y-129782500D01*
X184734826Y-129723895D01*
X185012358Y-129608938D01*
X185262131Y-129442045D01*
X185369176Y-129335000D01*
X190131804Y-129335000D01*
X190236780Y-129348820D01*
X190326959Y-129386173D01*
X190404402Y-129445598D01*
X190463827Y-129523041D01*
X190501180Y-129613220D01*
X190515000Y-129718196D01*
X190515000Y-133781804D01*
X190501180Y-133886780D01*
X190463827Y-133976959D01*
X190404402Y-134054402D01*
X190326959Y-134113827D01*
X190236780Y-134151180D01*
X190131804Y-134165000D01*
X177813196Y-134165000D01*
X177708220Y-134151180D01*
X177618041Y-134113827D01*
X177540598Y-134054402D01*
X177481173Y-133976959D01*
X177443820Y-133886780D01*
X177430000Y-133781804D01*
X177430000Y-129965456D01*
X178420000Y-129966331D01*
X178473910Y-129961021D01*
X178525747Y-129945297D01*
X178573521Y-129919761D01*
X178615396Y-129885396D01*
X178649761Y-129843521D01*
X178675297Y-129795747D01*
X178691021Y-129743910D01*
X178696331Y-129690000D01*
X178696017Y-129335000D01*
X183210824Y-129335000D01*
X183317869Y-129442045D01*
M02*
